M48
; DRILL file {KiCad 9.0.7-9.0.7~ubuntu24.04.1} date 2026-02-02T10:07:02-0800
; FORMAT={-:-/ absolute / metric / decimal}
; #@! TF.CreationDate,2026-02-02T10:07:02-08:00
; #@! TF.GenerationSoftware,Kicad,Pcbnew,9.0.7-9.0.7~ubuntu24.04.1
; #@! TF.FileFunction,Plated,1,4,PTH
FMAT,2
METRIC
; #@! TA.AperFunction,Plated,PTH,ViaDrill
T1C0.300
; #@! TA.AperFunction,Plated,PTH,ComponentDrill
T2C0.300
; #@! TA.AperFunction,Plated,PTH,ComponentDrill
T3C0.700
; #@! TA.AperFunction,Plated,PTH,ComponentDrill
T4C1.000
; #@! TA.AperFunction,Plated,PTH,ComponentDrill
T5C1.020
; #@! TA.AperFunction,Plated,PTH,ComponentDrill
T6C1.270
; #@! TA.AperFunction,Plated,PTH,ComponentDrill
T7C1.524
%
G90
G05
T1
X105.751Y-89.449
X107.149Y-114.692
X107.516Y-116.395
X107.758Y-115.67
X108.255Y-114.276
X108.34Y-84.92
X108.526Y-115.013
X108.606Y-115.623
X109.883Y-113.77
X109.944Y-115.611
X118.54Y-124.1
X128.409Y-101.903
T2
X150.31Y-54.05
X150.31Y-56.05
X150.31Y-58.05
X152.31Y-54.05
X152.31Y-56.05
X152.31Y-58.05
X154.31Y-54.05
X154.31Y-56.05
X154.31Y-58.05
T3
X102.46Y-90.74
X103.1Y-109.56
X106.69Y-109.625
X110.82Y-109.535
X115.4Y-109.95
X118.11Y-90.56
X120.06Y-68.29
X120.11Y-73.13
X123.6Y-94.22
X129.82Y-120.73
X130.57Y-128.12
X154.66Y-128.96
X156.61Y-106.68
X156.75Y-102.07
X156.76Y-97.33
X174.31Y-32.35
T4
X119.48Y-115.08
X122.02Y-115.08
X124.56Y-115.08
X127.1Y-115.08
X137.31Y-32.606
X137.31Y-35.146
X137.31Y-37.686
X137.31Y-40.226
X137.31Y-42.766
X137.31Y-45.306
X137.31Y-47.846
X137.31Y-50.386
X137.31Y-52.926
X137.31Y-55.466
X137.31Y-58.006
X137.31Y-60.546
X137.31Y-63.086
X137.31Y-65.626
X137.31Y-68.166
X137.31Y-70.706
X137.31Y-73.246
X137.31Y-75.786
X137.31Y-78.326
X137.31Y-80.866
X139.85Y-32.606
X139.85Y-35.146
X139.85Y-37.686
X139.85Y-40.226
X139.85Y-42.766
X139.85Y-45.306
X139.85Y-47.846
X139.85Y-50.386
X139.85Y-52.926
X139.85Y-55.466
X139.85Y-58.006
X139.85Y-60.546
X139.85Y-63.086
X139.85Y-65.626
X139.85Y-68.166
X139.85Y-70.706
X139.85Y-73.246
X139.85Y-75.786
X139.85Y-78.326
X139.85Y-80.866
X144.4Y-32.6
X144.4Y-35.14
X144.4Y-37.68
X144.4Y-40.22
X144.4Y-42.76
X144.4Y-45.3
X144.4Y-47.84
X144.4Y-50.38
X144.4Y-52.92
X144.4Y-55.46
X144.4Y-58.0
X144.4Y-60.54
X144.4Y-63.08
X144.4Y-65.62
X144.4Y-68.16
X144.4Y-70.7
X144.4Y-73.24
X144.4Y-75.78
X144.4Y-78.32
X144.4Y-80.86
X150.65Y-126.21
X150.65Y-128.75
X159.34Y-32.79
X162.18Y-32.6
X162.18Y-35.14
X162.18Y-37.68
X162.18Y-40.22
X162.18Y-42.76
X162.18Y-45.3
X162.18Y-47.84
X162.18Y-50.38
X162.18Y-52.92
X162.18Y-55.46
X162.18Y-58.0
X162.18Y-60.54
X162.18Y-63.08
X162.18Y-65.62
X162.18Y-68.16
X162.18Y-70.7
X162.18Y-73.24
X162.18Y-75.78
X162.18Y-78.32
X162.18Y-80.86
X166.68Y-32.58
X166.68Y-35.12
X166.68Y-37.66
X166.68Y-40.2
X166.68Y-42.74
X166.68Y-45.28
X166.68Y-47.82
X166.68Y-50.36
X166.68Y-52.9
X166.68Y-55.44
X166.68Y-57.98
X166.68Y-60.52
X166.68Y-63.06
X166.68Y-65.6
X166.68Y-68.14
X166.68Y-70.68
X166.68Y-73.22
X166.68Y-75.76
X166.68Y-78.3
X166.68Y-80.84
X169.22Y-32.58
X169.22Y-35.12
X169.22Y-37.66
X169.22Y-40.2
X169.22Y-42.74
X169.22Y-45.28
X169.22Y-47.82
X169.22Y-50.36
X169.22Y-52.9
X169.22Y-55.44
X169.22Y-57.98
X169.22Y-60.52
X169.22Y-63.06
X169.22Y-65.6
X169.22Y-68.14
X169.22Y-70.68
X169.22Y-73.22
X169.22Y-75.76
X169.22Y-78.3
X169.22Y-80.84
T5
X144.4Y-32.6
X144.4Y-35.14
X144.4Y-37.68
X144.4Y-40.22
X144.4Y-42.76
X144.4Y-45.3
X144.4Y-47.84
X144.4Y-50.38
X144.4Y-52.92
X144.4Y-55.46
X144.4Y-58.0
X144.4Y-60.54
X144.4Y-63.08
X144.4Y-65.62
X144.4Y-68.16
X144.4Y-70.7
X144.4Y-73.24
X144.4Y-75.78
X144.4Y-78.32
X144.4Y-80.86
X150.75Y-80.63
X153.29Y-80.63
X155.83Y-80.63
X162.18Y-32.6
X162.18Y-35.14
X162.18Y-37.68
X162.18Y-40.22
X162.18Y-42.76
X162.18Y-45.3
X162.18Y-47.84
X162.18Y-50.38
X162.18Y-52.92
X162.18Y-55.46
X162.18Y-58.0
X162.18Y-60.54
X162.18Y-63.08
X162.18Y-65.62
X162.18Y-68.16
X162.18Y-70.7
X162.18Y-73.24
X162.18Y-75.78
X162.18Y-78.32
X162.18Y-80.86
T6
X107.005Y-124.815
X148.805Y-101.925
T7
X103.83Y-121.64
X103.83Y-127.99
X110.18Y-121.64
X110.18Y-127.99
X145.63Y-98.75
X145.63Y-105.1
X151.98Y-98.75
X151.98Y-105.1
M30
