%TF.GenerationSoftware,KiCad,Pcbnew,9.0.7-9.0.7~ubuntu24.04.1*%
%TF.CreationDate,2026-02-02T10:07:16-08:00*%
%TF.ProjectId,Frohne,46726f68-6e65-42e6-9b69-6361645f7063,rev?*%
%TF.SameCoordinates,Original*%
%TF.FileFunction,Paste,Top*%
%TF.FilePolarity,Positive*%
%FSLAX46Y46*%
G04 Gerber Fmt 4.6, Leading zero omitted, Abs format (unit mm)*
G04 Created by KiCad (PCBNEW 9.0.7-9.0.7~ubuntu24.04.1) date 2026-02-02 10:07:16*
%MOMM*%
%LPD*%
G01*
G04 APERTURE LIST*
G04 Aperture macros list*
%AMRoundRect*
0 Rectangle with rounded corners*
0 $1 Rounding radius*
0 $2 $3 $4 $5 $6 $7 $8 $9 X,Y pos of 4 corners*
0 Add a 4 corners polygon primitive as box body*
4,1,4,$2,$3,$4,$5,$6,$7,$8,$9,$2,$3,0*
0 Add four circle primitives for the rounded corners*
1,1,$1+$1,$2,$3*
1,1,$1+$1,$4,$5*
1,1,$1+$1,$6,$7*
1,1,$1+$1,$8,$9*
0 Add four rect primitives between the rounded corners*
20,1,$1+$1,$2,$3,$4,$5,0*
20,1,$1+$1,$4,$5,$6,$7,0*
20,1,$1+$1,$6,$7,$8,$9,0*
20,1,$1+$1,$8,$9,$2,$3,0*%
G04 Aperture macros list end*
%ADD10RoundRect,0.248780X0.451220X-0.261220X0.451220X0.261220X-0.451220X0.261220X-0.451220X-0.261220X0*%
%ADD11RoundRect,0.248780X0.261220X0.451220X-0.261220X0.451220X-0.261220X-0.451220X0.261220X-0.451220X0*%
%ADD12RoundRect,0.250000X0.250000X0.475000X-0.250000X0.475000X-0.250000X-0.475000X0.250000X-0.475000X0*%
%ADD13RoundRect,0.250000X0.650000X-0.425000X0.650000X0.425000X-0.650000X0.425000X-0.650000X-0.425000X0*%
%ADD14RoundRect,0.250000X0.425000X-1.150000X0.425000X1.150000X-0.425000X1.150000X-0.425000X-1.150000X0*%
%ADD15RoundRect,0.250000X0.500000X-1.150000X0.500000X1.150000X-0.500000X1.150000X-0.500000X-1.150000X0*%
%ADD16RoundRect,0.250000X2.750000X-3.000000X2.750000X3.000000X-2.750000X3.000000X-2.750000X-3.000000X0*%
%ADD17RoundRect,0.248780X-0.261220X-0.451220X0.261220X-0.451220X0.261220X0.451220X-0.261220X0.451220X0*%
%ADD18RoundRect,0.225000X0.250000X-0.225000X0.250000X0.225000X-0.250000X0.225000X-0.250000X-0.225000X0*%
%ADD19RoundRect,0.250000X-0.250000X-0.475000X0.250000X-0.475000X0.250000X0.475000X-0.250000X0.475000X0*%
%ADD20RoundRect,0.248780X-0.451220X0.261220X-0.451220X-0.261220X0.451220X-0.261220X0.451220X0.261220X0*%
%ADD21RoundRect,0.250000X0.325000X0.650000X-0.325000X0.650000X-0.325000X-0.650000X0.325000X-0.650000X0*%
%ADD22RoundRect,0.250000X0.475000X-0.250000X0.475000X0.250000X-0.475000X0.250000X-0.475000X-0.250000X0*%
%ADD23RoundRect,0.200000X0.275000X-0.200000X0.275000X0.200000X-0.275000X0.200000X-0.275000X-0.200000X0*%
%ADD24RoundRect,0.250000X0.650000X-0.325000X0.650000X0.325000X-0.650000X0.325000X-0.650000X-0.325000X0*%
%ADD25RoundRect,0.250000X-1.000000X-0.650000X1.000000X-0.650000X1.000000X0.650000X-1.000000X0.650000X0*%
%ADD26R,1.200000X0.400000*%
%ADD27RoundRect,0.200000X-0.200000X-0.275000X0.200000X-0.275000X0.200000X0.275000X-0.200000X0.275000X0*%
%ADD28RoundRect,0.250000X-0.475000X0.250000X-0.475000X-0.250000X0.475000X-0.250000X0.475000X0.250000X0*%
%ADD29RoundRect,0.250000X-0.650000X1.000000X-0.650000X-1.000000X0.650000X-1.000000X0.650000X1.000000X0*%
%ADD30RoundRect,0.225000X-0.225000X-0.250000X0.225000X-0.250000X0.225000X0.250000X-0.225000X0.250000X0*%
%ADD31RoundRect,0.249056X-0.410944X-0.925944X0.410944X-0.925944X0.410944X0.925944X-0.410944X0.925944X0*%
%ADD32RoundRect,0.250000X0.450000X0.425000X-0.450000X0.425000X-0.450000X-0.425000X0.450000X-0.425000X0*%
%ADD33RoundRect,0.250000X-0.325000X-0.650000X0.325000X-0.650000X0.325000X0.650000X-0.325000X0.650000X0*%
%ADD34RoundRect,0.150000X0.590000X0.150000X-0.590000X0.150000X-0.590000X-0.150000X0.590000X-0.150000X0*%
%ADD35RoundRect,0.249056X0.410944X0.925944X-0.410944X0.925944X-0.410944X-0.925944X0.410944X-0.925944X0*%
%ADD36R,0.300000X1.400000*%
%ADD37RoundRect,0.150000X0.825000X0.150000X-0.825000X0.150000X-0.825000X-0.150000X0.825000X-0.150000X0*%
%ADD38RoundRect,0.220000X0.220000X0.380000X-0.220000X0.380000X-0.220000X-0.380000X0.220000X-0.380000X0*%
%ADD39R,2.200000X3.200000*%
%ADD40RoundRect,0.250000X-0.650000X0.325000X-0.650000X-0.325000X0.650000X-0.325000X0.650000X0.325000X0*%
%ADD41RoundRect,0.200000X-0.275000X0.200000X-0.275000X-0.200000X0.275000X-0.200000X0.275000X0.200000X0*%
%ADD42RoundRect,0.250000X-0.425000X0.450000X-0.425000X-0.450000X0.425000X-0.450000X0.425000X0.450000X0*%
%ADD43RoundRect,0.100000X0.100000X-0.637500X0.100000X0.637500X-0.100000X0.637500X-0.100000X-0.637500X0*%
%ADD44RoundRect,0.220000X0.380000X-0.220000X0.380000X0.220000X-0.380000X0.220000X-0.380000X-0.220000X0*%
%ADD45RoundRect,0.250000X0.425000X-0.450000X0.425000X0.450000X-0.425000X0.450000X-0.425000X-0.450000X0*%
%ADD46R,0.600000X1.000000*%
%ADD47R,0.650000X0.350000*%
%ADD48RoundRect,0.220000X-0.380000X0.220000X-0.380000X-0.220000X0.380000X-0.220000X0.380000X0.220000X0*%
%ADD49R,1.670000X0.760000*%
%ADD50RoundRect,0.250000X0.650000X-1.000000X0.650000X1.000000X-0.650000X1.000000X-0.650000X-1.000000X0*%
%ADD51RoundRect,0.250000X-0.400000X-0.300000X0.400000X-0.300000X0.400000X0.300000X-0.400000X0.300000X0*%
%ADD52RoundRect,0.250000X-0.450000X-0.425000X0.450000X-0.425000X0.450000X0.425000X-0.450000X0.425000X0*%
%ADD53RoundRect,0.150000X-0.825000X-0.150000X0.825000X-0.150000X0.825000X0.150000X-0.825000X0.150000X0*%
%ADD54RoundRect,0.220000X-0.220000X-0.380000X0.220000X-0.380000X0.220000X0.380000X-0.220000X0.380000X0*%
G04 APERTURE END LIST*
D10*
%TO.C,R1*%
X128370000Y-125790000D03*
X128370000Y-123970000D03*
%TD*%
D11*
%TO.C,R33*%
X118820000Y-65330000D03*
X117000000Y-65330000D03*
%TD*%
D10*
%TO.C,R9*%
X102800000Y-99260000D03*
X102800000Y-97440000D03*
%TD*%
%TO.C,R28*%
X151490000Y-41050000D03*
X151490000Y-39230000D03*
%TD*%
D12*
%TO.C,C29*%
X113710000Y-79130000D03*
X111810000Y-79130000D03*
%TD*%
D13*
%TO.C,S1*%
X179270000Y-58200000D03*
X179270000Y-54050000D03*
%TD*%
D14*
%TO.C,U6*%
X150020000Y-62530000D03*
D15*
X154600000Y-62530000D03*
D16*
X152330000Y-55570000D03*
%TD*%
D17*
%TO.C,R7*%
X132860000Y-123070000D03*
X134680000Y-123070000D03*
%TD*%
D18*
%TO.C,C22*%
X112030000Y-107795000D03*
X112030000Y-106235000D03*
%TD*%
D19*
%TO.C,C52*%
X102870000Y-87880000D03*
X104770000Y-87880000D03*
%TD*%
D10*
%TO.C,R37*%
X132710000Y-102620000D03*
X132710000Y-100800000D03*
%TD*%
D20*
%TO.C,R16*%
X127560000Y-81350000D03*
X127560000Y-83170000D03*
%TD*%
D21*
%TO.C,C42*%
X143830000Y-129420000D03*
X140870000Y-129420000D03*
%TD*%
D22*
%TO.C,C15*%
X132860000Y-99100000D03*
X132860000Y-97200000D03*
%TD*%
D12*
%TO.C,C38*%
X130800000Y-103940000D03*
X128900000Y-103940000D03*
%TD*%
D18*
%TO.C,C16*%
X104250000Y-107805000D03*
X104250000Y-106245000D03*
%TD*%
%TO.C,C26*%
X110770000Y-107795000D03*
X110770000Y-106235000D03*
%TD*%
D23*
%TO.C,R19*%
X101680000Y-66000000D03*
X101680000Y-64360000D03*
%TD*%
D10*
%TO.C,R12*%
X116340000Y-97360000D03*
X116340000Y-95540000D03*
%TD*%
D22*
%TO.C,C20*%
X126320000Y-129200000D03*
X126320000Y-127300000D03*
%TD*%
D23*
%TO.C,R14*%
X115340000Y-79790000D03*
X115340000Y-78150000D03*
%TD*%
D24*
%TO.C,C34*%
X126480000Y-122240000D03*
X126480000Y-119280000D03*
%TD*%
D25*
%TO.C,D1*%
X136960000Y-125890000D03*
X140960000Y-125890000D03*
%TD*%
D26*
%TO.C,U7*%
X105870000Y-112510000D03*
X105870000Y-113145000D03*
X105870000Y-113780000D03*
X105870000Y-114415000D03*
X105870000Y-115050000D03*
X105870000Y-115685000D03*
X105870000Y-116320000D03*
X105870000Y-116955000D03*
X111070000Y-116955000D03*
X111070000Y-116320000D03*
X111070000Y-115685000D03*
X111070000Y-115050000D03*
X111070000Y-114415000D03*
X111070000Y-113780000D03*
X111070000Y-113145000D03*
X111070000Y-112510000D03*
%TD*%
D20*
%TO.C,R34*%
X130750000Y-86620000D03*
X130750000Y-88440000D03*
%TD*%
D27*
%TO.C,R30*%
X109550000Y-88260000D03*
X111190000Y-88260000D03*
%TD*%
D21*
%TO.C,C5*%
X136830000Y-113470000D03*
X133870000Y-113470000D03*
%TD*%
D12*
%TO.C,C43*%
X156300000Y-65560000D03*
X154400000Y-65560000D03*
%TD*%
D10*
%TO.C,R10*%
X126320000Y-125700000D03*
X126320000Y-123880000D03*
%TD*%
D19*
%TO.C,C1*%
X113400000Y-117610000D03*
X115300000Y-117610000D03*
%TD*%
D28*
%TO.C,C11*%
X119840000Y-79360000D03*
X119840000Y-81260000D03*
%TD*%
D29*
%TO.C,D3*%
X157590000Y-58910000D03*
X157590000Y-62910000D03*
%TD*%
D18*
%TO.C,C19*%
X106790000Y-107805000D03*
X106790000Y-106245000D03*
%TD*%
D11*
%TO.C,R22*%
X117860000Y-56550000D03*
X116040000Y-56550000D03*
%TD*%
D10*
%TO.C,R21*%
X143670000Y-127290000D03*
X143670000Y-125470000D03*
%TD*%
D30*
%TO.C,C40*%
X130350000Y-115260000D03*
X131910000Y-115260000D03*
%TD*%
D22*
%TO.C,C18*%
X114360000Y-97400000D03*
X114360000Y-95500000D03*
%TD*%
D19*
%TO.C,C51*%
X102660000Y-76490000D03*
X104560000Y-76490000D03*
%TD*%
D12*
%TO.C,C4*%
X113490000Y-67670000D03*
X111590000Y-67670000D03*
%TD*%
D31*
%TO.C,C37*%
X121860000Y-109050000D03*
X124940000Y-109050000D03*
%TD*%
D18*
%TO.C,C27*%
X114520000Y-107865000D03*
X114520000Y-106305000D03*
%TD*%
D32*
%TO.C,C45*%
X122580000Y-55980000D03*
X119880000Y-55980000D03*
%TD*%
D33*
%TO.C,C35*%
X132050000Y-120400000D03*
X135010000Y-120400000D03*
%TD*%
D20*
%TO.C,R31*%
X122170000Y-65070000D03*
X122170000Y-66890000D03*
%TD*%
D17*
%TO.C,R24*%
X132960000Y-68520000D03*
X134780000Y-68520000D03*
%TD*%
D12*
%TO.C,C23*%
X115560000Y-115280000D03*
X113660000Y-115280000D03*
%TD*%
D34*
%TO.C,Q1*%
X149440000Y-41090000D03*
X149440000Y-39190000D03*
X147560000Y-40140000D03*
%TD*%
D17*
%TO.C,R17*%
X127600000Y-74790000D03*
X129420000Y-74790000D03*
%TD*%
D35*
%TO.C,C46*%
X123940000Y-53040000D03*
X120860000Y-53040000D03*
%TD*%
D17*
%TO.C,R20*%
X132850000Y-125090000D03*
X134670000Y-125090000D03*
%TD*%
%TO.C,R25*%
X132880000Y-74560000D03*
X134700000Y-74560000D03*
%TD*%
D31*
%TO.C,C36*%
X121860000Y-104700000D03*
X124940000Y-104700000D03*
%TD*%
D28*
%TO.C,C21*%
X107010000Y-90220000D03*
X107010000Y-92120000D03*
%TD*%
D36*
%TO.C,U4*%
X130850000Y-97330000D03*
X130350000Y-97330000D03*
X129850000Y-97330000D03*
X129350000Y-97330000D03*
X128850000Y-97330000D03*
X128850000Y-101730000D03*
X129350000Y-101730000D03*
X129850000Y-101730000D03*
X130350000Y-101730000D03*
X130850000Y-101730000D03*
%TD*%
D19*
%TO.C,C7*%
X122000000Y-71620000D03*
X123900000Y-71620000D03*
%TD*%
D37*
%TO.C,U1*%
X129735000Y-60015000D03*
X129735000Y-58745000D03*
X129735000Y-57475000D03*
X129735000Y-56205000D03*
X124785000Y-56205000D03*
X124785000Y-57475000D03*
X124785000Y-58745000D03*
X124785000Y-60015000D03*
%TD*%
D17*
%TO.C,R26*%
X132930000Y-72580000D03*
X134750000Y-72580000D03*
%TD*%
D12*
%TO.C,C53*%
X111800000Y-65240000D03*
X109900000Y-65240000D03*
%TD*%
D38*
%TO.C,FB7*%
X121760000Y-57940000D03*
X119640000Y-57940000D03*
%TD*%
D39*
%TO.C,J9*%
X109370000Y-57050000D03*
X107370000Y-64850000D03*
X114370000Y-64850000D03*
%TD*%
D10*
%TO.C,R23*%
X147040000Y-76830000D03*
X147040000Y-75010000D03*
%TD*%
%TO.C,R38*%
X127000000Y-102510000D03*
X127000000Y-100690000D03*
%TD*%
D33*
%TO.C,C41*%
X149760000Y-65560000D03*
X152720000Y-65560000D03*
%TD*%
D40*
%TO.C,C33*%
X118740000Y-97820000D03*
X118740000Y-100780000D03*
%TD*%
D31*
%TO.C,C17*%
X121860000Y-100350000D03*
X124940000Y-100350000D03*
%TD*%
D10*
%TO.C,R8*%
X115130000Y-100790000D03*
X115130000Y-98970000D03*
%TD*%
D12*
%TO.C,C30*%
X116100000Y-93200000D03*
X114200000Y-93200000D03*
%TD*%
D41*
%TO.C,R2*%
X125380000Y-68070000D03*
X125380000Y-69710000D03*
%TD*%
D42*
%TO.C,C9*%
X121570000Y-85580000D03*
X121570000Y-88280000D03*
%TD*%
D43*
%TO.C,U2*%
X121700000Y-80985000D03*
X122350000Y-80985000D03*
X123000000Y-80985000D03*
X123650000Y-80985000D03*
X124300000Y-80985000D03*
X124950000Y-80985000D03*
X125600000Y-80985000D03*
X125600000Y-75260000D03*
X124950000Y-75260000D03*
X124300000Y-75260000D03*
X123650000Y-75260000D03*
X123000000Y-75260000D03*
X122350000Y-75260000D03*
X121700000Y-75260000D03*
%TD*%
D20*
%TO.C,R15*%
X147570000Y-70520000D03*
X147570000Y-72340000D03*
%TD*%
D10*
%TO.C,R35*%
X128680000Y-88390000D03*
X128680000Y-86570000D03*
%TD*%
D12*
%TO.C,C12*%
X122730000Y-59870000D03*
X120830000Y-59870000D03*
%TD*%
D17*
%TO.C,R27*%
X132990000Y-70550000D03*
X134810000Y-70550000D03*
%TD*%
D40*
%TO.C,C2*%
X159220000Y-36860000D03*
X159220000Y-39820000D03*
%TD*%
D19*
%TO.C,C31*%
X103340000Y-103370000D03*
X105240000Y-103370000D03*
%TD*%
D38*
%TO.C,FB5*%
X134620000Y-127180000D03*
X132500000Y-127180000D03*
%TD*%
D17*
%TO.C,R6*%
X132240000Y-117580000D03*
X134060000Y-117580000D03*
%TD*%
D44*
%TO.C,FB4*%
X132800000Y-95610000D03*
X132800000Y-93490000D03*
%TD*%
D45*
%TO.C,C44*%
X117500000Y-79200000D03*
X117500000Y-76500000D03*
%TD*%
D18*
%TO.C,C25*%
X108050000Y-107805000D03*
X108050000Y-106245000D03*
%TD*%
%TO.C,C14*%
X102950000Y-107805000D03*
X102950000Y-106245000D03*
%TD*%
D11*
%TO.C,R5*%
X131980000Y-113560000D03*
X130160000Y-113560000D03*
%TD*%
D46*
%TO.C,e1*%
X130400000Y-108570000D03*
X130400000Y-109770000D03*
X131175000Y-108570000D03*
X131175000Y-109770000D03*
D47*
X129237500Y-108195000D03*
X129237500Y-108845000D03*
X129237500Y-109495000D03*
X129237500Y-110145000D03*
X132337500Y-110145000D03*
X132337500Y-109495000D03*
X132337500Y-108845000D03*
X132337500Y-108195000D03*
%TD*%
D10*
%TO.C,R29*%
X175210000Y-57825000D03*
X175210000Y-56005000D03*
%TD*%
D12*
%TO.C,C49*%
X114270000Y-56560000D03*
X112370000Y-56560000D03*
%TD*%
D17*
%TO.C,R18*%
X127590000Y-76770000D03*
X129410000Y-76770000D03*
%TD*%
D28*
%TO.C,C32*%
X130380000Y-123950000D03*
X130380000Y-125850000D03*
%TD*%
D10*
%TO.C,R36*%
X132020000Y-91950000D03*
X132020000Y-90130000D03*
%TD*%
D19*
%TO.C,C6*%
X125550000Y-71730000D03*
X127450000Y-71730000D03*
%TD*%
D10*
%TO.C,R4*%
X128350000Y-129190000D03*
X128350000Y-127370000D03*
%TD*%
D48*
%TO.C,FB2*%
X137470000Y-121190000D03*
X137470000Y-123310000D03*
%TD*%
D49*
%TO.C,TR1*%
X115368000Y-119145000D03*
X115368000Y-120415000D03*
X115368000Y-121685000D03*
X115368000Y-125495000D03*
X115368000Y-126765000D03*
X115368000Y-128035000D03*
X123898000Y-128035000D03*
X123898000Y-126765000D03*
X123898000Y-125495000D03*
X123898000Y-121685000D03*
X123898000Y-120415000D03*
X123898000Y-119145000D03*
%TD*%
D12*
%TO.C,C55*%
X136430000Y-111180000D03*
X134530000Y-111180000D03*
%TD*%
D10*
%TO.C,R32*%
X118900000Y-54080000D03*
X118900000Y-52260000D03*
%TD*%
D35*
%TO.C,C47*%
X124320000Y-62640000D03*
X121240000Y-62640000D03*
%TD*%
D10*
%TO.C,R13*%
X102810000Y-95760000D03*
X102810000Y-93940000D03*
%TD*%
D38*
%TO.C,FB1*%
X130960000Y-105880000D03*
X128840000Y-105880000D03*
%TD*%
D19*
%TO.C,C13*%
X120320000Y-83260000D03*
X122220000Y-83260000D03*
%TD*%
D20*
%TO.C,R11*%
X118810000Y-94220000D03*
X118810000Y-96040000D03*
%TD*%
D50*
%TO.C,D2*%
X146770000Y-129120000D03*
X146770000Y-125120000D03*
%TD*%
D51*
%TO.C,X1*%
X127820000Y-91780000D03*
X129920000Y-91780000D03*
X129920000Y-90130000D03*
X127820000Y-90130000D03*
%TD*%
D12*
%TO.C,C3*%
X118050000Y-67730000D03*
X116150000Y-67730000D03*
%TD*%
D18*
%TO.C,C24*%
X115930000Y-107970000D03*
X115930000Y-106410000D03*
%TD*%
D19*
%TO.C,C48*%
X127940000Y-93860000D03*
X129840000Y-93860000D03*
%TD*%
D32*
%TO.C,C39*%
X160080000Y-42780000D03*
X157380000Y-42780000D03*
%TD*%
D39*
%TO.C,J1*%
X109340000Y-68340000D03*
X107340000Y-76140000D03*
X114340000Y-76140000D03*
%TD*%
D19*
%TO.C,C50*%
X103100000Y-65210000D03*
X105000000Y-65210000D03*
%TD*%
D52*
%TO.C,C8*%
X124000000Y-85440000D03*
X126700000Y-85440000D03*
%TD*%
D44*
%TO.C,FB6*%
X136610000Y-118330000D03*
X136610000Y-116210000D03*
%TD*%
D37*
%TO.C,U5*%
X112230000Y-103540000D03*
X112230000Y-102270000D03*
X112230000Y-101000000D03*
X112230000Y-99730000D03*
X107280000Y-99730000D03*
X107280000Y-101000000D03*
X107280000Y-102270000D03*
X107280000Y-103540000D03*
%TD*%
D12*
%TO.C,C10*%
X125720000Y-83360000D03*
X123820000Y-83360000D03*
%TD*%
D53*
%TO.C,U8*%
X107170000Y-93920000D03*
X107170000Y-95190000D03*
X107170000Y-96460000D03*
X107170000Y-97730000D03*
X112120000Y-97730000D03*
X112120000Y-96460000D03*
X112120000Y-95190000D03*
X112120000Y-93920000D03*
%TD*%
D41*
%TO.C,R3*%
X122610000Y-68160000D03*
X122610000Y-69800000D03*
%TD*%
D22*
%TO.C,C28*%
X104830000Y-95830000D03*
X104830000Y-93930000D03*
%TD*%
D54*
%TO.C,FB3*%
X113490000Y-113290000D03*
X115610000Y-113290000D03*
%TD*%
D39*
%TO.C,J12*%
X109330000Y-79620000D03*
X107330000Y-87420000D03*
X114330000Y-87420000D03*
%TD*%
M02*
