M48
; DRILL file {KiCad 9.0.7-9.0.7~ubuntu24.04.1} date 2026-02-03T19:31:45-0800
; FORMAT={-:-/ absolute / metric / decimal}
; #@! TF.CreationDate,2026-02-03T19:31:45-08:00
; #@! TF.GenerationSoftware,Kicad,Pcbnew,9.0.7-9.0.7~ubuntu24.04.1
; #@! TF.FileFunction,Plated,1,4,PTH
FMAT,2
METRIC
; #@! TA.AperFunction,Plated,PTH,ViaDrill
T1C0.300
; #@! TA.AperFunction,Plated,PTH,ComponentDrill
T2C0.300
; #@! TA.AperFunction,Plated,PTH,ComponentDrill
T3C0.700
; #@! TA.AperFunction,Plated,PTH,ComponentDrill
T4C1.000
; #@! TA.AperFunction,Plated,PTH,ComponentDrill
T5C1.020
; #@! TA.AperFunction,Plated,PTH,ComponentDrill
T6C1.270
; #@! TA.AperFunction,Plated,PTH,ComponentDrill
T7C1.524
%
G90
G05
T1
X101.94Y-87.64
X102.24Y-77.5
X102.48Y-64.43
X103.27Y-63.83
X103.46Y-104.52
X103.57Y-106.16
X103.91Y-65.27
X104.002Y-75.216
X105.07Y-77.82
X105.25Y-64.12
X105.38Y-60.4
X105.751Y-89.449
X105.9Y-117.54
X105.92Y-111.92
X106.08Y-104.1
X107.149Y-114.692
X107.37Y-106.245
X107.516Y-116.395
X107.758Y-115.67
X108.255Y-114.276
X108.34Y-84.92
X108.526Y-115.013
X108.606Y-115.623
X108.72Y-97.8
X109.83Y-64.18
X109.868Y-113.915
X109.944Y-115.611
X109.96Y-113.07
X110.84Y-99.98
X111.16Y-83.48
X111.42Y-106.235
X112.04Y-87.57
X112.13Y-57.9
X112.13Y-75.59
X112.66Y-112.23
X112.88Y-74.0
X113.48Y-93.92
X113.87Y-67.43
X114.02Y-112.29
X114.19Y-92.05
X114.59Y-115.24
X115.21Y-106.305
X116.2Y-92.11
X116.62Y-113.2
X117.1Y-67.9
X117.45Y-77.62
X117.82Y-127.07
X118.54Y-124.1
X118.63Y-101.89
X118.65Y-93.16
X119.0Y-56.61
X119.32Y-58.86
X119.32Y-83.25
X119.8Y-124.13
X119.81Y-76.17
X120.38Y-86.3
X121.02Y-55.94
X121.03Y-79.35
X121.1Y-98.55
X121.16Y-102.26
X121.47Y-89.62
X121.66Y-67.76
X121.86Y-106.25
X121.86Y-106.92
X121.86Y-107.67
X122.32Y-103.13
X122.39Y-79.86
X122.98Y-100.66
X123.12Y-71.6
X123.12Y-74.02
X123.34Y-115.08
X123.48Y-115.92
X123.77Y-109.32
X123.8Y-79.77
X123.82Y-84.45
X123.85Y-104.92
X124.32Y-76.36
X124.609Y-79.877
X124.94Y-83.36
X125.75Y-85.44
X126.09Y-57.51
X126.41Y-120.51
X126.65Y-69.5
X127.43Y-129.19
X127.94Y-90.95
X128.38Y-60.53
X128.409Y-101.903
X128.42Y-59.43
X128.65Y-83.16
X129.39Y-123.97
X129.46Y-78.17
X129.92Y-92.83
X129.927Y-102.849
X129.95Y-105.17
X130.0Y-104.33
X130.12Y-106.17
X130.14Y-80.69
X130.411Y-68.56
X130.81Y-110.71
X130.989Y-105.092
X131.51Y-73.9
X131.57Y-58.06
X131.63Y-65.63
X131.68Y-103.91
X131.79Y-99.24
X131.79Y-126.15
X132.37Y-67.51
X132.85Y-94.36
X133.09Y-108.84
X133.177Y-117.65
X133.55Y-111.17
X133.83Y-106.11
X133.84Y-120.47
X133.927Y-70.67
X134.52Y-73.24
X135.01Y-113.7
X135.34Y-111.21
X137.39Y-84.16
X138.84Y-85.16
X139.63Y-129.44
X146.08Y-38.91
X146.732Y-84.185
X146.82Y-37.46
X147.04Y-77.76
X147.06Y-85.06
X148.183Y-70.522
X152.28Y-59.13
X152.46Y-39.23
X152.69Y-64.36
X154.39Y-64.43
X156.4Y-41.9
X157.59Y-60.23
X157.59Y-62.91
X159.15Y-32.46
X159.18Y-38.96
X159.19Y-41.81
X160.84Y-34.14
X172.13Y-42.78
X175.19Y-58.63
X179.05Y-52.66
T2
X150.31Y-54.05
X150.31Y-56.05
X150.31Y-58.05
X152.31Y-54.05
X152.31Y-56.05
X152.31Y-58.05
X154.31Y-54.05
X154.31Y-56.05
X154.31Y-58.05
T3
X102.46Y-90.74
X103.03Y-109.84
X106.68Y-109.73
X110.84Y-109.74
X115.4Y-109.95
X118.11Y-90.56
X120.06Y-68.29
X120.11Y-73.13
X123.6Y-94.22
X123.74Y-97.15
X126.72Y-98.65
X129.82Y-120.73
X130.57Y-128.12
X134.97Y-100.84
X154.66Y-128.96
X174.31Y-32.35
T4
X119.48Y-115.08
X122.02Y-115.08
X124.56Y-115.08
X127.1Y-115.08
X137.31Y-32.606
X137.31Y-35.146
X137.31Y-37.686
X137.31Y-40.226
X137.31Y-42.766
X137.31Y-45.306
X137.31Y-47.846
X137.31Y-50.386
X137.31Y-52.926
X137.31Y-55.466
X137.31Y-58.006
X137.31Y-60.546
X137.31Y-63.086
X137.31Y-65.626
X137.31Y-68.166
X137.31Y-70.706
X137.31Y-73.246
X137.31Y-75.786
X137.31Y-78.326
X137.31Y-80.866
X139.85Y-32.606
X139.85Y-35.146
X139.85Y-37.686
X139.85Y-40.226
X139.85Y-42.766
X139.85Y-45.306
X139.85Y-47.846
X139.85Y-50.386
X139.85Y-52.926
X139.85Y-55.466
X139.85Y-58.006
X139.85Y-60.546
X139.85Y-63.086
X139.85Y-65.626
X139.85Y-68.166
X139.85Y-70.706
X139.85Y-73.246
X139.85Y-75.786
X139.85Y-78.326
X139.85Y-80.866
X144.4Y-32.6
X144.4Y-35.14
X144.4Y-37.68
X144.4Y-40.22
X144.4Y-42.76
X144.4Y-45.3
X144.4Y-47.84
X144.4Y-50.38
X144.4Y-52.92
X144.4Y-55.46
X144.4Y-58.0
X144.4Y-60.54
X144.4Y-63.08
X144.4Y-65.62
X144.4Y-68.16
X144.4Y-70.7
X144.4Y-73.24
X144.4Y-75.78
X144.4Y-78.32
X144.4Y-80.86
X147.83Y-33.29
X150.65Y-126.21
X150.65Y-128.75
X162.18Y-32.6
X162.18Y-35.14
X162.18Y-37.68
X162.18Y-40.22
X162.18Y-42.76
X162.18Y-45.3
X162.18Y-47.84
X162.18Y-50.38
X162.18Y-52.92
X162.18Y-55.46
X162.18Y-58.0
X162.18Y-60.54
X162.18Y-63.08
X162.18Y-65.62
X162.18Y-68.16
X162.18Y-70.7
X162.18Y-73.24
X162.18Y-75.78
X162.18Y-78.32
X162.18Y-80.86
X166.68Y-32.58
X166.68Y-35.12
X166.68Y-37.66
X166.68Y-40.2
X166.68Y-42.74
X166.68Y-45.28
X166.68Y-47.82
X166.68Y-50.36
X166.68Y-52.9
X166.68Y-55.44
X166.68Y-57.98
X166.68Y-60.52
X166.68Y-63.06
X166.68Y-65.6
X166.68Y-68.14
X166.68Y-70.68
X166.68Y-73.22
X166.68Y-75.76
X166.68Y-78.3
X166.68Y-80.84
X169.22Y-32.58
X169.22Y-35.12
X169.22Y-37.66
X169.22Y-40.2
X169.22Y-42.74
X169.22Y-45.28
X169.22Y-47.82
X169.22Y-50.36
X169.22Y-52.9
X169.22Y-55.44
X169.22Y-57.98
X169.22Y-60.52
X169.22Y-63.06
X169.22Y-65.6
X169.22Y-68.14
X169.22Y-70.68
X169.22Y-73.22
X169.22Y-75.76
X169.22Y-78.3
X169.22Y-80.84
T5
X144.4Y-32.6
X144.4Y-35.14
X144.4Y-37.68
X144.4Y-40.22
X144.4Y-42.76
X144.4Y-45.3
X144.4Y-47.84
X144.4Y-50.38
X144.4Y-52.92
X144.4Y-55.46
X144.4Y-58.0
X144.4Y-60.54
X144.4Y-63.08
X144.4Y-65.62
X144.4Y-68.16
X144.4Y-70.7
X144.4Y-73.24
X144.4Y-75.78
X144.4Y-78.32
X144.4Y-80.86
X150.75Y-80.63
X153.29Y-80.63
X155.83Y-80.63
X162.18Y-32.6
X162.18Y-35.14
X162.18Y-37.68
X162.18Y-40.22
X162.18Y-42.76
X162.18Y-45.3
X162.18Y-47.84
X162.18Y-50.38
X162.18Y-52.92
X162.18Y-55.46
X162.18Y-58.0
X162.18Y-60.54
X162.18Y-63.08
X162.18Y-65.62
X162.18Y-68.16
X162.18Y-70.7
X162.18Y-73.24
X162.18Y-75.78
X162.18Y-78.32
X162.18Y-80.86
T6
X107.005Y-124.815
X144.705Y-101.395
T7
X103.83Y-121.64
X103.83Y-127.99
X110.18Y-121.64
X110.18Y-127.99
X141.53Y-98.22
X141.53Y-104.57
X147.88Y-98.22
X147.88Y-104.57
M30
