%TF.GenerationSoftware,KiCad,Pcbnew,9.0.7-9.0.7~ubuntu24.04.1*%
%TF.CreationDate,2026-02-02T10:07:16-08:00*%
%TF.ProjectId,Frohne,46726f68-6e65-42e6-9b69-6361645f7063,rev?*%
%TF.SameCoordinates,Original*%
%TF.FileFunction,Legend,Bot*%
%TF.FilePolarity,Positive*%
%FSLAX46Y46*%
G04 Gerber Fmt 4.6, Leading zero omitted, Abs format (unit mm)*
G04 Created by KiCad (PCBNEW 9.0.7-9.0.7~ubuntu24.04.1) date 2026-02-02 10:07:16*
%MOMM*%
%LPD*%
G01*
G04 APERTURE LIST*
%ADD10C,0.300000*%
%ADD11C,0.150000*%
%ADD12C,0.200000*%
%ADD13C,0.120000*%
G04 APERTURE END LIST*
D10*
X160099774Y-31850510D02*
X159599774Y-33430510D01*
X159599774Y-33430510D02*
X159099774Y-31850510D01*
X158099775Y-32602891D02*
X157885489Y-32678129D01*
X157885489Y-32678129D02*
X157814060Y-32753367D01*
X157814060Y-32753367D02*
X157742632Y-32903843D01*
X157742632Y-32903843D02*
X157742632Y-33129557D01*
X157742632Y-33129557D02*
X157814060Y-33280033D01*
X157814060Y-33280033D02*
X157885489Y-33355272D01*
X157885489Y-33355272D02*
X158028346Y-33430510D01*
X158028346Y-33430510D02*
X158599775Y-33430510D01*
X158599775Y-33430510D02*
X158599775Y-31850510D01*
X158599775Y-31850510D02*
X158099775Y-31850510D01*
X158099775Y-31850510D02*
X157956918Y-31925748D01*
X157956918Y-31925748D02*
X157885489Y-32000986D01*
X157885489Y-32000986D02*
X157814060Y-32151462D01*
X157814060Y-32151462D02*
X157814060Y-32301938D01*
X157814060Y-32301938D02*
X157885489Y-32452414D01*
X157885489Y-32452414D02*
X157956918Y-32527652D01*
X157956918Y-32527652D02*
X158099775Y-32602891D01*
X158099775Y-32602891D02*
X158599775Y-32602891D01*
X157099775Y-31850510D02*
X157099775Y-33129557D01*
X157099775Y-33129557D02*
X157028346Y-33280033D01*
X157028346Y-33280033D02*
X156956918Y-33355272D01*
X156956918Y-33355272D02*
X156814060Y-33430510D01*
X156814060Y-33430510D02*
X156528346Y-33430510D01*
X156528346Y-33430510D02*
X156385489Y-33355272D01*
X156385489Y-33355272D02*
X156314060Y-33280033D01*
X156314060Y-33280033D02*
X156242632Y-33129557D01*
X156242632Y-33129557D02*
X156242632Y-31850510D01*
X155599774Y-33355272D02*
X155385489Y-33430510D01*
X155385489Y-33430510D02*
X155028346Y-33430510D01*
X155028346Y-33430510D02*
X154885489Y-33355272D01*
X154885489Y-33355272D02*
X154814060Y-33280033D01*
X154814060Y-33280033D02*
X154742631Y-33129557D01*
X154742631Y-33129557D02*
X154742631Y-32979081D01*
X154742631Y-32979081D02*
X154814060Y-32828605D01*
X154814060Y-32828605D02*
X154885489Y-32753367D01*
X154885489Y-32753367D02*
X155028346Y-32678129D01*
X155028346Y-32678129D02*
X155314060Y-32602891D01*
X155314060Y-32602891D02*
X155456917Y-32527652D01*
X155456917Y-32527652D02*
X155528346Y-32452414D01*
X155528346Y-32452414D02*
X155599774Y-32301938D01*
X155599774Y-32301938D02*
X155599774Y-32151462D01*
X155599774Y-32151462D02*
X155528346Y-32000986D01*
X155528346Y-32000986D02*
X155456917Y-31925748D01*
X155456917Y-31925748D02*
X155314060Y-31850510D01*
X155314060Y-31850510D02*
X154956917Y-31850510D01*
X154956917Y-31850510D02*
X154742631Y-31925748D01*
X160099774Y-34394222D02*
X159599774Y-35974222D01*
X159599774Y-35974222D02*
X159099774Y-34394222D01*
X158671203Y-35898984D02*
X158456918Y-35974222D01*
X158456918Y-35974222D02*
X158099775Y-35974222D01*
X158099775Y-35974222D02*
X157956918Y-35898984D01*
X157956918Y-35898984D02*
X157885489Y-35823745D01*
X157885489Y-35823745D02*
X157814060Y-35673269D01*
X157814060Y-35673269D02*
X157814060Y-35522793D01*
X157814060Y-35522793D02*
X157885489Y-35372317D01*
X157885489Y-35372317D02*
X157956918Y-35297079D01*
X157956918Y-35297079D02*
X158099775Y-35221841D01*
X158099775Y-35221841D02*
X158385489Y-35146603D01*
X158385489Y-35146603D02*
X158528346Y-35071364D01*
X158528346Y-35071364D02*
X158599775Y-34996126D01*
X158599775Y-34996126D02*
X158671203Y-34845650D01*
X158671203Y-34845650D02*
X158671203Y-34695174D01*
X158671203Y-34695174D02*
X158599775Y-34544698D01*
X158599775Y-34544698D02*
X158528346Y-34469460D01*
X158528346Y-34469460D02*
X158385489Y-34394222D01*
X158385489Y-34394222D02*
X158028346Y-34394222D01*
X158028346Y-34394222D02*
X157814060Y-34469460D01*
X156885489Y-35221841D02*
X156885489Y-35974222D01*
X157385489Y-34394222D02*
X156885489Y-35221841D01*
X156885489Y-35221841D02*
X156385489Y-34394222D01*
X155956918Y-35898984D02*
X155742633Y-35974222D01*
X155742633Y-35974222D02*
X155385490Y-35974222D01*
X155385490Y-35974222D02*
X155242633Y-35898984D01*
X155242633Y-35898984D02*
X155171204Y-35823745D01*
X155171204Y-35823745D02*
X155099775Y-35673269D01*
X155099775Y-35673269D02*
X155099775Y-35522793D01*
X155099775Y-35522793D02*
X155171204Y-35372317D01*
X155171204Y-35372317D02*
X155242633Y-35297079D01*
X155242633Y-35297079D02*
X155385490Y-35221841D01*
X155385490Y-35221841D02*
X155671204Y-35146603D01*
X155671204Y-35146603D02*
X155814061Y-35071364D01*
X155814061Y-35071364D02*
X155885490Y-34996126D01*
X155885490Y-34996126D02*
X155956918Y-34845650D01*
X155956918Y-34845650D02*
X155956918Y-34695174D01*
X155956918Y-34695174D02*
X155885490Y-34544698D01*
X155885490Y-34544698D02*
X155814061Y-34469460D01*
X155814061Y-34469460D02*
X155671204Y-34394222D01*
X155671204Y-34394222D02*
X155314061Y-34394222D01*
X155314061Y-34394222D02*
X155099775Y-34469460D01*
X159099774Y-37013172D02*
X159242632Y-36937934D01*
X159242632Y-36937934D02*
X159456917Y-36937934D01*
X159456917Y-36937934D02*
X159671203Y-37013172D01*
X159671203Y-37013172D02*
X159814060Y-37163648D01*
X159814060Y-37163648D02*
X159885489Y-37314124D01*
X159885489Y-37314124D02*
X159956917Y-37615076D01*
X159956917Y-37615076D02*
X159956917Y-37840791D01*
X159956917Y-37840791D02*
X159885489Y-38141743D01*
X159885489Y-38141743D02*
X159814060Y-38292219D01*
X159814060Y-38292219D02*
X159671203Y-38442696D01*
X159671203Y-38442696D02*
X159456917Y-38517934D01*
X159456917Y-38517934D02*
X159314060Y-38517934D01*
X159314060Y-38517934D02*
X159099774Y-38442696D01*
X159099774Y-38442696D02*
X159028346Y-38367457D01*
X159028346Y-38367457D02*
X159028346Y-37840791D01*
X159028346Y-37840791D02*
X159314060Y-37840791D01*
X158385489Y-38517934D02*
X158385489Y-36937934D01*
X158385489Y-36937934D02*
X157528346Y-38517934D01*
X157528346Y-38517934D02*
X157528346Y-36937934D01*
X156814060Y-38517934D02*
X156814060Y-36937934D01*
X156814060Y-36937934D02*
X156456917Y-36937934D01*
X156456917Y-36937934D02*
X156242631Y-37013172D01*
X156242631Y-37013172D02*
X156099774Y-37163648D01*
X156099774Y-37163648D02*
X156028345Y-37314124D01*
X156028345Y-37314124D02*
X155956917Y-37615076D01*
X155956917Y-37615076D02*
X155956917Y-37840791D01*
X155956917Y-37840791D02*
X156028345Y-38141743D01*
X156028345Y-38141743D02*
X156099774Y-38292219D01*
X156099774Y-38292219D02*
X156242631Y-38442696D01*
X156242631Y-38442696D02*
X156456917Y-38517934D01*
X156456917Y-38517934D02*
X156814060Y-38517934D01*
X160028346Y-39481646D02*
X159099774Y-39481646D01*
X159099774Y-39481646D02*
X159599774Y-40083550D01*
X159599774Y-40083550D02*
X159385489Y-40083550D01*
X159385489Y-40083550D02*
X159242632Y-40158788D01*
X159242632Y-40158788D02*
X159171203Y-40234027D01*
X159171203Y-40234027D02*
X159099774Y-40384503D01*
X159099774Y-40384503D02*
X159099774Y-40760693D01*
X159099774Y-40760693D02*
X159171203Y-40911169D01*
X159171203Y-40911169D02*
X159242632Y-40986408D01*
X159242632Y-40986408D02*
X159385489Y-41061646D01*
X159385489Y-41061646D02*
X159814060Y-41061646D01*
X159814060Y-41061646D02*
X159956917Y-40986408D01*
X159956917Y-40986408D02*
X160028346Y-40911169D01*
X158671203Y-39481646D02*
X158171203Y-41061646D01*
X158171203Y-41061646D02*
X157671203Y-39481646D01*
X157314061Y-39481646D02*
X156385489Y-39481646D01*
X156385489Y-39481646D02*
X156885489Y-40083550D01*
X156885489Y-40083550D02*
X156671204Y-40083550D01*
X156671204Y-40083550D02*
X156528347Y-40158788D01*
X156528347Y-40158788D02*
X156456918Y-40234027D01*
X156456918Y-40234027D02*
X156385489Y-40384503D01*
X156385489Y-40384503D02*
X156385489Y-40760693D01*
X156385489Y-40760693D02*
X156456918Y-40911169D01*
X156456918Y-40911169D02*
X156528347Y-40986408D01*
X156528347Y-40986408D02*
X156671204Y-41061646D01*
X156671204Y-41061646D02*
X157099775Y-41061646D01*
X157099775Y-41061646D02*
X157242632Y-40986408D01*
X157242632Y-40986408D02*
X157314061Y-40911169D01*
X156099776Y-41212122D02*
X154956918Y-41212122D01*
X154599776Y-40234027D02*
X154099776Y-40234027D01*
X153885490Y-41061646D02*
X154599776Y-41061646D01*
X154599776Y-41061646D02*
X154599776Y-39481646D01*
X154599776Y-39481646D02*
X153885490Y-39481646D01*
X153242633Y-41061646D02*
X153242633Y-39481646D01*
X153242633Y-39481646D02*
X152385490Y-41061646D01*
X152385490Y-41061646D02*
X152385490Y-39481646D01*
X160028346Y-42025358D02*
X159099774Y-42025358D01*
X159099774Y-42025358D02*
X159599774Y-42627262D01*
X159599774Y-42627262D02*
X159385489Y-42627262D01*
X159385489Y-42627262D02*
X159242632Y-42702500D01*
X159242632Y-42702500D02*
X159171203Y-42777739D01*
X159171203Y-42777739D02*
X159099774Y-42928215D01*
X159099774Y-42928215D02*
X159099774Y-43304405D01*
X159099774Y-43304405D02*
X159171203Y-43454881D01*
X159171203Y-43454881D02*
X159242632Y-43530120D01*
X159242632Y-43530120D02*
X159385489Y-43605358D01*
X159385489Y-43605358D02*
X159814060Y-43605358D01*
X159814060Y-43605358D02*
X159956917Y-43530120D01*
X159956917Y-43530120D02*
X160028346Y-43454881D01*
X158671203Y-42025358D02*
X158171203Y-43605358D01*
X158171203Y-43605358D02*
X157671203Y-42025358D01*
X157314061Y-42025358D02*
X156385489Y-42025358D01*
X156385489Y-42025358D02*
X156885489Y-42627262D01*
X156885489Y-42627262D02*
X156671204Y-42627262D01*
X156671204Y-42627262D02*
X156528347Y-42702500D01*
X156528347Y-42702500D02*
X156456918Y-42777739D01*
X156456918Y-42777739D02*
X156385489Y-42928215D01*
X156385489Y-42928215D02*
X156385489Y-43304405D01*
X156385489Y-43304405D02*
X156456918Y-43454881D01*
X156456918Y-43454881D02*
X156528347Y-43530120D01*
X156528347Y-43530120D02*
X156671204Y-43605358D01*
X156671204Y-43605358D02*
X157099775Y-43605358D01*
X157099775Y-43605358D02*
X157242632Y-43530120D01*
X157242632Y-43530120D02*
X157314061Y-43454881D01*
X160099774Y-44569070D02*
X159599774Y-46149070D01*
X159599774Y-46149070D02*
X159099774Y-44569070D01*
X157742632Y-46149070D02*
X158242632Y-45396689D01*
X158599775Y-46149070D02*
X158599775Y-44569070D01*
X158599775Y-44569070D02*
X158028346Y-44569070D01*
X158028346Y-44569070D02*
X157885489Y-44644308D01*
X157885489Y-44644308D02*
X157814060Y-44719546D01*
X157814060Y-44719546D02*
X157742632Y-44870022D01*
X157742632Y-44870022D02*
X157742632Y-45095736D01*
X157742632Y-45095736D02*
X157814060Y-45246212D01*
X157814060Y-45246212D02*
X157885489Y-45321451D01*
X157885489Y-45321451D02*
X158028346Y-45396689D01*
X158028346Y-45396689D02*
X158599775Y-45396689D01*
X157099775Y-45321451D02*
X156599775Y-45321451D01*
X156385489Y-46149070D02*
X157099775Y-46149070D01*
X157099775Y-46149070D02*
X157099775Y-44569070D01*
X157099775Y-44569070D02*
X156385489Y-44569070D01*
X155242632Y-45321451D02*
X155742632Y-45321451D01*
X155742632Y-46149070D02*
X155742632Y-44569070D01*
X155742632Y-44569070D02*
X155028346Y-44569070D01*
X159099774Y-47188020D02*
X159242632Y-47112782D01*
X159242632Y-47112782D02*
X159456917Y-47112782D01*
X159456917Y-47112782D02*
X159671203Y-47188020D01*
X159671203Y-47188020D02*
X159814060Y-47338496D01*
X159814060Y-47338496D02*
X159885489Y-47488972D01*
X159885489Y-47488972D02*
X159956917Y-47789924D01*
X159956917Y-47789924D02*
X159956917Y-48015639D01*
X159956917Y-48015639D02*
X159885489Y-48316591D01*
X159885489Y-48316591D02*
X159814060Y-48467067D01*
X159814060Y-48467067D02*
X159671203Y-48617544D01*
X159671203Y-48617544D02*
X159456917Y-48692782D01*
X159456917Y-48692782D02*
X159314060Y-48692782D01*
X159314060Y-48692782D02*
X159099774Y-48617544D01*
X159099774Y-48617544D02*
X159028346Y-48542305D01*
X159028346Y-48542305D02*
X159028346Y-48015639D01*
X159028346Y-48015639D02*
X159314060Y-48015639D01*
X158385489Y-48692782D02*
X158385489Y-47112782D01*
X158385489Y-47112782D02*
X157814060Y-47112782D01*
X157814060Y-47112782D02*
X157671203Y-47188020D01*
X157671203Y-47188020D02*
X157599774Y-47263258D01*
X157599774Y-47263258D02*
X157528346Y-47413734D01*
X157528346Y-47413734D02*
X157528346Y-47639448D01*
X157528346Y-47639448D02*
X157599774Y-47789924D01*
X157599774Y-47789924D02*
X157671203Y-47865163D01*
X157671203Y-47865163D02*
X157814060Y-47940401D01*
X157814060Y-47940401D02*
X158385489Y-47940401D01*
X156956917Y-47263258D02*
X156885489Y-47188020D01*
X156885489Y-47188020D02*
X156742632Y-47112782D01*
X156742632Y-47112782D02*
X156385489Y-47112782D01*
X156385489Y-47112782D02*
X156242632Y-47188020D01*
X156242632Y-47188020D02*
X156171203Y-47263258D01*
X156171203Y-47263258D02*
X156099774Y-47413734D01*
X156099774Y-47413734D02*
X156099774Y-47564210D01*
X156099774Y-47564210D02*
X156171203Y-47789924D01*
X156171203Y-47789924D02*
X157028346Y-48692782D01*
X157028346Y-48692782D02*
X156099774Y-48692782D01*
X155242632Y-47789924D02*
X155385489Y-47714686D01*
X155385489Y-47714686D02*
X155456918Y-47639448D01*
X155456918Y-47639448D02*
X155528346Y-47488972D01*
X155528346Y-47488972D02*
X155528346Y-47413734D01*
X155528346Y-47413734D02*
X155456918Y-47263258D01*
X155456918Y-47263258D02*
X155385489Y-47188020D01*
X155385489Y-47188020D02*
X155242632Y-47112782D01*
X155242632Y-47112782D02*
X154956918Y-47112782D01*
X154956918Y-47112782D02*
X154814061Y-47188020D01*
X154814061Y-47188020D02*
X154742632Y-47263258D01*
X154742632Y-47263258D02*
X154671203Y-47413734D01*
X154671203Y-47413734D02*
X154671203Y-47488972D01*
X154671203Y-47488972D02*
X154742632Y-47639448D01*
X154742632Y-47639448D02*
X154814061Y-47714686D01*
X154814061Y-47714686D02*
X154956918Y-47789924D01*
X154956918Y-47789924D02*
X155242632Y-47789924D01*
X155242632Y-47789924D02*
X155385489Y-47865163D01*
X155385489Y-47865163D02*
X155456918Y-47940401D01*
X155456918Y-47940401D02*
X155528346Y-48090877D01*
X155528346Y-48090877D02*
X155528346Y-48391829D01*
X155528346Y-48391829D02*
X155456918Y-48542305D01*
X155456918Y-48542305D02*
X155385489Y-48617544D01*
X155385489Y-48617544D02*
X155242632Y-48692782D01*
X155242632Y-48692782D02*
X154956918Y-48692782D01*
X154956918Y-48692782D02*
X154814061Y-48617544D01*
X154814061Y-48617544D02*
X154742632Y-48542305D01*
X154742632Y-48542305D02*
X154671203Y-48391829D01*
X154671203Y-48391829D02*
X154671203Y-48090877D01*
X154671203Y-48090877D02*
X154742632Y-47940401D01*
X154742632Y-47940401D02*
X154814061Y-47865163D01*
X154814061Y-47865163D02*
X154956918Y-47789924D01*
X159956917Y-50785065D02*
X159242632Y-50785065D01*
X160099774Y-51236494D02*
X159599774Y-49656494D01*
X159599774Y-49656494D02*
X159099774Y-51236494D01*
X157814060Y-49731732D02*
X157956918Y-49656494D01*
X157956918Y-49656494D02*
X158171203Y-49656494D01*
X158171203Y-49656494D02*
X158385489Y-49731732D01*
X158385489Y-49731732D02*
X158528346Y-49882208D01*
X158528346Y-49882208D02*
X158599775Y-50032684D01*
X158599775Y-50032684D02*
X158671203Y-50333636D01*
X158671203Y-50333636D02*
X158671203Y-50559351D01*
X158671203Y-50559351D02*
X158599775Y-50860303D01*
X158599775Y-50860303D02*
X158528346Y-51010779D01*
X158528346Y-51010779D02*
X158385489Y-51161256D01*
X158385489Y-51161256D02*
X158171203Y-51236494D01*
X158171203Y-51236494D02*
X158028346Y-51236494D01*
X158028346Y-51236494D02*
X157814060Y-51161256D01*
X157814060Y-51161256D02*
X157742632Y-51086017D01*
X157742632Y-51086017D02*
X157742632Y-50559351D01*
X157742632Y-50559351D02*
X158028346Y-50559351D01*
X157099775Y-51236494D02*
X157099775Y-49656494D01*
X157099775Y-49656494D02*
X156242632Y-51236494D01*
X156242632Y-51236494D02*
X156242632Y-49656494D01*
X155528346Y-51236494D02*
X155528346Y-49656494D01*
X155528346Y-49656494D02*
X155171203Y-49656494D01*
X155171203Y-49656494D02*
X154956917Y-49731732D01*
X154956917Y-49731732D02*
X154814060Y-49882208D01*
X154814060Y-49882208D02*
X154742631Y-50032684D01*
X154742631Y-50032684D02*
X154671203Y-50333636D01*
X154671203Y-50333636D02*
X154671203Y-50559351D01*
X154671203Y-50559351D02*
X154742631Y-50860303D01*
X154742631Y-50860303D02*
X154814060Y-51010779D01*
X154814060Y-51010779D02*
X154956917Y-51161256D01*
X154956917Y-51161256D02*
X155171203Y-51236494D01*
X155171203Y-51236494D02*
X155528346Y-51236494D01*
X159099774Y-52275444D02*
X159242632Y-52200206D01*
X159242632Y-52200206D02*
X159456917Y-52200206D01*
X159456917Y-52200206D02*
X159671203Y-52275444D01*
X159671203Y-52275444D02*
X159814060Y-52425920D01*
X159814060Y-52425920D02*
X159885489Y-52576396D01*
X159885489Y-52576396D02*
X159956917Y-52877348D01*
X159956917Y-52877348D02*
X159956917Y-53103063D01*
X159956917Y-53103063D02*
X159885489Y-53404015D01*
X159885489Y-53404015D02*
X159814060Y-53554491D01*
X159814060Y-53554491D02*
X159671203Y-53704968D01*
X159671203Y-53704968D02*
X159456917Y-53780206D01*
X159456917Y-53780206D02*
X159314060Y-53780206D01*
X159314060Y-53780206D02*
X159099774Y-53704968D01*
X159099774Y-53704968D02*
X159028346Y-53629729D01*
X159028346Y-53629729D02*
X159028346Y-53103063D01*
X159028346Y-53103063D02*
X159314060Y-53103063D01*
X158385489Y-53780206D02*
X158385489Y-52200206D01*
X158385489Y-52200206D02*
X157814060Y-52200206D01*
X157814060Y-52200206D02*
X157671203Y-52275444D01*
X157671203Y-52275444D02*
X157599774Y-52350682D01*
X157599774Y-52350682D02*
X157528346Y-52501158D01*
X157528346Y-52501158D02*
X157528346Y-52726872D01*
X157528346Y-52726872D02*
X157599774Y-52877348D01*
X157599774Y-52877348D02*
X157671203Y-52952587D01*
X157671203Y-52952587D02*
X157814060Y-53027825D01*
X157814060Y-53027825D02*
X158385489Y-53027825D01*
X156956917Y-52350682D02*
X156885489Y-52275444D01*
X156885489Y-52275444D02*
X156742632Y-52200206D01*
X156742632Y-52200206D02*
X156385489Y-52200206D01*
X156385489Y-52200206D02*
X156242632Y-52275444D01*
X156242632Y-52275444D02*
X156171203Y-52350682D01*
X156171203Y-52350682D02*
X156099774Y-52501158D01*
X156099774Y-52501158D02*
X156099774Y-52651634D01*
X156099774Y-52651634D02*
X156171203Y-52877348D01*
X156171203Y-52877348D02*
X157028346Y-53780206D01*
X157028346Y-53780206D02*
X156099774Y-53780206D01*
X155599775Y-52200206D02*
X154599775Y-52200206D01*
X154599775Y-52200206D02*
X155242632Y-53780206D01*
X159099774Y-54819156D02*
X159242632Y-54743918D01*
X159242632Y-54743918D02*
X159456917Y-54743918D01*
X159456917Y-54743918D02*
X159671203Y-54819156D01*
X159671203Y-54819156D02*
X159814060Y-54969632D01*
X159814060Y-54969632D02*
X159885489Y-55120108D01*
X159885489Y-55120108D02*
X159956917Y-55421060D01*
X159956917Y-55421060D02*
X159956917Y-55646775D01*
X159956917Y-55646775D02*
X159885489Y-55947727D01*
X159885489Y-55947727D02*
X159814060Y-56098203D01*
X159814060Y-56098203D02*
X159671203Y-56248680D01*
X159671203Y-56248680D02*
X159456917Y-56323918D01*
X159456917Y-56323918D02*
X159314060Y-56323918D01*
X159314060Y-56323918D02*
X159099774Y-56248680D01*
X159099774Y-56248680D02*
X159028346Y-56173441D01*
X159028346Y-56173441D02*
X159028346Y-55646775D01*
X159028346Y-55646775D02*
X159314060Y-55646775D01*
X158385489Y-56323918D02*
X158385489Y-54743918D01*
X158385489Y-54743918D02*
X157814060Y-54743918D01*
X157814060Y-54743918D02*
X157671203Y-54819156D01*
X157671203Y-54819156D02*
X157599774Y-54894394D01*
X157599774Y-54894394D02*
X157528346Y-55044870D01*
X157528346Y-55044870D02*
X157528346Y-55270584D01*
X157528346Y-55270584D02*
X157599774Y-55421060D01*
X157599774Y-55421060D02*
X157671203Y-55496299D01*
X157671203Y-55496299D02*
X157814060Y-55571537D01*
X157814060Y-55571537D02*
X158385489Y-55571537D01*
X156956917Y-54894394D02*
X156885489Y-54819156D01*
X156885489Y-54819156D02*
X156742632Y-54743918D01*
X156742632Y-54743918D02*
X156385489Y-54743918D01*
X156385489Y-54743918D02*
X156242632Y-54819156D01*
X156242632Y-54819156D02*
X156171203Y-54894394D01*
X156171203Y-54894394D02*
X156099774Y-55044870D01*
X156099774Y-55044870D02*
X156099774Y-55195346D01*
X156099774Y-55195346D02*
X156171203Y-55421060D01*
X156171203Y-55421060D02*
X157028346Y-56323918D01*
X157028346Y-56323918D02*
X156099774Y-56323918D01*
X154814061Y-54743918D02*
X155099775Y-54743918D01*
X155099775Y-54743918D02*
X155242632Y-54819156D01*
X155242632Y-54819156D02*
X155314061Y-54894394D01*
X155314061Y-54894394D02*
X155456918Y-55120108D01*
X155456918Y-55120108D02*
X155528346Y-55421060D01*
X155528346Y-55421060D02*
X155528346Y-56022965D01*
X155528346Y-56022965D02*
X155456918Y-56173441D01*
X155456918Y-56173441D02*
X155385489Y-56248680D01*
X155385489Y-56248680D02*
X155242632Y-56323918D01*
X155242632Y-56323918D02*
X154956918Y-56323918D01*
X154956918Y-56323918D02*
X154814061Y-56248680D01*
X154814061Y-56248680D02*
X154742632Y-56173441D01*
X154742632Y-56173441D02*
X154671203Y-56022965D01*
X154671203Y-56022965D02*
X154671203Y-55646775D01*
X154671203Y-55646775D02*
X154742632Y-55496299D01*
X154742632Y-55496299D02*
X154814061Y-55421060D01*
X154814061Y-55421060D02*
X154956918Y-55345822D01*
X154956918Y-55345822D02*
X155242632Y-55345822D01*
X155242632Y-55345822D02*
X155385489Y-55421060D01*
X155385489Y-55421060D02*
X155456918Y-55496299D01*
X155456918Y-55496299D02*
X155528346Y-55646775D01*
X159028346Y-58867630D02*
X159528346Y-58115249D01*
X159885489Y-58867630D02*
X159885489Y-57287630D01*
X159885489Y-57287630D02*
X159314060Y-57287630D01*
X159314060Y-57287630D02*
X159171203Y-57362868D01*
X159171203Y-57362868D02*
X159099774Y-57438106D01*
X159099774Y-57438106D02*
X159028346Y-57588582D01*
X159028346Y-57588582D02*
X159028346Y-57814296D01*
X159028346Y-57814296D02*
X159099774Y-57964772D01*
X159099774Y-57964772D02*
X159171203Y-58040011D01*
X159171203Y-58040011D02*
X159314060Y-58115249D01*
X159314060Y-58115249D02*
X159885489Y-58115249D01*
X158385489Y-57287630D02*
X158385489Y-58566677D01*
X158385489Y-58566677D02*
X158314060Y-58717153D01*
X158314060Y-58717153D02*
X158242632Y-58792392D01*
X158242632Y-58792392D02*
X158099774Y-58867630D01*
X158099774Y-58867630D02*
X157814060Y-58867630D01*
X157814060Y-58867630D02*
X157671203Y-58792392D01*
X157671203Y-58792392D02*
X157599774Y-58717153D01*
X157599774Y-58717153D02*
X157528346Y-58566677D01*
X157528346Y-58566677D02*
X157528346Y-57287630D01*
X156814060Y-58867630D02*
X156814060Y-57287630D01*
X156814060Y-57287630D02*
X155956917Y-58867630D01*
X155956917Y-58867630D02*
X155956917Y-57287630D01*
X159099774Y-59906580D02*
X159242632Y-59831342D01*
X159242632Y-59831342D02*
X159456917Y-59831342D01*
X159456917Y-59831342D02*
X159671203Y-59906580D01*
X159671203Y-59906580D02*
X159814060Y-60057056D01*
X159814060Y-60057056D02*
X159885489Y-60207532D01*
X159885489Y-60207532D02*
X159956917Y-60508484D01*
X159956917Y-60508484D02*
X159956917Y-60734199D01*
X159956917Y-60734199D02*
X159885489Y-61035151D01*
X159885489Y-61035151D02*
X159814060Y-61185627D01*
X159814060Y-61185627D02*
X159671203Y-61336104D01*
X159671203Y-61336104D02*
X159456917Y-61411342D01*
X159456917Y-61411342D02*
X159314060Y-61411342D01*
X159314060Y-61411342D02*
X159099774Y-61336104D01*
X159099774Y-61336104D02*
X159028346Y-61260865D01*
X159028346Y-61260865D02*
X159028346Y-60734199D01*
X159028346Y-60734199D02*
X159314060Y-60734199D01*
X158385489Y-61411342D02*
X158385489Y-59831342D01*
X158385489Y-59831342D02*
X157814060Y-59831342D01*
X157814060Y-59831342D02*
X157671203Y-59906580D01*
X157671203Y-59906580D02*
X157599774Y-59981818D01*
X157599774Y-59981818D02*
X157528346Y-60132294D01*
X157528346Y-60132294D02*
X157528346Y-60358008D01*
X157528346Y-60358008D02*
X157599774Y-60508484D01*
X157599774Y-60508484D02*
X157671203Y-60583723D01*
X157671203Y-60583723D02*
X157814060Y-60658961D01*
X157814060Y-60658961D02*
X158385489Y-60658961D01*
X156956917Y-59981818D02*
X156885489Y-59906580D01*
X156885489Y-59906580D02*
X156742632Y-59831342D01*
X156742632Y-59831342D02*
X156385489Y-59831342D01*
X156385489Y-59831342D02*
X156242632Y-59906580D01*
X156242632Y-59906580D02*
X156171203Y-59981818D01*
X156171203Y-59981818D02*
X156099774Y-60132294D01*
X156099774Y-60132294D02*
X156099774Y-60282770D01*
X156099774Y-60282770D02*
X156171203Y-60508484D01*
X156171203Y-60508484D02*
X157028346Y-61411342D01*
X157028346Y-61411342D02*
X156099774Y-61411342D01*
X155528346Y-59981818D02*
X155456918Y-59906580D01*
X155456918Y-59906580D02*
X155314061Y-59831342D01*
X155314061Y-59831342D02*
X154956918Y-59831342D01*
X154956918Y-59831342D02*
X154814061Y-59906580D01*
X154814061Y-59906580D02*
X154742632Y-59981818D01*
X154742632Y-59981818D02*
X154671203Y-60132294D01*
X154671203Y-60132294D02*
X154671203Y-60282770D01*
X154671203Y-60282770D02*
X154742632Y-60508484D01*
X154742632Y-60508484D02*
X155599775Y-61411342D01*
X155599775Y-61411342D02*
X154671203Y-61411342D01*
X159099774Y-62450292D02*
X159242632Y-62375054D01*
X159242632Y-62375054D02*
X159456917Y-62375054D01*
X159456917Y-62375054D02*
X159671203Y-62450292D01*
X159671203Y-62450292D02*
X159814060Y-62600768D01*
X159814060Y-62600768D02*
X159885489Y-62751244D01*
X159885489Y-62751244D02*
X159956917Y-63052196D01*
X159956917Y-63052196D02*
X159956917Y-63277911D01*
X159956917Y-63277911D02*
X159885489Y-63578863D01*
X159885489Y-63578863D02*
X159814060Y-63729339D01*
X159814060Y-63729339D02*
X159671203Y-63879816D01*
X159671203Y-63879816D02*
X159456917Y-63955054D01*
X159456917Y-63955054D02*
X159314060Y-63955054D01*
X159314060Y-63955054D02*
X159099774Y-63879816D01*
X159099774Y-63879816D02*
X159028346Y-63804577D01*
X159028346Y-63804577D02*
X159028346Y-63277911D01*
X159028346Y-63277911D02*
X159314060Y-63277911D01*
X158385489Y-63955054D02*
X158385489Y-62375054D01*
X158385489Y-62375054D02*
X157528346Y-63955054D01*
X157528346Y-63955054D02*
X157528346Y-62375054D01*
X156814060Y-63955054D02*
X156814060Y-62375054D01*
X156814060Y-62375054D02*
X156456917Y-62375054D01*
X156456917Y-62375054D02*
X156242631Y-62450292D01*
X156242631Y-62450292D02*
X156099774Y-62600768D01*
X156099774Y-62600768D02*
X156028345Y-62751244D01*
X156028345Y-62751244D02*
X155956917Y-63052196D01*
X155956917Y-63052196D02*
X155956917Y-63277911D01*
X155956917Y-63277911D02*
X156028345Y-63578863D01*
X156028345Y-63578863D02*
X156099774Y-63729339D01*
X156099774Y-63729339D02*
X156242631Y-63879816D01*
X156242631Y-63879816D02*
X156456917Y-63955054D01*
X156456917Y-63955054D02*
X156814060Y-63955054D01*
X159099774Y-64994004D02*
X159242632Y-64918766D01*
X159242632Y-64918766D02*
X159456917Y-64918766D01*
X159456917Y-64918766D02*
X159671203Y-64994004D01*
X159671203Y-64994004D02*
X159814060Y-65144480D01*
X159814060Y-65144480D02*
X159885489Y-65294956D01*
X159885489Y-65294956D02*
X159956917Y-65595908D01*
X159956917Y-65595908D02*
X159956917Y-65821623D01*
X159956917Y-65821623D02*
X159885489Y-66122575D01*
X159885489Y-66122575D02*
X159814060Y-66273051D01*
X159814060Y-66273051D02*
X159671203Y-66423528D01*
X159671203Y-66423528D02*
X159456917Y-66498766D01*
X159456917Y-66498766D02*
X159314060Y-66498766D01*
X159314060Y-66498766D02*
X159099774Y-66423528D01*
X159099774Y-66423528D02*
X159028346Y-66348289D01*
X159028346Y-66348289D02*
X159028346Y-65821623D01*
X159028346Y-65821623D02*
X159314060Y-65821623D01*
X158385489Y-66498766D02*
X158385489Y-64918766D01*
X158385489Y-64918766D02*
X157814060Y-64918766D01*
X157814060Y-64918766D02*
X157671203Y-64994004D01*
X157671203Y-64994004D02*
X157599774Y-65069242D01*
X157599774Y-65069242D02*
X157528346Y-65219718D01*
X157528346Y-65219718D02*
X157528346Y-65445432D01*
X157528346Y-65445432D02*
X157599774Y-65595908D01*
X157599774Y-65595908D02*
X157671203Y-65671147D01*
X157671203Y-65671147D02*
X157814060Y-65746385D01*
X157814060Y-65746385D02*
X158385489Y-65746385D01*
X156956917Y-65069242D02*
X156885489Y-64994004D01*
X156885489Y-64994004D02*
X156742632Y-64918766D01*
X156742632Y-64918766D02*
X156385489Y-64918766D01*
X156385489Y-64918766D02*
X156242632Y-64994004D01*
X156242632Y-64994004D02*
X156171203Y-65069242D01*
X156171203Y-65069242D02*
X156099774Y-65219718D01*
X156099774Y-65219718D02*
X156099774Y-65370194D01*
X156099774Y-65370194D02*
X156171203Y-65595908D01*
X156171203Y-65595908D02*
X157028346Y-66498766D01*
X157028346Y-66498766D02*
X156099774Y-66498766D01*
X154671203Y-66498766D02*
X155528346Y-66498766D01*
X155099775Y-66498766D02*
X155099775Y-64918766D01*
X155099775Y-64918766D02*
X155242632Y-65144480D01*
X155242632Y-65144480D02*
X155385489Y-65294956D01*
X155385489Y-65294956D02*
X155528346Y-65370194D01*
X159099774Y-67537716D02*
X159242632Y-67462478D01*
X159242632Y-67462478D02*
X159456917Y-67462478D01*
X159456917Y-67462478D02*
X159671203Y-67537716D01*
X159671203Y-67537716D02*
X159814060Y-67688192D01*
X159814060Y-67688192D02*
X159885489Y-67838668D01*
X159885489Y-67838668D02*
X159956917Y-68139620D01*
X159956917Y-68139620D02*
X159956917Y-68365335D01*
X159956917Y-68365335D02*
X159885489Y-68666287D01*
X159885489Y-68666287D02*
X159814060Y-68816763D01*
X159814060Y-68816763D02*
X159671203Y-68967240D01*
X159671203Y-68967240D02*
X159456917Y-69042478D01*
X159456917Y-69042478D02*
X159314060Y-69042478D01*
X159314060Y-69042478D02*
X159099774Y-68967240D01*
X159099774Y-68967240D02*
X159028346Y-68892001D01*
X159028346Y-68892001D02*
X159028346Y-68365335D01*
X159028346Y-68365335D02*
X159314060Y-68365335D01*
X158385489Y-69042478D02*
X158385489Y-67462478D01*
X158385489Y-67462478D02*
X157814060Y-67462478D01*
X157814060Y-67462478D02*
X157671203Y-67537716D01*
X157671203Y-67537716D02*
X157599774Y-67612954D01*
X157599774Y-67612954D02*
X157528346Y-67763430D01*
X157528346Y-67763430D02*
X157528346Y-67989144D01*
X157528346Y-67989144D02*
X157599774Y-68139620D01*
X157599774Y-68139620D02*
X157671203Y-68214859D01*
X157671203Y-68214859D02*
X157814060Y-68290097D01*
X157814060Y-68290097D02*
X158385489Y-68290097D01*
X156956917Y-67612954D02*
X156885489Y-67537716D01*
X156885489Y-67537716D02*
X156742632Y-67462478D01*
X156742632Y-67462478D02*
X156385489Y-67462478D01*
X156385489Y-67462478D02*
X156242632Y-67537716D01*
X156242632Y-67537716D02*
X156171203Y-67612954D01*
X156171203Y-67612954D02*
X156099774Y-67763430D01*
X156099774Y-67763430D02*
X156099774Y-67913906D01*
X156099774Y-67913906D02*
X156171203Y-68139620D01*
X156171203Y-68139620D02*
X157028346Y-69042478D01*
X157028346Y-69042478D02*
X156099774Y-69042478D01*
X155171203Y-67462478D02*
X155028346Y-67462478D01*
X155028346Y-67462478D02*
X154885489Y-67537716D01*
X154885489Y-67537716D02*
X154814061Y-67612954D01*
X154814061Y-67612954D02*
X154742632Y-67763430D01*
X154742632Y-67763430D02*
X154671203Y-68064382D01*
X154671203Y-68064382D02*
X154671203Y-68440573D01*
X154671203Y-68440573D02*
X154742632Y-68741525D01*
X154742632Y-68741525D02*
X154814061Y-68892001D01*
X154814061Y-68892001D02*
X154885489Y-68967240D01*
X154885489Y-68967240D02*
X155028346Y-69042478D01*
X155028346Y-69042478D02*
X155171203Y-69042478D01*
X155171203Y-69042478D02*
X155314061Y-68967240D01*
X155314061Y-68967240D02*
X155385489Y-68892001D01*
X155385489Y-68892001D02*
X155456918Y-68741525D01*
X155456918Y-68741525D02*
X155528346Y-68440573D01*
X155528346Y-68440573D02*
X155528346Y-68064382D01*
X155528346Y-68064382D02*
X155456918Y-67763430D01*
X155456918Y-67763430D02*
X155385489Y-67612954D01*
X155385489Y-67612954D02*
X155314061Y-67537716D01*
X155314061Y-67537716D02*
X155171203Y-67462478D01*
X159099774Y-70081428D02*
X159242632Y-70006190D01*
X159242632Y-70006190D02*
X159456917Y-70006190D01*
X159456917Y-70006190D02*
X159671203Y-70081428D01*
X159671203Y-70081428D02*
X159814060Y-70231904D01*
X159814060Y-70231904D02*
X159885489Y-70382380D01*
X159885489Y-70382380D02*
X159956917Y-70683332D01*
X159956917Y-70683332D02*
X159956917Y-70909047D01*
X159956917Y-70909047D02*
X159885489Y-71209999D01*
X159885489Y-71209999D02*
X159814060Y-71360475D01*
X159814060Y-71360475D02*
X159671203Y-71510952D01*
X159671203Y-71510952D02*
X159456917Y-71586190D01*
X159456917Y-71586190D02*
X159314060Y-71586190D01*
X159314060Y-71586190D02*
X159099774Y-71510952D01*
X159099774Y-71510952D02*
X159028346Y-71435713D01*
X159028346Y-71435713D02*
X159028346Y-70909047D01*
X159028346Y-70909047D02*
X159314060Y-70909047D01*
X158385489Y-71586190D02*
X158385489Y-70006190D01*
X158385489Y-70006190D02*
X157814060Y-70006190D01*
X157814060Y-70006190D02*
X157671203Y-70081428D01*
X157671203Y-70081428D02*
X157599774Y-70156666D01*
X157599774Y-70156666D02*
X157528346Y-70307142D01*
X157528346Y-70307142D02*
X157528346Y-70532856D01*
X157528346Y-70532856D02*
X157599774Y-70683332D01*
X157599774Y-70683332D02*
X157671203Y-70758571D01*
X157671203Y-70758571D02*
X157814060Y-70833809D01*
X157814060Y-70833809D02*
X158385489Y-70833809D01*
X156099774Y-71586190D02*
X156956917Y-71586190D01*
X156528346Y-71586190D02*
X156528346Y-70006190D01*
X156528346Y-70006190D02*
X156671203Y-70231904D01*
X156671203Y-70231904D02*
X156814060Y-70382380D01*
X156814060Y-70382380D02*
X156956917Y-70457618D01*
X155385489Y-71586190D02*
X155099775Y-71586190D01*
X155099775Y-71586190D02*
X154956918Y-71510952D01*
X154956918Y-71510952D02*
X154885489Y-71435713D01*
X154885489Y-71435713D02*
X154742632Y-71209999D01*
X154742632Y-71209999D02*
X154671203Y-70909047D01*
X154671203Y-70909047D02*
X154671203Y-70307142D01*
X154671203Y-70307142D02*
X154742632Y-70156666D01*
X154742632Y-70156666D02*
X154814061Y-70081428D01*
X154814061Y-70081428D02*
X154956918Y-70006190D01*
X154956918Y-70006190D02*
X155242632Y-70006190D01*
X155242632Y-70006190D02*
X155385489Y-70081428D01*
X155385489Y-70081428D02*
X155456918Y-70156666D01*
X155456918Y-70156666D02*
X155528346Y-70307142D01*
X155528346Y-70307142D02*
X155528346Y-70683332D01*
X155528346Y-70683332D02*
X155456918Y-70833809D01*
X155456918Y-70833809D02*
X155385489Y-70909047D01*
X155385489Y-70909047D02*
X155242632Y-70984285D01*
X155242632Y-70984285D02*
X154956918Y-70984285D01*
X154956918Y-70984285D02*
X154814061Y-70909047D01*
X154814061Y-70909047D02*
X154742632Y-70833809D01*
X154742632Y-70833809D02*
X154671203Y-70683332D01*
X159099774Y-72625140D02*
X159242632Y-72549902D01*
X159242632Y-72549902D02*
X159456917Y-72549902D01*
X159456917Y-72549902D02*
X159671203Y-72625140D01*
X159671203Y-72625140D02*
X159814060Y-72775616D01*
X159814060Y-72775616D02*
X159885489Y-72926092D01*
X159885489Y-72926092D02*
X159956917Y-73227044D01*
X159956917Y-73227044D02*
X159956917Y-73452759D01*
X159956917Y-73452759D02*
X159885489Y-73753711D01*
X159885489Y-73753711D02*
X159814060Y-73904187D01*
X159814060Y-73904187D02*
X159671203Y-74054664D01*
X159671203Y-74054664D02*
X159456917Y-74129902D01*
X159456917Y-74129902D02*
X159314060Y-74129902D01*
X159314060Y-74129902D02*
X159099774Y-74054664D01*
X159099774Y-74054664D02*
X159028346Y-73979425D01*
X159028346Y-73979425D02*
X159028346Y-73452759D01*
X159028346Y-73452759D02*
X159314060Y-73452759D01*
X158385489Y-74129902D02*
X158385489Y-72549902D01*
X158385489Y-72549902D02*
X157814060Y-72549902D01*
X157814060Y-72549902D02*
X157671203Y-72625140D01*
X157671203Y-72625140D02*
X157599774Y-72700378D01*
X157599774Y-72700378D02*
X157528346Y-72850854D01*
X157528346Y-72850854D02*
X157528346Y-73076568D01*
X157528346Y-73076568D02*
X157599774Y-73227044D01*
X157599774Y-73227044D02*
X157671203Y-73302283D01*
X157671203Y-73302283D02*
X157814060Y-73377521D01*
X157814060Y-73377521D02*
X158385489Y-73377521D01*
X156099774Y-74129902D02*
X156956917Y-74129902D01*
X156528346Y-74129902D02*
X156528346Y-72549902D01*
X156528346Y-72549902D02*
X156671203Y-72775616D01*
X156671203Y-72775616D02*
X156814060Y-72926092D01*
X156814060Y-72926092D02*
X156956917Y-73001330D01*
X155242632Y-73227044D02*
X155385489Y-73151806D01*
X155385489Y-73151806D02*
X155456918Y-73076568D01*
X155456918Y-73076568D02*
X155528346Y-72926092D01*
X155528346Y-72926092D02*
X155528346Y-72850854D01*
X155528346Y-72850854D02*
X155456918Y-72700378D01*
X155456918Y-72700378D02*
X155385489Y-72625140D01*
X155385489Y-72625140D02*
X155242632Y-72549902D01*
X155242632Y-72549902D02*
X154956918Y-72549902D01*
X154956918Y-72549902D02*
X154814061Y-72625140D01*
X154814061Y-72625140D02*
X154742632Y-72700378D01*
X154742632Y-72700378D02*
X154671203Y-72850854D01*
X154671203Y-72850854D02*
X154671203Y-72926092D01*
X154671203Y-72926092D02*
X154742632Y-73076568D01*
X154742632Y-73076568D02*
X154814061Y-73151806D01*
X154814061Y-73151806D02*
X154956918Y-73227044D01*
X154956918Y-73227044D02*
X155242632Y-73227044D01*
X155242632Y-73227044D02*
X155385489Y-73302283D01*
X155385489Y-73302283D02*
X155456918Y-73377521D01*
X155456918Y-73377521D02*
X155528346Y-73527997D01*
X155528346Y-73527997D02*
X155528346Y-73828949D01*
X155528346Y-73828949D02*
X155456918Y-73979425D01*
X155456918Y-73979425D02*
X155385489Y-74054664D01*
X155385489Y-74054664D02*
X155242632Y-74129902D01*
X155242632Y-74129902D02*
X154956918Y-74129902D01*
X154956918Y-74129902D02*
X154814061Y-74054664D01*
X154814061Y-74054664D02*
X154742632Y-73979425D01*
X154742632Y-73979425D02*
X154671203Y-73828949D01*
X154671203Y-73828949D02*
X154671203Y-73527997D01*
X154671203Y-73527997D02*
X154742632Y-73377521D01*
X154742632Y-73377521D02*
X154814061Y-73302283D01*
X154814061Y-73302283D02*
X154956918Y-73227044D01*
X159099774Y-75168852D02*
X159242632Y-75093614D01*
X159242632Y-75093614D02*
X159456917Y-75093614D01*
X159456917Y-75093614D02*
X159671203Y-75168852D01*
X159671203Y-75168852D02*
X159814060Y-75319328D01*
X159814060Y-75319328D02*
X159885489Y-75469804D01*
X159885489Y-75469804D02*
X159956917Y-75770756D01*
X159956917Y-75770756D02*
X159956917Y-75996471D01*
X159956917Y-75996471D02*
X159885489Y-76297423D01*
X159885489Y-76297423D02*
X159814060Y-76447899D01*
X159814060Y-76447899D02*
X159671203Y-76598376D01*
X159671203Y-76598376D02*
X159456917Y-76673614D01*
X159456917Y-76673614D02*
X159314060Y-76673614D01*
X159314060Y-76673614D02*
X159099774Y-76598376D01*
X159099774Y-76598376D02*
X159028346Y-76523137D01*
X159028346Y-76523137D02*
X159028346Y-75996471D01*
X159028346Y-75996471D02*
X159314060Y-75996471D01*
X158385489Y-76673614D02*
X158385489Y-75093614D01*
X158385489Y-75093614D02*
X157528346Y-76673614D01*
X157528346Y-76673614D02*
X157528346Y-75093614D01*
X156814060Y-76673614D02*
X156814060Y-75093614D01*
X156814060Y-75093614D02*
X156456917Y-75093614D01*
X156456917Y-75093614D02*
X156242631Y-75168852D01*
X156242631Y-75168852D02*
X156099774Y-75319328D01*
X156099774Y-75319328D02*
X156028345Y-75469804D01*
X156028345Y-75469804D02*
X155956917Y-75770756D01*
X155956917Y-75770756D02*
X155956917Y-75996471D01*
X155956917Y-75996471D02*
X156028345Y-76297423D01*
X156028345Y-76297423D02*
X156099774Y-76447899D01*
X156099774Y-76447899D02*
X156242631Y-76598376D01*
X156242631Y-76598376D02*
X156456917Y-76673614D01*
X156456917Y-76673614D02*
X156814060Y-76673614D01*
X159099774Y-77712564D02*
X159242632Y-77637326D01*
X159242632Y-77637326D02*
X159456917Y-77637326D01*
X159456917Y-77637326D02*
X159671203Y-77712564D01*
X159671203Y-77712564D02*
X159814060Y-77863040D01*
X159814060Y-77863040D02*
X159885489Y-78013516D01*
X159885489Y-78013516D02*
X159956917Y-78314468D01*
X159956917Y-78314468D02*
X159956917Y-78540183D01*
X159956917Y-78540183D02*
X159885489Y-78841135D01*
X159885489Y-78841135D02*
X159814060Y-78991611D01*
X159814060Y-78991611D02*
X159671203Y-79142088D01*
X159671203Y-79142088D02*
X159456917Y-79217326D01*
X159456917Y-79217326D02*
X159314060Y-79217326D01*
X159314060Y-79217326D02*
X159099774Y-79142088D01*
X159099774Y-79142088D02*
X159028346Y-79066849D01*
X159028346Y-79066849D02*
X159028346Y-78540183D01*
X159028346Y-78540183D02*
X159314060Y-78540183D01*
X158385489Y-79217326D02*
X158385489Y-77637326D01*
X158385489Y-77637326D02*
X157814060Y-77637326D01*
X157814060Y-77637326D02*
X157671203Y-77712564D01*
X157671203Y-77712564D02*
X157599774Y-77787802D01*
X157599774Y-77787802D02*
X157528346Y-77938278D01*
X157528346Y-77938278D02*
X157528346Y-78163992D01*
X157528346Y-78163992D02*
X157599774Y-78314468D01*
X157599774Y-78314468D02*
X157671203Y-78389707D01*
X157671203Y-78389707D02*
X157814060Y-78464945D01*
X157814060Y-78464945D02*
X158385489Y-78464945D01*
X156099774Y-79217326D02*
X156956917Y-79217326D01*
X156528346Y-79217326D02*
X156528346Y-77637326D01*
X156528346Y-77637326D02*
X156671203Y-77863040D01*
X156671203Y-77863040D02*
X156814060Y-78013516D01*
X156814060Y-78013516D02*
X156956917Y-78088754D01*
X155599775Y-77637326D02*
X154599775Y-77637326D01*
X154599775Y-77637326D02*
X155242632Y-79217326D01*
X159099774Y-80256276D02*
X159242632Y-80181038D01*
X159242632Y-80181038D02*
X159456917Y-80181038D01*
X159456917Y-80181038D02*
X159671203Y-80256276D01*
X159671203Y-80256276D02*
X159814060Y-80406752D01*
X159814060Y-80406752D02*
X159885489Y-80557228D01*
X159885489Y-80557228D02*
X159956917Y-80858180D01*
X159956917Y-80858180D02*
X159956917Y-81083895D01*
X159956917Y-81083895D02*
X159885489Y-81384847D01*
X159885489Y-81384847D02*
X159814060Y-81535323D01*
X159814060Y-81535323D02*
X159671203Y-81685800D01*
X159671203Y-81685800D02*
X159456917Y-81761038D01*
X159456917Y-81761038D02*
X159314060Y-81761038D01*
X159314060Y-81761038D02*
X159099774Y-81685800D01*
X159099774Y-81685800D02*
X159028346Y-81610561D01*
X159028346Y-81610561D02*
X159028346Y-81083895D01*
X159028346Y-81083895D02*
X159314060Y-81083895D01*
X158385489Y-81761038D02*
X158385489Y-80181038D01*
X158385489Y-80181038D02*
X157814060Y-80181038D01*
X157814060Y-80181038D02*
X157671203Y-80256276D01*
X157671203Y-80256276D02*
X157599774Y-80331514D01*
X157599774Y-80331514D02*
X157528346Y-80481990D01*
X157528346Y-80481990D02*
X157528346Y-80707704D01*
X157528346Y-80707704D02*
X157599774Y-80858180D01*
X157599774Y-80858180D02*
X157671203Y-80933419D01*
X157671203Y-80933419D02*
X157814060Y-81008657D01*
X157814060Y-81008657D02*
X158385489Y-81008657D01*
X156099774Y-81761038D02*
X156956917Y-81761038D01*
X156528346Y-81761038D02*
X156528346Y-80181038D01*
X156528346Y-80181038D02*
X156671203Y-80406752D01*
X156671203Y-80406752D02*
X156814060Y-80557228D01*
X156814060Y-80557228D02*
X156956917Y-80632466D01*
X154814061Y-80181038D02*
X155099775Y-80181038D01*
X155099775Y-80181038D02*
X155242632Y-80256276D01*
X155242632Y-80256276D02*
X155314061Y-80331514D01*
X155314061Y-80331514D02*
X155456918Y-80557228D01*
X155456918Y-80557228D02*
X155528346Y-80858180D01*
X155528346Y-80858180D02*
X155528346Y-81460085D01*
X155528346Y-81460085D02*
X155456918Y-81610561D01*
X155456918Y-81610561D02*
X155385489Y-81685800D01*
X155385489Y-81685800D02*
X155242632Y-81761038D01*
X155242632Y-81761038D02*
X154956918Y-81761038D01*
X154956918Y-81761038D02*
X154814061Y-81685800D01*
X154814061Y-81685800D02*
X154742632Y-81610561D01*
X154742632Y-81610561D02*
X154671203Y-81460085D01*
X154671203Y-81460085D02*
X154671203Y-81083895D01*
X154671203Y-81083895D02*
X154742632Y-80933419D01*
X154742632Y-80933419D02*
X154814061Y-80858180D01*
X154814061Y-80858180D02*
X154956918Y-80782942D01*
X154956918Y-80782942D02*
X155242632Y-80782942D01*
X155242632Y-80782942D02*
X155385489Y-80858180D01*
X155385489Y-80858180D02*
X155456918Y-80933419D01*
X155456918Y-80933419D02*
X155528346Y-81083895D01*
D11*
G36*
X137488595Y-91091125D02*
G01*
X138286536Y-94090000D01*
X138668838Y-94090000D01*
X139252639Y-92124455D01*
X139319867Y-91880823D01*
X139374455Y-91664485D01*
X139403764Y-91532227D01*
X139447911Y-91765418D01*
X139546646Y-92136912D01*
X140113595Y-94090000D01*
X140495713Y-94090000D01*
X141289624Y-91091125D01*
X140894867Y-91091125D01*
X140428668Y-92922397D01*
X140342573Y-93296271D01*
X140285786Y-93636441D01*
X140222772Y-93279419D01*
X140126235Y-92901331D01*
X139597021Y-91091125D01*
X139206477Y-91091125D01*
X138656198Y-92913970D01*
X138555448Y-93298286D01*
X138492433Y-93636441D01*
X138433632Y-93298286D01*
X138345338Y-92918183D01*
X137883353Y-91091125D01*
X137488595Y-91091125D01*
G37*
G36*
X136523765Y-91815294D02*
G01*
X136728572Y-91857742D01*
X136921565Y-91922165D01*
X137077168Y-91994213D01*
X136963778Y-92271367D01*
X136665558Y-92151749D01*
X136502627Y-92112472D01*
X136329419Y-92099176D01*
X136184874Y-92112774D01*
X136072449Y-92150078D01*
X135985036Y-92208353D01*
X135922398Y-92290342D01*
X135879744Y-92415069D01*
X135863220Y-92599080D01*
X135863220Y-92733353D01*
X136245521Y-92745992D01*
X136529449Y-92768192D01*
X136753080Y-92811646D01*
X136926977Y-92871785D01*
X137060315Y-92945478D01*
X137176649Y-93047067D01*
X137257903Y-93164926D01*
X137307495Y-93302204D01*
X137324830Y-93464249D01*
X137310404Y-93635465D01*
X137270499Y-93772654D01*
X137208121Y-93882654D01*
X137123330Y-93970382D01*
X136981115Y-94058350D01*
X136813790Y-94112780D01*
X136615000Y-94131948D01*
X136425482Y-94120533D01*
X136279306Y-94089805D01*
X136167852Y-94043838D01*
X136014680Y-93935728D01*
X135859007Y-93770713D01*
X135842337Y-93770713D01*
X135770896Y-94090000D01*
X135502168Y-94090000D01*
X135502168Y-93191125D01*
X135867433Y-93191125D01*
X135880945Y-93354187D01*
X135918381Y-93485518D01*
X135976942Y-93591392D01*
X136056477Y-93676374D01*
X136190159Y-93762326D01*
X136346407Y-93815184D01*
X136531102Y-93833728D01*
X136648623Y-93823118D01*
X136746036Y-93793264D01*
X136827308Y-93745617D01*
X136889420Y-93678702D01*
X136928442Y-93588851D01*
X136942712Y-93468463D01*
X136923985Y-93333808D01*
X136870549Y-93225304D01*
X136780963Y-93136536D01*
X136665255Y-93076746D01*
X136480226Y-93029345D01*
X136199359Y-93002264D01*
X135867433Y-92989624D01*
X135867433Y-93191125D01*
X135502168Y-93191125D01*
X135502168Y-92556948D01*
X135516798Y-92357917D01*
X135556807Y-92200900D01*
X135618192Y-92077588D01*
X135699638Y-91981573D01*
X135802182Y-91907788D01*
X135933222Y-91851438D01*
X136099316Y-91814480D01*
X136308536Y-91800956D01*
X136523765Y-91815294D01*
G37*
G36*
X134437880Y-94090000D02*
G01*
X134807541Y-94090000D01*
X134807541Y-90898051D01*
X134437880Y-90898051D01*
X134437880Y-94090000D01*
G37*
G36*
X133356372Y-94090000D02*
G01*
X133726034Y-94090000D01*
X133726034Y-90898051D01*
X133356372Y-90898051D01*
X133356372Y-94090000D01*
G37*
G36*
X132007226Y-91815294D02*
G01*
X132212034Y-91857742D01*
X132405026Y-91922165D01*
X132560629Y-91994213D01*
X132447240Y-92271367D01*
X132149019Y-92151749D01*
X131986088Y-92112472D01*
X131812880Y-92099176D01*
X131668335Y-92112774D01*
X131555910Y-92150078D01*
X131468497Y-92208353D01*
X131405859Y-92290342D01*
X131363206Y-92415069D01*
X131346681Y-92599080D01*
X131346681Y-92733353D01*
X131728982Y-92745992D01*
X132012911Y-92768192D01*
X132236541Y-92811646D01*
X132410438Y-92871785D01*
X132543777Y-92945478D01*
X132660111Y-93047067D01*
X132741364Y-93164926D01*
X132790956Y-93302204D01*
X132808292Y-93464249D01*
X132793866Y-93635465D01*
X132753961Y-93772654D01*
X132691582Y-93882654D01*
X132606791Y-93970382D01*
X132464577Y-94058350D01*
X132297251Y-94112780D01*
X132098461Y-94131948D01*
X131908943Y-94120533D01*
X131762767Y-94089805D01*
X131651313Y-94043838D01*
X131498142Y-93935728D01*
X131342468Y-93770713D01*
X131325799Y-93770713D01*
X131254357Y-94090000D01*
X130985629Y-94090000D01*
X130985629Y-93191125D01*
X131350894Y-93191125D01*
X131364406Y-93354187D01*
X131401843Y-93485518D01*
X131460404Y-93591392D01*
X131539938Y-93676374D01*
X131673621Y-93762326D01*
X131829868Y-93815184D01*
X132014563Y-93833728D01*
X132132084Y-93823118D01*
X132229497Y-93793264D01*
X132310769Y-93745617D01*
X132372881Y-93678702D01*
X132411903Y-93588851D01*
X132426174Y-93468463D01*
X132407446Y-93333808D01*
X132354010Y-93225304D01*
X132264424Y-93136536D01*
X132148717Y-93076746D01*
X131963687Y-93029345D01*
X131682821Y-93002264D01*
X131350894Y-92989624D01*
X131350894Y-93191125D01*
X130985629Y-93191125D01*
X130985629Y-92556948D01*
X131000259Y-92357917D01*
X131040269Y-92200900D01*
X131101653Y-92077588D01*
X131183100Y-91981573D01*
X131285643Y-91907788D01*
X131416683Y-91851438D01*
X131582778Y-91814480D01*
X131791997Y-91800956D01*
X132007226Y-91815294D01*
G37*
G36*
X125706320Y-91091125D02*
G01*
X126504262Y-94090000D01*
X126886563Y-94090000D01*
X127470364Y-92124455D01*
X127537592Y-91880823D01*
X127592180Y-91664485D01*
X127621489Y-91532227D01*
X127665636Y-91765418D01*
X127764371Y-92136912D01*
X128331320Y-94090000D01*
X128713438Y-94090000D01*
X129507349Y-91091125D01*
X129112592Y-91091125D01*
X128646393Y-92922397D01*
X128560298Y-93296271D01*
X128503511Y-93636441D01*
X128440497Y-93279419D01*
X128343960Y-92901331D01*
X127814747Y-91091125D01*
X127424202Y-91091125D01*
X126873923Y-92913970D01*
X126773173Y-93298286D01*
X126710158Y-93636441D01*
X126651357Y-93298286D01*
X126563063Y-92918183D01*
X126101078Y-91091125D01*
X125706320Y-91091125D01*
G37*
G36*
X124741490Y-91815294D02*
G01*
X124946297Y-91857742D01*
X125139290Y-91922165D01*
X125294893Y-91994213D01*
X125181503Y-92271367D01*
X124883283Y-92151749D01*
X124720352Y-92112472D01*
X124547144Y-92099176D01*
X124402599Y-92112774D01*
X124290174Y-92150078D01*
X124202761Y-92208353D01*
X124140123Y-92290342D01*
X124097469Y-92415069D01*
X124080945Y-92599080D01*
X124080945Y-92733353D01*
X124463246Y-92745992D01*
X124747174Y-92768192D01*
X124970805Y-92811646D01*
X125144702Y-92871785D01*
X125278040Y-92945478D01*
X125394375Y-93047067D01*
X125475628Y-93164926D01*
X125525220Y-93302204D01*
X125542555Y-93464249D01*
X125528129Y-93635465D01*
X125488225Y-93772654D01*
X125425846Y-93882654D01*
X125341055Y-93970382D01*
X125198840Y-94058350D01*
X125031515Y-94112780D01*
X124832725Y-94131948D01*
X124643207Y-94120533D01*
X124497031Y-94089805D01*
X124385577Y-94043838D01*
X124232405Y-93935728D01*
X124076732Y-93770713D01*
X124060062Y-93770713D01*
X123988621Y-94090000D01*
X123719893Y-94090000D01*
X123719893Y-93191125D01*
X124085158Y-93191125D01*
X124098670Y-93354187D01*
X124136106Y-93485518D01*
X124194667Y-93591392D01*
X124274202Y-93676374D01*
X124407884Y-93762326D01*
X124564132Y-93815184D01*
X124748827Y-93833728D01*
X124866348Y-93823118D01*
X124963761Y-93793264D01*
X125045033Y-93745617D01*
X125107145Y-93678702D01*
X125146167Y-93588851D01*
X125160437Y-93468463D01*
X125141710Y-93333808D01*
X125088274Y-93225304D01*
X124998688Y-93136536D01*
X124882980Y-93076746D01*
X124697951Y-93029345D01*
X124417084Y-93002264D01*
X124085158Y-92989624D01*
X124085158Y-93191125D01*
X123719893Y-93191125D01*
X123719893Y-92556948D01*
X123734523Y-92357917D01*
X123774532Y-92200900D01*
X123835917Y-92077588D01*
X123917363Y-91981573D01*
X124019907Y-91907788D01*
X124150947Y-91851438D01*
X124317042Y-91814480D01*
X124526261Y-91800956D01*
X124741490Y-91815294D01*
G37*
G36*
X122655605Y-94090000D02*
G01*
X123025266Y-94090000D01*
X123025266Y-90898051D01*
X122655605Y-90898051D01*
X122655605Y-94090000D01*
G37*
G36*
X121574098Y-94090000D02*
G01*
X121943759Y-94090000D01*
X121943759Y-90898051D01*
X121574098Y-90898051D01*
X121574098Y-94090000D01*
G37*
G36*
X120224951Y-91815294D02*
G01*
X120429759Y-91857742D01*
X120622751Y-91922165D01*
X120778354Y-91994213D01*
X120664965Y-92271367D01*
X120366744Y-92151749D01*
X120203813Y-92112472D01*
X120030605Y-92099176D01*
X119886060Y-92112774D01*
X119773635Y-92150078D01*
X119686222Y-92208353D01*
X119623584Y-92290342D01*
X119580931Y-92415069D01*
X119564406Y-92599080D01*
X119564406Y-92733353D01*
X119946707Y-92745992D01*
X120230636Y-92768192D01*
X120454266Y-92811646D01*
X120628163Y-92871785D01*
X120761502Y-92945478D01*
X120877836Y-93047067D01*
X120959089Y-93164926D01*
X121008681Y-93302204D01*
X121026017Y-93464249D01*
X121011591Y-93635465D01*
X120971686Y-93772654D01*
X120909308Y-93882654D01*
X120824516Y-93970382D01*
X120682302Y-94058350D01*
X120514976Y-94112780D01*
X120316186Y-94131948D01*
X120126668Y-94120533D01*
X119980492Y-94089805D01*
X119869038Y-94043838D01*
X119715867Y-93935728D01*
X119560193Y-93770713D01*
X119543524Y-93770713D01*
X119472083Y-94090000D01*
X119203354Y-94090000D01*
X119203354Y-93191125D01*
X119568620Y-93191125D01*
X119582131Y-93354187D01*
X119619568Y-93485518D01*
X119678129Y-93591392D01*
X119757663Y-93676374D01*
X119891346Y-93762326D01*
X120047593Y-93815184D01*
X120232288Y-93833728D01*
X120349809Y-93823118D01*
X120447222Y-93793264D01*
X120528494Y-93745617D01*
X120590606Y-93678702D01*
X120629628Y-93588851D01*
X120643899Y-93468463D01*
X120625171Y-93333808D01*
X120571735Y-93225304D01*
X120482149Y-93136536D01*
X120366442Y-93076746D01*
X120181412Y-93029345D01*
X119900546Y-93002264D01*
X119568620Y-92989624D01*
X119568620Y-93191125D01*
X119203354Y-93191125D01*
X119203354Y-92556948D01*
X119217984Y-92357917D01*
X119257994Y-92200900D01*
X119319378Y-92077588D01*
X119400825Y-91981573D01*
X119503368Y-91907788D01*
X119634408Y-91851438D01*
X119800503Y-91814480D01*
X120009722Y-91800956D01*
X120224951Y-91815294D01*
G37*
G36*
X115087435Y-93031573D02*
G01*
X115101983Y-93235765D01*
X115144307Y-93421693D01*
X115213464Y-93592294D01*
X115311477Y-93746316D01*
X115438489Y-93877279D01*
X115597780Y-93987051D01*
X115775751Y-94064381D01*
X115992122Y-94114072D01*
X116255038Y-94131948D01*
X116482288Y-94117953D01*
X116676375Y-94078474D01*
X116842313Y-94016275D01*
X116984307Y-93932679D01*
X117105553Y-93827500D01*
X117230631Y-93667214D01*
X117321161Y-93483021D01*
X117377557Y-93270350D01*
X117397362Y-93023147D01*
X117397362Y-91091125D01*
X117019457Y-91091125D01*
X117019457Y-93035786D01*
X117005719Y-93218128D01*
X116967211Y-93370033D01*
X116906528Y-93496904D01*
X116824185Y-93602918D01*
X116721018Y-93686726D01*
X116592275Y-93749371D01*
X116432342Y-93789784D01*
X116233972Y-93804419D01*
X116029476Y-93788498D01*
X115868472Y-93744915D01*
X115742160Y-93677789D01*
X115643942Y-93588080D01*
X115565923Y-93475549D01*
X115509144Y-93347322D01*
X115473725Y-93200539D01*
X115461310Y-93031573D01*
X115461310Y-91091125D01*
X115087435Y-91091125D01*
X115087435Y-93031573D01*
G37*
G36*
X113266238Y-91796742D02*
G01*
X113063165Y-91810953D01*
X112898403Y-91850245D01*
X112764975Y-91911102D01*
X112657341Y-91992198D01*
X112573133Y-92095408D01*
X112509042Y-92229762D01*
X112466928Y-92402815D01*
X112451444Y-92624176D01*
X112451444Y-94090000D01*
X112816709Y-94090000D01*
X112816709Y-92649455D01*
X112833213Y-92471114D01*
X112877649Y-92338170D01*
X112945742Y-92239875D01*
X113038096Y-92169254D01*
X113160057Y-92124144D01*
X113320826Y-92107602D01*
X113508001Y-92123325D01*
X113650328Y-92165839D01*
X113757777Y-92230791D01*
X113837400Y-92317712D01*
X113911892Y-92464904D01*
X113961564Y-92661863D01*
X113980099Y-92922397D01*
X113980099Y-94090000D01*
X114349760Y-94090000D01*
X114349760Y-91838874D01*
X114051540Y-91838874D01*
X113996952Y-92145338D01*
X113976069Y-92145338D01*
X113893844Y-92037751D01*
X113793740Y-91950756D01*
X113673635Y-91882838D01*
X113475456Y-91818329D01*
X113266238Y-91796742D01*
G37*
G36*
X111566857Y-90994588D02*
G01*
X111487948Y-91008681D01*
X111417930Y-91051374D01*
X111370557Y-91120207D01*
X111352718Y-91229794D01*
X111370310Y-91336094D01*
X111417930Y-91406198D01*
X111488096Y-91450464D01*
X111566857Y-91465000D01*
X111652696Y-91450031D01*
X111722379Y-91406198D01*
X111768315Y-91336306D01*
X111785394Y-91229794D01*
X111768072Y-91119985D01*
X111722379Y-91051374D01*
X111652853Y-91009101D01*
X111566857Y-90994588D01*
G37*
G36*
X111386240Y-91838874D02*
G01*
X111386240Y-94090000D01*
X111755901Y-94090000D01*
X111755901Y-91838874D01*
X111386240Y-91838874D01*
G37*
G36*
X110178886Y-94090000D02*
G01*
X111031416Y-91838874D01*
X110636659Y-91838874D01*
X110157821Y-93166029D01*
X110086563Y-93371742D01*
X110019335Y-93588080D01*
X109977203Y-93762470D01*
X109960350Y-93762470D01*
X109912173Y-93586065D01*
X109840732Y-93367529D01*
X109771489Y-93166029D01*
X109292651Y-91838874D01*
X108897894Y-91838874D01*
X109754637Y-94090000D01*
X110178886Y-94090000D01*
G37*
G36*
X107868852Y-91813316D02*
G01*
X108041849Y-91861256D01*
X108197222Y-91939624D01*
X108334155Y-92046768D01*
X108450018Y-92181350D01*
X108545818Y-92347021D01*
X108612497Y-92527458D01*
X108654715Y-92737133D01*
X108669649Y-92981198D01*
X108653116Y-93227457D01*
X108606569Y-93436143D01*
X108533178Y-93613360D01*
X108428746Y-93772967D01*
X108302003Y-93901404D01*
X108151060Y-94001889D01*
X107982736Y-94072948D01*
X107795618Y-94116767D01*
X107586127Y-94131948D01*
X107362918Y-94122301D01*
X107186973Y-94096228D01*
X107019857Y-94051286D01*
X106846803Y-93985036D01*
X106846803Y-93661536D01*
X107023154Y-93729122D01*
X107189171Y-93777124D01*
X107361412Y-93806468D01*
X107569274Y-93817058D01*
X107735523Y-93803289D01*
X107875033Y-93764457D01*
X107992736Y-93702630D01*
X108092259Y-93617573D01*
X108170438Y-93513358D01*
X108230106Y-93385127D01*
X108270130Y-93227982D01*
X108287531Y-93035786D01*
X106746053Y-93035786D01*
X106746053Y-92813220D01*
X106750725Y-92741779D01*
X107132384Y-92741779D01*
X108279105Y-92741779D01*
X108243165Y-92545859D01*
X108181373Y-92391033D01*
X108096289Y-92269352D01*
X107984054Y-92176210D01*
X107847233Y-92119302D01*
X107678450Y-92099176D01*
X107539607Y-92111783D01*
X107428204Y-92146781D01*
X107338568Y-92201925D01*
X107266840Y-92277779D01*
X107196407Y-92402901D01*
X107150693Y-92555408D01*
X107132384Y-92741779D01*
X106750725Y-92741779D01*
X106759262Y-92611245D01*
X106797012Y-92433996D01*
X106857428Y-92277779D01*
X106943315Y-92135194D01*
X107049209Y-92017738D01*
X107176531Y-91922772D01*
X107320067Y-91854257D01*
X107484515Y-91811662D01*
X107674237Y-91796742D01*
X107868852Y-91813316D01*
G37*
G36*
X105125441Y-91796742D02*
G01*
X104988970Y-91803154D01*
X104860926Y-91822021D01*
X104907088Y-92162191D01*
X105026889Y-92141308D01*
X105150720Y-92132882D01*
X105262861Y-92143321D01*
X105370112Y-92174528D01*
X105474220Y-92227404D01*
X105567306Y-92297895D01*
X105647554Y-92385409D01*
X105715654Y-92491919D01*
X105764704Y-92608394D01*
X105795161Y-92739779D01*
X105805779Y-92888874D01*
X105805779Y-94090000D01*
X106175441Y-94090000D01*
X106175441Y-91838874D01*
X105873007Y-91838874D01*
X105831058Y-92250484D01*
X105814206Y-92250484D01*
X105689574Y-92078586D01*
X105532838Y-91931198D01*
X105412118Y-91857001D01*
X105277588Y-91812177D01*
X105125441Y-91796742D01*
G37*
G36*
X102977447Y-93468463D02*
G01*
X102993772Y-93627339D01*
X103040033Y-93759486D01*
X103114963Y-93870546D01*
X103221079Y-93963970D01*
X103345142Y-94033770D01*
X103492735Y-94086275D01*
X103668123Y-94119927D01*
X103876322Y-94131948D01*
X104103288Y-94121751D01*
X104281704Y-94094213D01*
X104445052Y-94047948D01*
X104581939Y-93989249D01*
X104581939Y-93653110D01*
X104439383Y-93715412D01*
X104256425Y-93777124D01*
X104063552Y-93819608D01*
X103867896Y-93833728D01*
X103680941Y-93821363D01*
X103549829Y-93789378D01*
X103460498Y-93743419D01*
X103389747Y-93675483D01*
X103348586Y-93596332D01*
X103334469Y-93501985D01*
X103346134Y-93422000D01*
X103380814Y-93350860D01*
X103439691Y-93288285D01*
X103546594Y-93216404D01*
X103680318Y-93150197D01*
X103888961Y-93065279D01*
X104098420Y-92978173D01*
X104262836Y-92897301D01*
X104403372Y-92802288D01*
X104502255Y-92695617D01*
X104547420Y-92613317D01*
X104575959Y-92513867D01*
X104586153Y-92393183D01*
X104571014Y-92256062D01*
X104527592Y-92139579D01*
X104456106Y-92039174D01*
X104353145Y-91952264D01*
X104190572Y-91869227D01*
X103989826Y-91815969D01*
X103741866Y-91796742D01*
X103540144Y-91807023D01*
X103357733Y-91836676D01*
X103183538Y-91884942D01*
X103023609Y-91948051D01*
X103149638Y-92242058D01*
X103448042Y-92141308D01*
X103605156Y-92109753D01*
X103767145Y-92099176D01*
X103917492Y-92108851D01*
X104030317Y-92134619D01*
X104113726Y-92172815D01*
X104181759Y-92229426D01*
X104220310Y-92294742D01*
X104233344Y-92372117D01*
X104219404Y-92458643D01*
X104178756Y-92529837D01*
X104111948Y-92589556D01*
X103996123Y-92655867D01*
X103653756Y-92800580D01*
X103448533Y-92884517D01*
X103288307Y-92964528D01*
X103152356Y-93059743D01*
X103057315Y-93168227D01*
X103014210Y-93251460D01*
X102987081Y-93350360D01*
X102977447Y-93468463D01*
G37*
G36*
X102243620Y-90994588D02*
G01*
X102164710Y-91008681D01*
X102094692Y-91051374D01*
X102047319Y-91120207D01*
X102029480Y-91229794D01*
X102047072Y-91336094D01*
X102094692Y-91406198D01*
X102164858Y-91450464D01*
X102243620Y-91465000D01*
X102329458Y-91450031D01*
X102399141Y-91406198D01*
X102445077Y-91336306D01*
X102462156Y-91229794D01*
X102444834Y-91119985D01*
X102399141Y-91051374D01*
X102329615Y-91009101D01*
X102243620Y-90994588D01*
G37*
G36*
X102063002Y-91838874D02*
G01*
X102063002Y-94090000D01*
X102432663Y-94090000D01*
X102432663Y-91838874D01*
X102063002Y-91838874D01*
G37*
G36*
X100599377Y-93829515D02*
G01*
X100427185Y-93814860D01*
X100284303Y-93783353D01*
X100284303Y-94064720D01*
X100350016Y-94089879D01*
X100452465Y-94113080D01*
X100662391Y-94131948D01*
X100833787Y-94116403D01*
X100987906Y-94071132D01*
X101079959Y-94021193D01*
X101160104Y-93951323D01*
X101229523Y-93859007D01*
X101277762Y-93753970D01*
X101309902Y-93615459D01*
X101321847Y-93434757D01*
X101321847Y-92124455D01*
X101640950Y-92124455D01*
X101640950Y-91948051D01*
X101317634Y-91800956D01*
X101170539Y-91322117D01*
X100952185Y-91322117D01*
X100952185Y-91838874D01*
X100301156Y-91838874D01*
X100301156Y-92124455D01*
X100952185Y-92124455D01*
X100952185Y-93426331D01*
X100939515Y-93560097D01*
X100905511Y-93658801D01*
X100853450Y-93730963D01*
X100782335Y-93785154D01*
X100698849Y-93818027D01*
X100599377Y-93829515D01*
G37*
G36*
X100188682Y-91838874D02*
G01*
X99793925Y-91838874D01*
X99306660Y-93119867D01*
X99193271Y-93441168D01*
X99117616Y-93732978D01*
X99100947Y-93732978D01*
X99021079Y-93458021D01*
X98907690Y-93115654D01*
X98449918Y-91838874D01*
X98050947Y-91838874D01*
X99021079Y-94400860D01*
X99111304Y-94607138D01*
X99213129Y-94774710D01*
X99325711Y-94909007D01*
X99424537Y-94989533D01*
X99540740Y-95048177D01*
X99677737Y-95085009D01*
X99840087Y-95098051D01*
X100016491Y-95087426D01*
X100146734Y-95064345D01*
X100146734Y-94770338D01*
X100035542Y-94787191D01*
X99898888Y-94795617D01*
X99774254Y-94782611D01*
X99671527Y-94745865D01*
X99586013Y-94686441D01*
X99481429Y-94562531D01*
X99399167Y-94396646D01*
X99281564Y-94098426D01*
X100188682Y-91838874D01*
G37*
D10*
X150649774Y-31915748D02*
X150792632Y-31840510D01*
X150792632Y-31840510D02*
X151006917Y-31840510D01*
X151006917Y-31840510D02*
X151221203Y-31915748D01*
X151221203Y-31915748D02*
X151364060Y-32066224D01*
X151364060Y-32066224D02*
X151435489Y-32216700D01*
X151435489Y-32216700D02*
X151506917Y-32517652D01*
X151506917Y-32517652D02*
X151506917Y-32743367D01*
X151506917Y-32743367D02*
X151435489Y-33044319D01*
X151435489Y-33044319D02*
X151364060Y-33194795D01*
X151364060Y-33194795D02*
X151221203Y-33345272D01*
X151221203Y-33345272D02*
X151006917Y-33420510D01*
X151006917Y-33420510D02*
X150864060Y-33420510D01*
X150864060Y-33420510D02*
X150649774Y-33345272D01*
X150649774Y-33345272D02*
X150578346Y-33270033D01*
X150578346Y-33270033D02*
X150578346Y-32743367D01*
X150578346Y-32743367D02*
X150864060Y-32743367D01*
X149935489Y-33420510D02*
X149935489Y-31840510D01*
X149935489Y-31840510D02*
X149364060Y-31840510D01*
X149364060Y-31840510D02*
X149221203Y-31915748D01*
X149221203Y-31915748D02*
X149149774Y-31990986D01*
X149149774Y-31990986D02*
X149078346Y-32141462D01*
X149078346Y-32141462D02*
X149078346Y-32367176D01*
X149078346Y-32367176D02*
X149149774Y-32517652D01*
X149149774Y-32517652D02*
X149221203Y-32592891D01*
X149221203Y-32592891D02*
X149364060Y-32668129D01*
X149364060Y-32668129D02*
X149935489Y-32668129D01*
X148149774Y-31840510D02*
X148006917Y-31840510D01*
X148006917Y-31840510D02*
X147864060Y-31915748D01*
X147864060Y-31915748D02*
X147792632Y-31990986D01*
X147792632Y-31990986D02*
X147721203Y-32141462D01*
X147721203Y-32141462D02*
X147649774Y-32442414D01*
X147649774Y-32442414D02*
X147649774Y-32818605D01*
X147649774Y-32818605D02*
X147721203Y-33119557D01*
X147721203Y-33119557D02*
X147792632Y-33270033D01*
X147792632Y-33270033D02*
X147864060Y-33345272D01*
X147864060Y-33345272D02*
X148006917Y-33420510D01*
X148006917Y-33420510D02*
X148149774Y-33420510D01*
X148149774Y-33420510D02*
X148292632Y-33345272D01*
X148292632Y-33345272D02*
X148364060Y-33270033D01*
X148364060Y-33270033D02*
X148435489Y-33119557D01*
X148435489Y-33119557D02*
X148506917Y-32818605D01*
X148506917Y-32818605D02*
X148506917Y-32442414D01*
X148506917Y-32442414D02*
X148435489Y-32141462D01*
X148435489Y-32141462D02*
X148364060Y-31990986D01*
X148364060Y-31990986D02*
X148292632Y-31915748D01*
X148292632Y-31915748D02*
X148149774Y-31840510D01*
X150649774Y-34459460D02*
X150792632Y-34384222D01*
X150792632Y-34384222D02*
X151006917Y-34384222D01*
X151006917Y-34384222D02*
X151221203Y-34459460D01*
X151221203Y-34459460D02*
X151364060Y-34609936D01*
X151364060Y-34609936D02*
X151435489Y-34760412D01*
X151435489Y-34760412D02*
X151506917Y-35061364D01*
X151506917Y-35061364D02*
X151506917Y-35287079D01*
X151506917Y-35287079D02*
X151435489Y-35588031D01*
X151435489Y-35588031D02*
X151364060Y-35738507D01*
X151364060Y-35738507D02*
X151221203Y-35888984D01*
X151221203Y-35888984D02*
X151006917Y-35964222D01*
X151006917Y-35964222D02*
X150864060Y-35964222D01*
X150864060Y-35964222D02*
X150649774Y-35888984D01*
X150649774Y-35888984D02*
X150578346Y-35813745D01*
X150578346Y-35813745D02*
X150578346Y-35287079D01*
X150578346Y-35287079D02*
X150864060Y-35287079D01*
X149935489Y-35964222D02*
X149935489Y-34384222D01*
X149935489Y-34384222D02*
X149364060Y-34384222D01*
X149364060Y-34384222D02*
X149221203Y-34459460D01*
X149221203Y-34459460D02*
X149149774Y-34534698D01*
X149149774Y-34534698D02*
X149078346Y-34685174D01*
X149078346Y-34685174D02*
X149078346Y-34910888D01*
X149078346Y-34910888D02*
X149149774Y-35061364D01*
X149149774Y-35061364D02*
X149221203Y-35136603D01*
X149221203Y-35136603D02*
X149364060Y-35211841D01*
X149364060Y-35211841D02*
X149935489Y-35211841D01*
X147649774Y-35964222D02*
X148506917Y-35964222D01*
X148078346Y-35964222D02*
X148078346Y-34384222D01*
X148078346Y-34384222D02*
X148221203Y-34609936D01*
X148221203Y-34609936D02*
X148364060Y-34760412D01*
X148364060Y-34760412D02*
X148506917Y-34835650D01*
X150649774Y-37003172D02*
X150792632Y-36927934D01*
X150792632Y-36927934D02*
X151006917Y-36927934D01*
X151006917Y-36927934D02*
X151221203Y-37003172D01*
X151221203Y-37003172D02*
X151364060Y-37153648D01*
X151364060Y-37153648D02*
X151435489Y-37304124D01*
X151435489Y-37304124D02*
X151506917Y-37605076D01*
X151506917Y-37605076D02*
X151506917Y-37830791D01*
X151506917Y-37830791D02*
X151435489Y-38131743D01*
X151435489Y-38131743D02*
X151364060Y-38282219D01*
X151364060Y-38282219D02*
X151221203Y-38432696D01*
X151221203Y-38432696D02*
X151006917Y-38507934D01*
X151006917Y-38507934D02*
X150864060Y-38507934D01*
X150864060Y-38507934D02*
X150649774Y-38432696D01*
X150649774Y-38432696D02*
X150578346Y-38357457D01*
X150578346Y-38357457D02*
X150578346Y-37830791D01*
X150578346Y-37830791D02*
X150864060Y-37830791D01*
X149935489Y-38507934D02*
X149935489Y-36927934D01*
X149935489Y-36927934D02*
X149078346Y-38507934D01*
X149078346Y-38507934D02*
X149078346Y-36927934D01*
X148364060Y-38507934D02*
X148364060Y-36927934D01*
X148364060Y-36927934D02*
X148006917Y-36927934D01*
X148006917Y-36927934D02*
X147792631Y-37003172D01*
X147792631Y-37003172D02*
X147649774Y-37153648D01*
X147649774Y-37153648D02*
X147578345Y-37304124D01*
X147578345Y-37304124D02*
X147506917Y-37605076D01*
X147506917Y-37605076D02*
X147506917Y-37830791D01*
X147506917Y-37830791D02*
X147578345Y-38131743D01*
X147578345Y-38131743D02*
X147649774Y-38282219D01*
X147649774Y-38282219D02*
X147792631Y-38432696D01*
X147792631Y-38432696D02*
X148006917Y-38507934D01*
X148006917Y-38507934D02*
X148364060Y-38507934D01*
X150649774Y-39546884D02*
X150792632Y-39471646D01*
X150792632Y-39471646D02*
X151006917Y-39471646D01*
X151006917Y-39471646D02*
X151221203Y-39546884D01*
X151221203Y-39546884D02*
X151364060Y-39697360D01*
X151364060Y-39697360D02*
X151435489Y-39847836D01*
X151435489Y-39847836D02*
X151506917Y-40148788D01*
X151506917Y-40148788D02*
X151506917Y-40374503D01*
X151506917Y-40374503D02*
X151435489Y-40675455D01*
X151435489Y-40675455D02*
X151364060Y-40825931D01*
X151364060Y-40825931D02*
X151221203Y-40976408D01*
X151221203Y-40976408D02*
X151006917Y-41051646D01*
X151006917Y-41051646D02*
X150864060Y-41051646D01*
X150864060Y-41051646D02*
X150649774Y-40976408D01*
X150649774Y-40976408D02*
X150578346Y-40901169D01*
X150578346Y-40901169D02*
X150578346Y-40374503D01*
X150578346Y-40374503D02*
X150864060Y-40374503D01*
X149935489Y-41051646D02*
X149935489Y-39471646D01*
X149935489Y-39471646D02*
X149364060Y-39471646D01*
X149364060Y-39471646D02*
X149221203Y-39546884D01*
X149221203Y-39546884D02*
X149149774Y-39622122D01*
X149149774Y-39622122D02*
X149078346Y-39772598D01*
X149078346Y-39772598D02*
X149078346Y-39998312D01*
X149078346Y-39998312D02*
X149149774Y-40148788D01*
X149149774Y-40148788D02*
X149221203Y-40224027D01*
X149221203Y-40224027D02*
X149364060Y-40299265D01*
X149364060Y-40299265D02*
X149935489Y-40299265D01*
X148506917Y-39622122D02*
X148435489Y-39546884D01*
X148435489Y-39546884D02*
X148292632Y-39471646D01*
X148292632Y-39471646D02*
X147935489Y-39471646D01*
X147935489Y-39471646D02*
X147792632Y-39546884D01*
X147792632Y-39546884D02*
X147721203Y-39622122D01*
X147721203Y-39622122D02*
X147649774Y-39772598D01*
X147649774Y-39772598D02*
X147649774Y-39923074D01*
X147649774Y-39923074D02*
X147721203Y-40148788D01*
X147721203Y-40148788D02*
X148578346Y-41051646D01*
X148578346Y-41051646D02*
X147649774Y-41051646D01*
X150649774Y-42090596D02*
X150792632Y-42015358D01*
X150792632Y-42015358D02*
X151006917Y-42015358D01*
X151006917Y-42015358D02*
X151221203Y-42090596D01*
X151221203Y-42090596D02*
X151364060Y-42241072D01*
X151364060Y-42241072D02*
X151435489Y-42391548D01*
X151435489Y-42391548D02*
X151506917Y-42692500D01*
X151506917Y-42692500D02*
X151506917Y-42918215D01*
X151506917Y-42918215D02*
X151435489Y-43219167D01*
X151435489Y-43219167D02*
X151364060Y-43369643D01*
X151364060Y-43369643D02*
X151221203Y-43520120D01*
X151221203Y-43520120D02*
X151006917Y-43595358D01*
X151006917Y-43595358D02*
X150864060Y-43595358D01*
X150864060Y-43595358D02*
X150649774Y-43520120D01*
X150649774Y-43520120D02*
X150578346Y-43444881D01*
X150578346Y-43444881D02*
X150578346Y-42918215D01*
X150578346Y-42918215D02*
X150864060Y-42918215D01*
X149935489Y-43595358D02*
X149935489Y-42015358D01*
X149935489Y-42015358D02*
X149364060Y-42015358D01*
X149364060Y-42015358D02*
X149221203Y-42090596D01*
X149221203Y-42090596D02*
X149149774Y-42165834D01*
X149149774Y-42165834D02*
X149078346Y-42316310D01*
X149078346Y-42316310D02*
X149078346Y-42542024D01*
X149078346Y-42542024D02*
X149149774Y-42692500D01*
X149149774Y-42692500D02*
X149221203Y-42767739D01*
X149221203Y-42767739D02*
X149364060Y-42842977D01*
X149364060Y-42842977D02*
X149935489Y-42842977D01*
X148578346Y-42015358D02*
X147649774Y-42015358D01*
X147649774Y-42015358D02*
X148149774Y-42617262D01*
X148149774Y-42617262D02*
X147935489Y-42617262D01*
X147935489Y-42617262D02*
X147792632Y-42692500D01*
X147792632Y-42692500D02*
X147721203Y-42767739D01*
X147721203Y-42767739D02*
X147649774Y-42918215D01*
X147649774Y-42918215D02*
X147649774Y-43294405D01*
X147649774Y-43294405D02*
X147721203Y-43444881D01*
X147721203Y-43444881D02*
X147792632Y-43520120D01*
X147792632Y-43520120D02*
X147935489Y-43595358D01*
X147935489Y-43595358D02*
X148364060Y-43595358D01*
X148364060Y-43595358D02*
X148506917Y-43520120D01*
X148506917Y-43520120D02*
X148578346Y-43444881D01*
X150649774Y-44634308D02*
X150792632Y-44559070D01*
X150792632Y-44559070D02*
X151006917Y-44559070D01*
X151006917Y-44559070D02*
X151221203Y-44634308D01*
X151221203Y-44634308D02*
X151364060Y-44784784D01*
X151364060Y-44784784D02*
X151435489Y-44935260D01*
X151435489Y-44935260D02*
X151506917Y-45236212D01*
X151506917Y-45236212D02*
X151506917Y-45461927D01*
X151506917Y-45461927D02*
X151435489Y-45762879D01*
X151435489Y-45762879D02*
X151364060Y-45913355D01*
X151364060Y-45913355D02*
X151221203Y-46063832D01*
X151221203Y-46063832D02*
X151006917Y-46139070D01*
X151006917Y-46139070D02*
X150864060Y-46139070D01*
X150864060Y-46139070D02*
X150649774Y-46063832D01*
X150649774Y-46063832D02*
X150578346Y-45988593D01*
X150578346Y-45988593D02*
X150578346Y-45461927D01*
X150578346Y-45461927D02*
X150864060Y-45461927D01*
X149935489Y-46139070D02*
X149935489Y-44559070D01*
X149935489Y-44559070D02*
X149364060Y-44559070D01*
X149364060Y-44559070D02*
X149221203Y-44634308D01*
X149221203Y-44634308D02*
X149149774Y-44709546D01*
X149149774Y-44709546D02*
X149078346Y-44860022D01*
X149078346Y-44860022D02*
X149078346Y-45085736D01*
X149078346Y-45085736D02*
X149149774Y-45236212D01*
X149149774Y-45236212D02*
X149221203Y-45311451D01*
X149221203Y-45311451D02*
X149364060Y-45386689D01*
X149364060Y-45386689D02*
X149935489Y-45386689D01*
X147792632Y-45085736D02*
X147792632Y-46139070D01*
X148149774Y-44483832D02*
X148506917Y-45612403D01*
X148506917Y-45612403D02*
X147578346Y-45612403D01*
X150649774Y-47178020D02*
X150792632Y-47102782D01*
X150792632Y-47102782D02*
X151006917Y-47102782D01*
X151006917Y-47102782D02*
X151221203Y-47178020D01*
X151221203Y-47178020D02*
X151364060Y-47328496D01*
X151364060Y-47328496D02*
X151435489Y-47478972D01*
X151435489Y-47478972D02*
X151506917Y-47779924D01*
X151506917Y-47779924D02*
X151506917Y-48005639D01*
X151506917Y-48005639D02*
X151435489Y-48306591D01*
X151435489Y-48306591D02*
X151364060Y-48457067D01*
X151364060Y-48457067D02*
X151221203Y-48607544D01*
X151221203Y-48607544D02*
X151006917Y-48682782D01*
X151006917Y-48682782D02*
X150864060Y-48682782D01*
X150864060Y-48682782D02*
X150649774Y-48607544D01*
X150649774Y-48607544D02*
X150578346Y-48532305D01*
X150578346Y-48532305D02*
X150578346Y-48005639D01*
X150578346Y-48005639D02*
X150864060Y-48005639D01*
X149935489Y-48682782D02*
X149935489Y-47102782D01*
X149935489Y-47102782D02*
X149364060Y-47102782D01*
X149364060Y-47102782D02*
X149221203Y-47178020D01*
X149221203Y-47178020D02*
X149149774Y-47253258D01*
X149149774Y-47253258D02*
X149078346Y-47403734D01*
X149078346Y-47403734D02*
X149078346Y-47629448D01*
X149078346Y-47629448D02*
X149149774Y-47779924D01*
X149149774Y-47779924D02*
X149221203Y-47855163D01*
X149221203Y-47855163D02*
X149364060Y-47930401D01*
X149364060Y-47930401D02*
X149935489Y-47930401D01*
X147721203Y-47102782D02*
X148435489Y-47102782D01*
X148435489Y-47102782D02*
X148506917Y-47855163D01*
X148506917Y-47855163D02*
X148435489Y-47779924D01*
X148435489Y-47779924D02*
X148292632Y-47704686D01*
X148292632Y-47704686D02*
X147935489Y-47704686D01*
X147935489Y-47704686D02*
X147792632Y-47779924D01*
X147792632Y-47779924D02*
X147721203Y-47855163D01*
X147721203Y-47855163D02*
X147649774Y-48005639D01*
X147649774Y-48005639D02*
X147649774Y-48381829D01*
X147649774Y-48381829D02*
X147721203Y-48532305D01*
X147721203Y-48532305D02*
X147792632Y-48607544D01*
X147792632Y-48607544D02*
X147935489Y-48682782D01*
X147935489Y-48682782D02*
X148292632Y-48682782D01*
X148292632Y-48682782D02*
X148435489Y-48607544D01*
X148435489Y-48607544D02*
X148506917Y-48532305D01*
X150649774Y-49721732D02*
X150792632Y-49646494D01*
X150792632Y-49646494D02*
X151006917Y-49646494D01*
X151006917Y-49646494D02*
X151221203Y-49721732D01*
X151221203Y-49721732D02*
X151364060Y-49872208D01*
X151364060Y-49872208D02*
X151435489Y-50022684D01*
X151435489Y-50022684D02*
X151506917Y-50323636D01*
X151506917Y-50323636D02*
X151506917Y-50549351D01*
X151506917Y-50549351D02*
X151435489Y-50850303D01*
X151435489Y-50850303D02*
X151364060Y-51000779D01*
X151364060Y-51000779D02*
X151221203Y-51151256D01*
X151221203Y-51151256D02*
X151006917Y-51226494D01*
X151006917Y-51226494D02*
X150864060Y-51226494D01*
X150864060Y-51226494D02*
X150649774Y-51151256D01*
X150649774Y-51151256D02*
X150578346Y-51076017D01*
X150578346Y-51076017D02*
X150578346Y-50549351D01*
X150578346Y-50549351D02*
X150864060Y-50549351D01*
X149935489Y-51226494D02*
X149935489Y-49646494D01*
X149935489Y-49646494D02*
X149078346Y-51226494D01*
X149078346Y-51226494D02*
X149078346Y-49646494D01*
X148364060Y-51226494D02*
X148364060Y-49646494D01*
X148364060Y-49646494D02*
X148006917Y-49646494D01*
X148006917Y-49646494D02*
X147792631Y-49721732D01*
X147792631Y-49721732D02*
X147649774Y-49872208D01*
X147649774Y-49872208D02*
X147578345Y-50022684D01*
X147578345Y-50022684D02*
X147506917Y-50323636D01*
X147506917Y-50323636D02*
X147506917Y-50549351D01*
X147506917Y-50549351D02*
X147578345Y-50850303D01*
X147578345Y-50850303D02*
X147649774Y-51000779D01*
X147649774Y-51000779D02*
X147792631Y-51151256D01*
X147792631Y-51151256D02*
X148006917Y-51226494D01*
X148006917Y-51226494D02*
X148364060Y-51226494D01*
X150649774Y-52265444D02*
X150792632Y-52190206D01*
X150792632Y-52190206D02*
X151006917Y-52190206D01*
X151006917Y-52190206D02*
X151221203Y-52265444D01*
X151221203Y-52265444D02*
X151364060Y-52415920D01*
X151364060Y-52415920D02*
X151435489Y-52566396D01*
X151435489Y-52566396D02*
X151506917Y-52867348D01*
X151506917Y-52867348D02*
X151506917Y-53093063D01*
X151506917Y-53093063D02*
X151435489Y-53394015D01*
X151435489Y-53394015D02*
X151364060Y-53544491D01*
X151364060Y-53544491D02*
X151221203Y-53694968D01*
X151221203Y-53694968D02*
X151006917Y-53770206D01*
X151006917Y-53770206D02*
X150864060Y-53770206D01*
X150864060Y-53770206D02*
X150649774Y-53694968D01*
X150649774Y-53694968D02*
X150578346Y-53619729D01*
X150578346Y-53619729D02*
X150578346Y-53093063D01*
X150578346Y-53093063D02*
X150864060Y-53093063D01*
X149935489Y-53770206D02*
X149935489Y-52190206D01*
X149935489Y-52190206D02*
X149364060Y-52190206D01*
X149364060Y-52190206D02*
X149221203Y-52265444D01*
X149221203Y-52265444D02*
X149149774Y-52340682D01*
X149149774Y-52340682D02*
X149078346Y-52491158D01*
X149078346Y-52491158D02*
X149078346Y-52716872D01*
X149078346Y-52716872D02*
X149149774Y-52867348D01*
X149149774Y-52867348D02*
X149221203Y-52942587D01*
X149221203Y-52942587D02*
X149364060Y-53017825D01*
X149364060Y-53017825D02*
X149935489Y-53017825D01*
X147792632Y-52190206D02*
X148078346Y-52190206D01*
X148078346Y-52190206D02*
X148221203Y-52265444D01*
X148221203Y-52265444D02*
X148292632Y-52340682D01*
X148292632Y-52340682D02*
X148435489Y-52566396D01*
X148435489Y-52566396D02*
X148506917Y-52867348D01*
X148506917Y-52867348D02*
X148506917Y-53469253D01*
X148506917Y-53469253D02*
X148435489Y-53619729D01*
X148435489Y-53619729D02*
X148364060Y-53694968D01*
X148364060Y-53694968D02*
X148221203Y-53770206D01*
X148221203Y-53770206D02*
X147935489Y-53770206D01*
X147935489Y-53770206D02*
X147792632Y-53694968D01*
X147792632Y-53694968D02*
X147721203Y-53619729D01*
X147721203Y-53619729D02*
X147649774Y-53469253D01*
X147649774Y-53469253D02*
X147649774Y-53093063D01*
X147649774Y-53093063D02*
X147721203Y-52942587D01*
X147721203Y-52942587D02*
X147792632Y-52867348D01*
X147792632Y-52867348D02*
X147935489Y-52792110D01*
X147935489Y-52792110D02*
X148221203Y-52792110D01*
X148221203Y-52792110D02*
X148364060Y-52867348D01*
X148364060Y-52867348D02*
X148435489Y-52942587D01*
X148435489Y-52942587D02*
X148506917Y-53093063D01*
X150649774Y-54809156D02*
X150792632Y-54733918D01*
X150792632Y-54733918D02*
X151006917Y-54733918D01*
X151006917Y-54733918D02*
X151221203Y-54809156D01*
X151221203Y-54809156D02*
X151364060Y-54959632D01*
X151364060Y-54959632D02*
X151435489Y-55110108D01*
X151435489Y-55110108D02*
X151506917Y-55411060D01*
X151506917Y-55411060D02*
X151506917Y-55636775D01*
X151506917Y-55636775D02*
X151435489Y-55937727D01*
X151435489Y-55937727D02*
X151364060Y-56088203D01*
X151364060Y-56088203D02*
X151221203Y-56238680D01*
X151221203Y-56238680D02*
X151006917Y-56313918D01*
X151006917Y-56313918D02*
X150864060Y-56313918D01*
X150864060Y-56313918D02*
X150649774Y-56238680D01*
X150649774Y-56238680D02*
X150578346Y-56163441D01*
X150578346Y-56163441D02*
X150578346Y-55636775D01*
X150578346Y-55636775D02*
X150864060Y-55636775D01*
X149935489Y-56313918D02*
X149935489Y-54733918D01*
X149935489Y-54733918D02*
X149364060Y-54733918D01*
X149364060Y-54733918D02*
X149221203Y-54809156D01*
X149221203Y-54809156D02*
X149149774Y-54884394D01*
X149149774Y-54884394D02*
X149078346Y-55034870D01*
X149078346Y-55034870D02*
X149078346Y-55260584D01*
X149078346Y-55260584D02*
X149149774Y-55411060D01*
X149149774Y-55411060D02*
X149221203Y-55486299D01*
X149221203Y-55486299D02*
X149364060Y-55561537D01*
X149364060Y-55561537D02*
X149935489Y-55561537D01*
X148578346Y-54733918D02*
X147578346Y-54733918D01*
X147578346Y-54733918D02*
X148221203Y-56313918D01*
X150649774Y-57352868D02*
X150792632Y-57277630D01*
X150792632Y-57277630D02*
X151006917Y-57277630D01*
X151006917Y-57277630D02*
X151221203Y-57352868D01*
X151221203Y-57352868D02*
X151364060Y-57503344D01*
X151364060Y-57503344D02*
X151435489Y-57653820D01*
X151435489Y-57653820D02*
X151506917Y-57954772D01*
X151506917Y-57954772D02*
X151506917Y-58180487D01*
X151506917Y-58180487D02*
X151435489Y-58481439D01*
X151435489Y-58481439D02*
X151364060Y-58631915D01*
X151364060Y-58631915D02*
X151221203Y-58782392D01*
X151221203Y-58782392D02*
X151006917Y-58857630D01*
X151006917Y-58857630D02*
X150864060Y-58857630D01*
X150864060Y-58857630D02*
X150649774Y-58782392D01*
X150649774Y-58782392D02*
X150578346Y-58707153D01*
X150578346Y-58707153D02*
X150578346Y-58180487D01*
X150578346Y-58180487D02*
X150864060Y-58180487D01*
X149935489Y-58857630D02*
X149935489Y-57277630D01*
X149935489Y-57277630D02*
X149364060Y-57277630D01*
X149364060Y-57277630D02*
X149221203Y-57352868D01*
X149221203Y-57352868D02*
X149149774Y-57428106D01*
X149149774Y-57428106D02*
X149078346Y-57578582D01*
X149078346Y-57578582D02*
X149078346Y-57804296D01*
X149078346Y-57804296D02*
X149149774Y-57954772D01*
X149149774Y-57954772D02*
X149221203Y-58030011D01*
X149221203Y-58030011D02*
X149364060Y-58105249D01*
X149364060Y-58105249D02*
X149935489Y-58105249D01*
X148221203Y-57954772D02*
X148364060Y-57879534D01*
X148364060Y-57879534D02*
X148435489Y-57804296D01*
X148435489Y-57804296D02*
X148506917Y-57653820D01*
X148506917Y-57653820D02*
X148506917Y-57578582D01*
X148506917Y-57578582D02*
X148435489Y-57428106D01*
X148435489Y-57428106D02*
X148364060Y-57352868D01*
X148364060Y-57352868D02*
X148221203Y-57277630D01*
X148221203Y-57277630D02*
X147935489Y-57277630D01*
X147935489Y-57277630D02*
X147792632Y-57352868D01*
X147792632Y-57352868D02*
X147721203Y-57428106D01*
X147721203Y-57428106D02*
X147649774Y-57578582D01*
X147649774Y-57578582D02*
X147649774Y-57653820D01*
X147649774Y-57653820D02*
X147721203Y-57804296D01*
X147721203Y-57804296D02*
X147792632Y-57879534D01*
X147792632Y-57879534D02*
X147935489Y-57954772D01*
X147935489Y-57954772D02*
X148221203Y-57954772D01*
X148221203Y-57954772D02*
X148364060Y-58030011D01*
X148364060Y-58030011D02*
X148435489Y-58105249D01*
X148435489Y-58105249D02*
X148506917Y-58255725D01*
X148506917Y-58255725D02*
X148506917Y-58556677D01*
X148506917Y-58556677D02*
X148435489Y-58707153D01*
X148435489Y-58707153D02*
X148364060Y-58782392D01*
X148364060Y-58782392D02*
X148221203Y-58857630D01*
X148221203Y-58857630D02*
X147935489Y-58857630D01*
X147935489Y-58857630D02*
X147792632Y-58782392D01*
X147792632Y-58782392D02*
X147721203Y-58707153D01*
X147721203Y-58707153D02*
X147649774Y-58556677D01*
X147649774Y-58556677D02*
X147649774Y-58255725D01*
X147649774Y-58255725D02*
X147721203Y-58105249D01*
X147721203Y-58105249D02*
X147792632Y-58030011D01*
X147792632Y-58030011D02*
X147935489Y-57954772D01*
X150649774Y-59896580D02*
X150792632Y-59821342D01*
X150792632Y-59821342D02*
X151006917Y-59821342D01*
X151006917Y-59821342D02*
X151221203Y-59896580D01*
X151221203Y-59896580D02*
X151364060Y-60047056D01*
X151364060Y-60047056D02*
X151435489Y-60197532D01*
X151435489Y-60197532D02*
X151506917Y-60498484D01*
X151506917Y-60498484D02*
X151506917Y-60724199D01*
X151506917Y-60724199D02*
X151435489Y-61025151D01*
X151435489Y-61025151D02*
X151364060Y-61175627D01*
X151364060Y-61175627D02*
X151221203Y-61326104D01*
X151221203Y-61326104D02*
X151006917Y-61401342D01*
X151006917Y-61401342D02*
X150864060Y-61401342D01*
X150864060Y-61401342D02*
X150649774Y-61326104D01*
X150649774Y-61326104D02*
X150578346Y-61250865D01*
X150578346Y-61250865D02*
X150578346Y-60724199D01*
X150578346Y-60724199D02*
X150864060Y-60724199D01*
X149935489Y-61401342D02*
X149935489Y-59821342D01*
X149935489Y-59821342D02*
X149364060Y-59821342D01*
X149364060Y-59821342D02*
X149221203Y-59896580D01*
X149221203Y-59896580D02*
X149149774Y-59971818D01*
X149149774Y-59971818D02*
X149078346Y-60122294D01*
X149078346Y-60122294D02*
X149078346Y-60348008D01*
X149078346Y-60348008D02*
X149149774Y-60498484D01*
X149149774Y-60498484D02*
X149221203Y-60573723D01*
X149221203Y-60573723D02*
X149364060Y-60648961D01*
X149364060Y-60648961D02*
X149935489Y-60648961D01*
X148364060Y-61401342D02*
X148078346Y-61401342D01*
X148078346Y-61401342D02*
X147935489Y-61326104D01*
X147935489Y-61326104D02*
X147864060Y-61250865D01*
X147864060Y-61250865D02*
X147721203Y-61025151D01*
X147721203Y-61025151D02*
X147649774Y-60724199D01*
X147649774Y-60724199D02*
X147649774Y-60122294D01*
X147649774Y-60122294D02*
X147721203Y-59971818D01*
X147721203Y-59971818D02*
X147792632Y-59896580D01*
X147792632Y-59896580D02*
X147935489Y-59821342D01*
X147935489Y-59821342D02*
X148221203Y-59821342D01*
X148221203Y-59821342D02*
X148364060Y-59896580D01*
X148364060Y-59896580D02*
X148435489Y-59971818D01*
X148435489Y-59971818D02*
X148506917Y-60122294D01*
X148506917Y-60122294D02*
X148506917Y-60498484D01*
X148506917Y-60498484D02*
X148435489Y-60648961D01*
X148435489Y-60648961D02*
X148364060Y-60724199D01*
X148364060Y-60724199D02*
X148221203Y-60799437D01*
X148221203Y-60799437D02*
X147935489Y-60799437D01*
X147935489Y-60799437D02*
X147792632Y-60724199D01*
X147792632Y-60724199D02*
X147721203Y-60648961D01*
X147721203Y-60648961D02*
X147649774Y-60498484D01*
X150649774Y-62440292D02*
X150792632Y-62365054D01*
X150792632Y-62365054D02*
X151006917Y-62365054D01*
X151006917Y-62365054D02*
X151221203Y-62440292D01*
X151221203Y-62440292D02*
X151364060Y-62590768D01*
X151364060Y-62590768D02*
X151435489Y-62741244D01*
X151435489Y-62741244D02*
X151506917Y-63042196D01*
X151506917Y-63042196D02*
X151506917Y-63267911D01*
X151506917Y-63267911D02*
X151435489Y-63568863D01*
X151435489Y-63568863D02*
X151364060Y-63719339D01*
X151364060Y-63719339D02*
X151221203Y-63869816D01*
X151221203Y-63869816D02*
X151006917Y-63945054D01*
X151006917Y-63945054D02*
X150864060Y-63945054D01*
X150864060Y-63945054D02*
X150649774Y-63869816D01*
X150649774Y-63869816D02*
X150578346Y-63794577D01*
X150578346Y-63794577D02*
X150578346Y-63267911D01*
X150578346Y-63267911D02*
X150864060Y-63267911D01*
X149935489Y-63945054D02*
X149935489Y-62365054D01*
X149935489Y-62365054D02*
X149078346Y-63945054D01*
X149078346Y-63945054D02*
X149078346Y-62365054D01*
X148364060Y-63945054D02*
X148364060Y-62365054D01*
X148364060Y-62365054D02*
X148006917Y-62365054D01*
X148006917Y-62365054D02*
X147792631Y-62440292D01*
X147792631Y-62440292D02*
X147649774Y-62590768D01*
X147649774Y-62590768D02*
X147578345Y-62741244D01*
X147578345Y-62741244D02*
X147506917Y-63042196D01*
X147506917Y-63042196D02*
X147506917Y-63267911D01*
X147506917Y-63267911D02*
X147578345Y-63568863D01*
X147578345Y-63568863D02*
X147649774Y-63719339D01*
X147649774Y-63719339D02*
X147792631Y-63869816D01*
X147792631Y-63869816D02*
X148006917Y-63945054D01*
X148006917Y-63945054D02*
X148364060Y-63945054D01*
X150649774Y-64984004D02*
X150792632Y-64908766D01*
X150792632Y-64908766D02*
X151006917Y-64908766D01*
X151006917Y-64908766D02*
X151221203Y-64984004D01*
X151221203Y-64984004D02*
X151364060Y-65134480D01*
X151364060Y-65134480D02*
X151435489Y-65284956D01*
X151435489Y-65284956D02*
X151506917Y-65585908D01*
X151506917Y-65585908D02*
X151506917Y-65811623D01*
X151506917Y-65811623D02*
X151435489Y-66112575D01*
X151435489Y-66112575D02*
X151364060Y-66263051D01*
X151364060Y-66263051D02*
X151221203Y-66413528D01*
X151221203Y-66413528D02*
X151006917Y-66488766D01*
X151006917Y-66488766D02*
X150864060Y-66488766D01*
X150864060Y-66488766D02*
X150649774Y-66413528D01*
X150649774Y-66413528D02*
X150578346Y-66338289D01*
X150578346Y-66338289D02*
X150578346Y-65811623D01*
X150578346Y-65811623D02*
X150864060Y-65811623D01*
X149935489Y-66488766D02*
X149935489Y-64908766D01*
X149935489Y-64908766D02*
X149364060Y-64908766D01*
X149364060Y-64908766D02*
X149221203Y-64984004D01*
X149221203Y-64984004D02*
X149149774Y-65059242D01*
X149149774Y-65059242D02*
X149078346Y-65209718D01*
X149078346Y-65209718D02*
X149078346Y-65435432D01*
X149078346Y-65435432D02*
X149149774Y-65585908D01*
X149149774Y-65585908D02*
X149221203Y-65661147D01*
X149221203Y-65661147D02*
X149364060Y-65736385D01*
X149364060Y-65736385D02*
X149935489Y-65736385D01*
X147649774Y-66488766D02*
X148506917Y-66488766D01*
X148078346Y-66488766D02*
X148078346Y-64908766D01*
X148078346Y-64908766D02*
X148221203Y-65134480D01*
X148221203Y-65134480D02*
X148364060Y-65284956D01*
X148364060Y-65284956D02*
X148506917Y-65360194D01*
X146721203Y-64908766D02*
X146578346Y-64908766D01*
X146578346Y-64908766D02*
X146435489Y-64984004D01*
X146435489Y-64984004D02*
X146364061Y-65059242D01*
X146364061Y-65059242D02*
X146292632Y-65209718D01*
X146292632Y-65209718D02*
X146221203Y-65510670D01*
X146221203Y-65510670D02*
X146221203Y-65886861D01*
X146221203Y-65886861D02*
X146292632Y-66187813D01*
X146292632Y-66187813D02*
X146364061Y-66338289D01*
X146364061Y-66338289D02*
X146435489Y-66413528D01*
X146435489Y-66413528D02*
X146578346Y-66488766D01*
X146578346Y-66488766D02*
X146721203Y-66488766D01*
X146721203Y-66488766D02*
X146864061Y-66413528D01*
X146864061Y-66413528D02*
X146935489Y-66338289D01*
X146935489Y-66338289D02*
X147006918Y-66187813D01*
X147006918Y-66187813D02*
X147078346Y-65886861D01*
X147078346Y-65886861D02*
X147078346Y-65510670D01*
X147078346Y-65510670D02*
X147006918Y-65209718D01*
X147006918Y-65209718D02*
X146935489Y-65059242D01*
X146935489Y-65059242D02*
X146864061Y-64984004D01*
X146864061Y-64984004D02*
X146721203Y-64908766D01*
X150649774Y-67527716D02*
X150792632Y-67452478D01*
X150792632Y-67452478D02*
X151006917Y-67452478D01*
X151006917Y-67452478D02*
X151221203Y-67527716D01*
X151221203Y-67527716D02*
X151364060Y-67678192D01*
X151364060Y-67678192D02*
X151435489Y-67828668D01*
X151435489Y-67828668D02*
X151506917Y-68129620D01*
X151506917Y-68129620D02*
X151506917Y-68355335D01*
X151506917Y-68355335D02*
X151435489Y-68656287D01*
X151435489Y-68656287D02*
X151364060Y-68806763D01*
X151364060Y-68806763D02*
X151221203Y-68957240D01*
X151221203Y-68957240D02*
X151006917Y-69032478D01*
X151006917Y-69032478D02*
X150864060Y-69032478D01*
X150864060Y-69032478D02*
X150649774Y-68957240D01*
X150649774Y-68957240D02*
X150578346Y-68882001D01*
X150578346Y-68882001D02*
X150578346Y-68355335D01*
X150578346Y-68355335D02*
X150864060Y-68355335D01*
X149935489Y-69032478D02*
X149935489Y-67452478D01*
X149935489Y-67452478D02*
X149364060Y-67452478D01*
X149364060Y-67452478D02*
X149221203Y-67527716D01*
X149221203Y-67527716D02*
X149149774Y-67602954D01*
X149149774Y-67602954D02*
X149078346Y-67753430D01*
X149078346Y-67753430D02*
X149078346Y-67979144D01*
X149078346Y-67979144D02*
X149149774Y-68129620D01*
X149149774Y-68129620D02*
X149221203Y-68204859D01*
X149221203Y-68204859D02*
X149364060Y-68280097D01*
X149364060Y-68280097D02*
X149935489Y-68280097D01*
X147649774Y-69032478D02*
X148506917Y-69032478D01*
X148078346Y-69032478D02*
X148078346Y-67452478D01*
X148078346Y-67452478D02*
X148221203Y-67678192D01*
X148221203Y-67678192D02*
X148364060Y-67828668D01*
X148364060Y-67828668D02*
X148506917Y-67903906D01*
X146221203Y-69032478D02*
X147078346Y-69032478D01*
X146649775Y-69032478D02*
X146649775Y-67452478D01*
X146649775Y-67452478D02*
X146792632Y-67678192D01*
X146792632Y-67678192D02*
X146935489Y-67828668D01*
X146935489Y-67828668D02*
X147078346Y-67903906D01*
X150649774Y-70071428D02*
X150792632Y-69996190D01*
X150792632Y-69996190D02*
X151006917Y-69996190D01*
X151006917Y-69996190D02*
X151221203Y-70071428D01*
X151221203Y-70071428D02*
X151364060Y-70221904D01*
X151364060Y-70221904D02*
X151435489Y-70372380D01*
X151435489Y-70372380D02*
X151506917Y-70673332D01*
X151506917Y-70673332D02*
X151506917Y-70899047D01*
X151506917Y-70899047D02*
X151435489Y-71199999D01*
X151435489Y-71199999D02*
X151364060Y-71350475D01*
X151364060Y-71350475D02*
X151221203Y-71500952D01*
X151221203Y-71500952D02*
X151006917Y-71576190D01*
X151006917Y-71576190D02*
X150864060Y-71576190D01*
X150864060Y-71576190D02*
X150649774Y-71500952D01*
X150649774Y-71500952D02*
X150578346Y-71425713D01*
X150578346Y-71425713D02*
X150578346Y-70899047D01*
X150578346Y-70899047D02*
X150864060Y-70899047D01*
X149935489Y-71576190D02*
X149935489Y-69996190D01*
X149935489Y-69996190D02*
X149364060Y-69996190D01*
X149364060Y-69996190D02*
X149221203Y-70071428D01*
X149221203Y-70071428D02*
X149149774Y-70146666D01*
X149149774Y-70146666D02*
X149078346Y-70297142D01*
X149078346Y-70297142D02*
X149078346Y-70522856D01*
X149078346Y-70522856D02*
X149149774Y-70673332D01*
X149149774Y-70673332D02*
X149221203Y-70748571D01*
X149221203Y-70748571D02*
X149364060Y-70823809D01*
X149364060Y-70823809D02*
X149935489Y-70823809D01*
X147649774Y-71576190D02*
X148506917Y-71576190D01*
X148078346Y-71576190D02*
X148078346Y-69996190D01*
X148078346Y-69996190D02*
X148221203Y-70221904D01*
X148221203Y-70221904D02*
X148364060Y-70372380D01*
X148364060Y-70372380D02*
X148506917Y-70447618D01*
X147078346Y-70146666D02*
X147006918Y-70071428D01*
X147006918Y-70071428D02*
X146864061Y-69996190D01*
X146864061Y-69996190D02*
X146506918Y-69996190D01*
X146506918Y-69996190D02*
X146364061Y-70071428D01*
X146364061Y-70071428D02*
X146292632Y-70146666D01*
X146292632Y-70146666D02*
X146221203Y-70297142D01*
X146221203Y-70297142D02*
X146221203Y-70447618D01*
X146221203Y-70447618D02*
X146292632Y-70673332D01*
X146292632Y-70673332D02*
X147149775Y-71576190D01*
X147149775Y-71576190D02*
X146221203Y-71576190D01*
X150649774Y-72615140D02*
X150792632Y-72539902D01*
X150792632Y-72539902D02*
X151006917Y-72539902D01*
X151006917Y-72539902D02*
X151221203Y-72615140D01*
X151221203Y-72615140D02*
X151364060Y-72765616D01*
X151364060Y-72765616D02*
X151435489Y-72916092D01*
X151435489Y-72916092D02*
X151506917Y-73217044D01*
X151506917Y-73217044D02*
X151506917Y-73442759D01*
X151506917Y-73442759D02*
X151435489Y-73743711D01*
X151435489Y-73743711D02*
X151364060Y-73894187D01*
X151364060Y-73894187D02*
X151221203Y-74044664D01*
X151221203Y-74044664D02*
X151006917Y-74119902D01*
X151006917Y-74119902D02*
X150864060Y-74119902D01*
X150864060Y-74119902D02*
X150649774Y-74044664D01*
X150649774Y-74044664D02*
X150578346Y-73969425D01*
X150578346Y-73969425D02*
X150578346Y-73442759D01*
X150578346Y-73442759D02*
X150864060Y-73442759D01*
X149935489Y-74119902D02*
X149935489Y-72539902D01*
X149935489Y-72539902D02*
X149364060Y-72539902D01*
X149364060Y-72539902D02*
X149221203Y-72615140D01*
X149221203Y-72615140D02*
X149149774Y-72690378D01*
X149149774Y-72690378D02*
X149078346Y-72840854D01*
X149078346Y-72840854D02*
X149078346Y-73066568D01*
X149078346Y-73066568D02*
X149149774Y-73217044D01*
X149149774Y-73217044D02*
X149221203Y-73292283D01*
X149221203Y-73292283D02*
X149364060Y-73367521D01*
X149364060Y-73367521D02*
X149935489Y-73367521D01*
X147649774Y-74119902D02*
X148506917Y-74119902D01*
X148078346Y-74119902D02*
X148078346Y-72539902D01*
X148078346Y-72539902D02*
X148221203Y-72765616D01*
X148221203Y-72765616D02*
X148364060Y-72916092D01*
X148364060Y-72916092D02*
X148506917Y-72991330D01*
X147149775Y-72539902D02*
X146221203Y-72539902D01*
X146221203Y-72539902D02*
X146721203Y-73141806D01*
X146721203Y-73141806D02*
X146506918Y-73141806D01*
X146506918Y-73141806D02*
X146364061Y-73217044D01*
X146364061Y-73217044D02*
X146292632Y-73292283D01*
X146292632Y-73292283D02*
X146221203Y-73442759D01*
X146221203Y-73442759D02*
X146221203Y-73818949D01*
X146221203Y-73818949D02*
X146292632Y-73969425D01*
X146292632Y-73969425D02*
X146364061Y-74044664D01*
X146364061Y-74044664D02*
X146506918Y-74119902D01*
X146506918Y-74119902D02*
X146935489Y-74119902D01*
X146935489Y-74119902D02*
X147078346Y-74044664D01*
X147078346Y-74044664D02*
X147149775Y-73969425D01*
X150649774Y-75158852D02*
X150792632Y-75083614D01*
X150792632Y-75083614D02*
X151006917Y-75083614D01*
X151006917Y-75083614D02*
X151221203Y-75158852D01*
X151221203Y-75158852D02*
X151364060Y-75309328D01*
X151364060Y-75309328D02*
X151435489Y-75459804D01*
X151435489Y-75459804D02*
X151506917Y-75760756D01*
X151506917Y-75760756D02*
X151506917Y-75986471D01*
X151506917Y-75986471D02*
X151435489Y-76287423D01*
X151435489Y-76287423D02*
X151364060Y-76437899D01*
X151364060Y-76437899D02*
X151221203Y-76588376D01*
X151221203Y-76588376D02*
X151006917Y-76663614D01*
X151006917Y-76663614D02*
X150864060Y-76663614D01*
X150864060Y-76663614D02*
X150649774Y-76588376D01*
X150649774Y-76588376D02*
X150578346Y-76513137D01*
X150578346Y-76513137D02*
X150578346Y-75986471D01*
X150578346Y-75986471D02*
X150864060Y-75986471D01*
X149935489Y-76663614D02*
X149935489Y-75083614D01*
X149935489Y-75083614D02*
X149078346Y-76663614D01*
X149078346Y-76663614D02*
X149078346Y-75083614D01*
X148364060Y-76663614D02*
X148364060Y-75083614D01*
X148364060Y-75083614D02*
X148006917Y-75083614D01*
X148006917Y-75083614D02*
X147792631Y-75158852D01*
X147792631Y-75158852D02*
X147649774Y-75309328D01*
X147649774Y-75309328D02*
X147578345Y-75459804D01*
X147578345Y-75459804D02*
X147506917Y-75760756D01*
X147506917Y-75760756D02*
X147506917Y-75986471D01*
X147506917Y-75986471D02*
X147578345Y-76287423D01*
X147578345Y-76287423D02*
X147649774Y-76437899D01*
X147649774Y-76437899D02*
X147792631Y-76588376D01*
X147792631Y-76588376D02*
X148006917Y-76663614D01*
X148006917Y-76663614D02*
X148364060Y-76663614D01*
X150649774Y-77702564D02*
X150792632Y-77627326D01*
X150792632Y-77627326D02*
X151006917Y-77627326D01*
X151006917Y-77627326D02*
X151221203Y-77702564D01*
X151221203Y-77702564D02*
X151364060Y-77853040D01*
X151364060Y-77853040D02*
X151435489Y-78003516D01*
X151435489Y-78003516D02*
X151506917Y-78304468D01*
X151506917Y-78304468D02*
X151506917Y-78530183D01*
X151506917Y-78530183D02*
X151435489Y-78831135D01*
X151435489Y-78831135D02*
X151364060Y-78981611D01*
X151364060Y-78981611D02*
X151221203Y-79132088D01*
X151221203Y-79132088D02*
X151006917Y-79207326D01*
X151006917Y-79207326D02*
X150864060Y-79207326D01*
X150864060Y-79207326D02*
X150649774Y-79132088D01*
X150649774Y-79132088D02*
X150578346Y-79056849D01*
X150578346Y-79056849D02*
X150578346Y-78530183D01*
X150578346Y-78530183D02*
X150864060Y-78530183D01*
X149935489Y-79207326D02*
X149935489Y-77627326D01*
X149935489Y-77627326D02*
X149364060Y-77627326D01*
X149364060Y-77627326D02*
X149221203Y-77702564D01*
X149221203Y-77702564D02*
X149149774Y-77777802D01*
X149149774Y-77777802D02*
X149078346Y-77928278D01*
X149078346Y-77928278D02*
X149078346Y-78153992D01*
X149078346Y-78153992D02*
X149149774Y-78304468D01*
X149149774Y-78304468D02*
X149221203Y-78379707D01*
X149221203Y-78379707D02*
X149364060Y-78454945D01*
X149364060Y-78454945D02*
X149935489Y-78454945D01*
X147649774Y-79207326D02*
X148506917Y-79207326D01*
X148078346Y-79207326D02*
X148078346Y-77627326D01*
X148078346Y-77627326D02*
X148221203Y-77853040D01*
X148221203Y-77853040D02*
X148364060Y-78003516D01*
X148364060Y-78003516D02*
X148506917Y-78078754D01*
X146364061Y-78153992D02*
X146364061Y-79207326D01*
X146721203Y-77552088D02*
X147078346Y-78680659D01*
X147078346Y-78680659D02*
X146149775Y-78680659D01*
X150649774Y-80246276D02*
X150792632Y-80171038D01*
X150792632Y-80171038D02*
X151006917Y-80171038D01*
X151006917Y-80171038D02*
X151221203Y-80246276D01*
X151221203Y-80246276D02*
X151364060Y-80396752D01*
X151364060Y-80396752D02*
X151435489Y-80547228D01*
X151435489Y-80547228D02*
X151506917Y-80848180D01*
X151506917Y-80848180D02*
X151506917Y-81073895D01*
X151506917Y-81073895D02*
X151435489Y-81374847D01*
X151435489Y-81374847D02*
X151364060Y-81525323D01*
X151364060Y-81525323D02*
X151221203Y-81675800D01*
X151221203Y-81675800D02*
X151006917Y-81751038D01*
X151006917Y-81751038D02*
X150864060Y-81751038D01*
X150864060Y-81751038D02*
X150649774Y-81675800D01*
X150649774Y-81675800D02*
X150578346Y-81600561D01*
X150578346Y-81600561D02*
X150578346Y-81073895D01*
X150578346Y-81073895D02*
X150864060Y-81073895D01*
X149935489Y-81751038D02*
X149935489Y-80171038D01*
X149935489Y-80171038D02*
X149364060Y-80171038D01*
X149364060Y-80171038D02*
X149221203Y-80246276D01*
X149221203Y-80246276D02*
X149149774Y-80321514D01*
X149149774Y-80321514D02*
X149078346Y-80471990D01*
X149078346Y-80471990D02*
X149078346Y-80697704D01*
X149078346Y-80697704D02*
X149149774Y-80848180D01*
X149149774Y-80848180D02*
X149221203Y-80923419D01*
X149221203Y-80923419D02*
X149364060Y-80998657D01*
X149364060Y-80998657D02*
X149935489Y-80998657D01*
X147649774Y-81751038D02*
X148506917Y-81751038D01*
X148078346Y-81751038D02*
X148078346Y-80171038D01*
X148078346Y-80171038D02*
X148221203Y-80396752D01*
X148221203Y-80396752D02*
X148364060Y-80547228D01*
X148364060Y-80547228D02*
X148506917Y-80622466D01*
X146292632Y-80171038D02*
X147006918Y-80171038D01*
X147006918Y-80171038D02*
X147078346Y-80923419D01*
X147078346Y-80923419D02*
X147006918Y-80848180D01*
X147006918Y-80848180D02*
X146864061Y-80772942D01*
X146864061Y-80772942D02*
X146506918Y-80772942D01*
X146506918Y-80772942D02*
X146364061Y-80848180D01*
X146364061Y-80848180D02*
X146292632Y-80923419D01*
X146292632Y-80923419D02*
X146221203Y-81073895D01*
X146221203Y-81073895D02*
X146221203Y-81450085D01*
X146221203Y-81450085D02*
X146292632Y-81600561D01*
X146292632Y-81600561D02*
X146364061Y-81675800D01*
X146364061Y-81675800D02*
X146506918Y-81751038D01*
X146506918Y-81751038D02*
X146864061Y-81751038D01*
X146864061Y-81751038D02*
X147006918Y-81675800D01*
X147006918Y-81675800D02*
X147078346Y-81600561D01*
D12*
G36*
X132813946Y-102320000D02*
G01*
X134135544Y-102320000D01*
X134135544Y-102115568D01*
X133612009Y-101586416D01*
X133357264Y-101317627D01*
X133263949Y-101197730D01*
X133200460Y-101086695D01*
X133160756Y-100969060D01*
X133147215Y-100838789D01*
X133159209Y-100732985D01*
X133192346Y-100651362D01*
X133245279Y-100588196D01*
X133314974Y-100541817D01*
X133398651Y-100513033D01*
X133500024Y-100502833D01*
X133639747Y-100516017D01*
X133756235Y-100553269D01*
X133865187Y-100611781D01*
X133981549Y-100693220D01*
X134113196Y-100527990D01*
X133988327Y-100438281D01*
X133843063Y-100361416D01*
X133739258Y-100323887D01*
X133625466Y-100300763D01*
X133500024Y-100292784D01*
X133359980Y-100302698D01*
X133241890Y-100330591D01*
X133142068Y-100374605D01*
X133057578Y-100434200D01*
X132987548Y-100510224D01*
X132937333Y-100598812D01*
X132906140Y-100702462D01*
X132895157Y-100824745D01*
X132902424Y-100927826D01*
X132923920Y-101025486D01*
X132959637Y-101118813D01*
X133034934Y-101252423D01*
X133138789Y-101389068D01*
X133259819Y-101522835D01*
X133407578Y-101673244D01*
X133824745Y-102084794D01*
X133824745Y-102096029D01*
X132813946Y-102096029D01*
X132813946Y-102320000D01*
G37*
G36*
X131990429Y-100298390D02*
G01*
X132092166Y-100322238D01*
X132179745Y-100360164D01*
X132255362Y-100411852D01*
X132340706Y-100501267D01*
X132411383Y-100616665D01*
X132466755Y-100763196D01*
X132501744Y-100917589D01*
X132524439Y-101100956D01*
X132532578Y-101317627D01*
X132520663Y-101565543D01*
X132487717Y-101770137D01*
X132437229Y-101938026D01*
X132371622Y-102075024D01*
X132299446Y-102173990D01*
X132215309Y-102249013D01*
X132117913Y-102302831D01*
X132004637Y-102336228D01*
X131871779Y-102347965D01*
X131751598Y-102339436D01*
X131648961Y-102315305D01*
X131560988Y-102276998D01*
X131485387Y-102224867D01*
X131399873Y-102134554D01*
X131328701Y-102018171D01*
X131272529Y-101870593D01*
X131236731Y-101715180D01*
X131213619Y-101532193D01*
X131205362Y-101317627D01*
X131454490Y-101317627D01*
X131462129Y-101533967D01*
X131482724Y-101703904D01*
X131513194Y-101835269D01*
X131551088Y-101935073D01*
X131608757Y-102025520D01*
X131679629Y-102087341D01*
X131765736Y-102124828D01*
X131871779Y-102138039D01*
X131979120Y-102124656D01*
X132065497Y-102086812D01*
X132135868Y-102024574D01*
X132192348Y-101933607D01*
X132239957Y-101793211D01*
X132273326Y-101593540D01*
X132286137Y-101317627D01*
X132273350Y-101043582D01*
X132240004Y-100844737D01*
X132192348Y-100704455D01*
X132135868Y-100613489D01*
X132065497Y-100551251D01*
X131979120Y-100513407D01*
X131871779Y-100500024D01*
X131765842Y-100513301D01*
X131679762Y-100551003D01*
X131608844Y-100613253D01*
X131551088Y-100704455D01*
X131513060Y-100804916D01*
X131482598Y-100936044D01*
X131462080Y-101104480D01*
X131454490Y-101317627D01*
X131205362Y-101317627D01*
X131217633Y-101068180D01*
X131251500Y-100863294D01*
X131303316Y-100696006D01*
X131370593Y-100560230D01*
X131444192Y-100462161D01*
X131529244Y-100387817D01*
X131627021Y-100334541D01*
X131740026Y-100301544D01*
X131871779Y-100289975D01*
X131990429Y-100298390D01*
G37*
G36*
X129613387Y-102320000D02*
G01*
X130934986Y-102320000D01*
X130934986Y-102115568D01*
X130411451Y-101586416D01*
X130156706Y-101317627D01*
X130063391Y-101197730D01*
X129999902Y-101086695D01*
X129960198Y-100969060D01*
X129946657Y-100838789D01*
X129958651Y-100732985D01*
X129991788Y-100651362D01*
X130044720Y-100588196D01*
X130114416Y-100541817D01*
X130198093Y-100513033D01*
X130299466Y-100502833D01*
X130439189Y-100516017D01*
X130555676Y-100553269D01*
X130664628Y-100611781D01*
X130780990Y-100693220D01*
X130912637Y-100527990D01*
X130787769Y-100438281D01*
X130642505Y-100361416D01*
X130538699Y-100323887D01*
X130424908Y-100300763D01*
X130299466Y-100292784D01*
X130159422Y-100302698D01*
X130041332Y-100330591D01*
X129941509Y-100374605D01*
X129857020Y-100434200D01*
X129786990Y-100510224D01*
X129736775Y-100598812D01*
X129705581Y-100702462D01*
X129694598Y-100824745D01*
X129701866Y-100927826D01*
X129723362Y-101025486D01*
X129759078Y-101118813D01*
X129834376Y-101252423D01*
X129938230Y-101389068D01*
X130059261Y-101522835D01*
X130207020Y-101673244D01*
X130624187Y-102084794D01*
X130624187Y-102096029D01*
X129613387Y-102096029D01*
X129613387Y-102320000D01*
G37*
G36*
X128586067Y-100305316D02*
G01*
X128738010Y-100339988D01*
X128861608Y-100393656D01*
X128973197Y-100469273D01*
X129065451Y-100558977D01*
X129140167Y-100663789D01*
X129199000Y-100779697D01*
X129244823Y-100905335D01*
X129277431Y-101041877D01*
X129305695Y-101251777D01*
X129315167Y-101466004D01*
X129303840Y-101664510D01*
X129272488Y-101827772D01*
X129224187Y-101961573D01*
X129154069Y-102084597D01*
X129072514Y-102180407D01*
X128979211Y-102252833D01*
X128873117Y-102305445D01*
X128758988Y-102337157D01*
X128634706Y-102347965D01*
X128491219Y-102335830D01*
X128368534Y-102301308D01*
X128262846Y-102245814D01*
X128171378Y-102168813D01*
X128098361Y-102074573D01*
X128044877Y-101963405D01*
X128011152Y-101832002D01*
X127999187Y-101676053D01*
X128242819Y-101676053D01*
X128250949Y-101796620D01*
X128273194Y-101892393D01*
X128307218Y-101968065D01*
X128351995Y-102027397D01*
X128431061Y-102089742D01*
X128524788Y-102127587D01*
X128637515Y-102140847D01*
X128730054Y-102131770D01*
X128808475Y-102105902D01*
X128875652Y-102063911D01*
X128933525Y-102008195D01*
X128980967Y-101943235D01*
X129018412Y-101867906D01*
X129054221Y-101747590D01*
X129065917Y-101628426D01*
X129052647Y-101541402D01*
X129011329Y-101454769D01*
X128946962Y-101379074D01*
X128858799Y-101316161D01*
X128754644Y-101275767D01*
X128629211Y-101261573D01*
X128505351Y-101275404D01*
X128411124Y-101313359D01*
X128339417Y-101373558D01*
X128287434Y-101453377D01*
X128254618Y-101552480D01*
X128242819Y-101676053D01*
X127999187Y-101676053D01*
X128010412Y-101530934D01*
X128041854Y-101410458D01*
X128091418Y-101310162D01*
X128158799Y-101226646D01*
X128243175Y-101158518D01*
X128339608Y-101109466D01*
X128450426Y-101079036D01*
X128578775Y-101068377D01*
X128696606Y-101076832D01*
X128793320Y-101100340D01*
X128872721Y-101137009D01*
X128976394Y-101214328D01*
X129051995Y-101303583D01*
X129068726Y-101303583D01*
X129053833Y-101141278D01*
X129026838Y-100992784D01*
X128982319Y-100853925D01*
X128919005Y-100735230D01*
X128863996Y-100666430D01*
X128796811Y-100607820D01*
X128716039Y-100558886D01*
X128627816Y-100524464D01*
X128521646Y-100502343D01*
X128394005Y-100494406D01*
X128266632Y-100502833D01*
X128153182Y-100527990D01*
X128153182Y-100317941D01*
X128269441Y-100298401D01*
X128399623Y-100292784D01*
X128586067Y-100305316D01*
G37*
G36*
X126307561Y-102320000D02*
G01*
X127030031Y-102320000D01*
X127030031Y-102174431D01*
X126794825Y-102121186D01*
X126794825Y-100522372D01*
X127030031Y-100466441D01*
X127030031Y-100320750D01*
X126307561Y-100320750D01*
X126307561Y-100466441D01*
X126542766Y-100522372D01*
X126542766Y-102121186D01*
X126307561Y-102174431D01*
X126307561Y-102320000D01*
G37*
G36*
X125233991Y-100791161D02*
G01*
X125098609Y-100800635D01*
X124988768Y-100826830D01*
X124899816Y-100867401D01*
X124828060Y-100921465D01*
X124771921Y-100990272D01*
X124729194Y-101079841D01*
X124701118Y-101195210D01*
X124690795Y-101342784D01*
X124690795Y-102320000D01*
X124934305Y-102320000D01*
X124934305Y-101359637D01*
X124945307Y-101240742D01*
X124974932Y-101152113D01*
X125020327Y-101086583D01*
X125081896Y-101039502D01*
X125163203Y-101009429D01*
X125270383Y-100998401D01*
X125395166Y-101008883D01*
X125490051Y-101037226D01*
X125561684Y-101080527D01*
X125614766Y-101138475D01*
X125664427Y-101236602D01*
X125697542Y-101367908D01*
X125709898Y-101541598D01*
X125709898Y-102320000D01*
X125956339Y-102320000D01*
X125956339Y-100819249D01*
X125757526Y-100819249D01*
X125721133Y-101023558D01*
X125707212Y-101023558D01*
X125652395Y-100951834D01*
X125585659Y-100893837D01*
X125505589Y-100848558D01*
X125373470Y-100805553D01*
X125233991Y-100791161D01*
G37*
G36*
X123725914Y-102146343D02*
G01*
X123611120Y-102136573D01*
X123515865Y-102115568D01*
X123515865Y-102303147D01*
X123559673Y-102319919D01*
X123627972Y-102335387D01*
X123767923Y-102347965D01*
X123882187Y-102337602D01*
X123984933Y-102307421D01*
X124046302Y-102274129D01*
X124099732Y-102227548D01*
X124146011Y-102166004D01*
X124178170Y-102095980D01*
X124199597Y-102003639D01*
X124207561Y-101883171D01*
X124207561Y-101009637D01*
X124420296Y-101009637D01*
X124420296Y-100892034D01*
X124204752Y-100793970D01*
X124106688Y-100474745D01*
X123961120Y-100474745D01*
X123961120Y-100819249D01*
X123527100Y-100819249D01*
X123527100Y-101009637D01*
X123961120Y-101009637D01*
X123961120Y-101877554D01*
X123952672Y-101966731D01*
X123930003Y-102032534D01*
X123895296Y-102080642D01*
X123847886Y-102116769D01*
X123792228Y-102138684D01*
X123725914Y-102146343D01*
G37*
G36*
X122516912Y-100791161D02*
G01*
X122425931Y-100795436D01*
X122340568Y-100808014D01*
X122371343Y-101034794D01*
X122451210Y-101020872D01*
X122533764Y-101015254D01*
X122608525Y-101022214D01*
X122680026Y-101043018D01*
X122749431Y-101078269D01*
X122811488Y-101125263D01*
X122864987Y-101183606D01*
X122910387Y-101254612D01*
X122943087Y-101332263D01*
X122963392Y-101419852D01*
X122970471Y-101519249D01*
X122970471Y-102320000D01*
X123216912Y-102320000D01*
X123216912Y-100819249D01*
X123015289Y-100819249D01*
X122987323Y-101093656D01*
X122976088Y-101093656D01*
X122893000Y-100979057D01*
X122788510Y-100880799D01*
X122708030Y-100831334D01*
X122618343Y-100801451D01*
X122516912Y-100791161D01*
G37*
G36*
X121662211Y-100804823D02*
G01*
X121797290Y-100843651D01*
X121913268Y-100906070D01*
X122013283Y-100992784D01*
X122091815Y-101098207D01*
X122150184Y-101225805D01*
X122187488Y-101380084D01*
X122200861Y-101566755D01*
X122190054Y-101731001D01*
X122159548Y-101871147D01*
X122111346Y-101991004D01*
X122042980Y-102100054D01*
X121961590Y-102187921D01*
X121866371Y-102256985D01*
X121759469Y-102306972D01*
X121642139Y-102337471D01*
X121512096Y-102347965D01*
X121353747Y-102334174D01*
X121218473Y-102294918D01*
X121101966Y-102231688D01*
X121001140Y-102143656D01*
X120921844Y-102036795D01*
X120863025Y-101908138D01*
X120825517Y-101753308D01*
X120812096Y-101566755D01*
X121066842Y-101566755D01*
X121080221Y-101741497D01*
X121116872Y-101879563D01*
X121173332Y-101988318D01*
X121232539Y-102054988D01*
X121305623Y-102102839D01*
X121395452Y-102132897D01*
X121506479Y-102143656D01*
X121619050Y-102132823D01*
X121709500Y-102102658D01*
X121782507Y-102054803D01*
X121841092Y-101988318D01*
X121896733Y-101879672D01*
X121932903Y-101741606D01*
X121946116Y-101566755D01*
X121932981Y-101391860D01*
X121897225Y-101255438D01*
X121842557Y-101149588D01*
X121784865Y-101085151D01*
X121712458Y-101038542D01*
X121622191Y-101009031D01*
X121509288Y-100998401D01*
X121396414Y-101008987D01*
X121305608Y-101038446D01*
X121232264Y-101085071D01*
X121173332Y-101149588D01*
X121117029Y-101255662D01*
X121080311Y-101392086D01*
X121066842Y-101566755D01*
X120812096Y-101566755D01*
X120822799Y-101402502D01*
X120852901Y-101263406D01*
X120900268Y-101145436D01*
X120967615Y-101038240D01*
X121048524Y-100951243D01*
X121143900Y-100882264D01*
X121250804Y-100832402D01*
X121369878Y-100801768D01*
X121503670Y-100791161D01*
X121662211Y-100804823D01*
G37*
G36*
X119196674Y-102146343D02*
G01*
X119081880Y-102136573D01*
X118986625Y-102115568D01*
X118986625Y-102303147D01*
X119030434Y-102319919D01*
X119098733Y-102335387D01*
X119238684Y-102347965D01*
X119352948Y-102337602D01*
X119455694Y-102307421D01*
X119517063Y-102274129D01*
X119570492Y-102227548D01*
X119616772Y-102166004D01*
X119648931Y-102095980D01*
X119670358Y-102003639D01*
X119678321Y-101883171D01*
X119678321Y-101009637D01*
X119891057Y-101009637D01*
X119891057Y-100892034D01*
X119675512Y-100793970D01*
X119577449Y-100474745D01*
X119431880Y-100474745D01*
X119431880Y-100819249D01*
X118997861Y-100819249D01*
X118997861Y-101009637D01*
X119431880Y-101009637D01*
X119431880Y-101877554D01*
X119423433Y-101966731D01*
X119400764Y-102032534D01*
X119366057Y-102080642D01*
X119318646Y-102116769D01*
X119262989Y-102138684D01*
X119196674Y-102146343D01*
G37*
G36*
X118233041Y-100804823D02*
G01*
X118368121Y-100843651D01*
X118484098Y-100906070D01*
X118584113Y-100992784D01*
X118662646Y-101098207D01*
X118721015Y-101225805D01*
X118758318Y-101380084D01*
X118771692Y-101566755D01*
X118760884Y-101731001D01*
X118730378Y-101871147D01*
X118682177Y-101991004D01*
X118613810Y-102100054D01*
X118532420Y-102187921D01*
X118437201Y-102256985D01*
X118330300Y-102306972D01*
X118212969Y-102337471D01*
X118082927Y-102347965D01*
X117924577Y-102334174D01*
X117789304Y-102294918D01*
X117672796Y-102231688D01*
X117571971Y-102143656D01*
X117492674Y-102036795D01*
X117433856Y-101908138D01*
X117396347Y-101753308D01*
X117382927Y-101566755D01*
X117637672Y-101566755D01*
X117651051Y-101741497D01*
X117687703Y-101879563D01*
X117744162Y-101988318D01*
X117803369Y-102054988D01*
X117876453Y-102102839D01*
X117966282Y-102132897D01*
X118077309Y-102143656D01*
X118189880Y-102132823D01*
X118280331Y-102102658D01*
X118353337Y-102054803D01*
X118411922Y-101988318D01*
X118467563Y-101879672D01*
X118503733Y-101741606D01*
X118516946Y-101566755D01*
X118503811Y-101391860D01*
X118468055Y-101255438D01*
X118413387Y-101149588D01*
X118355695Y-101085151D01*
X118283289Y-101038542D01*
X118193021Y-101009031D01*
X118080118Y-100998401D01*
X117967244Y-101008987D01*
X117876438Y-101038446D01*
X117803094Y-101085071D01*
X117744162Y-101149588D01*
X117687860Y-101255662D01*
X117651141Y-101392086D01*
X117637672Y-101566755D01*
X117382927Y-101566755D01*
X117393629Y-101402502D01*
X117423731Y-101263406D01*
X117471099Y-101145436D01*
X117538445Y-101038240D01*
X117619355Y-100951243D01*
X117714731Y-100882264D01*
X117821635Y-100832402D01*
X117940709Y-100801768D01*
X118074501Y-100791161D01*
X118233041Y-100804823D01*
G37*
G36*
X115378304Y-100513946D02*
G01*
X115535978Y-100528426D01*
X115670206Y-100569662D01*
X115785540Y-100636292D01*
X115885108Y-100729612D01*
X115962733Y-100841513D01*
X116020272Y-100974422D01*
X116056847Y-101132384D01*
X116069877Y-101320436D01*
X116057680Y-101507632D01*
X116023461Y-101665206D01*
X115969766Y-101797949D01*
X115897686Y-101909794D01*
X115824325Y-101985886D01*
X115738260Y-102045459D01*
X115637627Y-102089319D01*
X115519712Y-102117002D01*
X115381113Y-102126803D01*
X115251502Y-102121083D01*
X115131863Y-102104455D01*
X114902274Y-102048401D01*
X114902274Y-102266755D01*
X115015910Y-102303115D01*
X115133328Y-102328304D01*
X115257986Y-102342635D01*
X115417505Y-102347965D01*
X115570869Y-102339279D01*
X115705267Y-102314534D01*
X115823278Y-102275203D01*
X115927117Y-102222058D01*
X116022519Y-102152759D01*
X116104930Y-102070679D01*
X116175246Y-101974824D01*
X116233764Y-101863632D01*
X116288927Y-101705548D01*
X116323652Y-101524790D01*
X116335858Y-101317627D01*
X116322843Y-101118499D01*
X116285465Y-100941791D01*
X116225338Y-100784200D01*
X116162889Y-100674119D01*
X116088122Y-100577979D01*
X116000553Y-100494513D01*
X115899152Y-100422965D01*
X115789517Y-100367645D01*
X115667043Y-100327004D01*
X115529789Y-100301630D01*
X115375495Y-100292784D01*
X115167223Y-100306727D01*
X114984652Y-100346574D01*
X114823872Y-100410387D01*
X114924745Y-100623244D01*
X115020269Y-100584107D01*
X115130519Y-100547651D01*
X115247153Y-100522643D01*
X115378304Y-100513946D01*
G37*
G36*
X114738387Y-102320000D02*
G01*
X114483642Y-102320000D01*
X114245628Y-101701210D01*
X113453182Y-101701210D01*
X113212358Y-102320000D01*
X112951995Y-102320000D01*
X113278764Y-101477240D01*
X113528775Y-101477240D01*
X114161608Y-101477240D01*
X113934829Y-100872372D01*
X113892819Y-100742191D01*
X113848000Y-100572808D01*
X113818569Y-100669406D01*
X113780833Y-100791284D01*
X113752745Y-100872372D01*
X113528775Y-101477240D01*
X113278764Y-101477240D01*
X113730397Y-100312445D01*
X113957177Y-100312445D01*
X114738387Y-102320000D01*
G37*
G36*
X112678932Y-102320000D02*
G01*
X112121692Y-102320000D01*
X111921210Y-102308325D01*
X111747643Y-102275228D01*
X111597170Y-102222872D01*
X111466538Y-102152382D01*
X111353182Y-102063789D01*
X111258152Y-101957169D01*
X111182489Y-101831099D01*
X111126039Y-101682513D01*
X111090093Y-101507355D01*
X111077830Y-101309200D01*
X111343290Y-101309200D01*
X111354912Y-101488104D01*
X111387291Y-101636356D01*
X111437711Y-101759097D01*
X111504940Y-101860540D01*
X111589315Y-101943736D01*
X111692719Y-102010349D01*
X111818415Y-102060517D01*
X111970820Y-102092833D01*
X112155275Y-102104455D01*
X112426873Y-102104455D01*
X112426873Y-100536416D01*
X112099344Y-100536416D01*
X111918588Y-100549621D01*
X111768671Y-100586530D01*
X111644149Y-100644452D01*
X111540760Y-100722651D01*
X111474020Y-100799459D01*
X111420062Y-100893165D01*
X111379180Y-101006724D01*
X111352782Y-101143918D01*
X111343290Y-101309200D01*
X111077830Y-101309200D01*
X111077309Y-101300774D01*
X111085672Y-101138346D01*
X111109455Y-100996061D01*
X111147121Y-100871323D01*
X111197721Y-100761852D01*
X111264636Y-100659381D01*
X111343366Y-100571084D01*
X111434560Y-100495781D01*
X111539417Y-100432857D01*
X111690726Y-100372142D01*
X111863909Y-100334103D01*
X112062951Y-100320750D01*
X112678932Y-100320750D01*
X112678932Y-102320000D01*
G37*
G36*
X132881235Y-105680000D02*
G01*
X133998401Y-105680000D01*
X133998401Y-103680750D01*
X132881235Y-103680750D01*
X132881235Y-103902034D01*
X133746343Y-103902034D01*
X133746343Y-104526441D01*
X132931549Y-104526441D01*
X132931549Y-104744794D01*
X133746343Y-104744794D01*
X133746343Y-105458838D01*
X132881235Y-105458838D01*
X132881235Y-105680000D01*
G37*
G36*
X132121029Y-104912833D02*
G01*
X132639068Y-104179249D01*
X132359043Y-104179249D01*
X131972651Y-104744794D01*
X131589068Y-104179249D01*
X131311852Y-104179249D01*
X131829891Y-104912833D01*
X131283886Y-105680000D01*
X131563911Y-105680000D01*
X131972651Y-105080750D01*
X132387009Y-105680000D01*
X132664225Y-105680000D01*
X132121029Y-104912833D01*
G37*
G36*
X130401479Y-104159622D02*
G01*
X130497001Y-104182820D01*
X130572773Y-104218450D01*
X130672270Y-104294082D01*
X130749117Y-104383558D01*
X130760352Y-104383558D01*
X130793935Y-104179249D01*
X130995558Y-104179249D01*
X130995558Y-106352034D01*
X130749117Y-106352034D01*
X130749117Y-105736053D01*
X130754734Y-105610024D01*
X130765969Y-105489612D01*
X130749117Y-105489612D01*
X130674666Y-105569333D01*
X130571430Y-105642264D01*
X130493135Y-105677424D01*
X130398585Y-105699905D01*
X130284323Y-105707965D01*
X130148069Y-105694906D01*
X130029999Y-105657380D01*
X129926468Y-105596074D01*
X129835038Y-105509274D01*
X129765208Y-105406509D01*
X129712315Y-105278883D01*
X129677978Y-105121112D01*
X129665533Y-104926755D01*
X129665712Y-104923946D01*
X129920401Y-104923946D01*
X129931837Y-105086359D01*
X129963876Y-105222166D01*
X129998947Y-105305172D01*
X130042825Y-105373097D01*
X130095401Y-105428063D01*
X130157979Y-105469260D01*
X130232072Y-105494693D01*
X130320715Y-105503656D01*
X130443199Y-105492586D01*
X130536158Y-105462580D01*
X130606306Y-105416399D01*
X130658136Y-105353813D01*
X130705477Y-105249643D01*
X130737244Y-105110417D01*
X130749117Y-104926755D01*
X130749117Y-104879249D01*
X130733399Y-104705296D01*
X130698816Y-104578241D01*
X130649832Y-104487240D01*
X130598144Y-104433756D01*
X130529949Y-104393889D01*
X130441217Y-104367938D01*
X130326332Y-104358401D01*
X130225837Y-104368828D01*
X130143603Y-104398190D01*
X130075710Y-104445512D01*
X130019808Y-104512397D01*
X129967074Y-104619609D01*
X129932861Y-104754559D01*
X129920401Y-104923946D01*
X129665712Y-104923946D01*
X129678134Y-104729096D01*
X129712700Y-104570686D01*
X129765601Y-104444386D01*
X129835038Y-104344357D01*
X129926143Y-104260069D01*
X130029141Y-104200421D01*
X130146425Y-104163877D01*
X130281514Y-104151161D01*
X130401479Y-104159622D01*
G37*
G36*
X128824289Y-104162210D02*
G01*
X128939620Y-104194170D01*
X129043203Y-104246416D01*
X129134491Y-104317845D01*
X129211733Y-104407566D01*
X129275600Y-104518014D01*
X129320052Y-104638305D01*
X129348198Y-104778089D01*
X129358154Y-104940799D01*
X129347132Y-105104971D01*
X129316100Y-105244095D01*
X129267173Y-105362240D01*
X129197552Y-105468645D01*
X129113057Y-105554269D01*
X129012428Y-105621259D01*
X128900212Y-105668632D01*
X128775467Y-105697844D01*
X128635806Y-105707965D01*
X128487000Y-105701534D01*
X128369703Y-105684152D01*
X128258292Y-105654190D01*
X128142923Y-105610024D01*
X128142923Y-105394357D01*
X128260490Y-105439414D01*
X128371168Y-105471416D01*
X128485996Y-105490979D01*
X128624570Y-105498039D01*
X128735403Y-105488859D01*
X128828410Y-105462971D01*
X128906878Y-105421753D01*
X128973227Y-105365048D01*
X129025347Y-105295572D01*
X129065125Y-105210085D01*
X129091808Y-105105321D01*
X129103408Y-104977191D01*
X128075757Y-104977191D01*
X128075757Y-104828813D01*
X128078872Y-104781186D01*
X128333311Y-104781186D01*
X129097791Y-104781186D01*
X129073831Y-104650572D01*
X129032636Y-104547355D01*
X128975914Y-104466235D01*
X128901090Y-104404140D01*
X128809877Y-104366201D01*
X128697355Y-104352784D01*
X128604793Y-104361189D01*
X128530524Y-104384521D01*
X128470766Y-104421283D01*
X128422948Y-104471852D01*
X128375992Y-104555267D01*
X128345516Y-104656939D01*
X128333311Y-104781186D01*
X128078872Y-104781186D01*
X128084563Y-104694163D01*
X128109729Y-104575997D01*
X128150006Y-104471852D01*
X128207265Y-104376796D01*
X128277860Y-104298492D01*
X128362742Y-104235181D01*
X128458432Y-104189505D01*
X128568065Y-104161108D01*
X128694546Y-104151161D01*
X128824289Y-104162210D01*
G37*
G36*
X126995348Y-104151161D02*
G01*
X126904368Y-104155436D01*
X126819005Y-104168014D01*
X126849780Y-104394794D01*
X126929647Y-104380872D01*
X127012201Y-104375254D01*
X127086962Y-104382214D01*
X127158463Y-104403018D01*
X127227868Y-104438269D01*
X127289925Y-104485263D01*
X127343424Y-104543606D01*
X127388824Y-104614612D01*
X127421524Y-104692263D01*
X127441828Y-104779852D01*
X127448907Y-104879249D01*
X127448907Y-105680000D01*
X127695348Y-105680000D01*
X127695348Y-104179249D01*
X127493726Y-104179249D01*
X127465760Y-104453656D01*
X127454525Y-104453656D01*
X127371437Y-104339057D01*
X127266946Y-104240799D01*
X127186466Y-104191334D01*
X127096780Y-104161451D01*
X126995348Y-104151161D01*
G37*
G36*
X126414539Y-103616392D02*
G01*
X126361933Y-103625787D01*
X126315254Y-103654249D01*
X126283672Y-103700138D01*
X126271779Y-103773196D01*
X126283507Y-103844063D01*
X126315254Y-103890799D01*
X126362031Y-103920309D01*
X126414539Y-103930000D01*
X126471765Y-103920021D01*
X126518220Y-103890799D01*
X126548844Y-103844204D01*
X126560230Y-103773196D01*
X126548682Y-103699990D01*
X126518220Y-103654249D01*
X126471869Y-103626067D01*
X126414539Y-103616392D01*
G37*
G36*
X126294127Y-104179249D02*
G01*
X126294127Y-105680000D01*
X126540568Y-105680000D01*
X126540568Y-104179249D01*
X126294127Y-104179249D01*
G37*
G36*
X124173122Y-104151161D02*
G01*
X124045196Y-104160620D01*
X123942029Y-104186744D01*
X123858950Y-104227252D01*
X123792348Y-104281465D01*
X123741273Y-104349464D01*
X123701958Y-104438660D01*
X123675927Y-104554277D01*
X123666318Y-104702784D01*
X123666318Y-105680000D01*
X123909951Y-105680000D01*
X123909951Y-104714019D01*
X123920327Y-104594962D01*
X123948079Y-104507052D01*
X123990123Y-104442900D01*
X124046336Y-104397480D01*
X124119567Y-104368828D01*
X124215132Y-104358401D01*
X124324073Y-104367599D01*
X124409352Y-104392788D01*
X124475945Y-104431778D01*
X124527397Y-104484431D01*
X124576494Y-104573493D01*
X124609053Y-104692849D01*
X124621186Y-104851161D01*
X124621186Y-105680000D01*
X124864818Y-105680000D01*
X124864818Y-104714019D01*
X124875246Y-104595190D01*
X124903155Y-104507354D01*
X124945491Y-104443161D01*
X125002187Y-104397636D01*
X125076161Y-104368877D01*
X125172808Y-104358401D01*
X125285284Y-104368656D01*
X125371437Y-104396572D01*
X125437169Y-104439744D01*
X125486416Y-104498475D01*
X125531457Y-104595945D01*
X125561764Y-104727235D01*
X125573122Y-104901598D01*
X125573122Y-105680000D01*
X125819563Y-105680000D01*
X125819563Y-104179249D01*
X125620750Y-104179249D01*
X125584357Y-104383558D01*
X125570436Y-104383558D01*
X125517755Y-104311258D01*
X125455066Y-104253365D01*
X125381392Y-104208558D01*
X125258757Y-104165567D01*
X125127990Y-104151161D01*
X124986303Y-104163062D01*
X124874890Y-104195715D01*
X124787464Y-104246328D01*
X124719519Y-104314697D01*
X124668813Y-104403220D01*
X124654769Y-104403220D01*
X124597724Y-104324142D01*
X124529506Y-104261184D01*
X124448995Y-104212833D01*
X124360491Y-104178573D01*
X124268862Y-104158063D01*
X124173122Y-104151161D01*
G37*
G36*
X122753389Y-104162210D02*
G01*
X122868720Y-104194170D01*
X122972302Y-104246416D01*
X123063591Y-104317845D01*
X123140833Y-104407566D01*
X123204699Y-104518014D01*
X123249152Y-104638305D01*
X123277298Y-104778089D01*
X123287254Y-104940799D01*
X123276232Y-105104971D01*
X123245200Y-105244095D01*
X123196273Y-105362240D01*
X123126652Y-105468645D01*
X123042156Y-105554269D01*
X122941528Y-105621259D01*
X122829312Y-105668632D01*
X122704566Y-105697844D01*
X122564905Y-105707965D01*
X122416100Y-105701534D01*
X122298803Y-105684152D01*
X122187392Y-105654190D01*
X122072023Y-105610024D01*
X122072023Y-105394357D01*
X122189590Y-105439414D01*
X122300268Y-105471416D01*
X122415096Y-105490979D01*
X122553670Y-105498039D01*
X122664503Y-105488859D01*
X122757510Y-105462971D01*
X122835978Y-105421753D01*
X122902327Y-105365048D01*
X122954447Y-105295572D01*
X122994225Y-105210085D01*
X123020907Y-105105321D01*
X123032508Y-104977191D01*
X122004856Y-104977191D01*
X122004856Y-104828813D01*
X122007971Y-104781186D01*
X122262411Y-104781186D01*
X123026891Y-104781186D01*
X123002931Y-104650572D01*
X122961736Y-104547355D01*
X122905013Y-104466235D01*
X122830190Y-104404140D01*
X122738976Y-104366201D01*
X122626454Y-104352784D01*
X122533893Y-104361189D01*
X122459623Y-104384521D01*
X122399866Y-104421283D01*
X122352048Y-104471852D01*
X122305092Y-104555267D01*
X122274616Y-104656939D01*
X122262411Y-104781186D01*
X122007971Y-104781186D01*
X122013662Y-104694163D01*
X122038829Y-104575997D01*
X122079106Y-104471852D01*
X122136364Y-104376796D01*
X122206960Y-104298492D01*
X122291842Y-104235181D01*
X122387532Y-104189505D01*
X122497164Y-104161108D01*
X122623646Y-104151161D01*
X122753389Y-104162210D01*
G37*
G36*
X120902100Y-104151161D02*
G01*
X120766718Y-104160635D01*
X120656877Y-104186830D01*
X120567925Y-104227401D01*
X120496168Y-104281465D01*
X120440030Y-104350272D01*
X120397302Y-104439841D01*
X120369227Y-104555210D01*
X120358904Y-104702784D01*
X120358904Y-105680000D01*
X120602414Y-105680000D01*
X120602414Y-104719637D01*
X120613416Y-104600742D01*
X120643040Y-104512113D01*
X120688436Y-104446583D01*
X120750005Y-104399502D01*
X120831312Y-104369429D01*
X120938492Y-104358401D01*
X121063275Y-104368883D01*
X121158160Y-104397226D01*
X121229793Y-104440527D01*
X121282875Y-104498475D01*
X121332536Y-104596602D01*
X121365651Y-104727908D01*
X121378007Y-104901598D01*
X121378007Y-105680000D01*
X121624448Y-105680000D01*
X121624448Y-104179249D01*
X121425635Y-104179249D01*
X121389242Y-104383558D01*
X121375321Y-104383558D01*
X121320504Y-104311834D01*
X121253768Y-104253837D01*
X121173698Y-104208558D01*
X121041579Y-104165553D01*
X120902100Y-104151161D01*
G37*
G36*
X119394023Y-105506343D02*
G01*
X119279228Y-105496573D01*
X119183974Y-105475568D01*
X119183974Y-105663147D01*
X119227782Y-105679919D01*
X119296081Y-105695387D01*
X119436032Y-105707965D01*
X119550296Y-105697602D01*
X119653042Y-105667421D01*
X119714411Y-105634129D01*
X119767841Y-105587548D01*
X119814120Y-105526004D01*
X119846279Y-105455980D01*
X119867706Y-105363639D01*
X119875669Y-105243171D01*
X119875669Y-104369637D01*
X120088405Y-104369637D01*
X120088405Y-104252034D01*
X119872861Y-104153970D01*
X119774797Y-103834745D01*
X119629228Y-103834745D01*
X119629228Y-104179249D01*
X119195209Y-104179249D01*
X119195209Y-104369637D01*
X119629228Y-104369637D01*
X119629228Y-105237554D01*
X119620781Y-105326731D01*
X119598112Y-105392534D01*
X119563405Y-105440642D01*
X119515994Y-105476769D01*
X119460337Y-105498684D01*
X119394023Y-105506343D01*
G37*
G36*
X118435175Y-104162210D02*
G01*
X118550507Y-104194170D01*
X118654089Y-104246416D01*
X118745378Y-104317845D01*
X118822619Y-104407566D01*
X118886486Y-104518014D01*
X118930939Y-104638305D01*
X118959084Y-104778089D01*
X118969040Y-104940799D01*
X118958018Y-105104971D01*
X118926987Y-105244095D01*
X118878060Y-105362240D01*
X118808438Y-105468645D01*
X118723943Y-105554269D01*
X118623314Y-105621259D01*
X118511098Y-105668632D01*
X118386353Y-105697844D01*
X118246692Y-105707965D01*
X118097886Y-105701534D01*
X117980589Y-105684152D01*
X117869178Y-105654190D01*
X117753810Y-105610024D01*
X117753810Y-105394357D01*
X117871376Y-105439414D01*
X117982055Y-105471416D01*
X118096882Y-105490979D01*
X118235457Y-105498039D01*
X118346289Y-105488859D01*
X118439296Y-105462971D01*
X118517765Y-105421753D01*
X118584113Y-105365048D01*
X118636233Y-105295572D01*
X118676011Y-105210085D01*
X118702694Y-105105321D01*
X118714295Y-104977191D01*
X117686643Y-104977191D01*
X117686643Y-104828813D01*
X117689758Y-104781186D01*
X117944197Y-104781186D01*
X118708677Y-104781186D01*
X118684718Y-104650572D01*
X118643523Y-104547355D01*
X118586800Y-104466235D01*
X118511977Y-104404140D01*
X118420763Y-104366201D01*
X118308241Y-104352784D01*
X118215679Y-104361189D01*
X118141410Y-104384521D01*
X118081652Y-104421283D01*
X118033834Y-104471852D01*
X117986879Y-104555267D01*
X117956403Y-104656939D01*
X117944197Y-104781186D01*
X117689758Y-104781186D01*
X117695449Y-104694163D01*
X117720616Y-104575997D01*
X117760893Y-104471852D01*
X117818151Y-104376796D01*
X117888747Y-104298492D01*
X117973628Y-104235181D01*
X118069319Y-104189505D01*
X118178951Y-104161108D01*
X118305432Y-104151161D01*
X118435175Y-104162210D01*
G37*
G36*
X116606235Y-104151161D02*
G01*
X116515254Y-104155436D01*
X116429891Y-104168014D01*
X116460666Y-104394794D01*
X116540533Y-104380872D01*
X116623087Y-104375254D01*
X116697848Y-104382214D01*
X116769349Y-104403018D01*
X116838754Y-104438269D01*
X116900811Y-104485263D01*
X116954310Y-104543606D01*
X116999710Y-104614612D01*
X117032410Y-104692263D01*
X117052715Y-104779852D01*
X117059794Y-104879249D01*
X117059794Y-105680000D01*
X117306235Y-105680000D01*
X117306235Y-104179249D01*
X117104612Y-104179249D01*
X117076646Y-104453656D01*
X117065411Y-104453656D01*
X116982323Y-104339057D01*
X116877833Y-104240799D01*
X116797353Y-104191334D01*
X116707666Y-104161451D01*
X116606235Y-104151161D01*
G37*
G36*
X115828199Y-103680750D02*
G01*
X115884131Y-104403220D01*
X116038126Y-104403220D01*
X116094180Y-103680750D01*
X115828199Y-103680750D01*
G37*
G36*
X114515760Y-105265642D02*
G01*
X114526644Y-105371559D01*
X114557484Y-105459657D01*
X114607437Y-105533697D01*
X114678182Y-105595980D01*
X114760890Y-105642513D01*
X114859285Y-105677517D01*
X114976211Y-105699951D01*
X115115010Y-105707965D01*
X115266321Y-105701167D01*
X115385265Y-105682808D01*
X115494163Y-105651965D01*
X115585422Y-105612833D01*
X115585422Y-105388740D01*
X115490384Y-105430274D01*
X115368412Y-105471416D01*
X115239830Y-105499738D01*
X115109392Y-105509152D01*
X114984756Y-105500909D01*
X114897348Y-105479585D01*
X114837794Y-105448946D01*
X114790627Y-105403655D01*
X114763186Y-105350888D01*
X114753775Y-105287990D01*
X114761551Y-105234666D01*
X114784672Y-105187240D01*
X114823923Y-105145523D01*
X114895191Y-105097602D01*
X114984341Y-105053465D01*
X115123436Y-104996852D01*
X115263075Y-104938782D01*
X115372686Y-104884867D01*
X115466377Y-104821525D01*
X115532299Y-104750411D01*
X115562409Y-104695545D01*
X115581435Y-104629245D01*
X115588230Y-104548789D01*
X115578138Y-104457374D01*
X115549190Y-104379719D01*
X115501533Y-104312782D01*
X115432892Y-104254842D01*
X115324510Y-104199485D01*
X115190680Y-104163979D01*
X115025373Y-104151161D01*
X114890891Y-104158015D01*
X114769284Y-104177784D01*
X114653154Y-104209961D01*
X114546535Y-104252034D01*
X114630554Y-104448039D01*
X114829490Y-104380872D01*
X114934233Y-104359835D01*
X115042226Y-104352784D01*
X115142457Y-104359234D01*
X115217674Y-104376412D01*
X115273279Y-104401877D01*
X115318635Y-104439617D01*
X115344335Y-104483161D01*
X115353025Y-104534745D01*
X115343731Y-104592428D01*
X115316632Y-104639891D01*
X115272094Y-104679704D01*
X115194877Y-104723911D01*
X114966632Y-104820387D01*
X114829818Y-104876345D01*
X114723000Y-104929685D01*
X114632366Y-104993162D01*
X114569005Y-105065484D01*
X114540269Y-105120973D01*
X114522183Y-105186906D01*
X114515760Y-105265642D01*
G37*
G36*
X113392121Y-105680000D02*
G01*
X112689312Y-105680000D01*
X112527322Y-105669461D01*
X112391327Y-105639933D01*
X112277098Y-105593661D01*
X112181165Y-105531622D01*
X112100599Y-105450898D01*
X112043129Y-105356098D01*
X112007492Y-105244415D01*
X111994930Y-105111646D01*
X111996323Y-105091985D01*
X112263719Y-105091985D01*
X112275926Y-105199712D01*
X112310623Y-105288860D01*
X112367400Y-105363583D01*
X112421527Y-105404541D01*
X112496895Y-105436898D01*
X112599556Y-105458868D01*
X112736939Y-105467142D01*
X113140062Y-105467142D01*
X113140062Y-104741985D01*
X112756479Y-104741985D01*
X112612252Y-104749829D01*
X112505054Y-104770565D01*
X112427008Y-104800829D01*
X112371552Y-104838583D01*
X112311992Y-104909110D01*
X112276197Y-104992271D01*
X112263719Y-105091985D01*
X111996323Y-105091985D01*
X112002242Y-105008423D01*
X112022459Y-104924705D01*
X112053792Y-104856901D01*
X112123320Y-104770119D01*
X112214748Y-104705593D01*
X112321485Y-104661223D01*
X112442871Y-104632808D01*
X112442871Y-104618764D01*
X112325121Y-104585527D01*
X112232426Y-104535411D01*
X112160160Y-104469043D01*
X112106581Y-104386727D01*
X112073650Y-104290419D01*
X112064931Y-104204406D01*
X112322459Y-104204406D01*
X112334164Y-104308477D01*
X112366399Y-104388248D01*
X112417714Y-104449504D01*
X112487242Y-104490702D01*
X112599084Y-104520276D01*
X112770523Y-104532058D01*
X113140062Y-104532058D01*
X113140062Y-103896416D01*
X112809724Y-103896416D01*
X112639618Y-103906268D01*
X112520096Y-103931690D01*
X112438719Y-103967857D01*
X112388814Y-104008351D01*
X112353074Y-104059558D01*
X112330563Y-104123705D01*
X112322459Y-104204406D01*
X112064931Y-104204406D01*
X112062096Y-104176441D01*
X112075620Y-104042277D01*
X112112944Y-103937306D01*
X112171876Y-103855001D01*
X112253949Y-103791392D01*
X112349482Y-103747218D01*
X112471872Y-103712434D01*
X112626862Y-103689265D01*
X112820959Y-103680750D01*
X113392121Y-103680750D01*
X113392121Y-105680000D01*
G37*
G36*
X111151953Y-104164823D02*
G01*
X111287032Y-104203651D01*
X111403010Y-104266070D01*
X111503025Y-104352784D01*
X111581557Y-104458207D01*
X111639926Y-104585805D01*
X111677230Y-104740084D01*
X111690603Y-104926755D01*
X111679796Y-105091001D01*
X111649289Y-105231147D01*
X111601088Y-105351004D01*
X111532722Y-105460054D01*
X111451332Y-105547921D01*
X111356113Y-105616985D01*
X111249211Y-105666972D01*
X111131881Y-105697471D01*
X111001838Y-105707965D01*
X110843488Y-105694174D01*
X110708215Y-105654918D01*
X110591708Y-105591688D01*
X110490882Y-105503656D01*
X110411586Y-105396795D01*
X110352767Y-105268138D01*
X110315259Y-105113308D01*
X110301838Y-104926755D01*
X110556584Y-104926755D01*
X110569963Y-105101497D01*
X110606614Y-105239563D01*
X110663073Y-105348318D01*
X110722280Y-105414988D01*
X110795365Y-105462839D01*
X110885194Y-105492897D01*
X110996221Y-105503656D01*
X111108791Y-105492823D01*
X111199242Y-105462658D01*
X111272248Y-105414803D01*
X111330833Y-105348318D01*
X111386475Y-105239672D01*
X111422645Y-105101606D01*
X111435858Y-104926755D01*
X111422723Y-104751860D01*
X111386967Y-104615438D01*
X111332299Y-104509588D01*
X111274607Y-104445151D01*
X111202200Y-104398542D01*
X111111933Y-104369031D01*
X110999030Y-104358401D01*
X110886156Y-104368987D01*
X110795350Y-104398446D01*
X110722006Y-104445071D01*
X110663073Y-104509588D01*
X110606771Y-104615662D01*
X110570053Y-104752086D01*
X110556584Y-104926755D01*
X110301838Y-104926755D01*
X110312541Y-104762502D01*
X110342643Y-104623406D01*
X110390010Y-104505436D01*
X110457357Y-104398240D01*
X110538266Y-104311243D01*
X110633642Y-104242264D01*
X110740546Y-104192402D01*
X110859620Y-104161768D01*
X110993412Y-104151161D01*
X111151953Y-104164823D01*
G37*
G36*
X109489602Y-104163529D02*
G01*
X109626140Y-104191828D01*
X109754802Y-104234776D01*
X109858538Y-104282808D01*
X109782944Y-104467578D01*
X109584131Y-104387833D01*
X109475510Y-104361648D01*
X109360038Y-104352784D01*
X109263675Y-104361849D01*
X109188725Y-104386718D01*
X109130450Y-104425568D01*
X109088691Y-104480228D01*
X109060255Y-104563379D01*
X109049239Y-104686053D01*
X109049239Y-104775568D01*
X109304106Y-104783995D01*
X109493392Y-104798795D01*
X109642479Y-104827764D01*
X109758410Y-104867856D01*
X109847302Y-104916985D01*
X109924859Y-104984711D01*
X109979027Y-105063284D01*
X110012089Y-105154802D01*
X110023646Y-105262833D01*
X110014028Y-105376977D01*
X109987425Y-105468436D01*
X109945840Y-105541769D01*
X109889312Y-105600254D01*
X109794502Y-105658900D01*
X109682952Y-105695187D01*
X109550425Y-105707965D01*
X109424080Y-105700355D01*
X109326629Y-105679870D01*
X109252327Y-105649225D01*
X109150212Y-105577152D01*
X109046430Y-105467142D01*
X109035317Y-105467142D01*
X108987690Y-105680000D01*
X108808538Y-105680000D01*
X108808538Y-105080750D01*
X109052048Y-105080750D01*
X109061055Y-105189458D01*
X109086013Y-105277012D01*
X109125054Y-105347595D01*
X109178077Y-105404249D01*
X109267198Y-105461550D01*
X109371363Y-105496789D01*
X109494494Y-105509152D01*
X109572841Y-105502078D01*
X109637783Y-105482176D01*
X109691964Y-105450411D01*
X109733372Y-105405801D01*
X109759387Y-105345901D01*
X109768900Y-105265642D01*
X109756415Y-105175872D01*
X109720792Y-105103536D01*
X109661067Y-105044357D01*
X109583929Y-105004497D01*
X109460576Y-104972897D01*
X109273332Y-104954842D01*
X109052048Y-104946416D01*
X109052048Y-105080750D01*
X108808538Y-105080750D01*
X108808538Y-104657965D01*
X108818291Y-104525278D01*
X108844964Y-104420600D01*
X108885887Y-104338392D01*
X108940184Y-104274382D01*
X109008547Y-104225192D01*
X109095907Y-104187625D01*
X109206636Y-104162987D01*
X109346116Y-104153970D01*
X109489602Y-104163529D01*
G37*
G36*
X107645453Y-104151161D02*
G01*
X107554473Y-104155436D01*
X107469110Y-104168014D01*
X107499884Y-104394794D01*
X107579752Y-104380872D01*
X107662306Y-104375254D01*
X107737067Y-104382214D01*
X107808567Y-104403018D01*
X107877972Y-104438269D01*
X107940030Y-104485263D01*
X107993529Y-104543606D01*
X108038928Y-104614612D01*
X108071628Y-104692263D01*
X108091933Y-104779852D01*
X108099012Y-104879249D01*
X108099012Y-105680000D01*
X108345453Y-105680000D01*
X108345453Y-104179249D01*
X108143831Y-104179249D01*
X108115865Y-104453656D01*
X108104630Y-104453656D01*
X108021542Y-104339057D01*
X107917051Y-104240799D01*
X107836571Y-104191334D01*
X107746885Y-104161451D01*
X107645453Y-104151161D01*
G37*
G36*
X106245819Y-104151161D02*
G01*
X106238859Y-104264612D01*
X106228967Y-104372445D01*
X106245819Y-104372445D01*
X106324867Y-104287974D01*
X106426437Y-104215642D01*
X106502784Y-104181263D01*
X106596258Y-104159139D01*
X106710614Y-104151161D01*
X106847008Y-104164158D01*
X106965146Y-104201488D01*
X107068668Y-104262429D01*
X107160020Y-104348632D01*
X107229650Y-104450660D01*
X107282511Y-104578103D01*
X107316910Y-104736445D01*
X107329403Y-104932372D01*
X107316962Y-105128515D01*
X107282774Y-105286359D01*
X107230362Y-105412781D01*
X107161486Y-105513426D01*
X107070957Y-105598172D01*
X106967963Y-105658232D01*
X106850010Y-105695106D01*
X106713422Y-105707965D01*
X106597326Y-105699665D01*
X106502461Y-105676637D01*
X106424972Y-105640799D01*
X106322939Y-105565471D01*
X106245819Y-105478377D01*
X106234584Y-105478377D01*
X106198192Y-105680000D01*
X105999378Y-105680000D01*
X105999378Y-104935181D01*
X106243011Y-104935181D01*
X106243011Y-104980000D01*
X106255754Y-105153646D01*
X106289514Y-105281232D01*
X106339609Y-105373475D01*
X106392608Y-105427308D01*
X106462910Y-105467619D01*
X106554810Y-105493955D01*
X106674221Y-105503656D01*
X106772151Y-105493627D01*
X106852754Y-105465334D01*
X106919705Y-105419706D01*
X106975251Y-105355279D01*
X107027422Y-105251399D01*
X107061896Y-105115163D01*
X107074658Y-104937990D01*
X107062143Y-104762821D01*
X107027868Y-104623785D01*
X106975251Y-104513862D01*
X106919078Y-104444375D01*
X106852246Y-104395829D01*
X106772748Y-104366068D01*
X106677030Y-104355593D01*
X106553001Y-104366688D01*
X106458887Y-104396744D01*
X106387898Y-104442945D01*
X106335457Y-104505436D01*
X106287399Y-104609670D01*
X106255102Y-104749678D01*
X106243011Y-104935181D01*
X105999378Y-104935181D01*
X105999378Y-103552034D01*
X106245819Y-103552034D01*
X106245819Y-104151161D01*
G37*
G36*
X133701646Y-109040000D02*
G01*
X134270000Y-107539249D01*
X134006828Y-107539249D01*
X133687602Y-108424019D01*
X133640097Y-108561161D01*
X133595279Y-108705387D01*
X133567191Y-108821646D01*
X133555956Y-108821646D01*
X133523838Y-108704043D01*
X133476210Y-108558353D01*
X133430048Y-108424019D01*
X133110823Y-107539249D01*
X132847651Y-107539249D01*
X133418813Y-109040000D01*
X133701646Y-109040000D01*
G37*
G36*
X131443325Y-107018390D02*
G01*
X131545062Y-107042238D01*
X131632641Y-107080164D01*
X131708258Y-107131852D01*
X131793602Y-107221267D01*
X131864279Y-107336665D01*
X131919651Y-107483196D01*
X131954640Y-107637589D01*
X131977335Y-107820956D01*
X131985474Y-108037627D01*
X131973559Y-108285543D01*
X131940613Y-108490137D01*
X131890125Y-108658026D01*
X131824518Y-108795024D01*
X131752342Y-108893990D01*
X131668205Y-108969013D01*
X131570810Y-109022831D01*
X131457533Y-109056228D01*
X131324675Y-109067965D01*
X131204494Y-109059436D01*
X131101857Y-109035305D01*
X131013884Y-108996998D01*
X130938283Y-108944867D01*
X130852769Y-108854554D01*
X130781597Y-108738171D01*
X130725425Y-108590593D01*
X130689627Y-108435180D01*
X130666515Y-108252193D01*
X130658258Y-108037627D01*
X130907386Y-108037627D01*
X130915025Y-108253967D01*
X130935620Y-108423904D01*
X130966090Y-108555269D01*
X131003984Y-108655073D01*
X131061653Y-108745520D01*
X131132525Y-108807341D01*
X131218632Y-108844828D01*
X131324675Y-108858039D01*
X131432016Y-108844656D01*
X131518393Y-108806812D01*
X131588764Y-108744574D01*
X131645244Y-108653607D01*
X131692853Y-108513211D01*
X131726222Y-108313540D01*
X131739033Y-108037627D01*
X131726246Y-107763582D01*
X131692900Y-107564737D01*
X131645244Y-107424455D01*
X131588764Y-107333489D01*
X131518393Y-107271251D01*
X131432016Y-107233407D01*
X131324675Y-107220024D01*
X131218738Y-107233301D01*
X131132658Y-107271003D01*
X131061740Y-107333253D01*
X131003984Y-107424455D01*
X130965956Y-107524916D01*
X130935494Y-107656044D01*
X130914976Y-107824480D01*
X130907386Y-108037627D01*
X130658258Y-108037627D01*
X130670529Y-107788180D01*
X130704396Y-107583294D01*
X130756212Y-107416006D01*
X130823489Y-107280230D01*
X130897088Y-107182161D01*
X130982140Y-107107817D01*
X131079917Y-107054541D01*
X131192922Y-107021544D01*
X131324675Y-107009975D01*
X131443325Y-107018390D01*
G37*
G36*
X130320715Y-108888813D02*
G01*
X130314074Y-108821692D01*
X130296649Y-108775009D01*
X130270401Y-108743244D01*
X130215568Y-108711908D01*
X130149989Y-108701235D01*
X130081659Y-108711976D01*
X130025303Y-108743244D01*
X129998213Y-108775142D01*
X129980323Y-108821843D01*
X129973524Y-108888813D01*
X129980186Y-108953894D01*
X129997979Y-109000876D01*
X130025303Y-109034382D01*
X130081868Y-109067817D01*
X130149989Y-109079200D01*
X130215359Y-109067892D01*
X130270401Y-109034382D01*
X130296880Y-109001004D01*
X130314210Y-108954036D01*
X130320715Y-108888813D01*
G37*
G36*
X128778077Y-109040000D02*
G01*
X129018778Y-109040000D01*
X129018778Y-107642808D01*
X129016092Y-107449612D01*
X129007665Y-107298426D01*
X129088876Y-107374019D01*
X129181200Y-107452421D01*
X129394057Y-107625956D01*
X129522773Y-107460847D01*
X128982386Y-107040750D01*
X128778077Y-107040750D01*
X128778077Y-109040000D01*
G37*
D11*
X103537200Y-61994285D02*
X103584819Y-61899047D01*
X103584819Y-61899047D02*
X103584819Y-61708571D01*
X103584819Y-61708571D02*
X103537200Y-61613333D01*
X103537200Y-61613333D02*
X103441961Y-61565714D01*
X103441961Y-61565714D02*
X103061009Y-61565714D01*
X103061009Y-61565714D02*
X102965771Y-61613333D01*
X102965771Y-61613333D02*
X102918152Y-61708571D01*
X102918152Y-61708571D02*
X102918152Y-61899047D01*
X102918152Y-61899047D02*
X102965771Y-61994285D01*
X102965771Y-61994285D02*
X103061009Y-62041904D01*
X103061009Y-62041904D02*
X103156247Y-62041904D01*
X103156247Y-62041904D02*
X103251485Y-61565714D01*
X102584819Y-62375238D02*
X102584819Y-62994285D01*
X102584819Y-62994285D02*
X102965771Y-62660952D01*
X102965771Y-62660952D02*
X102965771Y-62803809D01*
X102965771Y-62803809D02*
X103013390Y-62899047D01*
X103013390Y-62899047D02*
X103061009Y-62946666D01*
X103061009Y-62946666D02*
X103156247Y-62994285D01*
X103156247Y-62994285D02*
X103394342Y-62994285D01*
X103394342Y-62994285D02*
X103489580Y-62946666D01*
X103489580Y-62946666D02*
X103537200Y-62899047D01*
X103537200Y-62899047D02*
X103584819Y-62803809D01*
X103584819Y-62803809D02*
X103584819Y-62518095D01*
X103584819Y-62518095D02*
X103537200Y-62422857D01*
X103537200Y-62422857D02*
X103489580Y-62375238D01*
X108477200Y-83784285D02*
X108524819Y-83689047D01*
X108524819Y-83689047D02*
X108524819Y-83498571D01*
X108524819Y-83498571D02*
X108477200Y-83403333D01*
X108477200Y-83403333D02*
X108381961Y-83355714D01*
X108381961Y-83355714D02*
X108001009Y-83355714D01*
X108001009Y-83355714D02*
X107905771Y-83403333D01*
X107905771Y-83403333D02*
X107858152Y-83498571D01*
X107858152Y-83498571D02*
X107858152Y-83689047D01*
X107858152Y-83689047D02*
X107905771Y-83784285D01*
X107905771Y-83784285D02*
X108001009Y-83831904D01*
X108001009Y-83831904D02*
X108096247Y-83831904D01*
X108096247Y-83831904D02*
X108191485Y-83355714D01*
X107524819Y-84736666D02*
X107524819Y-84260476D01*
X107524819Y-84260476D02*
X108001009Y-84212857D01*
X108001009Y-84212857D02*
X107953390Y-84260476D01*
X107953390Y-84260476D02*
X107905771Y-84355714D01*
X107905771Y-84355714D02*
X107905771Y-84593809D01*
X107905771Y-84593809D02*
X107953390Y-84689047D01*
X107953390Y-84689047D02*
X108001009Y-84736666D01*
X108001009Y-84736666D02*
X108096247Y-84784285D01*
X108096247Y-84784285D02*
X108334342Y-84784285D01*
X108334342Y-84784285D02*
X108429580Y-84736666D01*
X108429580Y-84736666D02*
X108477200Y-84689047D01*
X108477200Y-84689047D02*
X108524819Y-84593809D01*
X108524819Y-84593809D02*
X108524819Y-84355714D01*
X108524819Y-84355714D02*
X108477200Y-84260476D01*
X108477200Y-84260476D02*
X108429580Y-84212857D01*
X109014819Y-86170476D02*
X109729104Y-86170476D01*
X109729104Y-86170476D02*
X109871961Y-86122857D01*
X109871961Y-86122857D02*
X109967200Y-86027619D01*
X109967200Y-86027619D02*
X110014819Y-85884762D01*
X110014819Y-85884762D02*
X110014819Y-85789524D01*
X110014819Y-86646667D02*
X109014819Y-86646667D01*
X109014819Y-86646667D02*
X109014819Y-87027619D01*
X109014819Y-87027619D02*
X109062438Y-87122857D01*
X109062438Y-87122857D02*
X109110057Y-87170476D01*
X109110057Y-87170476D02*
X109205295Y-87218095D01*
X109205295Y-87218095D02*
X109348152Y-87218095D01*
X109348152Y-87218095D02*
X109443390Y-87170476D01*
X109443390Y-87170476D02*
X109491009Y-87122857D01*
X109491009Y-87122857D02*
X109538628Y-87027619D01*
X109538628Y-87027619D02*
X109538628Y-86646667D01*
X110014819Y-88170476D02*
X110014819Y-87599048D01*
X110014819Y-87884762D02*
X109014819Y-87884762D01*
X109014819Y-87884762D02*
X109157676Y-87789524D01*
X109157676Y-87789524D02*
X109252914Y-87694286D01*
X109252914Y-87694286D02*
X109300533Y-87599048D01*
X109443390Y-88741905D02*
X109395771Y-88646667D01*
X109395771Y-88646667D02*
X109348152Y-88599048D01*
X109348152Y-88599048D02*
X109252914Y-88551429D01*
X109252914Y-88551429D02*
X109205295Y-88551429D01*
X109205295Y-88551429D02*
X109110057Y-88599048D01*
X109110057Y-88599048D02*
X109062438Y-88646667D01*
X109062438Y-88646667D02*
X109014819Y-88741905D01*
X109014819Y-88741905D02*
X109014819Y-88932381D01*
X109014819Y-88932381D02*
X109062438Y-89027619D01*
X109062438Y-89027619D02*
X109110057Y-89075238D01*
X109110057Y-89075238D02*
X109205295Y-89122857D01*
X109205295Y-89122857D02*
X109252914Y-89122857D01*
X109252914Y-89122857D02*
X109348152Y-89075238D01*
X109348152Y-89075238D02*
X109395771Y-89027619D01*
X109395771Y-89027619D02*
X109443390Y-88932381D01*
X109443390Y-88932381D02*
X109443390Y-88741905D01*
X109443390Y-88741905D02*
X109491009Y-88646667D01*
X109491009Y-88646667D02*
X109538628Y-88599048D01*
X109538628Y-88599048D02*
X109633866Y-88551429D01*
X109633866Y-88551429D02*
X109824342Y-88551429D01*
X109824342Y-88551429D02*
X109919580Y-88599048D01*
X109919580Y-88599048D02*
X109967200Y-88646667D01*
X109967200Y-88646667D02*
X110014819Y-88741905D01*
X110014819Y-88741905D02*
X110014819Y-88932381D01*
X110014819Y-88932381D02*
X109967200Y-89027619D01*
X109967200Y-89027619D02*
X109919580Y-89075238D01*
X109919580Y-89075238D02*
X109824342Y-89122857D01*
X109824342Y-89122857D02*
X109633866Y-89122857D01*
X109633866Y-89122857D02*
X109538628Y-89075238D01*
X109538628Y-89075238D02*
X109491009Y-89027619D01*
X109491009Y-89027619D02*
X109443390Y-88932381D01*
X158844819Y-60046666D02*
X159559104Y-60046666D01*
X159559104Y-60046666D02*
X159701961Y-59999047D01*
X159701961Y-59999047D02*
X159797200Y-59903809D01*
X159797200Y-59903809D02*
X159844819Y-59760952D01*
X159844819Y-59760952D02*
X159844819Y-59665714D01*
X159844819Y-60522857D02*
X158844819Y-60522857D01*
X158844819Y-60522857D02*
X158844819Y-60903809D01*
X158844819Y-60903809D02*
X158892438Y-60999047D01*
X158892438Y-60999047D02*
X158940057Y-61046666D01*
X158940057Y-61046666D02*
X159035295Y-61094285D01*
X159035295Y-61094285D02*
X159178152Y-61094285D01*
X159178152Y-61094285D02*
X159273390Y-61046666D01*
X159273390Y-61046666D02*
X159321009Y-60999047D01*
X159321009Y-60999047D02*
X159368628Y-60903809D01*
X159368628Y-60903809D02*
X159368628Y-60522857D01*
X158940057Y-61475238D02*
X158892438Y-61522857D01*
X158892438Y-61522857D02*
X158844819Y-61618095D01*
X158844819Y-61618095D02*
X158844819Y-61856190D01*
X158844819Y-61856190D02*
X158892438Y-61951428D01*
X158892438Y-61951428D02*
X158940057Y-61999047D01*
X158940057Y-61999047D02*
X159035295Y-62046666D01*
X159035295Y-62046666D02*
X159130533Y-62046666D01*
X159130533Y-62046666D02*
X159273390Y-61999047D01*
X159273390Y-61999047D02*
X159844819Y-61427619D01*
X159844819Y-61427619D02*
X159844819Y-62046666D01*
X104495714Y-74997200D02*
X104590952Y-75044819D01*
X104590952Y-75044819D02*
X104781428Y-75044819D01*
X104781428Y-75044819D02*
X104876666Y-74997200D01*
X104876666Y-74997200D02*
X104924285Y-74901961D01*
X104924285Y-74901961D02*
X104924285Y-74521009D01*
X104924285Y-74521009D02*
X104876666Y-74425771D01*
X104876666Y-74425771D02*
X104781428Y-74378152D01*
X104781428Y-74378152D02*
X104590952Y-74378152D01*
X104590952Y-74378152D02*
X104495714Y-74425771D01*
X104495714Y-74425771D02*
X104448095Y-74521009D01*
X104448095Y-74521009D02*
X104448095Y-74616247D01*
X104448095Y-74616247D02*
X104924285Y-74711485D01*
X103590952Y-74378152D02*
X103590952Y-75044819D01*
X103829047Y-73997200D02*
X104067142Y-74711485D01*
X104067142Y-74711485D02*
X103448095Y-74711485D01*
X120499523Y-121754819D02*
X120499523Y-122469104D01*
X120499523Y-122469104D02*
X120547142Y-122611961D01*
X120547142Y-122611961D02*
X120642380Y-122707200D01*
X120642380Y-122707200D02*
X120785237Y-122754819D01*
X120785237Y-122754819D02*
X120880475Y-122754819D01*
X120023332Y-122754819D02*
X120023332Y-121754819D01*
X120023332Y-121754819D02*
X119642380Y-121754819D01*
X119642380Y-121754819D02*
X119547142Y-121802438D01*
X119547142Y-121802438D02*
X119499523Y-121850057D01*
X119499523Y-121850057D02*
X119451904Y-121945295D01*
X119451904Y-121945295D02*
X119451904Y-122088152D01*
X119451904Y-122088152D02*
X119499523Y-122183390D01*
X119499523Y-122183390D02*
X119547142Y-122231009D01*
X119547142Y-122231009D02*
X119642380Y-122278628D01*
X119642380Y-122278628D02*
X120023332Y-122278628D01*
X118880475Y-122183390D02*
X118975713Y-122135771D01*
X118975713Y-122135771D02*
X119023332Y-122088152D01*
X119023332Y-122088152D02*
X119070951Y-121992914D01*
X119070951Y-121992914D02*
X119070951Y-121945295D01*
X119070951Y-121945295D02*
X119023332Y-121850057D01*
X119023332Y-121850057D02*
X118975713Y-121802438D01*
X118975713Y-121802438D02*
X118880475Y-121754819D01*
X118880475Y-121754819D02*
X118689999Y-121754819D01*
X118689999Y-121754819D02*
X118594761Y-121802438D01*
X118594761Y-121802438D02*
X118547142Y-121850057D01*
X118547142Y-121850057D02*
X118499523Y-121945295D01*
X118499523Y-121945295D02*
X118499523Y-121992914D01*
X118499523Y-121992914D02*
X118547142Y-122088152D01*
X118547142Y-122088152D02*
X118594761Y-122135771D01*
X118594761Y-122135771D02*
X118689999Y-122183390D01*
X118689999Y-122183390D02*
X118880475Y-122183390D01*
X118880475Y-122183390D02*
X118975713Y-122231009D01*
X118975713Y-122231009D02*
X119023332Y-122278628D01*
X119023332Y-122278628D02*
X119070951Y-122373866D01*
X119070951Y-122373866D02*
X119070951Y-122564342D01*
X119070951Y-122564342D02*
X119023332Y-122659580D01*
X119023332Y-122659580D02*
X118975713Y-122707200D01*
X118975713Y-122707200D02*
X118880475Y-122754819D01*
X118880475Y-122754819D02*
X118689999Y-122754819D01*
X118689999Y-122754819D02*
X118594761Y-122707200D01*
X118594761Y-122707200D02*
X118547142Y-122659580D01*
X118547142Y-122659580D02*
X118499523Y-122564342D01*
X118499523Y-122564342D02*
X118499523Y-122373866D01*
X118499523Y-122373866D02*
X118547142Y-122278628D01*
X118547142Y-122278628D02*
X118594761Y-122231009D01*
X118594761Y-122231009D02*
X118689999Y-122183390D01*
X117928094Y-122183390D02*
X118023332Y-122135771D01*
X118023332Y-122135771D02*
X118070951Y-122088152D01*
X118070951Y-122088152D02*
X118118570Y-121992914D01*
X118118570Y-121992914D02*
X118118570Y-121945295D01*
X118118570Y-121945295D02*
X118070951Y-121850057D01*
X118070951Y-121850057D02*
X118023332Y-121802438D01*
X118023332Y-121802438D02*
X117928094Y-121754819D01*
X117928094Y-121754819D02*
X117737618Y-121754819D01*
X117737618Y-121754819D02*
X117642380Y-121802438D01*
X117642380Y-121802438D02*
X117594761Y-121850057D01*
X117594761Y-121850057D02*
X117547142Y-121945295D01*
X117547142Y-121945295D02*
X117547142Y-121992914D01*
X117547142Y-121992914D02*
X117594761Y-122088152D01*
X117594761Y-122088152D02*
X117642380Y-122135771D01*
X117642380Y-122135771D02*
X117737618Y-122183390D01*
X117737618Y-122183390D02*
X117928094Y-122183390D01*
X117928094Y-122183390D02*
X118023332Y-122231009D01*
X118023332Y-122231009D02*
X118070951Y-122278628D01*
X118070951Y-122278628D02*
X118118570Y-122373866D01*
X118118570Y-122373866D02*
X118118570Y-122564342D01*
X118118570Y-122564342D02*
X118070951Y-122659580D01*
X118070951Y-122659580D02*
X118023332Y-122707200D01*
X118023332Y-122707200D02*
X117928094Y-122754819D01*
X117928094Y-122754819D02*
X117737618Y-122754819D01*
X117737618Y-122754819D02*
X117642380Y-122707200D01*
X117642380Y-122707200D02*
X117594761Y-122659580D01*
X117594761Y-122659580D02*
X117547142Y-122564342D01*
X117547142Y-122564342D02*
X117547142Y-122373866D01*
X117547142Y-122373866D02*
X117594761Y-122278628D01*
X117594761Y-122278628D02*
X117642380Y-122231009D01*
X117642380Y-122231009D02*
X117737618Y-122183390D01*
X105924819Y-86020476D02*
X106639104Y-86020476D01*
X106639104Y-86020476D02*
X106781961Y-85972857D01*
X106781961Y-85972857D02*
X106877200Y-85877619D01*
X106877200Y-85877619D02*
X106924819Y-85734762D01*
X106924819Y-85734762D02*
X106924819Y-85639524D01*
X106924819Y-86496667D02*
X105924819Y-86496667D01*
X105924819Y-86496667D02*
X105924819Y-86877619D01*
X105924819Y-86877619D02*
X105972438Y-86972857D01*
X105972438Y-86972857D02*
X106020057Y-87020476D01*
X106020057Y-87020476D02*
X106115295Y-87068095D01*
X106115295Y-87068095D02*
X106258152Y-87068095D01*
X106258152Y-87068095D02*
X106353390Y-87020476D01*
X106353390Y-87020476D02*
X106401009Y-86972857D01*
X106401009Y-86972857D02*
X106448628Y-86877619D01*
X106448628Y-86877619D02*
X106448628Y-86496667D01*
X106924819Y-88020476D02*
X106924819Y-87449048D01*
X106924819Y-87734762D02*
X105924819Y-87734762D01*
X105924819Y-87734762D02*
X106067676Y-87639524D01*
X106067676Y-87639524D02*
X106162914Y-87544286D01*
X106162914Y-87544286D02*
X106210533Y-87449048D01*
X106924819Y-88496667D02*
X106924819Y-88687143D01*
X106924819Y-88687143D02*
X106877200Y-88782381D01*
X106877200Y-88782381D02*
X106829580Y-88830000D01*
X106829580Y-88830000D02*
X106686723Y-88925238D01*
X106686723Y-88925238D02*
X106496247Y-88972857D01*
X106496247Y-88972857D02*
X106115295Y-88972857D01*
X106115295Y-88972857D02*
X106020057Y-88925238D01*
X106020057Y-88925238D02*
X105972438Y-88877619D01*
X105972438Y-88877619D02*
X105924819Y-88782381D01*
X105924819Y-88782381D02*
X105924819Y-88591905D01*
X105924819Y-88591905D02*
X105972438Y-88496667D01*
X105972438Y-88496667D02*
X106020057Y-88449048D01*
X106020057Y-88449048D02*
X106115295Y-88401429D01*
X106115295Y-88401429D02*
X106353390Y-88401429D01*
X106353390Y-88401429D02*
X106448628Y-88449048D01*
X106448628Y-88449048D02*
X106496247Y-88496667D01*
X106496247Y-88496667D02*
X106543866Y-88591905D01*
X106543866Y-88591905D02*
X106543866Y-88782381D01*
X106543866Y-88782381D02*
X106496247Y-88877619D01*
X106496247Y-88877619D02*
X106448628Y-88925238D01*
X106448628Y-88925238D02*
X106353390Y-88972857D01*
D13*
%TO.C,JP45*%
X163070000Y-68460000D02*
X163070000Y-67860000D01*
X163770000Y-67160000D02*
X165170000Y-67160000D01*
X165170000Y-69160000D02*
X163770000Y-69160000D01*
X165870000Y-67860000D02*
X165870000Y-68460000D01*
X163070000Y-67860000D02*
G75*
G02*
X163770000Y-67160000I700000J0D01*
G01*
X163770000Y-69160000D02*
G75*
G02*
X163070000Y-68460000I0J700000D01*
G01*
X165170000Y-67160000D02*
G75*
G02*
X165870000Y-67860000I1J-699999D01*
G01*
X165870000Y-68460000D02*
G75*
G02*
X165170000Y-69160000I-699999J-1D01*
G01*
%TO.C,JP33*%
X170010000Y-78660000D02*
X170010000Y-78060000D01*
X170710000Y-77360000D02*
X172110000Y-77360000D01*
X172110000Y-79360000D02*
X170710000Y-79360000D01*
X172810000Y-78060000D02*
X172810000Y-78660000D01*
X170010000Y-78060000D02*
G75*
G02*
X170710000Y-77360000I700000J0D01*
G01*
X170710000Y-79360000D02*
G75*
G02*
X170010000Y-78660000I0J700000D01*
G01*
X172110000Y-77360000D02*
G75*
G02*
X172810000Y-78060000I1J-699999D01*
G01*
X172810000Y-78660000D02*
G75*
G02*
X172110000Y-79360000I-699999J-1D01*
G01*
%TO.C,JP56*%
X140740000Y-48090000D02*
X140740000Y-47490000D01*
X141440000Y-46790000D02*
X142840000Y-46790000D01*
X142840000Y-48790000D02*
X141440000Y-48790000D01*
X143540000Y-47490000D02*
X143540000Y-48090000D01*
X140740000Y-47490000D02*
G75*
G02*
X141440000Y-46790000I700000J0D01*
G01*
X141440000Y-48790000D02*
G75*
G02*
X140740000Y-48090000I0J700000D01*
G01*
X142840000Y-46790000D02*
G75*
G02*
X143540000Y-47490000I1J-699999D01*
G01*
X143540000Y-48090000D02*
G75*
G02*
X142840000Y-48790000I-699999J-1D01*
G01*
%TO.C,JP78*%
X133770000Y-65920000D02*
X133770000Y-65320000D01*
X134470000Y-64620000D02*
X135870000Y-64620000D01*
X135870000Y-66620000D02*
X134470000Y-66620000D01*
X136570000Y-65320000D02*
X136570000Y-65920000D01*
X133770000Y-65320000D02*
G75*
G02*
X134470000Y-64620000I700000J0D01*
G01*
X134470000Y-66620000D02*
G75*
G02*
X133770000Y-65920000I0J700000D01*
G01*
X135870000Y-64620000D02*
G75*
G02*
X136570000Y-65320000I1J-699999D01*
G01*
X136570000Y-65920000D02*
G75*
G02*
X135870000Y-66620000I-699999J-1D01*
G01*
%TO.C,e3*%
X103930000Y-61580000D02*
X103930000Y-62980000D01*
X104630000Y-63680000D02*
X105230000Y-63680000D01*
X105230000Y-60880000D02*
X104630000Y-60880000D01*
X105930000Y-62980000D02*
X105930000Y-61580000D01*
X103930000Y-61580000D02*
G75*
G02*
X104630000Y-60880000I699999J1D01*
G01*
X104630000Y-63680000D02*
G75*
G02*
X103930000Y-62980000I0J700000D01*
G01*
X105230000Y-60880000D02*
G75*
G02*
X105930000Y-61580000I1J-699999D01*
G01*
X105930000Y-62980000D02*
G75*
G02*
X105230000Y-63680000I-700000J0D01*
G01*
%TO.C,JP58*%
X140760000Y-55760000D02*
X140760000Y-55160000D01*
X141460000Y-54460000D02*
X142860000Y-54460000D01*
X142860000Y-56460000D02*
X141460000Y-56460000D01*
X143560000Y-55160000D02*
X143560000Y-55760000D01*
X140760000Y-55160000D02*
G75*
G02*
X141460000Y-54460000I700000J0D01*
G01*
X141460000Y-56460000D02*
G75*
G02*
X140760000Y-55760000I0J700000D01*
G01*
X142860000Y-54460000D02*
G75*
G02*
X143560000Y-55160000I1J-699999D01*
G01*
X143560000Y-55760000D02*
G75*
G02*
X142860000Y-56460000I-699999J-1D01*
G01*
%TO.C,JP77*%
X133770000Y-60780000D02*
X133770000Y-60180000D01*
X134470000Y-59480000D02*
X135870000Y-59480000D01*
X135870000Y-61480000D02*
X134470000Y-61480000D01*
X136570000Y-60180000D02*
X136570000Y-60780000D01*
X133770000Y-60180000D02*
G75*
G02*
X134470000Y-59480000I700000J0D01*
G01*
X134470000Y-61480000D02*
G75*
G02*
X133770000Y-60780000I0J700000D01*
G01*
X135870000Y-59480000D02*
G75*
G02*
X136570000Y-60180000I1J-699999D01*
G01*
X136570000Y-60780000D02*
G75*
G02*
X135870000Y-61480000I-699999J-1D01*
G01*
%TO.C,JP74*%
X133810000Y-53160000D02*
X133810000Y-52560000D01*
X134510000Y-51860000D02*
X135910000Y-51860000D01*
X135910000Y-53860000D02*
X134510000Y-53860000D01*
X136610000Y-52560000D02*
X136610000Y-53160000D01*
X133810000Y-52560000D02*
G75*
G02*
X134510000Y-51860000I700000J0D01*
G01*
X134510000Y-53860000D02*
G75*
G02*
X133810000Y-53160000I0J700000D01*
G01*
X135910000Y-51860000D02*
G75*
G02*
X136610000Y-52560000I1J-699999D01*
G01*
X136610000Y-53160000D02*
G75*
G02*
X135910000Y-53860000I-699999J-1D01*
G01*
%TO.C,JP25*%
X170060000Y-48085000D02*
X170060000Y-47485000D01*
X170760000Y-46785000D02*
X172160000Y-46785000D01*
X172160000Y-48785000D02*
X170760000Y-48785000D01*
X172860000Y-47485000D02*
X172860000Y-48085000D01*
X170060000Y-47485000D02*
G75*
G02*
X170760000Y-46785000I700000J0D01*
G01*
X170760000Y-48785000D02*
G75*
G02*
X170060000Y-48085000I0J700000D01*
G01*
X172160000Y-46785000D02*
G75*
G02*
X172860000Y-47485000I1J-699999D01*
G01*
X172860000Y-48085000D02*
G75*
G02*
X172160000Y-48785000I-699999J-1D01*
G01*
%TO.C,JP50*%
X152280000Y-33890000D02*
X152280000Y-32490000D01*
X152980000Y-31790000D02*
X153580000Y-31790000D01*
X153580000Y-34590000D02*
X152980000Y-34590000D01*
X154280000Y-32490000D02*
X154280000Y-33890000D01*
X152280000Y-32490000D02*
G75*
G02*
X152980000Y-31790000I699999J1D01*
G01*
X152980000Y-34590000D02*
G75*
G02*
X152280000Y-33890000I0J700000D01*
G01*
X153580000Y-31790000D02*
G75*
G02*
X154280000Y-32490000I1J-699999D01*
G01*
X154280000Y-33890000D02*
G75*
G02*
X153580000Y-34590000I-700000J0D01*
G01*
%TO.C,JP66*%
X140760000Y-81160000D02*
X140760000Y-80560000D01*
X141460000Y-79860000D02*
X142860000Y-79860000D01*
X142860000Y-81860000D02*
X141460000Y-81860000D01*
X143560000Y-80560000D02*
X143560000Y-81160000D01*
X140760000Y-80560000D02*
G75*
G02*
X141460000Y-79860000I700000J0D01*
G01*
X141460000Y-81860000D02*
G75*
G02*
X140760000Y-81160000I0J700000D01*
G01*
X142860000Y-79860000D02*
G75*
G02*
X143560000Y-80560000I1J-699999D01*
G01*
X143560000Y-81160000D02*
G75*
G02*
X142860000Y-81860000I-699999J-1D01*
G01*
%TO.C,JP79*%
X133770000Y-68460000D02*
X133770000Y-67860000D01*
X134470000Y-67160000D02*
X135870000Y-67160000D01*
X135870000Y-69160000D02*
X134470000Y-69160000D01*
X136570000Y-67860000D02*
X136570000Y-68460000D01*
X133770000Y-67860000D02*
G75*
G02*
X134470000Y-67160000I700000J0D01*
G01*
X134470000Y-69160000D02*
G75*
G02*
X133770000Y-68460000I0J700000D01*
G01*
X135870000Y-67160000D02*
G75*
G02*
X136570000Y-67860000I1J-699999D01*
G01*
X136570000Y-68460000D02*
G75*
G02*
X135870000Y-69160000I-699999J-1D01*
G01*
%TO.C,JP71*%
X133835000Y-42910000D02*
X133835000Y-42310000D01*
X134535000Y-41610000D02*
X135935000Y-41610000D01*
X135935000Y-43610000D02*
X134535000Y-43610000D01*
X136635000Y-42310000D02*
X136635000Y-42910000D01*
X133835000Y-42310000D02*
G75*
G02*
X134535000Y-41610000I700000J0D01*
G01*
X134535000Y-43610000D02*
G75*
G02*
X133835000Y-42910000I0J700000D01*
G01*
X135935000Y-41610000D02*
G75*
G02*
X136635000Y-42310000I1J-699999D01*
G01*
X136635000Y-42910000D02*
G75*
G02*
X135935000Y-43610000I-699999J-1D01*
G01*
%TO.C,JP76*%
X133780000Y-58240000D02*
X133780000Y-57640000D01*
X134480000Y-56940000D02*
X135880000Y-56940000D01*
X135880000Y-58940000D02*
X134480000Y-58940000D01*
X136580000Y-57640000D02*
X136580000Y-58240000D01*
X133780000Y-57640000D02*
G75*
G02*
X134480000Y-56940000I700000J0D01*
G01*
X134480000Y-58940000D02*
G75*
G02*
X133780000Y-58240000I0J700000D01*
G01*
X135880000Y-56940000D02*
G75*
G02*
X136580000Y-57640000I1J-699999D01*
G01*
X136580000Y-58240000D02*
G75*
G02*
X135880000Y-58940000I-699999J-1D01*
G01*
%TO.C,e5*%
X108870000Y-83370000D02*
X108870000Y-84770000D01*
X109570000Y-85470000D02*
X110170000Y-85470000D01*
X110170000Y-82670000D02*
X109570000Y-82670000D01*
X110870000Y-84770000D02*
X110870000Y-83370000D01*
X108870000Y-83370000D02*
G75*
G02*
X109570000Y-82670000I699999J1D01*
G01*
X109570000Y-85470000D02*
G75*
G02*
X108870000Y-84770000I0J700000D01*
G01*
X110170000Y-82670000D02*
G75*
G02*
X110870000Y-83370000I1J-699999D01*
G01*
X110870000Y-84770000D02*
G75*
G02*
X110170000Y-85470000I-700000J0D01*
G01*
%TO.C,JP31*%
X170085000Y-70985000D02*
X170085000Y-70385000D01*
X170785000Y-69685000D02*
X172185000Y-69685000D01*
X172185000Y-71685000D02*
X170785000Y-71685000D01*
X172885000Y-70385000D02*
X172885000Y-70985000D01*
X170085000Y-70385000D02*
G75*
G02*
X170785000Y-69685000I700000J0D01*
G01*
X170785000Y-71685000D02*
G75*
G02*
X170085000Y-70985000I0J700000D01*
G01*
X172185000Y-69685000D02*
G75*
G02*
X172885000Y-70385000I1J-699999D01*
G01*
X172885000Y-70985000D02*
G75*
G02*
X172185000Y-71685000I-699999J-1D01*
G01*
%TO.C,JP83*%
X133610000Y-81160000D02*
X133610000Y-80560000D01*
X134310000Y-79860000D02*
X135710000Y-79860000D01*
X135710000Y-81860000D02*
X134310000Y-81860000D01*
X136410000Y-80560000D02*
X136410000Y-81160000D01*
X133610000Y-80560000D02*
G75*
G02*
X134310000Y-79860000I700000J0D01*
G01*
X134310000Y-81860000D02*
G75*
G02*
X133610000Y-81160000I0J700000D01*
G01*
X135710000Y-79860000D02*
G75*
G02*
X136410000Y-80560000I1J-699999D01*
G01*
X136410000Y-81160000D02*
G75*
G02*
X135710000Y-81860000I-699999J-1D01*
G01*
%TO.C,JP44*%
X163070000Y-65910000D02*
X163070000Y-65310000D01*
X163770000Y-64610000D02*
X165170000Y-64610000D01*
X165170000Y-66610000D02*
X163770000Y-66610000D01*
X165870000Y-65310000D02*
X165870000Y-65910000D01*
X163070000Y-65310000D02*
G75*
G02*
X163770000Y-64610000I700000J0D01*
G01*
X163770000Y-66610000D02*
G75*
G02*
X163070000Y-65910000I0J700000D01*
G01*
X165170000Y-64610000D02*
G75*
G02*
X165870000Y-65310000I1J-699999D01*
G01*
X165870000Y-65910000D02*
G75*
G02*
X165170000Y-66610000I-699999J-1D01*
G01*
%TO.C,JP27*%
X170035000Y-55760000D02*
X170035000Y-55160000D01*
X170735000Y-54460000D02*
X172135000Y-54460000D01*
X172135000Y-56460000D02*
X170735000Y-56460000D01*
X172835000Y-55160000D02*
X172835000Y-55760000D01*
X170035000Y-55160000D02*
G75*
G02*
X170735000Y-54460000I700000J0D01*
G01*
X170735000Y-56460000D02*
G75*
G02*
X170035000Y-55760000I0J700000D01*
G01*
X172135000Y-54460000D02*
G75*
G02*
X172835000Y-55160000I1J-699999D01*
G01*
X172835000Y-55760000D02*
G75*
G02*
X172135000Y-56460000I-699999J-1D01*
G01*
%TO.C,JP70*%
X133960000Y-40360000D02*
X133960000Y-39760000D01*
X134660000Y-39060000D02*
X136060000Y-39060000D01*
X136060000Y-41060000D02*
X134660000Y-41060000D01*
X136760000Y-39760000D02*
X136760000Y-40360000D01*
X133960000Y-39760000D02*
G75*
G02*
X134660000Y-39060000I700000J0D01*
G01*
X134660000Y-41060000D02*
G75*
G02*
X133960000Y-40360000I0J700000D01*
G01*
X136060000Y-39060000D02*
G75*
G02*
X136760000Y-39760000I1J-699999D01*
G01*
X136760000Y-40360000D02*
G75*
G02*
X136060000Y-41060000I-699999J-1D01*
G01*
%TO.C,JP57*%
X140760000Y-53220000D02*
X140760000Y-52620000D01*
X141460000Y-51920000D02*
X142860000Y-51920000D01*
X142860000Y-53920000D02*
X141460000Y-53920000D01*
X143560000Y-52620000D02*
X143560000Y-53220000D01*
X140760000Y-52620000D02*
G75*
G02*
X141460000Y-51920000I700000J0D01*
G01*
X141460000Y-53920000D02*
G75*
G02*
X140760000Y-53220000I0J700000D01*
G01*
X142860000Y-51920000D02*
G75*
G02*
X143560000Y-52620000I1J-699999D01*
G01*
X143560000Y-53220000D02*
G75*
G02*
X142860000Y-53920000I-699999J-1D01*
G01*
%TO.C,JP18*%
X110360000Y-86780000D02*
X110360000Y-88180000D01*
X111060000Y-88880000D02*
X111660000Y-88880000D01*
X111660000Y-86080000D02*
X111060000Y-86080000D01*
X112360000Y-88180000D02*
X112360000Y-86780000D01*
X110360000Y-86780000D02*
G75*
G02*
X111060000Y-86080000I699999J1D01*
G01*
X111060000Y-88880000D02*
G75*
G02*
X110360000Y-88180000I0J700000D01*
G01*
X111660000Y-86080000D02*
G75*
G02*
X112360000Y-86780000I1J-699999D01*
G01*
X112360000Y-88180000D02*
G75*
G02*
X111660000Y-88880000I-700000J0D01*
G01*
%TO.C,JP63*%
X140760000Y-71000000D02*
X140760000Y-70400000D01*
X141460000Y-69700000D02*
X142860000Y-69700000D01*
X142860000Y-71700000D02*
X141460000Y-71700000D01*
X143560000Y-70400000D02*
X143560000Y-71000000D01*
X140760000Y-70400000D02*
G75*
G02*
X141460000Y-69700000I700000J0D01*
G01*
X141460000Y-71700000D02*
G75*
G02*
X140760000Y-71000000I0J700000D01*
G01*
X142860000Y-69700000D02*
G75*
G02*
X143560000Y-70400000I1J-699999D01*
G01*
X143560000Y-71000000D02*
G75*
G02*
X142860000Y-71700000I-699999J-1D01*
G01*
%TO.C,JP73*%
X133835000Y-47985000D02*
X133835000Y-47385000D01*
X134535000Y-46685000D02*
X135935000Y-46685000D01*
X135935000Y-48685000D02*
X134535000Y-48685000D01*
X136635000Y-47385000D02*
X136635000Y-47985000D01*
X133835000Y-47385000D02*
G75*
G02*
X134535000Y-46685000I700000J0D01*
G01*
X134535000Y-48685000D02*
G75*
G02*
X133835000Y-47985000I0J700000D01*
G01*
X135935000Y-46685000D02*
G75*
G02*
X136635000Y-47385000I1J-699999D01*
G01*
X136635000Y-47985000D02*
G75*
G02*
X135935000Y-48685000I-699999J-1D01*
G01*
%TO.C,JP55*%
X140750000Y-45550000D02*
X140750000Y-44950000D01*
X141450000Y-44250000D02*
X142850000Y-44250000D01*
X142850000Y-46250000D02*
X141450000Y-46250000D01*
X143550000Y-44950000D02*
X143550000Y-45550000D01*
X140750000Y-44950000D02*
G75*
G02*
X141450000Y-44250000I700000J0D01*
G01*
X141450000Y-46250000D02*
G75*
G02*
X140750000Y-45550000I0J700000D01*
G01*
X142850000Y-44250000D02*
G75*
G02*
X143550000Y-44950000I1J-699999D01*
G01*
X143550000Y-45550000D02*
G75*
G02*
X142850000Y-46250000I-699999J-1D01*
G01*
%TO.C,JP41*%
X163070000Y-53230000D02*
X163070000Y-52630000D01*
X163770000Y-51930000D02*
X165170000Y-51930000D01*
X165170000Y-53930000D02*
X163770000Y-53930000D01*
X165870000Y-52630000D02*
X165870000Y-53230000D01*
X163070000Y-52630000D02*
G75*
G02*
X163770000Y-51930000I700000J0D01*
G01*
X163770000Y-53930000D02*
G75*
G02*
X163070000Y-53230000I0J700000D01*
G01*
X165170000Y-51930000D02*
G75*
G02*
X165870000Y-52630000I1J-699999D01*
G01*
X165870000Y-53230000D02*
G75*
G02*
X165170000Y-53930000I-699999J-1D01*
G01*
%TO.C,JP80*%
X133770000Y-71000000D02*
X133770000Y-70400000D01*
X134470000Y-69700000D02*
X135870000Y-69700000D01*
X135870000Y-71700000D02*
X134470000Y-71700000D01*
X136570000Y-70400000D02*
X136570000Y-71000000D01*
X133770000Y-70400000D02*
G75*
G02*
X134470000Y-69700000I700000J0D01*
G01*
X134470000Y-71700000D02*
G75*
G02*
X133770000Y-71000000I0J700000D01*
G01*
X135870000Y-69700000D02*
G75*
G02*
X136570000Y-70400000I1J-699999D01*
G01*
X136570000Y-71000000D02*
G75*
G02*
X135870000Y-71700000I-699999J-1D01*
G01*
%TO.C,JP43*%
X163070000Y-60810000D02*
X163070000Y-60210000D01*
X163770000Y-59510000D02*
X165170000Y-59510000D01*
X165170000Y-61510000D02*
X163770000Y-61510000D01*
X165870000Y-60210000D02*
X165870000Y-60810000D01*
X163070000Y-60210000D02*
G75*
G02*
X163770000Y-59510000I700000J0D01*
G01*
X163770000Y-61510000D02*
G75*
G02*
X163070000Y-60810000I0J700000D01*
G01*
X165170000Y-59510000D02*
G75*
G02*
X165870000Y-60210000I1J-699999D01*
G01*
X165870000Y-60810000D02*
G75*
G02*
X165170000Y-61510000I-699999J-1D01*
G01*
%TO.C,JP39*%
X162990000Y-45520000D02*
X162990000Y-44920000D01*
X163690000Y-44220000D02*
X165090000Y-44220000D01*
X165090000Y-46220000D02*
X163690000Y-46220000D01*
X165790000Y-44920000D02*
X165790000Y-45520000D01*
X162990000Y-44920000D02*
G75*
G02*
X163690000Y-44220000I700000J0D01*
G01*
X163690000Y-46220000D02*
G75*
G02*
X162990000Y-45520000I0J700000D01*
G01*
X165090000Y-44220000D02*
G75*
G02*
X165790000Y-44920000I1J-699999D01*
G01*
X165790000Y-45520000D02*
G75*
G02*
X165090000Y-46220000I-699999J-1D01*
G01*
%TO.C,JP26*%
X170035000Y-53210000D02*
X170035000Y-52610000D01*
X170735000Y-51910000D02*
X172135000Y-51910000D01*
X172135000Y-53910000D02*
X170735000Y-53910000D01*
X172835000Y-52610000D02*
X172835000Y-53210000D01*
X170035000Y-52610000D02*
G75*
G02*
X170735000Y-51910000I700000J0D01*
G01*
X170735000Y-53910000D02*
G75*
G02*
X170035000Y-53210000I0J700000D01*
G01*
X172135000Y-51910000D02*
G75*
G02*
X172835000Y-52610000I1J-699999D01*
G01*
X172835000Y-53210000D02*
G75*
G02*
X172135000Y-53910000I-699999J-1D01*
G01*
%TO.C,JP67*%
X133860000Y-32860000D02*
X133860000Y-32260000D01*
X134560000Y-31560000D02*
X135960000Y-31560000D01*
X135960000Y-33560000D02*
X134560000Y-33560000D01*
X136660000Y-32260000D02*
X136660000Y-32860000D01*
X133860000Y-32260000D02*
G75*
G02*
X134560000Y-31560000I700000J0D01*
G01*
X134560000Y-33560000D02*
G75*
G02*
X133860000Y-32860000I0J700000D01*
G01*
X135960000Y-31560000D02*
G75*
G02*
X136660000Y-32260000I1J-699999D01*
G01*
X136660000Y-32860000D02*
G75*
G02*
X135960000Y-33560000I-699999J-1D01*
G01*
%TO.C,JP29*%
X170060000Y-65910000D02*
X170060000Y-65310000D01*
X170760000Y-64610000D02*
X172160000Y-64610000D01*
X172160000Y-66610000D02*
X170760000Y-66610000D01*
X172860000Y-65310000D02*
X172860000Y-65910000D01*
X170060000Y-65310000D02*
G75*
G02*
X170760000Y-64610000I700000J0D01*
G01*
X170760000Y-66610000D02*
G75*
G02*
X170060000Y-65910000I0J700000D01*
G01*
X172160000Y-64610000D02*
G75*
G02*
X172860000Y-65310000I1J-699999D01*
G01*
X172860000Y-65910000D02*
G75*
G02*
X172160000Y-66610000I-699999J-1D01*
G01*
%TO.C,JP34*%
X170010000Y-81210000D02*
X170010000Y-80610000D01*
X170710000Y-79910000D02*
X172110000Y-79910000D01*
X172110000Y-81910000D02*
X170710000Y-81910000D01*
X172810000Y-80610000D02*
X172810000Y-81210000D01*
X170010000Y-80610000D02*
G75*
G02*
X170710000Y-79910000I700000J0D01*
G01*
X170710000Y-81910000D02*
G75*
G02*
X170010000Y-81210000I0J700000D01*
G01*
X172110000Y-79910000D02*
G75*
G02*
X172810000Y-80610000I1J-699999D01*
G01*
X172810000Y-81210000D02*
G75*
G02*
X172110000Y-81910000I-699999J-1D01*
G01*
%TO.C,JP49*%
X163040000Y-81120000D02*
X163040000Y-80520000D01*
X163740000Y-79820000D02*
X165140000Y-79820000D01*
X165140000Y-81820000D02*
X163740000Y-81820000D01*
X165840000Y-80520000D02*
X165840000Y-81120000D01*
X163040000Y-80520000D02*
G75*
G02*
X163740000Y-79820000I700000J0D01*
G01*
X163740000Y-81820000D02*
G75*
G02*
X163040000Y-81120000I0J700000D01*
G01*
X165140000Y-79820000D02*
G75*
G02*
X165840000Y-80520000I1J-699999D01*
G01*
X165840000Y-81120000D02*
G75*
G02*
X165140000Y-81820000I-699999J-1D01*
G01*
%TO.C,JP36*%
X162970000Y-35440000D02*
X162970000Y-34840000D01*
X163670000Y-34140000D02*
X165070000Y-34140000D01*
X165070000Y-36140000D02*
X163670000Y-36140000D01*
X165770000Y-34840000D02*
X165770000Y-35440000D01*
X162970000Y-34840000D02*
G75*
G02*
X163670000Y-34140000I700000J0D01*
G01*
X163670000Y-36140000D02*
G75*
G02*
X162970000Y-35440000I0J700000D01*
G01*
X165070000Y-34140000D02*
G75*
G02*
X165770000Y-34840000I1J-699999D01*
G01*
X165770000Y-35440000D02*
G75*
G02*
X165070000Y-36140000I-699999J-1D01*
G01*
%TO.C,JP40*%
X162950000Y-48060000D02*
X162950000Y-47460000D01*
X163650000Y-46760000D02*
X165050000Y-46760000D01*
X165050000Y-48760000D02*
X163650000Y-48760000D01*
X165750000Y-47460000D02*
X165750000Y-48060000D01*
X162950000Y-47460000D02*
G75*
G02*
X163650000Y-46760000I700000J0D01*
G01*
X163650000Y-48760000D02*
G75*
G02*
X162950000Y-48060000I0J700000D01*
G01*
X165050000Y-46760000D02*
G75*
G02*
X165750000Y-47460000I1J-699999D01*
G01*
X165750000Y-48060000D02*
G75*
G02*
X165050000Y-48760000I-699999J-1D01*
G01*
%TO.C,JP65*%
X140760000Y-78620000D02*
X140760000Y-78020000D01*
X141460000Y-77320000D02*
X142860000Y-77320000D01*
X142860000Y-79320000D02*
X141460000Y-79320000D01*
X143560000Y-78020000D02*
X143560000Y-78620000D01*
X140760000Y-78020000D02*
G75*
G02*
X141460000Y-77320000I700000J0D01*
G01*
X141460000Y-79320000D02*
G75*
G02*
X140760000Y-78620000I0J700000D01*
G01*
X142860000Y-77320000D02*
G75*
G02*
X143560000Y-78020000I1J-699999D01*
G01*
X143560000Y-78620000D02*
G75*
G02*
X142860000Y-79320000I-699999J-1D01*
G01*
%TO.C,JP28*%
X170035000Y-60810000D02*
X170035000Y-60210000D01*
X170735000Y-59510000D02*
X172135000Y-59510000D01*
X172135000Y-61510000D02*
X170735000Y-61510000D01*
X172835000Y-60210000D02*
X172835000Y-60810000D01*
X170035000Y-60210000D02*
G75*
G02*
X170735000Y-59510000I700000J0D01*
G01*
X170735000Y-61510000D02*
G75*
G02*
X170035000Y-60810000I0J700000D01*
G01*
X172135000Y-59510000D02*
G75*
G02*
X172835000Y-60210000I1J-699999D01*
G01*
X172835000Y-60810000D02*
G75*
G02*
X172135000Y-61510000I-699999J-1D01*
G01*
%TO.C,JP68*%
X133835000Y-35360000D02*
X133835000Y-34760000D01*
X134535000Y-34060000D02*
X135935000Y-34060000D01*
X135935000Y-36060000D02*
X134535000Y-36060000D01*
X136635000Y-34760000D02*
X136635000Y-35360000D01*
X133835000Y-34760000D02*
G75*
G02*
X134535000Y-34060000I700000J0D01*
G01*
X134535000Y-36060000D02*
G75*
G02*
X133835000Y-35360000I0J700000D01*
G01*
X135935000Y-34060000D02*
G75*
G02*
X136635000Y-34760000I1J-699999D01*
G01*
X136635000Y-35360000D02*
G75*
G02*
X135935000Y-36060000I-699999J-1D01*
G01*
%TO.C,JP32*%
X170085000Y-73510000D02*
X170085000Y-72910000D01*
X170785000Y-72210000D02*
X172185000Y-72210000D01*
X172185000Y-74210000D02*
X170785000Y-74210000D01*
X172885000Y-72910000D02*
X172885000Y-73510000D01*
X170085000Y-72910000D02*
G75*
G02*
X170785000Y-72210000I700000J0D01*
G01*
X170785000Y-74210000D02*
G75*
G02*
X170085000Y-73510000I0J700000D01*
G01*
X172185000Y-72210000D02*
G75*
G02*
X172885000Y-72910000I1J-699999D01*
G01*
X172885000Y-73510000D02*
G75*
G02*
X172185000Y-74210000I-699999J-1D01*
G01*
%TO.C,JP30*%
X170085000Y-68460000D02*
X170085000Y-67860000D01*
X170785000Y-67160000D02*
X172185000Y-67160000D01*
X172185000Y-69160000D02*
X170785000Y-69160000D01*
X172885000Y-67860000D02*
X172885000Y-68460000D01*
X170085000Y-67860000D02*
G75*
G02*
X170785000Y-67160000I700000J0D01*
G01*
X170785000Y-69160000D02*
G75*
G02*
X170085000Y-68460000I0J700000D01*
G01*
X172185000Y-67160000D02*
G75*
G02*
X172885000Y-67860000I1J-699999D01*
G01*
X172885000Y-68460000D02*
G75*
G02*
X172185000Y-69160000I-699999J-1D01*
G01*
%TO.C,JP42*%
X162940000Y-55760000D02*
X162940000Y-55160000D01*
X163640000Y-54460000D02*
X165040000Y-54460000D01*
X165040000Y-56460000D02*
X163640000Y-56460000D01*
X165740000Y-55160000D02*
X165740000Y-55760000D01*
X162940000Y-55160000D02*
G75*
G02*
X163640000Y-54460000I700000J0D01*
G01*
X163640000Y-56460000D02*
G75*
G02*
X162940000Y-55760000I0J700000D01*
G01*
X165040000Y-54460000D02*
G75*
G02*
X165740000Y-55160000I1J-699999D01*
G01*
X165740000Y-55760000D02*
G75*
G02*
X165040000Y-56460000I-699999J-1D01*
G01*
%TO.C,JP54*%
X140730000Y-43050000D02*
X140730000Y-42450000D01*
X141430000Y-41750000D02*
X142830000Y-41750000D01*
X142830000Y-43750000D02*
X141430000Y-43750000D01*
X143530000Y-42450000D02*
X143530000Y-43050000D01*
X140730000Y-42450000D02*
G75*
G02*
X141430000Y-41750000I700000J0D01*
G01*
X141430000Y-43750000D02*
G75*
G02*
X140730000Y-43050000I0J700000D01*
G01*
X142830000Y-41750000D02*
G75*
G02*
X143530000Y-42450000I1J-699999D01*
G01*
X143530000Y-43050000D02*
G75*
G02*
X142830000Y-43750000I-699999J-1D01*
G01*
%TO.C,JP51*%
X140790000Y-32890000D02*
X140790000Y-32290000D01*
X141490000Y-31590000D02*
X142890000Y-31590000D01*
X142890000Y-33590000D02*
X141490000Y-33590000D01*
X143590000Y-32290000D02*
X143590000Y-32890000D01*
X140790000Y-32290000D02*
G75*
G02*
X141490000Y-31590000I700000J0D01*
G01*
X141490000Y-33590000D02*
G75*
G02*
X140790000Y-32890000I0J700000D01*
G01*
X142890000Y-31590000D02*
G75*
G02*
X143590000Y-32290000I1J-699999D01*
G01*
X143590000Y-32890000D02*
G75*
G02*
X142890000Y-33590000I-699999J-1D01*
G01*
%TO.C,JP62*%
X140760000Y-68460000D02*
X140760000Y-67860000D01*
X141460000Y-67160000D02*
X142860000Y-67160000D01*
X142860000Y-69160000D02*
X141460000Y-69160000D01*
X143560000Y-67860000D02*
X143560000Y-68460000D01*
X140760000Y-67860000D02*
G75*
G02*
X141460000Y-67160000I700000J0D01*
G01*
X141460000Y-69160000D02*
G75*
G02*
X140760000Y-68460000I0J700000D01*
G01*
X142860000Y-67160000D02*
G75*
G02*
X143560000Y-67860000I1J-699999D01*
G01*
X143560000Y-68460000D02*
G75*
G02*
X142860000Y-69160000I-699999J-1D01*
G01*
%TO.C,JP53*%
X140730000Y-40550000D02*
X140730000Y-39950000D01*
X141430000Y-39250000D02*
X142830000Y-39250000D01*
X142830000Y-41250000D02*
X141430000Y-41250000D01*
X143530000Y-39950000D02*
X143530000Y-40550000D01*
X140730000Y-39950000D02*
G75*
G02*
X141430000Y-39250000I700000J0D01*
G01*
X141430000Y-41250000D02*
G75*
G02*
X140730000Y-40550000I0J700000D01*
G01*
X142830000Y-39250000D02*
G75*
G02*
X143530000Y-39950000I1J-699999D01*
G01*
X143530000Y-40550000D02*
G75*
G02*
X142830000Y-41250000I-699999J-1D01*
G01*
%TO.C,JP60*%
X140760000Y-60840000D02*
X140760000Y-60240000D01*
X141460000Y-59540000D02*
X142860000Y-59540000D01*
X142860000Y-61540000D02*
X141460000Y-61540000D01*
X143560000Y-60240000D02*
X143560000Y-60840000D01*
X140760000Y-60240000D02*
G75*
G02*
X141460000Y-59540000I700000J0D01*
G01*
X141460000Y-61540000D02*
G75*
G02*
X140760000Y-60840000I0J700000D01*
G01*
X142860000Y-59540000D02*
G75*
G02*
X143560000Y-60240000I1J-699999D01*
G01*
X143560000Y-60840000D02*
G75*
G02*
X142860000Y-61540000I-699999J-1D01*
G01*
%TO.C,JP47*%
X163130000Y-73550000D02*
X163130000Y-72950000D01*
X163830000Y-72250000D02*
X165230000Y-72250000D01*
X165230000Y-74250000D02*
X163830000Y-74250000D01*
X165930000Y-72950000D02*
X165930000Y-73550000D01*
X163130000Y-72950000D02*
G75*
G02*
X163830000Y-72250000I700000J0D01*
G01*
X163830000Y-74250000D02*
G75*
G02*
X163130000Y-73550000I0J700000D01*
G01*
X165230000Y-72250000D02*
G75*
G02*
X165930000Y-72950000I1J-699999D01*
G01*
X165930000Y-73550000D02*
G75*
G02*
X165230000Y-74250000I-699999J-1D01*
G01*
%TO.C,JP72*%
X133835000Y-45460000D02*
X133835000Y-44860000D01*
X134535000Y-44160000D02*
X135935000Y-44160000D01*
X135935000Y-46160000D02*
X134535000Y-46160000D01*
X136635000Y-44860000D02*
X136635000Y-45460000D01*
X133835000Y-44860000D02*
G75*
G02*
X134535000Y-44160000I700000J0D01*
G01*
X134535000Y-46160000D02*
G75*
G02*
X133835000Y-45460000I0J700000D01*
G01*
X135935000Y-44160000D02*
G75*
G02*
X136635000Y-44860000I1J-699999D01*
G01*
X136635000Y-45460000D02*
G75*
G02*
X135935000Y-46160000I-699999J-1D01*
G01*
%TO.C,JP38*%
X162960000Y-43010000D02*
X162960000Y-42410000D01*
X163660000Y-41710000D02*
X165060000Y-41710000D01*
X165060000Y-43710000D02*
X163660000Y-43710000D01*
X165760000Y-42410000D02*
X165760000Y-43010000D01*
X162960000Y-42410000D02*
G75*
G02*
X163660000Y-41710000I700000J0D01*
G01*
X163660000Y-43710000D02*
G75*
G02*
X162960000Y-43010000I0J700000D01*
G01*
X165060000Y-41710000D02*
G75*
G02*
X165760000Y-42410000I1J-699999D01*
G01*
X165760000Y-43010000D02*
G75*
G02*
X165060000Y-43710000I-699999J-1D01*
G01*
%TO.C,JP46*%
X163130000Y-71020000D02*
X163130000Y-70420000D01*
X163830000Y-69720000D02*
X165230000Y-69720000D01*
X165230000Y-71720000D02*
X163830000Y-71720000D01*
X165930000Y-70420000D02*
X165930000Y-71020000D01*
X163130000Y-70420000D02*
G75*
G02*
X163830000Y-69720000I700000J0D01*
G01*
X163830000Y-71720000D02*
G75*
G02*
X163130000Y-71020000I0J700000D01*
G01*
X165230000Y-69720000D02*
G75*
G02*
X165930000Y-70420000I1J-699999D01*
G01*
X165930000Y-71020000D02*
G75*
G02*
X165230000Y-71720000I-699999J-1D01*
G01*
%TO.C,JP61*%
X140760000Y-65920000D02*
X140760000Y-65320000D01*
X141460000Y-64620000D02*
X142860000Y-64620000D01*
X142860000Y-66620000D02*
X141460000Y-66620000D01*
X143560000Y-65320000D02*
X143560000Y-65920000D01*
X140760000Y-65320000D02*
G75*
G02*
X141460000Y-64620000I700000J0D01*
G01*
X141460000Y-66620000D02*
G75*
G02*
X140760000Y-65920000I0J700000D01*
G01*
X142860000Y-64620000D02*
G75*
G02*
X143560000Y-65320000I1J-699999D01*
G01*
X143560000Y-65920000D02*
G75*
G02*
X142860000Y-66620000I-699999J-1D01*
G01*
%TO.C,JP81*%
X133770000Y-73540000D02*
X133770000Y-72940000D01*
X134470000Y-72240000D02*
X135870000Y-72240000D01*
X135870000Y-74240000D02*
X134470000Y-74240000D01*
X136570000Y-72940000D02*
X136570000Y-73540000D01*
X133770000Y-72940000D02*
G75*
G02*
X134470000Y-72240000I700000J0D01*
G01*
X134470000Y-74240000D02*
G75*
G02*
X133770000Y-73540000I0J700000D01*
G01*
X135870000Y-72240000D02*
G75*
G02*
X136570000Y-72940000I1J-699999D01*
G01*
X136570000Y-73540000D02*
G75*
G02*
X135870000Y-74240000I-699999J-1D01*
G01*
%TO.C,JP64*%
X140760000Y-73540000D02*
X140760000Y-72940000D01*
X141460000Y-72240000D02*
X142860000Y-72240000D01*
X142860000Y-74240000D02*
X141460000Y-74240000D01*
X143560000Y-72940000D02*
X143560000Y-73540000D01*
X140760000Y-72940000D02*
G75*
G02*
X141460000Y-72240000I700000J0D01*
G01*
X141460000Y-74240000D02*
G75*
G02*
X140760000Y-73540000I0J700000D01*
G01*
X142860000Y-72240000D02*
G75*
G02*
X143560000Y-72940000I1J-699999D01*
G01*
X143560000Y-73540000D02*
G75*
G02*
X142860000Y-74240000I-699999J-1D01*
G01*
%TO.C,JP2*%
X156590000Y-60180000D02*
X156590000Y-61580000D01*
X157290000Y-62280000D02*
X157890000Y-62280000D01*
X157890000Y-59480000D02*
X157290000Y-59480000D01*
X158590000Y-61580000D02*
X158590000Y-60180000D01*
X156590000Y-60180000D02*
G75*
G02*
X157290000Y-59480000I700000J0D01*
G01*
X157290000Y-62280000D02*
G75*
G02*
X156590000Y-61580000I-1J699999D01*
G01*
X157890000Y-59480000D02*
G75*
G02*
X158590000Y-60180000I0J-700000D01*
G01*
X158590000Y-61580000D02*
G75*
G02*
X157890000Y-62280000I-699999J-1D01*
G01*
%TO.C,JP48*%
X163080000Y-78580000D02*
X163080000Y-77980000D01*
X163780000Y-77280000D02*
X165180000Y-77280000D01*
X165180000Y-79280000D02*
X163780000Y-79280000D01*
X165880000Y-77980000D02*
X165880000Y-78580000D01*
X163080000Y-77980000D02*
G75*
G02*
X163780000Y-77280000I700000J0D01*
G01*
X163780000Y-79280000D02*
G75*
G02*
X163080000Y-78580000I0J700000D01*
G01*
X165180000Y-77280000D02*
G75*
G02*
X165880000Y-77980000I1J-699999D01*
G01*
X165880000Y-78580000D02*
G75*
G02*
X165180000Y-79280000I-699999J-1D01*
G01*
%TO.C,JP75*%
X133660000Y-55710000D02*
X133660000Y-55110000D01*
X134360000Y-54410000D02*
X135760000Y-54410000D01*
X135760000Y-56410000D02*
X134360000Y-56410000D01*
X136460000Y-55110000D02*
X136460000Y-55710000D01*
X133660000Y-55110000D02*
G75*
G02*
X134360000Y-54410000I700000J0D01*
G01*
X134360000Y-56410000D02*
G75*
G02*
X133660000Y-55710000I0J700000D01*
G01*
X135760000Y-54410000D02*
G75*
G02*
X136460000Y-55110000I1J-699999D01*
G01*
X136460000Y-55710000D02*
G75*
G02*
X135760000Y-56410000I-699999J-1D01*
G01*
%TO.C,JP24*%
X170085000Y-45585000D02*
X170085000Y-44985000D01*
X170785000Y-44285000D02*
X172185000Y-44285000D01*
X172185000Y-46285000D02*
X170785000Y-46285000D01*
X172885000Y-44985000D02*
X172885000Y-45585000D01*
X170085000Y-44985000D02*
G75*
G02*
X170785000Y-44285000I700000J0D01*
G01*
X170785000Y-46285000D02*
G75*
G02*
X170085000Y-45585000I0J700000D01*
G01*
X172185000Y-44285000D02*
G75*
G02*
X172885000Y-44985000I1J-699999D01*
G01*
X172885000Y-45585000D02*
G75*
G02*
X172185000Y-46285000I-699999J-1D01*
G01*
%TO.C,JP52*%
X140730000Y-35400000D02*
X140730000Y-34800000D01*
X141430000Y-34100000D02*
X142830000Y-34100000D01*
X142830000Y-36100000D02*
X141430000Y-36100000D01*
X143530000Y-34800000D02*
X143530000Y-35400000D01*
X140730000Y-34800000D02*
G75*
G02*
X141430000Y-34100000I700000J0D01*
G01*
X141430000Y-36100000D02*
G75*
G02*
X140730000Y-35400000I0J700000D01*
G01*
X142830000Y-34100000D02*
G75*
G02*
X143530000Y-34800000I1J-699999D01*
G01*
X143530000Y-35400000D02*
G75*
G02*
X142830000Y-36100000I-699999J-1D01*
G01*
%TO.C,JP23*%
X170085000Y-43035000D02*
X170085000Y-42435000D01*
X170785000Y-41735000D02*
X172185000Y-41735000D01*
X172185000Y-43735000D02*
X170785000Y-43735000D01*
X172885000Y-42435000D02*
X172885000Y-43035000D01*
X170085000Y-42435000D02*
G75*
G02*
X170785000Y-41735000I700000J0D01*
G01*
X170785000Y-43735000D02*
G75*
G02*
X170085000Y-43035000I0J700000D01*
G01*
X172185000Y-41735000D02*
G75*
G02*
X172885000Y-42435000I1J-699999D01*
G01*
X172885000Y-43035000D02*
G75*
G02*
X172185000Y-43735000I-699999J-1D01*
G01*
%TO.C,JP22*%
X170085000Y-40510000D02*
X170085000Y-39910000D01*
X170785000Y-39210000D02*
X172185000Y-39210000D01*
X172185000Y-41210000D02*
X170785000Y-41210000D01*
X172885000Y-39910000D02*
X172885000Y-40510000D01*
X170085000Y-39910000D02*
G75*
G02*
X170785000Y-39210000I700000J0D01*
G01*
X170785000Y-41210000D02*
G75*
G02*
X170085000Y-40510000I0J700000D01*
G01*
X172185000Y-39210000D02*
G75*
G02*
X172885000Y-39910000I1J-699999D01*
G01*
X172885000Y-40510000D02*
G75*
G02*
X172185000Y-41210000I-699999J-1D01*
G01*
%TO.C,JP59*%
X140760000Y-58300000D02*
X140760000Y-57700000D01*
X141460000Y-57000000D02*
X142860000Y-57000000D01*
X142860000Y-59000000D02*
X141460000Y-59000000D01*
X143560000Y-57700000D02*
X143560000Y-58300000D01*
X140760000Y-57700000D02*
G75*
G02*
X141460000Y-57000000I700000J0D01*
G01*
X141460000Y-59000000D02*
G75*
G02*
X140760000Y-58300000I0J700000D01*
G01*
X142860000Y-57000000D02*
G75*
G02*
X143560000Y-57700000I1J-699999D01*
G01*
X143560000Y-58300000D02*
G75*
G02*
X142860000Y-59000000I-699999J-1D01*
G01*
%TO.C,JP37*%
X162990000Y-40410000D02*
X162990000Y-39810000D01*
X163690000Y-39110000D02*
X165090000Y-39110000D01*
X165090000Y-41110000D02*
X163690000Y-41110000D01*
X165790000Y-39810000D02*
X165790000Y-40410000D01*
X162990000Y-39810000D02*
G75*
G02*
X163690000Y-39110000I700000J0D01*
G01*
X163690000Y-41110000D02*
G75*
G02*
X162990000Y-40410000I0J700000D01*
G01*
X165090000Y-39110000D02*
G75*
G02*
X165790000Y-39810000I1J-699999D01*
G01*
X165790000Y-40410000D02*
G75*
G02*
X165090000Y-41110000I-699999J-1D01*
G01*
%TO.C,JP82*%
X133685000Y-78610000D02*
X133685000Y-78010000D01*
X134385000Y-77310000D02*
X135785000Y-77310000D01*
X135785000Y-79310000D02*
X134385000Y-79310000D01*
X136485000Y-78010000D02*
X136485000Y-78610000D01*
X133685000Y-78010000D02*
G75*
G02*
X134385000Y-77310000I700000J0D01*
G01*
X134385000Y-79310000D02*
G75*
G02*
X133685000Y-78610000I0J700000D01*
G01*
X135785000Y-77310000D02*
G75*
G02*
X136485000Y-78010000I1J-699999D01*
G01*
X136485000Y-78610000D02*
G75*
G02*
X135785000Y-79310000I-699999J-1D01*
G01*
%TO.C,JP21*%
X169985000Y-35360000D02*
X169985000Y-34760000D01*
X170685000Y-34060000D02*
X172085000Y-34060000D01*
X172085000Y-36060000D02*
X170685000Y-36060000D01*
X172785000Y-34760000D02*
X172785000Y-35360000D01*
X169985000Y-34760000D02*
G75*
G02*
X170685000Y-34060000I700000J0D01*
G01*
X170685000Y-36060000D02*
G75*
G02*
X169985000Y-35360000I0J700000D01*
G01*
X172085000Y-34060000D02*
G75*
G02*
X172785000Y-34760000I1J-699999D01*
G01*
X172785000Y-35360000D02*
G75*
G02*
X172085000Y-36060000I-699999J-1D01*
G01*
%TO.C,e4*%
X102810000Y-76090000D02*
X102810000Y-76690000D01*
X103510000Y-77390000D02*
X104910000Y-77390000D01*
X104910000Y-75390000D02*
X103510000Y-75390000D01*
X105610000Y-76690000D02*
X105610000Y-76090000D01*
X102810000Y-76090000D02*
G75*
G02*
X103510000Y-75390000I700000J0D01*
G01*
X103510000Y-77390000D02*
G75*
G02*
X102810000Y-76690000I0J700000D01*
G01*
X104910000Y-75390000D02*
G75*
G02*
X105610000Y-76090000I1J-699999D01*
G01*
X105610000Y-76690000D02*
G75*
G02*
X104910000Y-77390000I-699999J-1D01*
G01*
%TO.C,JP20*%
X169985000Y-32835000D02*
X169985000Y-32235000D01*
X170685000Y-31535000D02*
X172085000Y-31535000D01*
X172085000Y-33535000D02*
X170685000Y-33535000D01*
X172785000Y-32235000D02*
X172785000Y-32835000D01*
X169985000Y-32235000D02*
G75*
G02*
X170685000Y-31535000I700000J0D01*
G01*
X170685000Y-33535000D02*
G75*
G02*
X169985000Y-32835000I0J700000D01*
G01*
X172085000Y-31535000D02*
G75*
G02*
X172785000Y-32235000I1J-699999D01*
G01*
X172785000Y-32835000D02*
G75*
G02*
X172085000Y-33535000I-699999J-1D01*
G01*
%TO.C,JP35*%
X163050000Y-32890000D02*
X163050000Y-32290000D01*
X163750000Y-31590000D02*
X165150000Y-31590000D01*
X165150000Y-33590000D02*
X163750000Y-33590000D01*
X165850000Y-32290000D02*
X165850000Y-32890000D01*
X163050000Y-32290000D02*
G75*
G02*
X163750000Y-31590000I700000J0D01*
G01*
X163750000Y-33590000D02*
G75*
G02*
X163050000Y-32890000I0J700000D01*
G01*
X165150000Y-31590000D02*
G75*
G02*
X165850000Y-32290000I1J-699999D01*
G01*
X165850000Y-32890000D02*
G75*
G02*
X165150000Y-33590000I-699999J-1D01*
G01*
%TO.C,JP88*%
X117790000Y-123800000D02*
X117790000Y-124400000D01*
X118490000Y-125100000D02*
X119890000Y-125100000D01*
X119890000Y-123100000D02*
X118490000Y-123100000D01*
X120590000Y-124400000D02*
X120590000Y-123800000D01*
X117790000Y-123800000D02*
G75*
G02*
X118490000Y-123100000I700000J0D01*
G01*
X118490000Y-125100000D02*
G75*
G02*
X117790000Y-124400000I0J700000D01*
G01*
X119890000Y-123100000D02*
G75*
G02*
X120590000Y-123800000I1J-699999D01*
G01*
X120590000Y-124400000D02*
G75*
G02*
X119890000Y-125100000I-699999J-1D01*
G01*
%TO.C,JP19*%
X103670000Y-86630000D02*
X103670000Y-88030000D01*
X104370000Y-88730000D02*
X104970000Y-88730000D01*
X104970000Y-85930000D02*
X104370000Y-85930000D01*
X105670000Y-88030000D02*
X105670000Y-86630000D01*
X103670000Y-86630000D02*
G75*
G02*
X104370000Y-85930000I700000J0D01*
G01*
X104370000Y-88730000D02*
G75*
G02*
X103670000Y-88030000I-1J699999D01*
G01*
X104970000Y-85930000D02*
G75*
G02*
X105670000Y-86630000I0J-700000D01*
G01*
X105670000Y-88030000D02*
G75*
G02*
X104970000Y-88730000I-699999J-1D01*
G01*
%TD*%
M02*
