M48
; DRILL file {KiCad 9.0.7-9.0.7~ubuntu24.04.1} date 2026-02-19T22:15:52-0800
; FORMAT={-:-/ absolute / metric / decimal}
; #@! TF.CreationDate,2026-02-19T22:15:52-08:00
; #@! TF.GenerationSoftware,Kicad,Pcbnew,9.0.7-9.0.7~ubuntu24.04.1
; #@! TF.FileFunction,Plated,1,4,PTH
FMAT,2
METRIC
; #@! TA.AperFunction,Plated,PTH,ViaDrill
T1C0.300
; #@! TA.AperFunction,Plated,PTH,ComponentDrill
T2C0.300
; #@! TA.AperFunction,Plated,PTH,ComponentDrill
T3C0.700
; #@! TA.AperFunction,Plated,PTH,ComponentDrill
T4C1.000
; #@! TA.AperFunction,Plated,PTH,ComponentDrill
T5C1.020
; #@! TA.AperFunction,Plated,PTH,ComponentDrill
T6C1.270
; #@! TA.AperFunction,Plated,PTH,ComponentDrill
T7C1.300
; #@! TA.AperFunction,Plated,PTH,ComponentDrill
T8C1.500
; #@! TA.AperFunction,Plated,PTH,ComponentDrill
T9C1.524
%
G90
G05
T1
X101.78Y-96.52
X101.81Y-108.74
X101.83Y-92.4
X101.85Y-89.43
X102.28Y-77.76
X102.39Y-75.13
X102.55Y-101.33
X102.57Y-111.48
X102.6Y-86.33
X102.77Y-65.79
X102.92Y-117.14
X102.98Y-69.82
X102.98Y-81.98
X103.27Y-58.04
X103.46Y-104.52
X103.69Y-61.78
X103.99Y-106.39
X104.002Y-75.216
X104.14Y-97.0
X104.65Y-90.34
X104.66Y-92.09
X104.76Y-77.91
X104.77Y-108.08
X104.88Y-109.77
X104.94Y-98.36
X104.96Y-100.32
X105.05Y-33.99
X105.73Y-101.92
X105.76Y-90.35
X105.88Y-106.26
X105.9Y-117.54
X105.92Y-111.92
X106.08Y-104.1
X107.07Y-111.52
X107.09Y-44.01
X107.149Y-114.692
X107.39Y-113.13
X107.516Y-116.395
X107.758Y-115.67
X107.83Y-62.65
X107.97Y-104.4
X108.255Y-114.276
X108.29Y-106.79
X108.43Y-87.29
X108.526Y-115.013
X108.54Y-82.35
X108.606Y-115.623
X108.72Y-97.8
X108.83Y-109.03
X108.84Y-94.53
X108.846Y-110.33
X109.1Y-96.58
X109.2Y-73.33
X109.2Y-102.04
X109.24Y-100.86
X109.24Y-103.37
X109.4Y-104.56
X109.43Y-111.74
X109.46Y-52.82
X109.47Y-116.81
X109.57Y-92.09
X109.8Y-98.64
X109.8Y-107.32
X109.85Y-84.93
X109.868Y-113.915
X109.944Y-115.611
X109.96Y-113.07
X110.48Y-93.59
X110.57Y-63.05
X110.6Y-95.78
X110.71Y-100.94
X110.77Y-86.19
X110.83Y-102.81
X110.84Y-99.98
X111.4Y-76.77
X111.72Y-106.24
X112.13Y-57.9
X112.2Y-104.63
X112.36Y-115.49
X112.66Y-112.23
X112.79Y-90.99
X112.84Y-67.53
X112.88Y-74.0
X113.0Y-110.06
X113.31Y-119.79
X113.48Y-93.92
X113.52Y-108.2
X113.57Y-80.77
X113.62Y-98.58
X113.8Y-102.94
X113.89Y-101.66
X114.02Y-112.29
X114.19Y-92.05
X114.56Y-106.42
X114.67Y-115.55
X114.94Y-79.77
X115.1Y-56.55
X115.73Y-102.24
X115.85Y-90.28
X116.09Y-83.6
X116.11Y-104.08
X116.13Y-70.68
X116.2Y-92.11
X116.26Y-85.1
X116.28Y-87.44
X116.44Y-129.57
X116.62Y-113.2
X116.78Y-127.34
X116.96Y-108.64
X117.09Y-126.01
X117.1Y-67.9
X117.12Y-41.43
X117.13Y-46.03
X117.16Y-110.41
X117.33Y-103.1
X117.35Y-44.44
X117.36Y-116.66
X117.37Y-121.3
X117.45Y-77.62
X117.485Y-82.205
X117.78Y-74.19
X117.79Y-112.41
X117.82Y-127.07
X117.93Y-39.02
X118.09Y-43.03
X118.1Y-105.57
X118.32Y-47.18
X118.33Y-45.19
X118.46Y-63.73
X118.54Y-124.1
X118.63Y-101.89
X118.65Y-91.93
X118.65Y-93.16
X118.89Y-84.88
X118.91Y-88.1
X119.0Y-56.61
X119.32Y-58.86
X119.32Y-83.25
X119.6Y-107.64
X119.69Y-110.1
X119.8Y-124.13
X119.81Y-76.17
X119.82Y-118.53
X119.85Y-65.72
X119.88Y-61.63
X120.38Y-86.3
X120.51Y-36.83
X120.51Y-41.37
X120.513Y-38.81
X121.02Y-55.94
X121.03Y-79.35
X121.08Y-127.51
X121.1Y-92.01
X121.1Y-98.55
X121.13Y-118.58
X121.16Y-102.26
X121.22Y-121.59
X121.3Y-112.36
X121.34Y-37.77
X121.34Y-94.84
X121.47Y-89.62
X121.52Y-42.63
X121.66Y-67.76
X121.68Y-77.87
X121.86Y-106.25
X121.86Y-106.92
X121.86Y-107.67
X122.14Y-47.36
X122.32Y-103.13
X122.39Y-79.86
X122.86Y-61.65
X122.96Y-70.76
X122.98Y-100.66
X122.99Y-98.31
X123.064Y-74.188
X123.12Y-71.6
X123.13Y-72.22
X123.188Y-73.068
X123.34Y-115.08
X123.48Y-115.92
X123.592Y-79.978
X123.77Y-109.32
X123.82Y-84.45
X123.85Y-104.92
X123.9Y-69.49
X124.07Y-88.86
X124.32Y-76.36
X124.42Y-112.28
X124.69Y-73.44
X124.83Y-82.35
X124.917Y-79.569
X124.94Y-83.36
X125.11Y-97.57
X125.17Y-117.4
X125.28Y-90.25
X125.4Y-87.03
X125.49Y-37.43
X125.75Y-85.44
X125.78Y-64.93
X125.81Y-46.86
X126.0Y-42.23
X126.09Y-57.51
X126.12Y-78.53
X126.29Y-61.16
X126.41Y-120.51
X126.46Y-75.92
X126.53Y-65.62
X126.56Y-93.0
X126.75Y-87.02
X126.89Y-69.52
X126.921Y-88.93
X126.93Y-65.01
X127.26Y-128.3
X127.32Y-34.14
X127.43Y-129.19
X127.58Y-112.28
X127.827Y-85.73
X127.84Y-35.181
X127.93Y-104.01
X127.94Y-90.95
X128.1Y-99.95
X128.16Y-109.38
X128.196Y-82.794
X128.38Y-60.53
X128.409Y-101.903
X128.462Y-84.69
X128.629Y-80.578
X128.667Y-59.538
X128.82Y-78.45
X128.9Y-114.6
X128.95Y-85.39
X128.96Y-82.0
X128.96Y-84.25
X128.99Y-117.46
X129.13Y-79.46
X129.36Y-125.01
X129.37Y-63.0
X129.39Y-123.97
X129.7Y-96.04
X129.78Y-54.18
X129.83Y-94.81
X129.92Y-92.83
X129.927Y-102.849
X130.0Y-104.33
X130.12Y-106.17
X130.2Y-65.62
X130.24Y-46.73
X130.28Y-61.07
X130.36Y-37.69
X130.39Y-100.21
X130.81Y-110.71
X130.94Y-92.87
X130.96Y-96.09
X130.989Y-105.092
X130.99Y-89.46
X131.111Y-91.101
X131.319Y-73.837
X131.42Y-79.43
X131.42Y-82.88
X131.44Y-76.89
X131.44Y-81.89
X131.46Y-74.77
X131.47Y-58.87
X131.475Y-94.385
X131.56Y-65.62
X131.57Y-58.06
X131.57Y-85.47
X131.62Y-62.4
X131.63Y-95.02
X131.68Y-103.91
X131.79Y-99.24
X131.79Y-126.15
X131.793Y-69.831
X132.08Y-86.32
X132.11Y-87.45
X132.25Y-36.91
X132.339Y-88.726
X132.36Y-82.73
X132.37Y-55.03
X132.416Y-38.609
X132.45Y-45.15
X132.6Y-128.625
X132.82Y-32.61
X132.85Y-94.36
X133.03Y-45.67
X133.09Y-108.84
X133.177Y-117.65
X133.37Y-34.93
X133.45Y-74.68
X133.47Y-64.31
X133.55Y-57.04
X133.55Y-111.17
X133.78Y-80.86
X133.8Y-87.94
X133.83Y-106.11
X133.84Y-120.47
X133.86Y-84.47
X134.49Y-92.27
X134.58Y-89.45
X134.585Y-47.685
X135.01Y-113.7
X135.34Y-63.69
X135.34Y-111.21
X135.99Y-82.19
X136.16Y-129.59
X136.44Y-92.43
X136.44Y-99.07
X136.54Y-106.88
X136.69Y-109.11
X136.96Y-87.82
X137.39Y-84.16
X138.62Y-124.29
X138.718Y-85.16
X139.63Y-129.44
X139.99Y-93.27
X140.01Y-100.91
X140.26Y-87.78
X140.8Y-108.96
X141.04Y-82.98
X141.04Y-106.15
X141.73Y-87.81
X141.87Y-100.84
X142.03Y-93.31
X145.33Y-129.0
X145.73Y-74.71
X145.91Y-101.73
X146.08Y-38.91
X146.17Y-72.27
X146.732Y-84.185
X146.82Y-37.46
X147.04Y-77.76
X147.06Y-85.06
X148.183Y-70.522
X148.89Y-85.97
X148.91Y-42.04
X149.16Y-94.11
X151.76Y-109.99
X151.95Y-118.08
X152.28Y-59.13
X152.46Y-39.23
X152.69Y-64.36
X152.77Y-128.77
X153.23Y-114.87
X153.31Y-48.34
X153.46Y-32.3
X153.56Y-127.86
X153.61Y-35.99
X153.82Y-122.57
X154.39Y-64.43
X154.61Y-40.08
X154.84Y-86.33
X155.09Y-113.76
X155.34Y-93.45
X155.44Y-101.27
X155.471Y-111.213
X155.9Y-73.16
X156.4Y-41.9
X157.54Y-62.96
X157.892Y-57.1
X159.15Y-32.46
X159.18Y-38.96
X159.19Y-41.81
X159.51Y-113.56
X160.62Y-114.96
X160.84Y-34.14
X162.62Y-111.98
X163.06Y-129.35
X163.43Y-118.65
X163.51Y-100.61
X164.45Y-115.23
X165.22Y-91.92
X166.003Y-125.05
X166.48Y-85.12
X166.5Y-117.52
X166.675Y-122.15
X166.75Y-118.76
X167.29Y-130.03
X167.34Y-113.82
X167.42Y-91.9
X167.85Y-109.68
X168.29Y-122.38
X168.95Y-129.075
X169.05Y-95.97
X170.36Y-117.08
X170.42Y-124.38
X171.09Y-106.21
X171.289Y-123.561
X171.349Y-124.978
X171.36Y-103.89
X171.701Y-128.293
X171.93Y-110.6
X172.06Y-78.36
X172.13Y-42.78
X172.135Y-68.16
X172.99Y-74.64
X173.0Y-80.83
X173.47Y-117.21
X173.68Y-60.32
X173.75Y-84.89
X174.02Y-124.06
X174.3Y-118.1
X174.58Y-74.62
X174.59Y-80.8
X174.8Y-126.2
X174.85Y-68.3
X175.19Y-58.63
X176.4Y-128.99
X176.72Y-116.63
X176.74Y-95.97
X177.114Y-124.846
X177.34Y-48.12
X177.52Y-49.67
X177.966Y-52.961
X178.25Y-120.45
X178.38Y-103.57
X178.56Y-48.91
X178.63Y-62.11
X178.99Y-43.53
X179.2Y-50.55
X179.27Y-52.98
X179.89Y-112.21
X181.15Y-90.83
X181.16Y-82.65
X181.56Y-117.9
X181.62Y-122.51
X181.69Y-71.64
X182.34Y-108.02
X182.5Y-80.74
X183.43Y-78.34
X183.84Y-115.11
X184.15Y-62.5
X184.19Y-46.74
X184.23Y-123.71
X184.29Y-73.59
X184.55Y-51.65
X184.77Y-56.55
X185.25Y-103.59
X185.39Y-95.7
X185.46Y-128.68
X186.12Y-116.41
X186.194Y-68.343
X186.56Y-34.83
X186.7Y-77.03
X187.765Y-66.29
X188.18Y-47.18
X189.91Y-129.28
X191.69Y-84.98
X192.1Y-103.54
X192.14Y-51.65
X192.14Y-56.86
X192.24Y-62.76
X192.41Y-46.53
X192.73Y-73.0
X192.95Y-110.86
X194.25Y-121.11
X195.22Y-60.95
X195.23Y-64.77
X195.9Y-125.8
X195.965Y-67.73
X196.8Y-70.75
X197.36Y-60.91
X197.62Y-64.85
X197.95Y-115.62
X199.74Y-121.24
T2
X150.31Y-54.05
X150.31Y-56.05
X150.31Y-58.05
X152.31Y-54.05
X152.31Y-56.05
X152.31Y-58.05
X154.31Y-54.05
X154.31Y-56.05
X154.31Y-58.05
T3
X102.46Y-90.74
X103.03Y-109.84
X106.68Y-109.73
X110.84Y-109.74
X115.4Y-109.95
X118.11Y-90.56
X120.06Y-68.29
X120.11Y-73.13
X123.6Y-94.22
X123.74Y-97.15
X126.72Y-98.65
X129.82Y-120.73
X130.57Y-128.12
X134.97Y-100.84
X154.66Y-128.96
X170.575Y-129.35
X174.31Y-32.35
T4
X113.01Y-34.14
X115.55Y-34.14
X118.09Y-34.14
X119.48Y-115.08
X120.63Y-34.14
X122.02Y-115.08
X124.56Y-115.08
X127.1Y-115.08
X137.31Y-32.606
X137.31Y-35.146
X137.31Y-37.686
X137.31Y-40.226
X137.31Y-42.766
X137.31Y-45.306
X137.31Y-47.846
X137.31Y-50.386
X137.31Y-52.926
X137.31Y-55.466
X137.31Y-58.006
X137.31Y-60.546
X137.31Y-63.086
X137.31Y-65.626
X137.31Y-68.166
X137.31Y-70.706
X137.31Y-73.246
X137.31Y-75.786
X137.31Y-78.326
X137.31Y-80.866
X139.85Y-32.606
X139.85Y-35.146
X139.85Y-37.686
X139.85Y-40.226
X139.85Y-42.766
X139.85Y-45.306
X139.85Y-47.846
X139.85Y-50.386
X139.85Y-52.926
X139.85Y-55.466
X139.85Y-58.006
X139.85Y-60.546
X139.85Y-63.086
X139.85Y-65.626
X139.85Y-68.166
X139.85Y-70.706
X139.85Y-73.246
X139.85Y-75.786
X139.85Y-78.326
X139.85Y-80.866
X144.4Y-32.6
X144.4Y-35.14
X144.4Y-37.68
X144.4Y-40.22
X144.4Y-42.76
X144.4Y-45.3
X144.4Y-47.84
X144.4Y-50.38
X144.4Y-52.92
X144.4Y-55.46
X144.4Y-58.0
X144.4Y-60.54
X144.4Y-63.08
X144.4Y-65.62
X144.4Y-68.16
X144.4Y-70.7
X144.4Y-73.24
X144.4Y-75.78
X144.4Y-78.32
X144.4Y-80.86
X147.83Y-33.29
X150.65Y-126.21
X150.65Y-128.75
X162.18Y-32.6
X162.18Y-35.14
X162.18Y-37.68
X162.18Y-40.22
X162.18Y-42.76
X162.18Y-45.3
X162.18Y-47.84
X162.18Y-50.38
X162.18Y-52.92
X162.18Y-55.46
X162.18Y-58.0
X162.18Y-60.54
X162.18Y-63.08
X162.18Y-65.62
X162.18Y-68.16
X162.18Y-70.7
X162.18Y-73.24
X162.18Y-75.78
X162.18Y-78.32
X162.18Y-80.86
X166.68Y-32.58
X166.68Y-35.12
X166.68Y-37.66
X166.68Y-40.2
X166.68Y-42.74
X166.68Y-45.28
X166.68Y-47.82
X166.68Y-50.36
X166.68Y-52.9
X166.68Y-55.44
X166.68Y-57.98
X166.68Y-60.52
X166.68Y-63.06
X166.68Y-65.6
X166.68Y-68.14
X166.68Y-70.68
X166.68Y-73.22
X166.68Y-75.76
X166.68Y-78.3
X166.68Y-80.84
X169.22Y-32.58
X169.22Y-35.12
X169.22Y-37.66
X169.22Y-40.2
X169.22Y-42.74
X169.22Y-45.28
X169.22Y-47.82
X169.22Y-50.36
X169.22Y-52.9
X169.22Y-55.44
X169.22Y-57.98
X169.22Y-60.52
X169.22Y-63.06
X169.22Y-65.6
X169.22Y-68.14
X169.22Y-70.68
X169.22Y-73.22
X169.22Y-75.76
X169.22Y-78.3
X169.22Y-80.84
X189.16Y-77.65
X189.16Y-92.15
X191.66Y-77.65
X194.16Y-77.65
X194.16Y-92.15
X194.698Y-98.702
X194.698Y-101.242
X194.698Y-103.782
X197.62Y-48.57
X197.62Y-51.11
X197.62Y-53.65
X197.62Y-56.19
T5
X144.4Y-32.6
X144.4Y-35.14
X144.4Y-37.68
X144.4Y-40.22
X144.4Y-42.76
X144.4Y-45.3
X144.4Y-47.84
X144.4Y-50.38
X144.4Y-52.92
X144.4Y-55.46
X144.4Y-58.0
X144.4Y-60.54
X144.4Y-63.08
X144.4Y-65.62
X144.4Y-68.16
X144.4Y-70.7
X144.4Y-73.24
X144.4Y-75.78
X144.4Y-78.32
X144.4Y-80.86
X150.75Y-80.63
X153.29Y-80.63
X155.83Y-80.63
X162.18Y-32.6
X162.18Y-35.14
X162.18Y-37.68
X162.18Y-40.22
X162.18Y-42.76
X162.18Y-45.3
X162.18Y-47.84
X162.18Y-50.38
X162.18Y-52.92
X162.18Y-55.46
X162.18Y-58.0
X162.18Y-60.54
X162.18Y-63.08
X162.18Y-65.62
X162.18Y-68.16
X162.18Y-70.7
X162.18Y-73.24
X162.18Y-75.78
X162.18Y-78.32
X162.18Y-80.86
T6
X107.005Y-124.815
X145.795Y-116.365
T7
X176.22Y-39.562
X181.3Y-39.562
X187.89Y-39.63
X192.97Y-39.63
T9
X103.83Y-121.64
X103.83Y-127.99
X110.18Y-121.64
X110.18Y-127.99
X142.62Y-113.19
X142.62Y-119.54
X148.97Y-113.19
X148.97Y-119.54
T8
G00X186.06Y-84.5
M15
G01X186.06Y-85.8
M16
G05
G00X197.26Y-84.5
M15
G01X197.26Y-85.8
M16
G05
M30
