%TF.GenerationSoftware,KiCad,Pcbnew,9.0.7-9.0.7~ubuntu24.04.1*%
%TF.CreationDate,2026-02-19T22:15:48-08:00*%
%TF.ProjectId,Intro-to-CAD-2026,496e7472-6f2d-4746-9f2d-4341442d3230,rev?*%
%TF.SameCoordinates,Original*%
%TF.FileFunction,Soldermask,Bot*%
%TF.FilePolarity,Negative*%
%FSLAX46Y46*%
G04 Gerber Fmt 4.6, Leading zero omitted, Abs format (unit mm)*
G04 Created by KiCad (PCBNEW 9.0.7-9.0.7~ubuntu24.04.1) date 2026-02-19 22:15:48*
%MOMM*%
%LPD*%
G01*
G04 APERTURE LIST*
G04 Aperture macros list*
%AMRoundRect*
0 Rectangle with rounded corners*
0 $1 Rounding radius*
0 $2 $3 $4 $5 $6 $7 $8 $9 X,Y pos of 4 corners*
0 Add a 4 corners polygon primitive as box body*
4,1,4,$2,$3,$4,$5,$6,$7,$8,$9,$2,$3,0*
0 Add four circle primitives for the rounded corners*
1,1,$1+$1,$2,$3*
1,1,$1+$1,$4,$5*
1,1,$1+$1,$6,$7*
1,1,$1+$1,$8,$9*
0 Add four rect primitives between the rounded corners*
20,1,$1+$1,$2,$3,$4,$5,0*
20,1,$1+$1,$4,$5,$6,$7,0*
20,1,$1+$1,$6,$7,$8,$9,0*
20,1,$1+$1,$8,$9,$2,$3,0*%
%AMFreePoly0*
4,1,23,0.500000,-0.750000,0.000000,-0.750000,0.000000,-0.745722,-0.065263,-0.745722,-0.191342,-0.711940,-0.304381,-0.646677,-0.396677,-0.554381,-0.461940,-0.441342,-0.495722,-0.315263,-0.495722,-0.250000,-0.500000,-0.250000,-0.500000,0.250000,-0.495722,0.250000,-0.495722,0.315263,-0.461940,0.441342,-0.396677,0.554381,-0.304381,0.646677,-0.191342,0.711940,-0.065263,0.745722,0.000000,0.745722,
0.000000,0.750000,0.500000,0.750000,0.500000,-0.750000,0.500000,-0.750000,$1*%
%AMFreePoly1*
4,1,23,0.000000,0.745722,0.065263,0.745722,0.191342,0.711940,0.304381,0.646677,0.396677,0.554381,0.461940,0.441342,0.495722,0.315263,0.495722,0.250000,0.500000,0.250000,0.500000,-0.250000,0.495722,-0.250000,0.495722,-0.315263,0.461940,-0.441342,0.396677,-0.554381,0.304381,-0.646677,0.191342,-0.711940,0.065263,-0.745722,0.000000,-0.745722,0.000000,-0.750000,-0.500000,-0.750000,
-0.500000,0.750000,0.000000,0.750000,0.000000,0.745722,0.000000,0.745722,$1*%
G04 Aperture macros list end*
%ADD10FreePoly0,270.000000*%
%ADD11FreePoly1,270.000000*%
%ADD12RoundRect,0.250000X1.050000X1.050000X-1.050000X1.050000X-1.050000X-1.050000X1.050000X-1.050000X0*%
%ADD13C,2.600000*%
%ADD14C,1.500000*%
%ADD15C,0.500000*%
%ADD16C,3.556000*%
%ADD17C,3.810000*%
%ADD18R,1.700000X1.700000*%
%ADD19O,1.700000X1.700000*%
%ADD20C,1.700000*%
%ADD21C,1.200000*%
%ADD22R,2.000000X2.000000*%
%ADD23C,2.000000*%
%ADD24R,2.000000X3.200000*%
%ADD25FreePoly0,180.000000*%
%ADD26FreePoly1,180.000000*%
%ADD27FreePoly0,0.000000*%
%ADD28FreePoly1,0.000000*%
%ADD29FreePoly0,90.000000*%
%ADD30FreePoly1,90.000000*%
G04 APERTURE END LIST*
%TO.C,JP4*%
G36*
X192200000Y-36170000D02*
G01*
X193700000Y-36170000D01*
X193700000Y-36470000D01*
X192200000Y-36470000D01*
X192200000Y-36170000D01*
G37*
%TO.C,e3*%
G36*
X195100000Y-126550000D02*
G01*
X195400000Y-126550000D01*
X195400000Y-125050000D01*
X195100000Y-125050000D01*
X195100000Y-126550000D01*
G37*
%TO.C,e5*%
G36*
X109120000Y-83920000D02*
G01*
X110620000Y-83920000D01*
X110620000Y-84220000D01*
X109120000Y-84220000D01*
X109120000Y-83920000D01*
G37*
%TO.C,e8*%
G36*
X110040000Y-62240000D02*
G01*
X109740000Y-62240000D01*
X109740000Y-63740000D01*
X110040000Y-63740000D01*
X110040000Y-62240000D01*
G37*
%TO.C,JP2*%
G36*
X154170000Y-61480000D02*
G01*
X152670000Y-61480000D01*
X152670000Y-61180000D01*
X154170000Y-61180000D01*
X154170000Y-61480000D01*
G37*
%TO.C,e4*%
G36*
X104360000Y-75640000D02*
G01*
X104060000Y-75640000D01*
X104060000Y-77140000D01*
X104360000Y-77140000D01*
X104360000Y-75640000D01*
G37*
%TD*%
D10*
%TO.C,JP4*%
X192950000Y-35670000D03*
D11*
X192950000Y-36970000D03*
%TD*%
D12*
%TO.C,J18*%
X192970000Y-39630000D03*
D13*
X187890000Y-39630000D03*
%TD*%
D14*
%TO.C,TP8*%
X170575000Y-129350000D03*
%TD*%
D15*
%TO.C,U6*%
X150310000Y-58050000D03*
X152310000Y-58050000D03*
X154310000Y-58050000D03*
X150310000Y-56050000D03*
X152310000Y-56050000D03*
X154310000Y-56050000D03*
X150310000Y-54050000D03*
X152310000Y-54050000D03*
X154310000Y-54050000D03*
%TD*%
D14*
%TO.C,TP1*%
X120060000Y-68290000D03*
%TD*%
D16*
%TO.C,J11*%
X107005000Y-124815000D03*
D17*
X103830000Y-121640000D03*
X103830000Y-127990000D03*
X110180000Y-121640000D03*
X110180000Y-127990000D03*
%TD*%
D14*
%TO.C,TP10*%
X123600000Y-94220000D03*
%TD*%
%TO.C,TP14*%
X103030000Y-109840000D03*
%TD*%
D18*
%TO.C,Je3*%
X119480000Y-115080000D03*
D19*
X122020000Y-115080000D03*
X124560000Y-115080000D03*
X127100000Y-115080000D03*
%TD*%
D18*
%TO.C,J15*%
X113010000Y-34140000D03*
D20*
X115550000Y-34140000D03*
X118090000Y-34140000D03*
X120630000Y-34140000D03*
%TD*%
D18*
%TO.C,J5*%
X150650000Y-128750000D03*
D19*
X150650000Y-126210000D03*
%TD*%
D14*
%TO.C,TP25*%
X174310000Y-32350000D03*
%TD*%
%TO.C,TP12*%
X154660000Y-128960000D03*
%TD*%
D21*
%TO.C,J13*%
X104720000Y-39730000D03*
X104720000Y-47730000D03*
%TD*%
D19*
%TO.C,J3*%
X166680000Y-80840000D03*
X169220000Y-80840000D03*
X166680000Y-78300000D03*
X169220000Y-78300000D03*
X166680000Y-75760000D03*
X169220000Y-75760000D03*
X166680000Y-73220000D03*
X169220000Y-73220000D03*
X166680000Y-70680000D03*
X169220000Y-70680000D03*
X166680000Y-68140000D03*
X169220000Y-68140000D03*
X166680000Y-65600000D03*
X169220000Y-65600000D03*
X166680000Y-63060000D03*
X169220000Y-63060000D03*
X166680000Y-60520000D03*
X169220000Y-60520000D03*
X166680000Y-57980000D03*
X169220000Y-57980000D03*
X166680000Y-55440000D03*
X169220000Y-55440000D03*
X166680000Y-52900000D03*
X169220000Y-52900000D03*
X166680000Y-50360000D03*
X169220000Y-50360000D03*
X166680000Y-47820000D03*
X169220000Y-47820000D03*
X166680000Y-45280000D03*
X169220000Y-45280000D03*
X166680000Y-42740000D03*
X169220000Y-42740000D03*
X166680000Y-40200000D03*
X169220000Y-40200000D03*
X166680000Y-37660000D03*
X169220000Y-37660000D03*
X166680000Y-35120000D03*
X169220000Y-35120000D03*
D20*
X166680000Y-32580000D03*
D19*
X169220000Y-32580000D03*
%TD*%
D20*
%TO.C,J16*%
X106860000Y-61020000D03*
X112860000Y-61020000D03*
%TD*%
D14*
%TO.C,TP18*%
X102460000Y-90740000D03*
%TD*%
%TO.C,TP2*%
X120110000Y-73130000D03*
%TD*%
D19*
%TO.C,U3*%
X144400000Y-32600000D03*
X144400000Y-35140000D03*
D18*
X144400000Y-37680000D03*
D19*
X144400000Y-40220000D03*
X144400000Y-42760000D03*
X144400000Y-45300000D03*
X144400000Y-47840000D03*
D18*
X144400000Y-50380000D03*
D19*
X144400000Y-52920000D03*
X144400000Y-55460000D03*
X144400000Y-58000000D03*
X144400000Y-60540000D03*
D18*
X144400000Y-63080000D03*
D19*
X144400000Y-65620000D03*
X144400000Y-68160000D03*
X144400000Y-70700000D03*
X144400000Y-73240000D03*
D18*
X144400000Y-75780000D03*
D19*
X144400000Y-78320000D03*
X144400000Y-80860000D03*
X162180000Y-80860000D03*
X162180000Y-78320000D03*
D18*
X162180000Y-75780000D03*
D19*
X162180000Y-73240000D03*
X162180000Y-70700000D03*
X162180000Y-68160000D03*
X162180000Y-65620000D03*
D18*
X162180000Y-63080000D03*
D19*
X162180000Y-60540000D03*
X162180000Y-58000000D03*
X162180000Y-55460000D03*
X162180000Y-52920000D03*
D18*
X162180000Y-50380000D03*
D19*
X162180000Y-47840000D03*
X162180000Y-45300000D03*
X162180000Y-42760000D03*
X162180000Y-40220000D03*
D18*
X162180000Y-37680000D03*
D19*
X162180000Y-35140000D03*
X162180000Y-32600000D03*
X150750000Y-80630000D03*
D18*
X153290000Y-80630000D03*
D19*
X155830000Y-80630000D03*
%TD*%
D14*
%TO.C,TP16*%
X106680000Y-109730000D03*
%TD*%
%TO.C,TP4*%
X126720000Y-98650000D03*
%TD*%
%TO.C,TP11*%
X129820000Y-120730000D03*
%TD*%
%TO.C,TP3*%
X134970000Y-100840000D03*
%TD*%
D18*
%TO.C,J7*%
X147830000Y-33290000D03*
%TD*%
D14*
%TO.C,TP5*%
X123740000Y-97150000D03*
%TD*%
D18*
%TO.C,J4*%
X144400000Y-32600000D03*
D20*
X144400000Y-35140000D03*
X144400000Y-37680000D03*
X144400000Y-40220000D03*
X144400000Y-42760000D03*
X144400000Y-45300000D03*
X144400000Y-47840000D03*
X144400000Y-50380000D03*
X144400000Y-52920000D03*
X144400000Y-55460000D03*
X144400000Y-58000000D03*
X144400000Y-60540000D03*
X144400000Y-63080000D03*
X144400000Y-65620000D03*
X144400000Y-68160000D03*
X144400000Y-70700000D03*
X144400000Y-73240000D03*
X144400000Y-75780000D03*
X144400000Y-78320000D03*
X144400000Y-80860000D03*
%TD*%
D22*
%TO.C,SW1*%
X194160000Y-77650000D03*
D23*
X189160000Y-77650000D03*
X191660000Y-77650000D03*
D24*
X197260000Y-85150000D03*
X186060000Y-85150000D03*
D23*
X189160000Y-92150000D03*
X194160000Y-92150000D03*
%TD*%
D14*
%TO.C,TP17*%
X118110000Y-90560000D03*
%TD*%
D18*
%TO.C,J14*%
X194698500Y-98701501D03*
D20*
X194698500Y-101241501D03*
X194698500Y-103781501D03*
%TD*%
%TO.C,J12*%
X106520000Y-83650000D03*
X112520000Y-83650000D03*
%TD*%
D16*
%TO.C,J8*%
X145795000Y-116365000D03*
D17*
X148970000Y-119540000D03*
X148970000Y-113190000D03*
X142620000Y-119540000D03*
X142620000Y-113190000D03*
%TD*%
D14*
%TO.C,TP7*%
X115400000Y-109950000D03*
%TD*%
D18*
%TO.C,J6*%
X197620000Y-56190000D03*
D20*
X197620000Y-53650000D03*
X197620000Y-51110000D03*
X197620000Y-48570000D03*
%TD*%
%TO.C,J1*%
X106560000Y-72270000D03*
X112560000Y-72270000D03*
%TD*%
D14*
%TO.C,TP6*%
X110840000Y-109740000D03*
%TD*%
D20*
%TO.C,J10*%
X162180000Y-80860000D03*
X162180000Y-78320000D03*
X162180000Y-75780000D03*
X162180000Y-73240000D03*
X162180000Y-70700000D03*
X162180000Y-68160000D03*
X162180000Y-65620000D03*
X162180000Y-63080000D03*
X162180000Y-60540000D03*
X162180000Y-58000000D03*
X162180000Y-55460000D03*
X162180000Y-52920000D03*
X162180000Y-50380000D03*
X162180000Y-47840000D03*
X162180000Y-45300000D03*
X162180000Y-42760000D03*
X162180000Y-40220000D03*
X162180000Y-37680000D03*
X162180000Y-35140000D03*
D18*
X162180000Y-32600000D03*
%TD*%
D14*
%TO.C,TP26*%
X130570000Y-128120000D03*
%TD*%
D20*
%TO.C,J9*%
X193900000Y-124170000D03*
X193900000Y-118170000D03*
%TD*%
D18*
%TO.C,J2*%
X137310000Y-32606000D03*
D19*
X139850000Y-32606000D03*
X137310000Y-35146000D03*
X139850000Y-35146000D03*
X137310000Y-37686000D03*
X139850000Y-37686000D03*
X137310000Y-40226000D03*
X139850000Y-40226000D03*
X137310000Y-42766000D03*
X139850000Y-42766000D03*
X137310000Y-45306000D03*
X139850000Y-45306000D03*
X137310000Y-47846000D03*
X139850000Y-47846000D03*
X137310000Y-50386000D03*
X139850000Y-50386000D03*
X137310000Y-52926000D03*
X139850000Y-52926000D03*
X137310000Y-55466000D03*
X139850000Y-55466000D03*
X137310000Y-58006000D03*
X139850000Y-58006000D03*
X137310000Y-60546000D03*
X139850000Y-60546000D03*
X137310000Y-63086000D03*
X139850000Y-63086000D03*
X137310000Y-65626000D03*
X139850000Y-65626000D03*
X137310000Y-68166000D03*
X139850000Y-68166000D03*
X137310000Y-70706000D03*
X139850000Y-70706000D03*
X137310000Y-73246000D03*
X139850000Y-73246000D03*
X137310000Y-75786000D03*
X139850000Y-75786000D03*
X137310000Y-78326000D03*
X139850000Y-78326000D03*
X137310000Y-80866000D03*
X139850000Y-80866000D03*
%TD*%
D25*
%TO.C,JP45*%
X165120000Y-68160000D03*
D26*
X163820000Y-68160000D03*
%TD*%
D25*
%TO.C,JP33*%
X172060000Y-78360000D03*
D26*
X170760000Y-78360000D03*
%TD*%
D25*
%TO.C,JP56*%
X142790000Y-47790000D03*
D26*
X141490000Y-47790000D03*
%TD*%
D25*
%TO.C,JP78*%
X135820000Y-65620000D03*
D26*
X134520000Y-65620000D03*
%TD*%
D25*
%TO.C,JP1*%
X119120000Y-127070000D03*
D26*
X117820000Y-127070000D03*
%TD*%
D27*
%TO.C,e3*%
X194600000Y-125800000D03*
D28*
X195900000Y-125800000D03*
%TD*%
D25*
%TO.C,JP58*%
X142810000Y-55460000D03*
D26*
X141510000Y-55460000D03*
%TD*%
D25*
%TO.C,JP77*%
X135820000Y-60480000D03*
D26*
X134520000Y-60480000D03*
%TD*%
D25*
%TO.C,JP74*%
X135860000Y-52860000D03*
D26*
X134560000Y-52860000D03*
%TD*%
D25*
%TO.C,JP25*%
X172110000Y-47785000D03*
D26*
X170810000Y-47785000D03*
%TD*%
D10*
%TO.C,JP50*%
X159150000Y-32460000D03*
D11*
X159150000Y-33760000D03*
%TD*%
D25*
%TO.C,JP66*%
X142810000Y-80860000D03*
D26*
X141510000Y-80860000D03*
%TD*%
D25*
%TO.C,JP79*%
X135820000Y-68160000D03*
D26*
X134520000Y-68160000D03*
%TD*%
D27*
%TO.C,JP86*%
X119840000Y-118610000D03*
D28*
X121140000Y-118610000D03*
%TD*%
D25*
%TO.C,JP71*%
X135885000Y-42610000D03*
D26*
X134585000Y-42610000D03*
%TD*%
D25*
%TO.C,JP76*%
X135830000Y-57940000D03*
D26*
X134530000Y-57940000D03*
%TD*%
D10*
%TO.C,e5*%
X109870000Y-83420000D03*
D11*
X109870000Y-84720000D03*
%TD*%
D25*
%TO.C,JP31*%
X172135000Y-70685000D03*
D26*
X170835000Y-70685000D03*
%TD*%
D25*
%TO.C,JP83*%
X135660000Y-80860000D03*
D26*
X134360000Y-80860000D03*
%TD*%
D25*
%TO.C,JP44*%
X165120000Y-65610000D03*
D26*
X163820000Y-65610000D03*
%TD*%
D25*
%TO.C,JP27*%
X172085000Y-55460000D03*
D26*
X170785000Y-55460000D03*
%TD*%
D25*
%TO.C,JP70*%
X136010000Y-40060000D03*
D26*
X134710000Y-40060000D03*
%TD*%
D25*
%TO.C,JP57*%
X142810000Y-52920000D03*
D26*
X141510000Y-52920000D03*
%TD*%
D10*
%TO.C,JP18*%
X117640000Y-70310000D03*
D11*
X117640000Y-71610000D03*
%TD*%
D25*
%TO.C,JP63*%
X142810000Y-70700000D03*
D26*
X141510000Y-70700000D03*
%TD*%
D25*
%TO.C,JP73*%
X135885000Y-47685000D03*
D26*
X134585000Y-47685000D03*
%TD*%
D25*
%TO.C,JP55*%
X142800000Y-45250000D03*
D26*
X141500000Y-45250000D03*
%TD*%
D25*
%TO.C,JP41*%
X165120000Y-52930000D03*
D26*
X163820000Y-52930000D03*
%TD*%
D25*
%TO.C,JP80*%
X135820000Y-70700000D03*
D26*
X134520000Y-70700000D03*
%TD*%
D25*
%TO.C,JP43*%
X165120000Y-60510000D03*
D26*
X163820000Y-60510000D03*
%TD*%
D25*
%TO.C,JP39*%
X165040000Y-45220000D03*
D26*
X163740000Y-45220000D03*
%TD*%
D25*
%TO.C,JP26*%
X172085000Y-52910000D03*
D26*
X170785000Y-52910000D03*
%TD*%
D25*
%TO.C,JP67*%
X135910000Y-32560000D03*
D26*
X134610000Y-32560000D03*
%TD*%
D25*
%TO.C,JP29*%
X172110000Y-65610000D03*
D26*
X170810000Y-65610000D03*
%TD*%
D25*
%TO.C,JP34*%
X172060000Y-80910000D03*
D26*
X170760000Y-80910000D03*
%TD*%
D25*
%TO.C,JP49*%
X165090000Y-80820000D03*
D26*
X163790000Y-80820000D03*
%TD*%
D25*
%TO.C,JP36*%
X165020000Y-35140000D03*
D26*
X163720000Y-35140000D03*
%TD*%
D25*
%TO.C,JP40*%
X165000000Y-47760000D03*
D26*
X163700000Y-47760000D03*
%TD*%
D25*
%TO.C,JP65*%
X142810000Y-78320000D03*
D26*
X141510000Y-78320000D03*
%TD*%
D25*
%TO.C,JP28*%
X172085000Y-60510000D03*
D26*
X170785000Y-60510000D03*
%TD*%
D25*
%TO.C,JP68*%
X135885000Y-35060000D03*
D26*
X134585000Y-35060000D03*
%TD*%
D25*
%TO.C,JP32*%
X172135000Y-73210000D03*
D26*
X170835000Y-73210000D03*
%TD*%
D25*
%TO.C,JP30*%
X172135000Y-68160000D03*
D26*
X170835000Y-68160000D03*
%TD*%
D25*
%TO.C,JP42*%
X164990000Y-55460000D03*
D26*
X163690000Y-55460000D03*
%TD*%
D25*
%TO.C,JP54*%
X142780000Y-42750000D03*
D26*
X141480000Y-42750000D03*
%TD*%
D25*
%TO.C,JP51*%
X142840000Y-32590000D03*
D26*
X141540000Y-32590000D03*
%TD*%
D25*
%TO.C,JP62*%
X142810000Y-68160000D03*
D26*
X141510000Y-68160000D03*
%TD*%
D25*
%TO.C,JP53*%
X142780000Y-40250000D03*
D26*
X141480000Y-40250000D03*
%TD*%
D25*
%TO.C,JP60*%
X142810000Y-60540000D03*
D26*
X141510000Y-60540000D03*
%TD*%
D25*
%TO.C,JP47*%
X165180000Y-73250000D03*
D26*
X163880000Y-73250000D03*
%TD*%
D25*
%TO.C,JP72*%
X135885000Y-45160000D03*
D26*
X134585000Y-45160000D03*
%TD*%
D25*
%TO.C,JP38*%
X165010000Y-42710000D03*
D26*
X163710000Y-42710000D03*
%TD*%
D25*
%TO.C,JP46*%
X165180000Y-70720000D03*
D26*
X163880000Y-70720000D03*
%TD*%
D25*
%TO.C,e8*%
X110540000Y-62990000D03*
D26*
X109240000Y-62990000D03*
%TD*%
D25*
%TO.C,JP61*%
X142810000Y-65620000D03*
D26*
X141510000Y-65620000D03*
%TD*%
D25*
%TO.C,JP81*%
X135820000Y-73240000D03*
D26*
X134520000Y-73240000D03*
%TD*%
D25*
%TO.C,JP64*%
X142810000Y-73240000D03*
D26*
X141510000Y-73240000D03*
%TD*%
D29*
%TO.C,JP2*%
X153420000Y-61980000D03*
D30*
X153420000Y-60680000D03*
%TD*%
D25*
%TO.C,JP48*%
X165130000Y-78280000D03*
D26*
X163830000Y-78280000D03*
%TD*%
D25*
%TO.C,JP75*%
X135710000Y-55410000D03*
D26*
X134410000Y-55410000D03*
%TD*%
D25*
%TO.C,JP24*%
X172135000Y-45285000D03*
D26*
X170835000Y-45285000D03*
%TD*%
D25*
%TO.C,JP52*%
X142780000Y-35100000D03*
D26*
X141480000Y-35100000D03*
%TD*%
D25*
%TO.C,JP23*%
X172135000Y-42735000D03*
D26*
X170835000Y-42735000D03*
%TD*%
D25*
%TO.C,JP22*%
X172135000Y-40210000D03*
D26*
X170835000Y-40210000D03*
%TD*%
D25*
%TO.C,JP59*%
X142810000Y-58000000D03*
D26*
X141510000Y-58000000D03*
%TD*%
D25*
%TO.C,JP37*%
X165040000Y-40110000D03*
D26*
X163740000Y-40110000D03*
%TD*%
D25*
%TO.C,JP82*%
X135735000Y-78310000D03*
D26*
X134435000Y-78310000D03*
%TD*%
D25*
%TO.C,JP21*%
X172035000Y-35060000D03*
D26*
X170735000Y-35060000D03*
%TD*%
D25*
%TO.C,e4*%
X104860000Y-76390000D03*
D26*
X103560000Y-76390000D03*
%TD*%
D25*
%TO.C,JP20*%
X172035000Y-32535000D03*
D26*
X170735000Y-32535000D03*
%TD*%
D25*
%TO.C,JP35*%
X165100000Y-32590000D03*
D26*
X163800000Y-32590000D03*
%TD*%
D25*
%TO.C,JP88*%
X119840000Y-124100000D03*
D26*
X118540000Y-124100000D03*
%TD*%
D29*
%TO.C,JP19*%
X104670000Y-87980000D03*
D30*
X104670000Y-86680000D03*
%TD*%
D12*
%TO.C,J17*%
X181300000Y-39562500D03*
D13*
X176220000Y-39562500D03*
%TD*%
M02*
