%TF.GenerationSoftware,KiCad,Pcbnew,9.0.7-9.0.7~ubuntu24.04.1*%
%TF.CreationDate,2026-02-19T22:15:47-08:00*%
%TF.ProjectId,Intro-to-CAD-2026,496e7472-6f2d-4746-9f2d-4341442d3230,rev?*%
%TF.SameCoordinates,Original*%
%TF.FileFunction,Legend,Bot*%
%TF.FilePolarity,Positive*%
%FSLAX46Y46*%
G04 Gerber Fmt 4.6, Leading zero omitted, Abs format (unit mm)*
G04 Created by KiCad (PCBNEW 9.0.7-9.0.7~ubuntu24.04.1) date 2026-02-19 22:15:47*
%MOMM*%
%LPD*%
G01*
G04 APERTURE LIST*
%ADD10C,0.400000*%
%ADD11C,0.100000*%
%ADD12C,0.300000*%
%ADD13C,0.150000*%
%ADD14C,0.120000*%
G04 APERTURE END LIST*
D10*
X171780652Y-99304550D02*
X171780652Y-97304550D01*
X170828271Y-97971216D02*
X170828271Y-99304550D01*
X170828271Y-98161692D02*
X170733033Y-98066454D01*
X170733033Y-98066454D02*
X170542557Y-97971216D01*
X170542557Y-97971216D02*
X170256842Y-97971216D01*
X170256842Y-97971216D02*
X170066366Y-98066454D01*
X170066366Y-98066454D02*
X169971128Y-98256931D01*
X169971128Y-98256931D02*
X169971128Y-99304550D01*
X169304461Y-97971216D02*
X168542557Y-97971216D01*
X169018747Y-97304550D02*
X169018747Y-99018835D01*
X169018747Y-99018835D02*
X168923509Y-99209312D01*
X168923509Y-99209312D02*
X168733033Y-99304550D01*
X168733033Y-99304550D02*
X168542557Y-99304550D01*
X167875890Y-99304550D02*
X167875890Y-97971216D01*
X167875890Y-98352169D02*
X167780652Y-98161692D01*
X167780652Y-98161692D02*
X167685414Y-98066454D01*
X167685414Y-98066454D02*
X167494938Y-97971216D01*
X167494938Y-97971216D02*
X167304461Y-97971216D01*
X166352081Y-99304550D02*
X166542557Y-99209312D01*
X166542557Y-99209312D02*
X166637795Y-99114073D01*
X166637795Y-99114073D02*
X166733033Y-98923597D01*
X166733033Y-98923597D02*
X166733033Y-98352169D01*
X166733033Y-98352169D02*
X166637795Y-98161692D01*
X166637795Y-98161692D02*
X166542557Y-98066454D01*
X166542557Y-98066454D02*
X166352081Y-97971216D01*
X166352081Y-97971216D02*
X166066366Y-97971216D01*
X166066366Y-97971216D02*
X165875890Y-98066454D01*
X165875890Y-98066454D02*
X165780652Y-98161692D01*
X165780652Y-98161692D02*
X165685414Y-98352169D01*
X165685414Y-98352169D02*
X165685414Y-98923597D01*
X165685414Y-98923597D02*
X165780652Y-99114073D01*
X165780652Y-99114073D02*
X165875890Y-99209312D01*
X165875890Y-99209312D02*
X166066366Y-99304550D01*
X166066366Y-99304550D02*
X166352081Y-99304550D01*
X163590175Y-97971216D02*
X162828271Y-97971216D01*
X163304461Y-97304550D02*
X163304461Y-99018835D01*
X163304461Y-99018835D02*
X163209223Y-99209312D01*
X163209223Y-99209312D02*
X163018747Y-99304550D01*
X163018747Y-99304550D02*
X162828271Y-99304550D01*
X161875890Y-99304550D02*
X162066366Y-99209312D01*
X162066366Y-99209312D02*
X162161604Y-99114073D01*
X162161604Y-99114073D02*
X162256842Y-98923597D01*
X162256842Y-98923597D02*
X162256842Y-98352169D01*
X162256842Y-98352169D02*
X162161604Y-98161692D01*
X162161604Y-98161692D02*
X162066366Y-98066454D01*
X162066366Y-98066454D02*
X161875890Y-97971216D01*
X161875890Y-97971216D02*
X161590175Y-97971216D01*
X161590175Y-97971216D02*
X161399699Y-98066454D01*
X161399699Y-98066454D02*
X161304461Y-98161692D01*
X161304461Y-98161692D02*
X161209223Y-98352169D01*
X161209223Y-98352169D02*
X161209223Y-98923597D01*
X161209223Y-98923597D02*
X161304461Y-99114073D01*
X161304461Y-99114073D02*
X161399699Y-99209312D01*
X161399699Y-99209312D02*
X161590175Y-99304550D01*
X161590175Y-99304550D02*
X161875890Y-99304550D01*
X157685413Y-99114073D02*
X157780651Y-99209312D01*
X157780651Y-99209312D02*
X158066365Y-99304550D01*
X158066365Y-99304550D02*
X158256841Y-99304550D01*
X158256841Y-99304550D02*
X158542556Y-99209312D01*
X158542556Y-99209312D02*
X158733032Y-99018835D01*
X158733032Y-99018835D02*
X158828270Y-98828359D01*
X158828270Y-98828359D02*
X158923508Y-98447407D01*
X158923508Y-98447407D02*
X158923508Y-98161692D01*
X158923508Y-98161692D02*
X158828270Y-97780740D01*
X158828270Y-97780740D02*
X158733032Y-97590264D01*
X158733032Y-97590264D02*
X158542556Y-97399788D01*
X158542556Y-97399788D02*
X158256841Y-97304550D01*
X158256841Y-97304550D02*
X158066365Y-97304550D01*
X158066365Y-97304550D02*
X157780651Y-97399788D01*
X157780651Y-97399788D02*
X157685413Y-97495026D01*
X156923508Y-98733121D02*
X155971127Y-98733121D01*
X157113984Y-99304550D02*
X156447318Y-97304550D01*
X156447318Y-97304550D02*
X155780651Y-99304550D01*
X155113984Y-99304550D02*
X155113984Y-97304550D01*
X155113984Y-97304550D02*
X154637794Y-97304550D01*
X154637794Y-97304550D02*
X154352079Y-97399788D01*
X154352079Y-97399788D02*
X154161603Y-97590264D01*
X154161603Y-97590264D02*
X154066365Y-97780740D01*
X154066365Y-97780740D02*
X153971127Y-98161692D01*
X153971127Y-98161692D02*
X153971127Y-98447407D01*
X153971127Y-98447407D02*
X154066365Y-98828359D01*
X154066365Y-98828359D02*
X154161603Y-99018835D01*
X154161603Y-99018835D02*
X154352079Y-99209312D01*
X154352079Y-99209312D02*
X154637794Y-99304550D01*
X154637794Y-99304550D02*
X155113984Y-99304550D01*
X151685412Y-97495026D02*
X151590174Y-97399788D01*
X151590174Y-97399788D02*
X151399698Y-97304550D01*
X151399698Y-97304550D02*
X150923507Y-97304550D01*
X150923507Y-97304550D02*
X150733031Y-97399788D01*
X150733031Y-97399788D02*
X150637793Y-97495026D01*
X150637793Y-97495026D02*
X150542555Y-97685502D01*
X150542555Y-97685502D02*
X150542555Y-97875978D01*
X150542555Y-97875978D02*
X150637793Y-98161692D01*
X150637793Y-98161692D02*
X151780650Y-99304550D01*
X151780650Y-99304550D02*
X150542555Y-99304550D01*
X149304460Y-97304550D02*
X149113983Y-97304550D01*
X149113983Y-97304550D02*
X148923507Y-97399788D01*
X148923507Y-97399788D02*
X148828269Y-97495026D01*
X148828269Y-97495026D02*
X148733031Y-97685502D01*
X148733031Y-97685502D02*
X148637793Y-98066454D01*
X148637793Y-98066454D02*
X148637793Y-98542645D01*
X148637793Y-98542645D02*
X148733031Y-98923597D01*
X148733031Y-98923597D02*
X148828269Y-99114073D01*
X148828269Y-99114073D02*
X148923507Y-99209312D01*
X148923507Y-99209312D02*
X149113983Y-99304550D01*
X149113983Y-99304550D02*
X149304460Y-99304550D01*
X149304460Y-99304550D02*
X149494936Y-99209312D01*
X149494936Y-99209312D02*
X149590174Y-99114073D01*
X149590174Y-99114073D02*
X149685412Y-98923597D01*
X149685412Y-98923597D02*
X149780650Y-98542645D01*
X149780650Y-98542645D02*
X149780650Y-98066454D01*
X149780650Y-98066454D02*
X149685412Y-97685502D01*
X149685412Y-97685502D02*
X149590174Y-97495026D01*
X149590174Y-97495026D02*
X149494936Y-97399788D01*
X149494936Y-97399788D02*
X149304460Y-97304550D01*
X147875888Y-97495026D02*
X147780650Y-97399788D01*
X147780650Y-97399788D02*
X147590174Y-97304550D01*
X147590174Y-97304550D02*
X147113983Y-97304550D01*
X147113983Y-97304550D02*
X146923507Y-97399788D01*
X146923507Y-97399788D02*
X146828269Y-97495026D01*
X146828269Y-97495026D02*
X146733031Y-97685502D01*
X146733031Y-97685502D02*
X146733031Y-97875978D01*
X146733031Y-97875978D02*
X146828269Y-98161692D01*
X146828269Y-98161692D02*
X147971126Y-99304550D01*
X147971126Y-99304550D02*
X146733031Y-99304550D01*
X145018745Y-97304550D02*
X145399698Y-97304550D01*
X145399698Y-97304550D02*
X145590174Y-97399788D01*
X145590174Y-97399788D02*
X145685412Y-97495026D01*
X145685412Y-97495026D02*
X145875888Y-97780740D01*
X145875888Y-97780740D02*
X145971126Y-98161692D01*
X145971126Y-98161692D02*
X145971126Y-98923597D01*
X145971126Y-98923597D02*
X145875888Y-99114073D01*
X145875888Y-99114073D02*
X145780650Y-99209312D01*
X145780650Y-99209312D02*
X145590174Y-99304550D01*
X145590174Y-99304550D02*
X145209221Y-99304550D01*
X145209221Y-99304550D02*
X145018745Y-99209312D01*
X145018745Y-99209312D02*
X144923507Y-99114073D01*
X144923507Y-99114073D02*
X144828269Y-98923597D01*
X144828269Y-98923597D02*
X144828269Y-98447407D01*
X144828269Y-98447407D02*
X144923507Y-98256931D01*
X144923507Y-98256931D02*
X145018745Y-98161692D01*
X145018745Y-98161692D02*
X145209221Y-98066454D01*
X145209221Y-98066454D02*
X145590174Y-98066454D01*
X145590174Y-98066454D02*
X145780650Y-98161692D01*
X145780650Y-98161692D02*
X145875888Y-98256931D01*
X145875888Y-98256931D02*
X145971126Y-98447407D01*
X171971128Y-101191104D02*
X171494938Y-102524438D01*
X171494938Y-102524438D02*
X171018747Y-101191104D01*
X169494937Y-102429200D02*
X169685413Y-102524438D01*
X169685413Y-102524438D02*
X170066366Y-102524438D01*
X170066366Y-102524438D02*
X170256842Y-102429200D01*
X170256842Y-102429200D02*
X170352080Y-102238723D01*
X170352080Y-102238723D02*
X170352080Y-101476819D01*
X170352080Y-101476819D02*
X170256842Y-101286342D01*
X170256842Y-101286342D02*
X170066366Y-101191104D01*
X170066366Y-101191104D02*
X169685413Y-101191104D01*
X169685413Y-101191104D02*
X169494937Y-101286342D01*
X169494937Y-101286342D02*
X169399699Y-101476819D01*
X169399699Y-101476819D02*
X169399699Y-101667295D01*
X169399699Y-101667295D02*
X170352080Y-101857771D01*
X168542556Y-102524438D02*
X168542556Y-101191104D01*
X168542556Y-101572057D02*
X168447318Y-101381580D01*
X168447318Y-101381580D02*
X168352080Y-101286342D01*
X168352080Y-101286342D02*
X168161604Y-101191104D01*
X168161604Y-101191104D02*
X167971127Y-101191104D01*
X167399699Y-102429200D02*
X167209223Y-102524438D01*
X167209223Y-102524438D02*
X166828271Y-102524438D01*
X166828271Y-102524438D02*
X166637794Y-102429200D01*
X166637794Y-102429200D02*
X166542556Y-102238723D01*
X166542556Y-102238723D02*
X166542556Y-102143485D01*
X166542556Y-102143485D02*
X166637794Y-101953009D01*
X166637794Y-101953009D02*
X166828271Y-101857771D01*
X166828271Y-101857771D02*
X167113985Y-101857771D01*
X167113985Y-101857771D02*
X167304461Y-101762533D01*
X167304461Y-101762533D02*
X167399699Y-101572057D01*
X167399699Y-101572057D02*
X167399699Y-101476819D01*
X167399699Y-101476819D02*
X167304461Y-101286342D01*
X167304461Y-101286342D02*
X167113985Y-101191104D01*
X167113985Y-101191104D02*
X166828271Y-101191104D01*
X166828271Y-101191104D02*
X166637794Y-101286342D01*
X165685413Y-102524438D02*
X165685413Y-101191104D01*
X165685413Y-100524438D02*
X165780651Y-100619676D01*
X165780651Y-100619676D02*
X165685413Y-100714914D01*
X165685413Y-100714914D02*
X165590175Y-100619676D01*
X165590175Y-100619676D02*
X165685413Y-100524438D01*
X165685413Y-100524438D02*
X165685413Y-100714914D01*
X164447318Y-102524438D02*
X164637794Y-102429200D01*
X164637794Y-102429200D02*
X164733032Y-102333961D01*
X164733032Y-102333961D02*
X164828270Y-102143485D01*
X164828270Y-102143485D02*
X164828270Y-101572057D01*
X164828270Y-101572057D02*
X164733032Y-101381580D01*
X164733032Y-101381580D02*
X164637794Y-101286342D01*
X164637794Y-101286342D02*
X164447318Y-101191104D01*
X164447318Y-101191104D02*
X164161603Y-101191104D01*
X164161603Y-101191104D02*
X163971127Y-101286342D01*
X163971127Y-101286342D02*
X163875889Y-101381580D01*
X163875889Y-101381580D02*
X163780651Y-101572057D01*
X163780651Y-101572057D02*
X163780651Y-102143485D01*
X163780651Y-102143485D02*
X163875889Y-102333961D01*
X163875889Y-102333961D02*
X163971127Y-102429200D01*
X163971127Y-102429200D02*
X164161603Y-102524438D01*
X164161603Y-102524438D02*
X164447318Y-102524438D01*
X162923508Y-101191104D02*
X162923508Y-102524438D01*
X162923508Y-101381580D02*
X162828270Y-101286342D01*
X162828270Y-101286342D02*
X162637794Y-101191104D01*
X162637794Y-101191104D02*
X162352079Y-101191104D01*
X162352079Y-101191104D02*
X162161603Y-101286342D01*
X162161603Y-101286342D02*
X162066365Y-101476819D01*
X162066365Y-101476819D02*
X162066365Y-102524438D01*
X159209222Y-100524438D02*
X159018745Y-100524438D01*
X159018745Y-100524438D02*
X158828269Y-100619676D01*
X158828269Y-100619676D02*
X158733031Y-100714914D01*
X158733031Y-100714914D02*
X158637793Y-100905390D01*
X158637793Y-100905390D02*
X158542555Y-101286342D01*
X158542555Y-101286342D02*
X158542555Y-101762533D01*
X158542555Y-101762533D02*
X158637793Y-102143485D01*
X158637793Y-102143485D02*
X158733031Y-102333961D01*
X158733031Y-102333961D02*
X158828269Y-102429200D01*
X158828269Y-102429200D02*
X159018745Y-102524438D01*
X159018745Y-102524438D02*
X159209222Y-102524438D01*
X159209222Y-102524438D02*
X159399698Y-102429200D01*
X159399698Y-102429200D02*
X159494936Y-102333961D01*
X159494936Y-102333961D02*
X159590174Y-102143485D01*
X159590174Y-102143485D02*
X159685412Y-101762533D01*
X159685412Y-101762533D02*
X159685412Y-101286342D01*
X159685412Y-101286342D02*
X159590174Y-100905390D01*
X159590174Y-100905390D02*
X159494936Y-100714914D01*
X159494936Y-100714914D02*
X159399698Y-100619676D01*
X159399698Y-100619676D02*
X159209222Y-100524438D01*
X157685412Y-102333961D02*
X157590174Y-102429200D01*
X157590174Y-102429200D02*
X157685412Y-102524438D01*
X157685412Y-102524438D02*
X157780650Y-102429200D01*
X157780650Y-102429200D02*
X157685412Y-102333961D01*
X157685412Y-102333961D02*
X157685412Y-102524438D01*
X155685412Y-102524438D02*
X156828269Y-102524438D01*
X156256841Y-102524438D02*
X156256841Y-100524438D01*
X156256841Y-100524438D02*
X156447317Y-100810152D01*
X156447317Y-100810152D02*
X156637793Y-101000628D01*
X156637793Y-101000628D02*
X156828269Y-101095866D01*
D11*
X187906115Y-226862475D02*
X187906115Y-225862475D01*
X187429925Y-226195808D02*
X187429925Y-226862475D01*
X187429925Y-226291046D02*
X187382306Y-226243427D01*
X187382306Y-226243427D02*
X187287068Y-226195808D01*
X187287068Y-226195808D02*
X187144211Y-226195808D01*
X187144211Y-226195808D02*
X187048973Y-226243427D01*
X187048973Y-226243427D02*
X187001354Y-226338665D01*
X187001354Y-226338665D02*
X187001354Y-226862475D01*
X186668020Y-226195808D02*
X186287068Y-226195808D01*
X186525163Y-225862475D02*
X186525163Y-226719617D01*
X186525163Y-226719617D02*
X186477544Y-226814856D01*
X186477544Y-226814856D02*
X186382306Y-226862475D01*
X186382306Y-226862475D02*
X186287068Y-226862475D01*
X185953734Y-226862475D02*
X185953734Y-226195808D01*
X185953734Y-226386284D02*
X185906115Y-226291046D01*
X185906115Y-226291046D02*
X185858496Y-226243427D01*
X185858496Y-226243427D02*
X185763258Y-226195808D01*
X185763258Y-226195808D02*
X185668020Y-226195808D01*
X185191829Y-226862475D02*
X185287067Y-226814856D01*
X185287067Y-226814856D02*
X185334686Y-226767236D01*
X185334686Y-226767236D02*
X185382305Y-226671998D01*
X185382305Y-226671998D02*
X185382305Y-226386284D01*
X185382305Y-226386284D02*
X185334686Y-226291046D01*
X185334686Y-226291046D02*
X185287067Y-226243427D01*
X185287067Y-226243427D02*
X185191829Y-226195808D01*
X185191829Y-226195808D02*
X185048972Y-226195808D01*
X185048972Y-226195808D02*
X184953734Y-226243427D01*
X184953734Y-226243427D02*
X184906115Y-226291046D01*
X184906115Y-226291046D02*
X184858496Y-226386284D01*
X184858496Y-226386284D02*
X184858496Y-226671998D01*
X184858496Y-226671998D02*
X184906115Y-226767236D01*
X184906115Y-226767236D02*
X184953734Y-226814856D01*
X184953734Y-226814856D02*
X185048972Y-226862475D01*
X185048972Y-226862475D02*
X185191829Y-226862475D01*
X183810876Y-226195808D02*
X183429924Y-226195808D01*
X183668019Y-225862475D02*
X183668019Y-226719617D01*
X183668019Y-226719617D02*
X183620400Y-226814856D01*
X183620400Y-226814856D02*
X183525162Y-226862475D01*
X183525162Y-226862475D02*
X183429924Y-226862475D01*
X182953733Y-226862475D02*
X183048971Y-226814856D01*
X183048971Y-226814856D02*
X183096590Y-226767236D01*
X183096590Y-226767236D02*
X183144209Y-226671998D01*
X183144209Y-226671998D02*
X183144209Y-226386284D01*
X183144209Y-226386284D02*
X183096590Y-226291046D01*
X183096590Y-226291046D02*
X183048971Y-226243427D01*
X183048971Y-226243427D02*
X182953733Y-226195808D01*
X182953733Y-226195808D02*
X182810876Y-226195808D01*
X182810876Y-226195808D02*
X182715638Y-226243427D01*
X182715638Y-226243427D02*
X182668019Y-226291046D01*
X182668019Y-226291046D02*
X182620400Y-226386284D01*
X182620400Y-226386284D02*
X182620400Y-226671998D01*
X182620400Y-226671998D02*
X182668019Y-226767236D01*
X182668019Y-226767236D02*
X182715638Y-226814856D01*
X182715638Y-226814856D02*
X182810876Y-226862475D01*
X182810876Y-226862475D02*
X182953733Y-226862475D01*
X180858495Y-226767236D02*
X180906114Y-226814856D01*
X180906114Y-226814856D02*
X181048971Y-226862475D01*
X181048971Y-226862475D02*
X181144209Y-226862475D01*
X181144209Y-226862475D02*
X181287066Y-226814856D01*
X181287066Y-226814856D02*
X181382304Y-226719617D01*
X181382304Y-226719617D02*
X181429923Y-226624379D01*
X181429923Y-226624379D02*
X181477542Y-226433903D01*
X181477542Y-226433903D02*
X181477542Y-226291046D01*
X181477542Y-226291046D02*
X181429923Y-226100570D01*
X181429923Y-226100570D02*
X181382304Y-226005332D01*
X181382304Y-226005332D02*
X181287066Y-225910094D01*
X181287066Y-225910094D02*
X181144209Y-225862475D01*
X181144209Y-225862475D02*
X181048971Y-225862475D01*
X181048971Y-225862475D02*
X180906114Y-225910094D01*
X180906114Y-225910094D02*
X180858495Y-225957713D01*
X180477542Y-226576760D02*
X180001352Y-226576760D01*
X180572780Y-226862475D02*
X180239447Y-225862475D01*
X180239447Y-225862475D02*
X179906114Y-226862475D01*
X179572780Y-226862475D02*
X179572780Y-225862475D01*
X179572780Y-225862475D02*
X179334685Y-225862475D01*
X179334685Y-225862475D02*
X179191828Y-225910094D01*
X179191828Y-225910094D02*
X179096590Y-226005332D01*
X179096590Y-226005332D02*
X179048971Y-226100570D01*
X179048971Y-226100570D02*
X179001352Y-226291046D01*
X179001352Y-226291046D02*
X179001352Y-226433903D01*
X179001352Y-226433903D02*
X179048971Y-226624379D01*
X179048971Y-226624379D02*
X179096590Y-226719617D01*
X179096590Y-226719617D02*
X179191828Y-226814856D01*
X179191828Y-226814856D02*
X179334685Y-226862475D01*
X179334685Y-226862475D02*
X179572780Y-226862475D01*
X177858494Y-225957713D02*
X177810875Y-225910094D01*
X177810875Y-225910094D02*
X177715637Y-225862475D01*
X177715637Y-225862475D02*
X177477542Y-225862475D01*
X177477542Y-225862475D02*
X177382304Y-225910094D01*
X177382304Y-225910094D02*
X177334685Y-225957713D01*
X177334685Y-225957713D02*
X177287066Y-226052951D01*
X177287066Y-226052951D02*
X177287066Y-226148189D01*
X177287066Y-226148189D02*
X177334685Y-226291046D01*
X177334685Y-226291046D02*
X177906113Y-226862475D01*
X177906113Y-226862475D02*
X177287066Y-226862475D01*
X176668018Y-225862475D02*
X176572780Y-225862475D01*
X176572780Y-225862475D02*
X176477542Y-225910094D01*
X176477542Y-225910094D02*
X176429923Y-225957713D01*
X176429923Y-225957713D02*
X176382304Y-226052951D01*
X176382304Y-226052951D02*
X176334685Y-226243427D01*
X176334685Y-226243427D02*
X176334685Y-226481522D01*
X176334685Y-226481522D02*
X176382304Y-226671998D01*
X176382304Y-226671998D02*
X176429923Y-226767236D01*
X176429923Y-226767236D02*
X176477542Y-226814856D01*
X176477542Y-226814856D02*
X176572780Y-226862475D01*
X176572780Y-226862475D02*
X176668018Y-226862475D01*
X176668018Y-226862475D02*
X176763256Y-226814856D01*
X176763256Y-226814856D02*
X176810875Y-226767236D01*
X176810875Y-226767236D02*
X176858494Y-226671998D01*
X176858494Y-226671998D02*
X176906113Y-226481522D01*
X176906113Y-226481522D02*
X176906113Y-226243427D01*
X176906113Y-226243427D02*
X176858494Y-226052951D01*
X176858494Y-226052951D02*
X176810875Y-225957713D01*
X176810875Y-225957713D02*
X176763256Y-225910094D01*
X176763256Y-225910094D02*
X176668018Y-225862475D01*
X175953732Y-225957713D02*
X175906113Y-225910094D01*
X175906113Y-225910094D02*
X175810875Y-225862475D01*
X175810875Y-225862475D02*
X175572780Y-225862475D01*
X175572780Y-225862475D02*
X175477542Y-225910094D01*
X175477542Y-225910094D02*
X175429923Y-225957713D01*
X175429923Y-225957713D02*
X175382304Y-226052951D01*
X175382304Y-226052951D02*
X175382304Y-226148189D01*
X175382304Y-226148189D02*
X175429923Y-226291046D01*
X175429923Y-226291046D02*
X176001351Y-226862475D01*
X176001351Y-226862475D02*
X175382304Y-226862475D01*
X174525161Y-225862475D02*
X174715637Y-225862475D01*
X174715637Y-225862475D02*
X174810875Y-225910094D01*
X174810875Y-225910094D02*
X174858494Y-225957713D01*
X174858494Y-225957713D02*
X174953732Y-226100570D01*
X174953732Y-226100570D02*
X175001351Y-226291046D01*
X175001351Y-226291046D02*
X175001351Y-226671998D01*
X175001351Y-226671998D02*
X174953732Y-226767236D01*
X174953732Y-226767236D02*
X174906113Y-226814856D01*
X174906113Y-226814856D02*
X174810875Y-226862475D01*
X174810875Y-226862475D02*
X174620399Y-226862475D01*
X174620399Y-226862475D02*
X174525161Y-226814856D01*
X174525161Y-226814856D02*
X174477542Y-226767236D01*
X174477542Y-226767236D02*
X174429923Y-226671998D01*
X174429923Y-226671998D02*
X174429923Y-226433903D01*
X174429923Y-226433903D02*
X174477542Y-226338665D01*
X174477542Y-226338665D02*
X174525161Y-226291046D01*
X174525161Y-226291046D02*
X174620399Y-226243427D01*
X174620399Y-226243427D02*
X174810875Y-226243427D01*
X174810875Y-226243427D02*
X174906113Y-226291046D01*
X174906113Y-226291046D02*
X174953732Y-226338665D01*
X174953732Y-226338665D02*
X175001351Y-226433903D01*
X188001353Y-227805752D02*
X187763258Y-228472419D01*
X187763258Y-228472419D02*
X187525163Y-227805752D01*
X186763258Y-228424800D02*
X186858496Y-228472419D01*
X186858496Y-228472419D02*
X187048972Y-228472419D01*
X187048972Y-228472419D02*
X187144210Y-228424800D01*
X187144210Y-228424800D02*
X187191829Y-228329561D01*
X187191829Y-228329561D02*
X187191829Y-227948609D01*
X187191829Y-227948609D02*
X187144210Y-227853371D01*
X187144210Y-227853371D02*
X187048972Y-227805752D01*
X187048972Y-227805752D02*
X186858496Y-227805752D01*
X186858496Y-227805752D02*
X186763258Y-227853371D01*
X186763258Y-227853371D02*
X186715639Y-227948609D01*
X186715639Y-227948609D02*
X186715639Y-228043847D01*
X186715639Y-228043847D02*
X187191829Y-228139085D01*
X186287067Y-228472419D02*
X186287067Y-227805752D01*
X186287067Y-227996228D02*
X186239448Y-227900990D01*
X186239448Y-227900990D02*
X186191829Y-227853371D01*
X186191829Y-227853371D02*
X186096591Y-227805752D01*
X186096591Y-227805752D02*
X186001353Y-227805752D01*
X185715638Y-228424800D02*
X185620400Y-228472419D01*
X185620400Y-228472419D02*
X185429924Y-228472419D01*
X185429924Y-228472419D02*
X185334686Y-228424800D01*
X185334686Y-228424800D02*
X185287067Y-228329561D01*
X185287067Y-228329561D02*
X185287067Y-228281942D01*
X185287067Y-228281942D02*
X185334686Y-228186704D01*
X185334686Y-228186704D02*
X185429924Y-228139085D01*
X185429924Y-228139085D02*
X185572781Y-228139085D01*
X185572781Y-228139085D02*
X185668019Y-228091466D01*
X185668019Y-228091466D02*
X185715638Y-227996228D01*
X185715638Y-227996228D02*
X185715638Y-227948609D01*
X185715638Y-227948609D02*
X185668019Y-227853371D01*
X185668019Y-227853371D02*
X185572781Y-227805752D01*
X185572781Y-227805752D02*
X185429924Y-227805752D01*
X185429924Y-227805752D02*
X185334686Y-227853371D01*
X184858495Y-228472419D02*
X184858495Y-227805752D01*
X184858495Y-227472419D02*
X184906114Y-227520038D01*
X184906114Y-227520038D02*
X184858495Y-227567657D01*
X184858495Y-227567657D02*
X184810876Y-227520038D01*
X184810876Y-227520038D02*
X184858495Y-227472419D01*
X184858495Y-227472419D02*
X184858495Y-227567657D01*
X184239448Y-228472419D02*
X184334686Y-228424800D01*
X184334686Y-228424800D02*
X184382305Y-228377180D01*
X184382305Y-228377180D02*
X184429924Y-228281942D01*
X184429924Y-228281942D02*
X184429924Y-227996228D01*
X184429924Y-227996228D02*
X184382305Y-227900990D01*
X184382305Y-227900990D02*
X184334686Y-227853371D01*
X184334686Y-227853371D02*
X184239448Y-227805752D01*
X184239448Y-227805752D02*
X184096591Y-227805752D01*
X184096591Y-227805752D02*
X184001353Y-227853371D01*
X184001353Y-227853371D02*
X183953734Y-227900990D01*
X183953734Y-227900990D02*
X183906115Y-227996228D01*
X183906115Y-227996228D02*
X183906115Y-228281942D01*
X183906115Y-228281942D02*
X183953734Y-228377180D01*
X183953734Y-228377180D02*
X184001353Y-228424800D01*
X184001353Y-228424800D02*
X184096591Y-228472419D01*
X184096591Y-228472419D02*
X184239448Y-228472419D01*
X183477543Y-227805752D02*
X183477543Y-228472419D01*
X183477543Y-227900990D02*
X183429924Y-227853371D01*
X183429924Y-227853371D02*
X183334686Y-227805752D01*
X183334686Y-227805752D02*
X183191829Y-227805752D01*
X183191829Y-227805752D02*
X183096591Y-227853371D01*
X183096591Y-227853371D02*
X183048972Y-227948609D01*
X183048972Y-227948609D02*
X183048972Y-228472419D01*
X181620400Y-227472419D02*
X181525162Y-227472419D01*
X181525162Y-227472419D02*
X181429924Y-227520038D01*
X181429924Y-227520038D02*
X181382305Y-227567657D01*
X181382305Y-227567657D02*
X181334686Y-227662895D01*
X181334686Y-227662895D02*
X181287067Y-227853371D01*
X181287067Y-227853371D02*
X181287067Y-228091466D01*
X181287067Y-228091466D02*
X181334686Y-228281942D01*
X181334686Y-228281942D02*
X181382305Y-228377180D01*
X181382305Y-228377180D02*
X181429924Y-228424800D01*
X181429924Y-228424800D02*
X181525162Y-228472419D01*
X181525162Y-228472419D02*
X181620400Y-228472419D01*
X181620400Y-228472419D02*
X181715638Y-228424800D01*
X181715638Y-228424800D02*
X181763257Y-228377180D01*
X181763257Y-228377180D02*
X181810876Y-228281942D01*
X181810876Y-228281942D02*
X181858495Y-228091466D01*
X181858495Y-228091466D02*
X181858495Y-227853371D01*
X181858495Y-227853371D02*
X181810876Y-227662895D01*
X181810876Y-227662895D02*
X181763257Y-227567657D01*
X181763257Y-227567657D02*
X181715638Y-227520038D01*
X181715638Y-227520038D02*
X181620400Y-227472419D01*
X180858495Y-228377180D02*
X180810876Y-228424800D01*
X180810876Y-228424800D02*
X180858495Y-228472419D01*
X180858495Y-228472419D02*
X180906114Y-228424800D01*
X180906114Y-228424800D02*
X180858495Y-228377180D01*
X180858495Y-228377180D02*
X180858495Y-228472419D01*
X179858496Y-228472419D02*
X180429924Y-228472419D01*
X180144210Y-228472419D02*
X180144210Y-227472419D01*
X180144210Y-227472419D02*
X180239448Y-227615276D01*
X180239448Y-227615276D02*
X180334686Y-227710514D01*
X180334686Y-227710514D02*
X180429924Y-227758133D01*
D12*
X157814060Y-31850510D02*
X157314060Y-33430510D01*
X157314060Y-33430510D02*
X156814060Y-31850510D01*
X155814061Y-32602891D02*
X155599775Y-32678129D01*
X155599775Y-32678129D02*
X155528346Y-32753367D01*
X155528346Y-32753367D02*
X155456918Y-32903843D01*
X155456918Y-32903843D02*
X155456918Y-33129557D01*
X155456918Y-33129557D02*
X155528346Y-33280033D01*
X155528346Y-33280033D02*
X155599775Y-33355272D01*
X155599775Y-33355272D02*
X155742632Y-33430510D01*
X155742632Y-33430510D02*
X156314061Y-33430510D01*
X156314061Y-33430510D02*
X156314061Y-31850510D01*
X156314061Y-31850510D02*
X155814061Y-31850510D01*
X155814061Y-31850510D02*
X155671204Y-31925748D01*
X155671204Y-31925748D02*
X155599775Y-32000986D01*
X155599775Y-32000986D02*
X155528346Y-32151462D01*
X155528346Y-32151462D02*
X155528346Y-32301938D01*
X155528346Y-32301938D02*
X155599775Y-32452414D01*
X155599775Y-32452414D02*
X155671204Y-32527652D01*
X155671204Y-32527652D02*
X155814061Y-32602891D01*
X155814061Y-32602891D02*
X156314061Y-32602891D01*
X154814061Y-31850510D02*
X154814061Y-33129557D01*
X154814061Y-33129557D02*
X154742632Y-33280033D01*
X154742632Y-33280033D02*
X154671204Y-33355272D01*
X154671204Y-33355272D02*
X154528346Y-33430510D01*
X154528346Y-33430510D02*
X154242632Y-33430510D01*
X154242632Y-33430510D02*
X154099775Y-33355272D01*
X154099775Y-33355272D02*
X154028346Y-33280033D01*
X154028346Y-33280033D02*
X153956918Y-33129557D01*
X153956918Y-33129557D02*
X153956918Y-31850510D01*
X153314060Y-33355272D02*
X153099775Y-33430510D01*
X153099775Y-33430510D02*
X152742632Y-33430510D01*
X152742632Y-33430510D02*
X152599775Y-33355272D01*
X152599775Y-33355272D02*
X152528346Y-33280033D01*
X152528346Y-33280033D02*
X152456917Y-33129557D01*
X152456917Y-33129557D02*
X152456917Y-32979081D01*
X152456917Y-32979081D02*
X152528346Y-32828605D01*
X152528346Y-32828605D02*
X152599775Y-32753367D01*
X152599775Y-32753367D02*
X152742632Y-32678129D01*
X152742632Y-32678129D02*
X153028346Y-32602891D01*
X153028346Y-32602891D02*
X153171203Y-32527652D01*
X153171203Y-32527652D02*
X153242632Y-32452414D01*
X153242632Y-32452414D02*
X153314060Y-32301938D01*
X153314060Y-32301938D02*
X153314060Y-32151462D01*
X153314060Y-32151462D02*
X153242632Y-32000986D01*
X153242632Y-32000986D02*
X153171203Y-31925748D01*
X153171203Y-31925748D02*
X153028346Y-31850510D01*
X153028346Y-31850510D02*
X152671203Y-31850510D01*
X152671203Y-31850510D02*
X152456917Y-31925748D01*
X160099774Y-34394222D02*
X159599774Y-35974222D01*
X159599774Y-35974222D02*
X159099774Y-34394222D01*
X158671203Y-35898984D02*
X158456918Y-35974222D01*
X158456918Y-35974222D02*
X158099775Y-35974222D01*
X158099775Y-35974222D02*
X157956918Y-35898984D01*
X157956918Y-35898984D02*
X157885489Y-35823745D01*
X157885489Y-35823745D02*
X157814060Y-35673269D01*
X157814060Y-35673269D02*
X157814060Y-35522793D01*
X157814060Y-35522793D02*
X157885489Y-35372317D01*
X157885489Y-35372317D02*
X157956918Y-35297079D01*
X157956918Y-35297079D02*
X158099775Y-35221841D01*
X158099775Y-35221841D02*
X158385489Y-35146603D01*
X158385489Y-35146603D02*
X158528346Y-35071364D01*
X158528346Y-35071364D02*
X158599775Y-34996126D01*
X158599775Y-34996126D02*
X158671203Y-34845650D01*
X158671203Y-34845650D02*
X158671203Y-34695174D01*
X158671203Y-34695174D02*
X158599775Y-34544698D01*
X158599775Y-34544698D02*
X158528346Y-34469460D01*
X158528346Y-34469460D02*
X158385489Y-34394222D01*
X158385489Y-34394222D02*
X158028346Y-34394222D01*
X158028346Y-34394222D02*
X157814060Y-34469460D01*
X156885489Y-35221841D02*
X156885489Y-35974222D01*
X157385489Y-34394222D02*
X156885489Y-35221841D01*
X156885489Y-35221841D02*
X156385489Y-34394222D01*
X155956918Y-35898984D02*
X155742633Y-35974222D01*
X155742633Y-35974222D02*
X155385490Y-35974222D01*
X155385490Y-35974222D02*
X155242633Y-35898984D01*
X155242633Y-35898984D02*
X155171204Y-35823745D01*
X155171204Y-35823745D02*
X155099775Y-35673269D01*
X155099775Y-35673269D02*
X155099775Y-35522793D01*
X155099775Y-35522793D02*
X155171204Y-35372317D01*
X155171204Y-35372317D02*
X155242633Y-35297079D01*
X155242633Y-35297079D02*
X155385490Y-35221841D01*
X155385490Y-35221841D02*
X155671204Y-35146603D01*
X155671204Y-35146603D02*
X155814061Y-35071364D01*
X155814061Y-35071364D02*
X155885490Y-34996126D01*
X155885490Y-34996126D02*
X155956918Y-34845650D01*
X155956918Y-34845650D02*
X155956918Y-34695174D01*
X155956918Y-34695174D02*
X155885490Y-34544698D01*
X155885490Y-34544698D02*
X155814061Y-34469460D01*
X155814061Y-34469460D02*
X155671204Y-34394222D01*
X155671204Y-34394222D02*
X155314061Y-34394222D01*
X155314061Y-34394222D02*
X155099775Y-34469460D01*
X160028346Y-39481646D02*
X159099774Y-39481646D01*
X159099774Y-39481646D02*
X159599774Y-40083550D01*
X159599774Y-40083550D02*
X159385489Y-40083550D01*
X159385489Y-40083550D02*
X159242632Y-40158788D01*
X159242632Y-40158788D02*
X159171203Y-40234027D01*
X159171203Y-40234027D02*
X159099774Y-40384503D01*
X159099774Y-40384503D02*
X159099774Y-40760693D01*
X159099774Y-40760693D02*
X159171203Y-40911169D01*
X159171203Y-40911169D02*
X159242632Y-40986408D01*
X159242632Y-40986408D02*
X159385489Y-41061646D01*
X159385489Y-41061646D02*
X159814060Y-41061646D01*
X159814060Y-41061646D02*
X159956917Y-40986408D01*
X159956917Y-40986408D02*
X160028346Y-40911169D01*
X158671203Y-39481646D02*
X158171203Y-41061646D01*
X158171203Y-41061646D02*
X157671203Y-39481646D01*
X157314061Y-39481646D02*
X156385489Y-39481646D01*
X156385489Y-39481646D02*
X156885489Y-40083550D01*
X156885489Y-40083550D02*
X156671204Y-40083550D01*
X156671204Y-40083550D02*
X156528347Y-40158788D01*
X156528347Y-40158788D02*
X156456918Y-40234027D01*
X156456918Y-40234027D02*
X156385489Y-40384503D01*
X156385489Y-40384503D02*
X156385489Y-40760693D01*
X156385489Y-40760693D02*
X156456918Y-40911169D01*
X156456918Y-40911169D02*
X156528347Y-40986408D01*
X156528347Y-40986408D02*
X156671204Y-41061646D01*
X156671204Y-41061646D02*
X157099775Y-41061646D01*
X157099775Y-41061646D02*
X157242632Y-40986408D01*
X157242632Y-40986408D02*
X157314061Y-40911169D01*
X156099776Y-41212122D02*
X154956918Y-41212122D01*
X154599776Y-40234027D02*
X154099776Y-40234027D01*
X153885490Y-41061646D02*
X154599776Y-41061646D01*
X154599776Y-41061646D02*
X154599776Y-39481646D01*
X154599776Y-39481646D02*
X153885490Y-39481646D01*
X153242633Y-41061646D02*
X153242633Y-39481646D01*
X153242633Y-39481646D02*
X152385490Y-41061646D01*
X152385490Y-41061646D02*
X152385490Y-39481646D01*
X160028346Y-42025358D02*
X159099774Y-42025358D01*
X159099774Y-42025358D02*
X159599774Y-42627262D01*
X159599774Y-42627262D02*
X159385489Y-42627262D01*
X159385489Y-42627262D02*
X159242632Y-42702500D01*
X159242632Y-42702500D02*
X159171203Y-42777739D01*
X159171203Y-42777739D02*
X159099774Y-42928215D01*
X159099774Y-42928215D02*
X159099774Y-43304405D01*
X159099774Y-43304405D02*
X159171203Y-43454881D01*
X159171203Y-43454881D02*
X159242632Y-43530120D01*
X159242632Y-43530120D02*
X159385489Y-43605358D01*
X159385489Y-43605358D02*
X159814060Y-43605358D01*
X159814060Y-43605358D02*
X159956917Y-43530120D01*
X159956917Y-43530120D02*
X160028346Y-43454881D01*
X158671203Y-42025358D02*
X158171203Y-43605358D01*
X158171203Y-43605358D02*
X157671203Y-42025358D01*
X157314061Y-42025358D02*
X156385489Y-42025358D01*
X156385489Y-42025358D02*
X156885489Y-42627262D01*
X156885489Y-42627262D02*
X156671204Y-42627262D01*
X156671204Y-42627262D02*
X156528347Y-42702500D01*
X156528347Y-42702500D02*
X156456918Y-42777739D01*
X156456918Y-42777739D02*
X156385489Y-42928215D01*
X156385489Y-42928215D02*
X156385489Y-43304405D01*
X156385489Y-43304405D02*
X156456918Y-43454881D01*
X156456918Y-43454881D02*
X156528347Y-43530120D01*
X156528347Y-43530120D02*
X156671204Y-43605358D01*
X156671204Y-43605358D02*
X157099775Y-43605358D01*
X157099775Y-43605358D02*
X157242632Y-43530120D01*
X157242632Y-43530120D02*
X157314061Y-43454881D01*
X160099774Y-44569070D02*
X159599774Y-46149070D01*
X159599774Y-46149070D02*
X159099774Y-44569070D01*
X157742632Y-46149070D02*
X158242632Y-45396689D01*
X158599775Y-46149070D02*
X158599775Y-44569070D01*
X158599775Y-44569070D02*
X158028346Y-44569070D01*
X158028346Y-44569070D02*
X157885489Y-44644308D01*
X157885489Y-44644308D02*
X157814060Y-44719546D01*
X157814060Y-44719546D02*
X157742632Y-44870022D01*
X157742632Y-44870022D02*
X157742632Y-45095736D01*
X157742632Y-45095736D02*
X157814060Y-45246212D01*
X157814060Y-45246212D02*
X157885489Y-45321451D01*
X157885489Y-45321451D02*
X158028346Y-45396689D01*
X158028346Y-45396689D02*
X158599775Y-45396689D01*
X157099775Y-45321451D02*
X156599775Y-45321451D01*
X156385489Y-46149070D02*
X157099775Y-46149070D01*
X157099775Y-46149070D02*
X157099775Y-44569070D01*
X157099775Y-44569070D02*
X156385489Y-44569070D01*
X155242632Y-45321451D02*
X155742632Y-45321451D01*
X155742632Y-46149070D02*
X155742632Y-44569070D01*
X155742632Y-44569070D02*
X155028346Y-44569070D01*
X159099774Y-47188020D02*
X159242632Y-47112782D01*
X159242632Y-47112782D02*
X159456917Y-47112782D01*
X159456917Y-47112782D02*
X159671203Y-47188020D01*
X159671203Y-47188020D02*
X159814060Y-47338496D01*
X159814060Y-47338496D02*
X159885489Y-47488972D01*
X159885489Y-47488972D02*
X159956917Y-47789924D01*
X159956917Y-47789924D02*
X159956917Y-48015639D01*
X159956917Y-48015639D02*
X159885489Y-48316591D01*
X159885489Y-48316591D02*
X159814060Y-48467067D01*
X159814060Y-48467067D02*
X159671203Y-48617544D01*
X159671203Y-48617544D02*
X159456917Y-48692782D01*
X159456917Y-48692782D02*
X159314060Y-48692782D01*
X159314060Y-48692782D02*
X159099774Y-48617544D01*
X159099774Y-48617544D02*
X159028346Y-48542305D01*
X159028346Y-48542305D02*
X159028346Y-48015639D01*
X159028346Y-48015639D02*
X159314060Y-48015639D01*
X158385489Y-48692782D02*
X158385489Y-47112782D01*
X158385489Y-47112782D02*
X157814060Y-47112782D01*
X157814060Y-47112782D02*
X157671203Y-47188020D01*
X157671203Y-47188020D02*
X157599774Y-47263258D01*
X157599774Y-47263258D02*
X157528346Y-47413734D01*
X157528346Y-47413734D02*
X157528346Y-47639448D01*
X157528346Y-47639448D02*
X157599774Y-47789924D01*
X157599774Y-47789924D02*
X157671203Y-47865163D01*
X157671203Y-47865163D02*
X157814060Y-47940401D01*
X157814060Y-47940401D02*
X158385489Y-47940401D01*
X156956917Y-47263258D02*
X156885489Y-47188020D01*
X156885489Y-47188020D02*
X156742632Y-47112782D01*
X156742632Y-47112782D02*
X156385489Y-47112782D01*
X156385489Y-47112782D02*
X156242632Y-47188020D01*
X156242632Y-47188020D02*
X156171203Y-47263258D01*
X156171203Y-47263258D02*
X156099774Y-47413734D01*
X156099774Y-47413734D02*
X156099774Y-47564210D01*
X156099774Y-47564210D02*
X156171203Y-47789924D01*
X156171203Y-47789924D02*
X157028346Y-48692782D01*
X157028346Y-48692782D02*
X156099774Y-48692782D01*
X155242632Y-47789924D02*
X155385489Y-47714686D01*
X155385489Y-47714686D02*
X155456918Y-47639448D01*
X155456918Y-47639448D02*
X155528346Y-47488972D01*
X155528346Y-47488972D02*
X155528346Y-47413734D01*
X155528346Y-47413734D02*
X155456918Y-47263258D01*
X155456918Y-47263258D02*
X155385489Y-47188020D01*
X155385489Y-47188020D02*
X155242632Y-47112782D01*
X155242632Y-47112782D02*
X154956918Y-47112782D01*
X154956918Y-47112782D02*
X154814061Y-47188020D01*
X154814061Y-47188020D02*
X154742632Y-47263258D01*
X154742632Y-47263258D02*
X154671203Y-47413734D01*
X154671203Y-47413734D02*
X154671203Y-47488972D01*
X154671203Y-47488972D02*
X154742632Y-47639448D01*
X154742632Y-47639448D02*
X154814061Y-47714686D01*
X154814061Y-47714686D02*
X154956918Y-47789924D01*
X154956918Y-47789924D02*
X155242632Y-47789924D01*
X155242632Y-47789924D02*
X155385489Y-47865163D01*
X155385489Y-47865163D02*
X155456918Y-47940401D01*
X155456918Y-47940401D02*
X155528346Y-48090877D01*
X155528346Y-48090877D02*
X155528346Y-48391829D01*
X155528346Y-48391829D02*
X155456918Y-48542305D01*
X155456918Y-48542305D02*
X155385489Y-48617544D01*
X155385489Y-48617544D02*
X155242632Y-48692782D01*
X155242632Y-48692782D02*
X154956918Y-48692782D01*
X154956918Y-48692782D02*
X154814061Y-48617544D01*
X154814061Y-48617544D02*
X154742632Y-48542305D01*
X154742632Y-48542305D02*
X154671203Y-48391829D01*
X154671203Y-48391829D02*
X154671203Y-48090877D01*
X154671203Y-48090877D02*
X154742632Y-47940401D01*
X154742632Y-47940401D02*
X154814061Y-47865163D01*
X154814061Y-47865163D02*
X154956918Y-47789924D01*
X159956917Y-50785065D02*
X159242632Y-50785065D01*
X160099774Y-51236494D02*
X159599774Y-49656494D01*
X159599774Y-49656494D02*
X159099774Y-51236494D01*
X157814060Y-49731732D02*
X157956918Y-49656494D01*
X157956918Y-49656494D02*
X158171203Y-49656494D01*
X158171203Y-49656494D02*
X158385489Y-49731732D01*
X158385489Y-49731732D02*
X158528346Y-49882208D01*
X158528346Y-49882208D02*
X158599775Y-50032684D01*
X158599775Y-50032684D02*
X158671203Y-50333636D01*
X158671203Y-50333636D02*
X158671203Y-50559351D01*
X158671203Y-50559351D02*
X158599775Y-50860303D01*
X158599775Y-50860303D02*
X158528346Y-51010779D01*
X158528346Y-51010779D02*
X158385489Y-51161256D01*
X158385489Y-51161256D02*
X158171203Y-51236494D01*
X158171203Y-51236494D02*
X158028346Y-51236494D01*
X158028346Y-51236494D02*
X157814060Y-51161256D01*
X157814060Y-51161256D02*
X157742632Y-51086017D01*
X157742632Y-51086017D02*
X157742632Y-50559351D01*
X157742632Y-50559351D02*
X158028346Y-50559351D01*
X157099775Y-51236494D02*
X157099775Y-49656494D01*
X157099775Y-49656494D02*
X156242632Y-51236494D01*
X156242632Y-51236494D02*
X156242632Y-49656494D01*
X155528346Y-51236494D02*
X155528346Y-49656494D01*
X155528346Y-49656494D02*
X155171203Y-49656494D01*
X155171203Y-49656494D02*
X154956917Y-49731732D01*
X154956917Y-49731732D02*
X154814060Y-49882208D01*
X154814060Y-49882208D02*
X154742631Y-50032684D01*
X154742631Y-50032684D02*
X154671203Y-50333636D01*
X154671203Y-50333636D02*
X154671203Y-50559351D01*
X154671203Y-50559351D02*
X154742631Y-50860303D01*
X154742631Y-50860303D02*
X154814060Y-51010779D01*
X154814060Y-51010779D02*
X154956917Y-51161256D01*
X154956917Y-51161256D02*
X155171203Y-51236494D01*
X155171203Y-51236494D02*
X155528346Y-51236494D01*
X159099774Y-52275444D02*
X159242632Y-52200206D01*
X159242632Y-52200206D02*
X159456917Y-52200206D01*
X159456917Y-52200206D02*
X159671203Y-52275444D01*
X159671203Y-52275444D02*
X159814060Y-52425920D01*
X159814060Y-52425920D02*
X159885489Y-52576396D01*
X159885489Y-52576396D02*
X159956917Y-52877348D01*
X159956917Y-52877348D02*
X159956917Y-53103063D01*
X159956917Y-53103063D02*
X159885489Y-53404015D01*
X159885489Y-53404015D02*
X159814060Y-53554491D01*
X159814060Y-53554491D02*
X159671203Y-53704968D01*
X159671203Y-53704968D02*
X159456917Y-53780206D01*
X159456917Y-53780206D02*
X159314060Y-53780206D01*
X159314060Y-53780206D02*
X159099774Y-53704968D01*
X159099774Y-53704968D02*
X159028346Y-53629729D01*
X159028346Y-53629729D02*
X159028346Y-53103063D01*
X159028346Y-53103063D02*
X159314060Y-53103063D01*
X158385489Y-53780206D02*
X158385489Y-52200206D01*
X158385489Y-52200206D02*
X157814060Y-52200206D01*
X157814060Y-52200206D02*
X157671203Y-52275444D01*
X157671203Y-52275444D02*
X157599774Y-52350682D01*
X157599774Y-52350682D02*
X157528346Y-52501158D01*
X157528346Y-52501158D02*
X157528346Y-52726872D01*
X157528346Y-52726872D02*
X157599774Y-52877348D01*
X157599774Y-52877348D02*
X157671203Y-52952587D01*
X157671203Y-52952587D02*
X157814060Y-53027825D01*
X157814060Y-53027825D02*
X158385489Y-53027825D01*
X156956917Y-52350682D02*
X156885489Y-52275444D01*
X156885489Y-52275444D02*
X156742632Y-52200206D01*
X156742632Y-52200206D02*
X156385489Y-52200206D01*
X156385489Y-52200206D02*
X156242632Y-52275444D01*
X156242632Y-52275444D02*
X156171203Y-52350682D01*
X156171203Y-52350682D02*
X156099774Y-52501158D01*
X156099774Y-52501158D02*
X156099774Y-52651634D01*
X156099774Y-52651634D02*
X156171203Y-52877348D01*
X156171203Y-52877348D02*
X157028346Y-53780206D01*
X157028346Y-53780206D02*
X156099774Y-53780206D01*
X155599775Y-52200206D02*
X154599775Y-52200206D01*
X154599775Y-52200206D02*
X155242632Y-53780206D01*
X159099774Y-54819156D02*
X159242632Y-54743918D01*
X159242632Y-54743918D02*
X159456917Y-54743918D01*
X159456917Y-54743918D02*
X159671203Y-54819156D01*
X159671203Y-54819156D02*
X159814060Y-54969632D01*
X159814060Y-54969632D02*
X159885489Y-55120108D01*
X159885489Y-55120108D02*
X159956917Y-55421060D01*
X159956917Y-55421060D02*
X159956917Y-55646775D01*
X159956917Y-55646775D02*
X159885489Y-55947727D01*
X159885489Y-55947727D02*
X159814060Y-56098203D01*
X159814060Y-56098203D02*
X159671203Y-56248680D01*
X159671203Y-56248680D02*
X159456917Y-56323918D01*
X159456917Y-56323918D02*
X159314060Y-56323918D01*
X159314060Y-56323918D02*
X159099774Y-56248680D01*
X159099774Y-56248680D02*
X159028346Y-56173441D01*
X159028346Y-56173441D02*
X159028346Y-55646775D01*
X159028346Y-55646775D02*
X159314060Y-55646775D01*
X158385489Y-56323918D02*
X158385489Y-54743918D01*
X158385489Y-54743918D02*
X157814060Y-54743918D01*
X157814060Y-54743918D02*
X157671203Y-54819156D01*
X157671203Y-54819156D02*
X157599774Y-54894394D01*
X157599774Y-54894394D02*
X157528346Y-55044870D01*
X157528346Y-55044870D02*
X157528346Y-55270584D01*
X157528346Y-55270584D02*
X157599774Y-55421060D01*
X157599774Y-55421060D02*
X157671203Y-55496299D01*
X157671203Y-55496299D02*
X157814060Y-55571537D01*
X157814060Y-55571537D02*
X158385489Y-55571537D01*
X156956917Y-54894394D02*
X156885489Y-54819156D01*
X156885489Y-54819156D02*
X156742632Y-54743918D01*
X156742632Y-54743918D02*
X156385489Y-54743918D01*
X156385489Y-54743918D02*
X156242632Y-54819156D01*
X156242632Y-54819156D02*
X156171203Y-54894394D01*
X156171203Y-54894394D02*
X156099774Y-55044870D01*
X156099774Y-55044870D02*
X156099774Y-55195346D01*
X156099774Y-55195346D02*
X156171203Y-55421060D01*
X156171203Y-55421060D02*
X157028346Y-56323918D01*
X157028346Y-56323918D02*
X156099774Y-56323918D01*
X154814061Y-54743918D02*
X155099775Y-54743918D01*
X155099775Y-54743918D02*
X155242632Y-54819156D01*
X155242632Y-54819156D02*
X155314061Y-54894394D01*
X155314061Y-54894394D02*
X155456918Y-55120108D01*
X155456918Y-55120108D02*
X155528346Y-55421060D01*
X155528346Y-55421060D02*
X155528346Y-56022965D01*
X155528346Y-56022965D02*
X155456918Y-56173441D01*
X155456918Y-56173441D02*
X155385489Y-56248680D01*
X155385489Y-56248680D02*
X155242632Y-56323918D01*
X155242632Y-56323918D02*
X154956918Y-56323918D01*
X154956918Y-56323918D02*
X154814061Y-56248680D01*
X154814061Y-56248680D02*
X154742632Y-56173441D01*
X154742632Y-56173441D02*
X154671203Y-56022965D01*
X154671203Y-56022965D02*
X154671203Y-55646775D01*
X154671203Y-55646775D02*
X154742632Y-55496299D01*
X154742632Y-55496299D02*
X154814061Y-55421060D01*
X154814061Y-55421060D02*
X154956918Y-55345822D01*
X154956918Y-55345822D02*
X155242632Y-55345822D01*
X155242632Y-55345822D02*
X155385489Y-55421060D01*
X155385489Y-55421060D02*
X155456918Y-55496299D01*
X155456918Y-55496299D02*
X155528346Y-55646775D01*
X159028346Y-58867630D02*
X159528346Y-58115249D01*
X159885489Y-58867630D02*
X159885489Y-57287630D01*
X159885489Y-57287630D02*
X159314060Y-57287630D01*
X159314060Y-57287630D02*
X159171203Y-57362868D01*
X159171203Y-57362868D02*
X159099774Y-57438106D01*
X159099774Y-57438106D02*
X159028346Y-57588582D01*
X159028346Y-57588582D02*
X159028346Y-57814296D01*
X159028346Y-57814296D02*
X159099774Y-57964772D01*
X159099774Y-57964772D02*
X159171203Y-58040011D01*
X159171203Y-58040011D02*
X159314060Y-58115249D01*
X159314060Y-58115249D02*
X159885489Y-58115249D01*
X158385489Y-57287630D02*
X158385489Y-58566677D01*
X158385489Y-58566677D02*
X158314060Y-58717153D01*
X158314060Y-58717153D02*
X158242632Y-58792392D01*
X158242632Y-58792392D02*
X158099774Y-58867630D01*
X158099774Y-58867630D02*
X157814060Y-58867630D01*
X157814060Y-58867630D02*
X157671203Y-58792392D01*
X157671203Y-58792392D02*
X157599774Y-58717153D01*
X157599774Y-58717153D02*
X157528346Y-58566677D01*
X157528346Y-58566677D02*
X157528346Y-57287630D01*
X156814060Y-58867630D02*
X156814060Y-57287630D01*
X156814060Y-57287630D02*
X155956917Y-58867630D01*
X155956917Y-58867630D02*
X155956917Y-57287630D01*
X159099774Y-59906580D02*
X159242632Y-59831342D01*
X159242632Y-59831342D02*
X159456917Y-59831342D01*
X159456917Y-59831342D02*
X159671203Y-59906580D01*
X159671203Y-59906580D02*
X159814060Y-60057056D01*
X159814060Y-60057056D02*
X159885489Y-60207532D01*
X159885489Y-60207532D02*
X159956917Y-60508484D01*
X159956917Y-60508484D02*
X159956917Y-60734199D01*
X159956917Y-60734199D02*
X159885489Y-61035151D01*
X159885489Y-61035151D02*
X159814060Y-61185627D01*
X159814060Y-61185627D02*
X159671203Y-61336104D01*
X159671203Y-61336104D02*
X159456917Y-61411342D01*
X159456917Y-61411342D02*
X159314060Y-61411342D01*
X159314060Y-61411342D02*
X159099774Y-61336104D01*
X159099774Y-61336104D02*
X159028346Y-61260865D01*
X159028346Y-61260865D02*
X159028346Y-60734199D01*
X159028346Y-60734199D02*
X159314060Y-60734199D01*
X158385489Y-61411342D02*
X158385489Y-59831342D01*
X158385489Y-59831342D02*
X157814060Y-59831342D01*
X157814060Y-59831342D02*
X157671203Y-59906580D01*
X157671203Y-59906580D02*
X157599774Y-59981818D01*
X157599774Y-59981818D02*
X157528346Y-60132294D01*
X157528346Y-60132294D02*
X157528346Y-60358008D01*
X157528346Y-60358008D02*
X157599774Y-60508484D01*
X157599774Y-60508484D02*
X157671203Y-60583723D01*
X157671203Y-60583723D02*
X157814060Y-60658961D01*
X157814060Y-60658961D02*
X158385489Y-60658961D01*
X156956917Y-59981818D02*
X156885489Y-59906580D01*
X156885489Y-59906580D02*
X156742632Y-59831342D01*
X156742632Y-59831342D02*
X156385489Y-59831342D01*
X156385489Y-59831342D02*
X156242632Y-59906580D01*
X156242632Y-59906580D02*
X156171203Y-59981818D01*
X156171203Y-59981818D02*
X156099774Y-60132294D01*
X156099774Y-60132294D02*
X156099774Y-60282770D01*
X156099774Y-60282770D02*
X156171203Y-60508484D01*
X156171203Y-60508484D02*
X157028346Y-61411342D01*
X157028346Y-61411342D02*
X156099774Y-61411342D01*
X155528346Y-59981818D02*
X155456918Y-59906580D01*
X155456918Y-59906580D02*
X155314061Y-59831342D01*
X155314061Y-59831342D02*
X154956918Y-59831342D01*
X154956918Y-59831342D02*
X154814061Y-59906580D01*
X154814061Y-59906580D02*
X154742632Y-59981818D01*
X154742632Y-59981818D02*
X154671203Y-60132294D01*
X154671203Y-60132294D02*
X154671203Y-60282770D01*
X154671203Y-60282770D02*
X154742632Y-60508484D01*
X154742632Y-60508484D02*
X155599775Y-61411342D01*
X155599775Y-61411342D02*
X154671203Y-61411342D01*
X159099774Y-62450292D02*
X159242632Y-62375054D01*
X159242632Y-62375054D02*
X159456917Y-62375054D01*
X159456917Y-62375054D02*
X159671203Y-62450292D01*
X159671203Y-62450292D02*
X159814060Y-62600768D01*
X159814060Y-62600768D02*
X159885489Y-62751244D01*
X159885489Y-62751244D02*
X159956917Y-63052196D01*
X159956917Y-63052196D02*
X159956917Y-63277911D01*
X159956917Y-63277911D02*
X159885489Y-63578863D01*
X159885489Y-63578863D02*
X159814060Y-63729339D01*
X159814060Y-63729339D02*
X159671203Y-63879816D01*
X159671203Y-63879816D02*
X159456917Y-63955054D01*
X159456917Y-63955054D02*
X159314060Y-63955054D01*
X159314060Y-63955054D02*
X159099774Y-63879816D01*
X159099774Y-63879816D02*
X159028346Y-63804577D01*
X159028346Y-63804577D02*
X159028346Y-63277911D01*
X159028346Y-63277911D02*
X159314060Y-63277911D01*
X158385489Y-63955054D02*
X158385489Y-62375054D01*
X158385489Y-62375054D02*
X157528346Y-63955054D01*
X157528346Y-63955054D02*
X157528346Y-62375054D01*
X156814060Y-63955054D02*
X156814060Y-62375054D01*
X156814060Y-62375054D02*
X156456917Y-62375054D01*
X156456917Y-62375054D02*
X156242631Y-62450292D01*
X156242631Y-62450292D02*
X156099774Y-62600768D01*
X156099774Y-62600768D02*
X156028345Y-62751244D01*
X156028345Y-62751244D02*
X155956917Y-63052196D01*
X155956917Y-63052196D02*
X155956917Y-63277911D01*
X155956917Y-63277911D02*
X156028345Y-63578863D01*
X156028345Y-63578863D02*
X156099774Y-63729339D01*
X156099774Y-63729339D02*
X156242631Y-63879816D01*
X156242631Y-63879816D02*
X156456917Y-63955054D01*
X156456917Y-63955054D02*
X156814060Y-63955054D01*
X159099774Y-64994004D02*
X159242632Y-64918766D01*
X159242632Y-64918766D02*
X159456917Y-64918766D01*
X159456917Y-64918766D02*
X159671203Y-64994004D01*
X159671203Y-64994004D02*
X159814060Y-65144480D01*
X159814060Y-65144480D02*
X159885489Y-65294956D01*
X159885489Y-65294956D02*
X159956917Y-65595908D01*
X159956917Y-65595908D02*
X159956917Y-65821623D01*
X159956917Y-65821623D02*
X159885489Y-66122575D01*
X159885489Y-66122575D02*
X159814060Y-66273051D01*
X159814060Y-66273051D02*
X159671203Y-66423528D01*
X159671203Y-66423528D02*
X159456917Y-66498766D01*
X159456917Y-66498766D02*
X159314060Y-66498766D01*
X159314060Y-66498766D02*
X159099774Y-66423528D01*
X159099774Y-66423528D02*
X159028346Y-66348289D01*
X159028346Y-66348289D02*
X159028346Y-65821623D01*
X159028346Y-65821623D02*
X159314060Y-65821623D01*
X158385489Y-66498766D02*
X158385489Y-64918766D01*
X158385489Y-64918766D02*
X157814060Y-64918766D01*
X157814060Y-64918766D02*
X157671203Y-64994004D01*
X157671203Y-64994004D02*
X157599774Y-65069242D01*
X157599774Y-65069242D02*
X157528346Y-65219718D01*
X157528346Y-65219718D02*
X157528346Y-65445432D01*
X157528346Y-65445432D02*
X157599774Y-65595908D01*
X157599774Y-65595908D02*
X157671203Y-65671147D01*
X157671203Y-65671147D02*
X157814060Y-65746385D01*
X157814060Y-65746385D02*
X158385489Y-65746385D01*
X156956917Y-65069242D02*
X156885489Y-64994004D01*
X156885489Y-64994004D02*
X156742632Y-64918766D01*
X156742632Y-64918766D02*
X156385489Y-64918766D01*
X156385489Y-64918766D02*
X156242632Y-64994004D01*
X156242632Y-64994004D02*
X156171203Y-65069242D01*
X156171203Y-65069242D02*
X156099774Y-65219718D01*
X156099774Y-65219718D02*
X156099774Y-65370194D01*
X156099774Y-65370194D02*
X156171203Y-65595908D01*
X156171203Y-65595908D02*
X157028346Y-66498766D01*
X157028346Y-66498766D02*
X156099774Y-66498766D01*
X154671203Y-66498766D02*
X155528346Y-66498766D01*
X155099775Y-66498766D02*
X155099775Y-64918766D01*
X155099775Y-64918766D02*
X155242632Y-65144480D01*
X155242632Y-65144480D02*
X155385489Y-65294956D01*
X155385489Y-65294956D02*
X155528346Y-65370194D01*
X159099774Y-67537716D02*
X159242632Y-67462478D01*
X159242632Y-67462478D02*
X159456917Y-67462478D01*
X159456917Y-67462478D02*
X159671203Y-67537716D01*
X159671203Y-67537716D02*
X159814060Y-67688192D01*
X159814060Y-67688192D02*
X159885489Y-67838668D01*
X159885489Y-67838668D02*
X159956917Y-68139620D01*
X159956917Y-68139620D02*
X159956917Y-68365335D01*
X159956917Y-68365335D02*
X159885489Y-68666287D01*
X159885489Y-68666287D02*
X159814060Y-68816763D01*
X159814060Y-68816763D02*
X159671203Y-68967240D01*
X159671203Y-68967240D02*
X159456917Y-69042478D01*
X159456917Y-69042478D02*
X159314060Y-69042478D01*
X159314060Y-69042478D02*
X159099774Y-68967240D01*
X159099774Y-68967240D02*
X159028346Y-68892001D01*
X159028346Y-68892001D02*
X159028346Y-68365335D01*
X159028346Y-68365335D02*
X159314060Y-68365335D01*
X158385489Y-69042478D02*
X158385489Y-67462478D01*
X158385489Y-67462478D02*
X157814060Y-67462478D01*
X157814060Y-67462478D02*
X157671203Y-67537716D01*
X157671203Y-67537716D02*
X157599774Y-67612954D01*
X157599774Y-67612954D02*
X157528346Y-67763430D01*
X157528346Y-67763430D02*
X157528346Y-67989144D01*
X157528346Y-67989144D02*
X157599774Y-68139620D01*
X157599774Y-68139620D02*
X157671203Y-68214859D01*
X157671203Y-68214859D02*
X157814060Y-68290097D01*
X157814060Y-68290097D02*
X158385489Y-68290097D01*
X156956917Y-67612954D02*
X156885489Y-67537716D01*
X156885489Y-67537716D02*
X156742632Y-67462478D01*
X156742632Y-67462478D02*
X156385489Y-67462478D01*
X156385489Y-67462478D02*
X156242632Y-67537716D01*
X156242632Y-67537716D02*
X156171203Y-67612954D01*
X156171203Y-67612954D02*
X156099774Y-67763430D01*
X156099774Y-67763430D02*
X156099774Y-67913906D01*
X156099774Y-67913906D02*
X156171203Y-68139620D01*
X156171203Y-68139620D02*
X157028346Y-69042478D01*
X157028346Y-69042478D02*
X156099774Y-69042478D01*
X155171203Y-67462478D02*
X155028346Y-67462478D01*
X155028346Y-67462478D02*
X154885489Y-67537716D01*
X154885489Y-67537716D02*
X154814061Y-67612954D01*
X154814061Y-67612954D02*
X154742632Y-67763430D01*
X154742632Y-67763430D02*
X154671203Y-68064382D01*
X154671203Y-68064382D02*
X154671203Y-68440573D01*
X154671203Y-68440573D02*
X154742632Y-68741525D01*
X154742632Y-68741525D02*
X154814061Y-68892001D01*
X154814061Y-68892001D02*
X154885489Y-68967240D01*
X154885489Y-68967240D02*
X155028346Y-69042478D01*
X155028346Y-69042478D02*
X155171203Y-69042478D01*
X155171203Y-69042478D02*
X155314061Y-68967240D01*
X155314061Y-68967240D02*
X155385489Y-68892001D01*
X155385489Y-68892001D02*
X155456918Y-68741525D01*
X155456918Y-68741525D02*
X155528346Y-68440573D01*
X155528346Y-68440573D02*
X155528346Y-68064382D01*
X155528346Y-68064382D02*
X155456918Y-67763430D01*
X155456918Y-67763430D02*
X155385489Y-67612954D01*
X155385489Y-67612954D02*
X155314061Y-67537716D01*
X155314061Y-67537716D02*
X155171203Y-67462478D01*
X159099774Y-70081428D02*
X159242632Y-70006190D01*
X159242632Y-70006190D02*
X159456917Y-70006190D01*
X159456917Y-70006190D02*
X159671203Y-70081428D01*
X159671203Y-70081428D02*
X159814060Y-70231904D01*
X159814060Y-70231904D02*
X159885489Y-70382380D01*
X159885489Y-70382380D02*
X159956917Y-70683332D01*
X159956917Y-70683332D02*
X159956917Y-70909047D01*
X159956917Y-70909047D02*
X159885489Y-71209999D01*
X159885489Y-71209999D02*
X159814060Y-71360475D01*
X159814060Y-71360475D02*
X159671203Y-71510952D01*
X159671203Y-71510952D02*
X159456917Y-71586190D01*
X159456917Y-71586190D02*
X159314060Y-71586190D01*
X159314060Y-71586190D02*
X159099774Y-71510952D01*
X159099774Y-71510952D02*
X159028346Y-71435713D01*
X159028346Y-71435713D02*
X159028346Y-70909047D01*
X159028346Y-70909047D02*
X159314060Y-70909047D01*
X158385489Y-71586190D02*
X158385489Y-70006190D01*
X158385489Y-70006190D02*
X157814060Y-70006190D01*
X157814060Y-70006190D02*
X157671203Y-70081428D01*
X157671203Y-70081428D02*
X157599774Y-70156666D01*
X157599774Y-70156666D02*
X157528346Y-70307142D01*
X157528346Y-70307142D02*
X157528346Y-70532856D01*
X157528346Y-70532856D02*
X157599774Y-70683332D01*
X157599774Y-70683332D02*
X157671203Y-70758571D01*
X157671203Y-70758571D02*
X157814060Y-70833809D01*
X157814060Y-70833809D02*
X158385489Y-70833809D01*
X156099774Y-71586190D02*
X156956917Y-71586190D01*
X156528346Y-71586190D02*
X156528346Y-70006190D01*
X156528346Y-70006190D02*
X156671203Y-70231904D01*
X156671203Y-70231904D02*
X156814060Y-70382380D01*
X156814060Y-70382380D02*
X156956917Y-70457618D01*
X155385489Y-71586190D02*
X155099775Y-71586190D01*
X155099775Y-71586190D02*
X154956918Y-71510952D01*
X154956918Y-71510952D02*
X154885489Y-71435713D01*
X154885489Y-71435713D02*
X154742632Y-71209999D01*
X154742632Y-71209999D02*
X154671203Y-70909047D01*
X154671203Y-70909047D02*
X154671203Y-70307142D01*
X154671203Y-70307142D02*
X154742632Y-70156666D01*
X154742632Y-70156666D02*
X154814061Y-70081428D01*
X154814061Y-70081428D02*
X154956918Y-70006190D01*
X154956918Y-70006190D02*
X155242632Y-70006190D01*
X155242632Y-70006190D02*
X155385489Y-70081428D01*
X155385489Y-70081428D02*
X155456918Y-70156666D01*
X155456918Y-70156666D02*
X155528346Y-70307142D01*
X155528346Y-70307142D02*
X155528346Y-70683332D01*
X155528346Y-70683332D02*
X155456918Y-70833809D01*
X155456918Y-70833809D02*
X155385489Y-70909047D01*
X155385489Y-70909047D02*
X155242632Y-70984285D01*
X155242632Y-70984285D02*
X154956918Y-70984285D01*
X154956918Y-70984285D02*
X154814061Y-70909047D01*
X154814061Y-70909047D02*
X154742632Y-70833809D01*
X154742632Y-70833809D02*
X154671203Y-70683332D01*
X159099774Y-72625140D02*
X159242632Y-72549902D01*
X159242632Y-72549902D02*
X159456917Y-72549902D01*
X159456917Y-72549902D02*
X159671203Y-72625140D01*
X159671203Y-72625140D02*
X159814060Y-72775616D01*
X159814060Y-72775616D02*
X159885489Y-72926092D01*
X159885489Y-72926092D02*
X159956917Y-73227044D01*
X159956917Y-73227044D02*
X159956917Y-73452759D01*
X159956917Y-73452759D02*
X159885489Y-73753711D01*
X159885489Y-73753711D02*
X159814060Y-73904187D01*
X159814060Y-73904187D02*
X159671203Y-74054664D01*
X159671203Y-74054664D02*
X159456917Y-74129902D01*
X159456917Y-74129902D02*
X159314060Y-74129902D01*
X159314060Y-74129902D02*
X159099774Y-74054664D01*
X159099774Y-74054664D02*
X159028346Y-73979425D01*
X159028346Y-73979425D02*
X159028346Y-73452759D01*
X159028346Y-73452759D02*
X159314060Y-73452759D01*
X158385489Y-74129902D02*
X158385489Y-72549902D01*
X158385489Y-72549902D02*
X157814060Y-72549902D01*
X157814060Y-72549902D02*
X157671203Y-72625140D01*
X157671203Y-72625140D02*
X157599774Y-72700378D01*
X157599774Y-72700378D02*
X157528346Y-72850854D01*
X157528346Y-72850854D02*
X157528346Y-73076568D01*
X157528346Y-73076568D02*
X157599774Y-73227044D01*
X157599774Y-73227044D02*
X157671203Y-73302283D01*
X157671203Y-73302283D02*
X157814060Y-73377521D01*
X157814060Y-73377521D02*
X158385489Y-73377521D01*
X156099774Y-74129902D02*
X156956917Y-74129902D01*
X156528346Y-74129902D02*
X156528346Y-72549902D01*
X156528346Y-72549902D02*
X156671203Y-72775616D01*
X156671203Y-72775616D02*
X156814060Y-72926092D01*
X156814060Y-72926092D02*
X156956917Y-73001330D01*
X155242632Y-73227044D02*
X155385489Y-73151806D01*
X155385489Y-73151806D02*
X155456918Y-73076568D01*
X155456918Y-73076568D02*
X155528346Y-72926092D01*
X155528346Y-72926092D02*
X155528346Y-72850854D01*
X155528346Y-72850854D02*
X155456918Y-72700378D01*
X155456918Y-72700378D02*
X155385489Y-72625140D01*
X155385489Y-72625140D02*
X155242632Y-72549902D01*
X155242632Y-72549902D02*
X154956918Y-72549902D01*
X154956918Y-72549902D02*
X154814061Y-72625140D01*
X154814061Y-72625140D02*
X154742632Y-72700378D01*
X154742632Y-72700378D02*
X154671203Y-72850854D01*
X154671203Y-72850854D02*
X154671203Y-72926092D01*
X154671203Y-72926092D02*
X154742632Y-73076568D01*
X154742632Y-73076568D02*
X154814061Y-73151806D01*
X154814061Y-73151806D02*
X154956918Y-73227044D01*
X154956918Y-73227044D02*
X155242632Y-73227044D01*
X155242632Y-73227044D02*
X155385489Y-73302283D01*
X155385489Y-73302283D02*
X155456918Y-73377521D01*
X155456918Y-73377521D02*
X155528346Y-73527997D01*
X155528346Y-73527997D02*
X155528346Y-73828949D01*
X155528346Y-73828949D02*
X155456918Y-73979425D01*
X155456918Y-73979425D02*
X155385489Y-74054664D01*
X155385489Y-74054664D02*
X155242632Y-74129902D01*
X155242632Y-74129902D02*
X154956918Y-74129902D01*
X154956918Y-74129902D02*
X154814061Y-74054664D01*
X154814061Y-74054664D02*
X154742632Y-73979425D01*
X154742632Y-73979425D02*
X154671203Y-73828949D01*
X154671203Y-73828949D02*
X154671203Y-73527997D01*
X154671203Y-73527997D02*
X154742632Y-73377521D01*
X154742632Y-73377521D02*
X154814061Y-73302283D01*
X154814061Y-73302283D02*
X154956918Y-73227044D01*
X159099774Y-75168852D02*
X159242632Y-75093614D01*
X159242632Y-75093614D02*
X159456917Y-75093614D01*
X159456917Y-75093614D02*
X159671203Y-75168852D01*
X159671203Y-75168852D02*
X159814060Y-75319328D01*
X159814060Y-75319328D02*
X159885489Y-75469804D01*
X159885489Y-75469804D02*
X159956917Y-75770756D01*
X159956917Y-75770756D02*
X159956917Y-75996471D01*
X159956917Y-75996471D02*
X159885489Y-76297423D01*
X159885489Y-76297423D02*
X159814060Y-76447899D01*
X159814060Y-76447899D02*
X159671203Y-76598376D01*
X159671203Y-76598376D02*
X159456917Y-76673614D01*
X159456917Y-76673614D02*
X159314060Y-76673614D01*
X159314060Y-76673614D02*
X159099774Y-76598376D01*
X159099774Y-76598376D02*
X159028346Y-76523137D01*
X159028346Y-76523137D02*
X159028346Y-75996471D01*
X159028346Y-75996471D02*
X159314060Y-75996471D01*
X158385489Y-76673614D02*
X158385489Y-75093614D01*
X158385489Y-75093614D02*
X157528346Y-76673614D01*
X157528346Y-76673614D02*
X157528346Y-75093614D01*
X156814060Y-76673614D02*
X156814060Y-75093614D01*
X156814060Y-75093614D02*
X156456917Y-75093614D01*
X156456917Y-75093614D02*
X156242631Y-75168852D01*
X156242631Y-75168852D02*
X156099774Y-75319328D01*
X156099774Y-75319328D02*
X156028345Y-75469804D01*
X156028345Y-75469804D02*
X155956917Y-75770756D01*
X155956917Y-75770756D02*
X155956917Y-75996471D01*
X155956917Y-75996471D02*
X156028345Y-76297423D01*
X156028345Y-76297423D02*
X156099774Y-76447899D01*
X156099774Y-76447899D02*
X156242631Y-76598376D01*
X156242631Y-76598376D02*
X156456917Y-76673614D01*
X156456917Y-76673614D02*
X156814060Y-76673614D01*
X159099774Y-77712564D02*
X159242632Y-77637326D01*
X159242632Y-77637326D02*
X159456917Y-77637326D01*
X159456917Y-77637326D02*
X159671203Y-77712564D01*
X159671203Y-77712564D02*
X159814060Y-77863040D01*
X159814060Y-77863040D02*
X159885489Y-78013516D01*
X159885489Y-78013516D02*
X159956917Y-78314468D01*
X159956917Y-78314468D02*
X159956917Y-78540183D01*
X159956917Y-78540183D02*
X159885489Y-78841135D01*
X159885489Y-78841135D02*
X159814060Y-78991611D01*
X159814060Y-78991611D02*
X159671203Y-79142088D01*
X159671203Y-79142088D02*
X159456917Y-79217326D01*
X159456917Y-79217326D02*
X159314060Y-79217326D01*
X159314060Y-79217326D02*
X159099774Y-79142088D01*
X159099774Y-79142088D02*
X159028346Y-79066849D01*
X159028346Y-79066849D02*
X159028346Y-78540183D01*
X159028346Y-78540183D02*
X159314060Y-78540183D01*
X158385489Y-79217326D02*
X158385489Y-77637326D01*
X158385489Y-77637326D02*
X157814060Y-77637326D01*
X157814060Y-77637326D02*
X157671203Y-77712564D01*
X157671203Y-77712564D02*
X157599774Y-77787802D01*
X157599774Y-77787802D02*
X157528346Y-77938278D01*
X157528346Y-77938278D02*
X157528346Y-78163992D01*
X157528346Y-78163992D02*
X157599774Y-78314468D01*
X157599774Y-78314468D02*
X157671203Y-78389707D01*
X157671203Y-78389707D02*
X157814060Y-78464945D01*
X157814060Y-78464945D02*
X158385489Y-78464945D01*
X156099774Y-79217326D02*
X156956917Y-79217326D01*
X156528346Y-79217326D02*
X156528346Y-77637326D01*
X156528346Y-77637326D02*
X156671203Y-77863040D01*
X156671203Y-77863040D02*
X156814060Y-78013516D01*
X156814060Y-78013516D02*
X156956917Y-78088754D01*
X155599775Y-77637326D02*
X154599775Y-77637326D01*
X154599775Y-77637326D02*
X155242632Y-79217326D01*
X159099774Y-80256276D02*
X159242632Y-80181038D01*
X159242632Y-80181038D02*
X159456917Y-80181038D01*
X159456917Y-80181038D02*
X159671203Y-80256276D01*
X159671203Y-80256276D02*
X159814060Y-80406752D01*
X159814060Y-80406752D02*
X159885489Y-80557228D01*
X159885489Y-80557228D02*
X159956917Y-80858180D01*
X159956917Y-80858180D02*
X159956917Y-81083895D01*
X159956917Y-81083895D02*
X159885489Y-81384847D01*
X159885489Y-81384847D02*
X159814060Y-81535323D01*
X159814060Y-81535323D02*
X159671203Y-81685800D01*
X159671203Y-81685800D02*
X159456917Y-81761038D01*
X159456917Y-81761038D02*
X159314060Y-81761038D01*
X159314060Y-81761038D02*
X159099774Y-81685800D01*
X159099774Y-81685800D02*
X159028346Y-81610561D01*
X159028346Y-81610561D02*
X159028346Y-81083895D01*
X159028346Y-81083895D02*
X159314060Y-81083895D01*
X158385489Y-81761038D02*
X158385489Y-80181038D01*
X158385489Y-80181038D02*
X157814060Y-80181038D01*
X157814060Y-80181038D02*
X157671203Y-80256276D01*
X157671203Y-80256276D02*
X157599774Y-80331514D01*
X157599774Y-80331514D02*
X157528346Y-80481990D01*
X157528346Y-80481990D02*
X157528346Y-80707704D01*
X157528346Y-80707704D02*
X157599774Y-80858180D01*
X157599774Y-80858180D02*
X157671203Y-80933419D01*
X157671203Y-80933419D02*
X157814060Y-81008657D01*
X157814060Y-81008657D02*
X158385489Y-81008657D01*
X156099774Y-81761038D02*
X156956917Y-81761038D01*
X156528346Y-81761038D02*
X156528346Y-80181038D01*
X156528346Y-80181038D02*
X156671203Y-80406752D01*
X156671203Y-80406752D02*
X156814060Y-80557228D01*
X156814060Y-80557228D02*
X156956917Y-80632466D01*
X154814061Y-80181038D02*
X155099775Y-80181038D01*
X155099775Y-80181038D02*
X155242632Y-80256276D01*
X155242632Y-80256276D02*
X155314061Y-80331514D01*
X155314061Y-80331514D02*
X155456918Y-80557228D01*
X155456918Y-80557228D02*
X155528346Y-80858180D01*
X155528346Y-80858180D02*
X155528346Y-81460085D01*
X155528346Y-81460085D02*
X155456918Y-81610561D01*
X155456918Y-81610561D02*
X155385489Y-81685800D01*
X155385489Y-81685800D02*
X155242632Y-81761038D01*
X155242632Y-81761038D02*
X154956918Y-81761038D01*
X154956918Y-81761038D02*
X154814061Y-81685800D01*
X154814061Y-81685800D02*
X154742632Y-81610561D01*
X154742632Y-81610561D02*
X154671203Y-81460085D01*
X154671203Y-81460085D02*
X154671203Y-81083895D01*
X154671203Y-81083895D02*
X154742632Y-80933419D01*
X154742632Y-80933419D02*
X154814061Y-80858180D01*
X154814061Y-80858180D02*
X154956918Y-80782942D01*
X154956918Y-80782942D02*
X155242632Y-80782942D01*
X155242632Y-80782942D02*
X155385489Y-80858180D01*
X155385489Y-80858180D02*
X155456918Y-80933419D01*
X155456918Y-80933419D02*
X155528346Y-81083895D01*
D13*
G36*
X173768595Y-91871125D02*
G01*
X174566536Y-94870000D01*
X174948838Y-94870000D01*
X175532639Y-92904455D01*
X175599867Y-92660823D01*
X175654455Y-92444485D01*
X175683764Y-92312227D01*
X175727911Y-92545418D01*
X175826646Y-92916912D01*
X176393595Y-94870000D01*
X176775713Y-94870000D01*
X177569624Y-91871125D01*
X177174867Y-91871125D01*
X176708668Y-93702397D01*
X176622573Y-94076271D01*
X176565786Y-94416441D01*
X176502772Y-94059419D01*
X176406235Y-93681331D01*
X175877021Y-91871125D01*
X175486477Y-91871125D01*
X174936198Y-93693970D01*
X174835448Y-94078286D01*
X174772433Y-94416441D01*
X174713632Y-94078286D01*
X174625338Y-93698183D01*
X174163353Y-91871125D01*
X173768595Y-91871125D01*
G37*
G36*
X172803765Y-92595294D02*
G01*
X173008572Y-92637742D01*
X173201565Y-92702165D01*
X173357168Y-92774213D01*
X173243778Y-93051367D01*
X172945558Y-92931749D01*
X172782627Y-92892472D01*
X172609419Y-92879176D01*
X172464874Y-92892774D01*
X172352449Y-92930078D01*
X172265036Y-92988353D01*
X172202398Y-93070342D01*
X172159744Y-93195069D01*
X172143220Y-93379080D01*
X172143220Y-93513353D01*
X172525521Y-93525992D01*
X172809449Y-93548192D01*
X173033080Y-93591646D01*
X173206977Y-93651785D01*
X173340315Y-93725478D01*
X173456649Y-93827067D01*
X173537903Y-93944926D01*
X173587495Y-94082204D01*
X173604830Y-94244249D01*
X173590404Y-94415465D01*
X173550499Y-94552654D01*
X173488121Y-94662654D01*
X173403330Y-94750382D01*
X173261115Y-94838350D01*
X173093790Y-94892780D01*
X172895000Y-94911948D01*
X172705482Y-94900533D01*
X172559306Y-94869805D01*
X172447852Y-94823838D01*
X172294680Y-94715728D01*
X172139007Y-94550713D01*
X172122337Y-94550713D01*
X172050896Y-94870000D01*
X171782168Y-94870000D01*
X171782168Y-93971125D01*
X172147433Y-93971125D01*
X172160945Y-94134187D01*
X172198381Y-94265518D01*
X172256942Y-94371392D01*
X172336477Y-94456374D01*
X172470159Y-94542326D01*
X172626407Y-94595184D01*
X172811102Y-94613728D01*
X172928623Y-94603118D01*
X173026036Y-94573264D01*
X173107308Y-94525617D01*
X173169420Y-94458702D01*
X173208442Y-94368851D01*
X173222712Y-94248463D01*
X173203985Y-94113808D01*
X173150549Y-94005304D01*
X173060963Y-93916536D01*
X172945255Y-93856746D01*
X172760226Y-93809345D01*
X172479359Y-93782264D01*
X172147433Y-93769624D01*
X172147433Y-93971125D01*
X171782168Y-93971125D01*
X171782168Y-93336948D01*
X171796798Y-93137917D01*
X171836807Y-92980900D01*
X171898192Y-92857588D01*
X171979638Y-92761573D01*
X172082182Y-92687788D01*
X172213222Y-92631438D01*
X172379316Y-92594480D01*
X172588536Y-92580956D01*
X172803765Y-92595294D01*
G37*
G36*
X170717880Y-94870000D02*
G01*
X171087541Y-94870000D01*
X171087541Y-91678051D01*
X170717880Y-91678051D01*
X170717880Y-94870000D01*
G37*
G36*
X169636372Y-94870000D02*
G01*
X170006034Y-94870000D01*
X170006034Y-91678051D01*
X169636372Y-91678051D01*
X169636372Y-94870000D01*
G37*
G36*
X168287226Y-92595294D02*
G01*
X168492034Y-92637742D01*
X168685026Y-92702165D01*
X168840629Y-92774213D01*
X168727240Y-93051367D01*
X168429019Y-92931749D01*
X168266088Y-92892472D01*
X168092880Y-92879176D01*
X167948335Y-92892774D01*
X167835910Y-92930078D01*
X167748497Y-92988353D01*
X167685859Y-93070342D01*
X167643206Y-93195069D01*
X167626681Y-93379080D01*
X167626681Y-93513353D01*
X168008982Y-93525992D01*
X168292911Y-93548192D01*
X168516541Y-93591646D01*
X168690438Y-93651785D01*
X168823777Y-93725478D01*
X168940111Y-93827067D01*
X169021364Y-93944926D01*
X169070956Y-94082204D01*
X169088292Y-94244249D01*
X169073866Y-94415465D01*
X169033961Y-94552654D01*
X168971582Y-94662654D01*
X168886791Y-94750382D01*
X168744577Y-94838350D01*
X168577251Y-94892780D01*
X168378461Y-94911948D01*
X168188943Y-94900533D01*
X168042767Y-94869805D01*
X167931313Y-94823838D01*
X167778142Y-94715728D01*
X167622468Y-94550713D01*
X167605799Y-94550713D01*
X167534357Y-94870000D01*
X167265629Y-94870000D01*
X167265629Y-93971125D01*
X167630894Y-93971125D01*
X167644406Y-94134187D01*
X167681843Y-94265518D01*
X167740404Y-94371392D01*
X167819938Y-94456374D01*
X167953621Y-94542326D01*
X168109868Y-94595184D01*
X168294563Y-94613728D01*
X168412084Y-94603118D01*
X168509497Y-94573264D01*
X168590769Y-94525617D01*
X168652881Y-94458702D01*
X168691903Y-94368851D01*
X168706174Y-94248463D01*
X168687446Y-94113808D01*
X168634010Y-94005304D01*
X168544424Y-93916536D01*
X168428717Y-93856746D01*
X168243687Y-93809345D01*
X167962821Y-93782264D01*
X167630894Y-93769624D01*
X167630894Y-93971125D01*
X167265629Y-93971125D01*
X167265629Y-93336948D01*
X167280259Y-93137917D01*
X167320269Y-92980900D01*
X167381653Y-92857588D01*
X167463100Y-92761573D01*
X167565643Y-92687788D01*
X167696683Y-92631438D01*
X167862778Y-92594480D01*
X168071997Y-92580956D01*
X168287226Y-92595294D01*
G37*
G36*
X161986320Y-91871125D02*
G01*
X162784262Y-94870000D01*
X163166563Y-94870000D01*
X163750364Y-92904455D01*
X163817592Y-92660823D01*
X163872180Y-92444485D01*
X163901489Y-92312227D01*
X163945636Y-92545418D01*
X164044371Y-92916912D01*
X164611320Y-94870000D01*
X164993438Y-94870000D01*
X165787349Y-91871125D01*
X165392592Y-91871125D01*
X164926393Y-93702397D01*
X164840298Y-94076271D01*
X164783511Y-94416441D01*
X164720497Y-94059419D01*
X164623960Y-93681331D01*
X164094747Y-91871125D01*
X163704202Y-91871125D01*
X163153923Y-93693970D01*
X163053173Y-94078286D01*
X162990158Y-94416441D01*
X162931357Y-94078286D01*
X162843063Y-93698183D01*
X162381078Y-91871125D01*
X161986320Y-91871125D01*
G37*
G36*
X161021490Y-92595294D02*
G01*
X161226297Y-92637742D01*
X161419290Y-92702165D01*
X161574893Y-92774213D01*
X161461503Y-93051367D01*
X161163283Y-92931749D01*
X161000352Y-92892472D01*
X160827144Y-92879176D01*
X160682599Y-92892774D01*
X160570174Y-92930078D01*
X160482761Y-92988353D01*
X160420123Y-93070342D01*
X160377469Y-93195069D01*
X160360945Y-93379080D01*
X160360945Y-93513353D01*
X160743246Y-93525992D01*
X161027174Y-93548192D01*
X161250805Y-93591646D01*
X161424702Y-93651785D01*
X161558040Y-93725478D01*
X161674375Y-93827067D01*
X161755628Y-93944926D01*
X161805220Y-94082204D01*
X161822555Y-94244249D01*
X161808129Y-94415465D01*
X161768225Y-94552654D01*
X161705846Y-94662654D01*
X161621055Y-94750382D01*
X161478840Y-94838350D01*
X161311515Y-94892780D01*
X161112725Y-94911948D01*
X160923207Y-94900533D01*
X160777031Y-94869805D01*
X160665577Y-94823838D01*
X160512405Y-94715728D01*
X160356732Y-94550713D01*
X160340062Y-94550713D01*
X160268621Y-94870000D01*
X159999893Y-94870000D01*
X159999893Y-93971125D01*
X160365158Y-93971125D01*
X160378670Y-94134187D01*
X160416106Y-94265518D01*
X160474667Y-94371392D01*
X160554202Y-94456374D01*
X160687884Y-94542326D01*
X160844132Y-94595184D01*
X161028827Y-94613728D01*
X161146348Y-94603118D01*
X161243761Y-94573264D01*
X161325033Y-94525617D01*
X161387145Y-94458702D01*
X161426167Y-94368851D01*
X161440437Y-94248463D01*
X161421710Y-94113808D01*
X161368274Y-94005304D01*
X161278688Y-93916536D01*
X161162980Y-93856746D01*
X160977951Y-93809345D01*
X160697084Y-93782264D01*
X160365158Y-93769624D01*
X160365158Y-93971125D01*
X159999893Y-93971125D01*
X159999893Y-93336948D01*
X160014523Y-93137917D01*
X160054532Y-92980900D01*
X160115917Y-92857588D01*
X160197363Y-92761573D01*
X160299907Y-92687788D01*
X160430947Y-92631438D01*
X160597042Y-92594480D01*
X160806261Y-92580956D01*
X161021490Y-92595294D01*
G37*
G36*
X158935605Y-94870000D02*
G01*
X159305266Y-94870000D01*
X159305266Y-91678051D01*
X158935605Y-91678051D01*
X158935605Y-94870000D01*
G37*
G36*
X157854098Y-94870000D02*
G01*
X158223759Y-94870000D01*
X158223759Y-91678051D01*
X157854098Y-91678051D01*
X157854098Y-94870000D01*
G37*
G36*
X156504951Y-92595294D02*
G01*
X156709759Y-92637742D01*
X156902751Y-92702165D01*
X157058354Y-92774213D01*
X156944965Y-93051367D01*
X156646744Y-92931749D01*
X156483813Y-92892472D01*
X156310605Y-92879176D01*
X156166060Y-92892774D01*
X156053635Y-92930078D01*
X155966222Y-92988353D01*
X155903584Y-93070342D01*
X155860931Y-93195069D01*
X155844406Y-93379080D01*
X155844406Y-93513353D01*
X156226707Y-93525992D01*
X156510636Y-93548192D01*
X156734266Y-93591646D01*
X156908163Y-93651785D01*
X157041502Y-93725478D01*
X157157836Y-93827067D01*
X157239089Y-93944926D01*
X157288681Y-94082204D01*
X157306017Y-94244249D01*
X157291591Y-94415465D01*
X157251686Y-94552654D01*
X157189308Y-94662654D01*
X157104516Y-94750382D01*
X156962302Y-94838350D01*
X156794976Y-94892780D01*
X156596186Y-94911948D01*
X156406668Y-94900533D01*
X156260492Y-94869805D01*
X156149038Y-94823838D01*
X155995867Y-94715728D01*
X155840193Y-94550713D01*
X155823524Y-94550713D01*
X155752083Y-94870000D01*
X155483354Y-94870000D01*
X155483354Y-93971125D01*
X155848620Y-93971125D01*
X155862131Y-94134187D01*
X155899568Y-94265518D01*
X155958129Y-94371392D01*
X156037663Y-94456374D01*
X156171346Y-94542326D01*
X156327593Y-94595184D01*
X156512288Y-94613728D01*
X156629809Y-94603118D01*
X156727222Y-94573264D01*
X156808494Y-94525617D01*
X156870606Y-94458702D01*
X156909628Y-94368851D01*
X156923899Y-94248463D01*
X156905171Y-94113808D01*
X156851735Y-94005304D01*
X156762149Y-93916536D01*
X156646442Y-93856746D01*
X156461412Y-93809345D01*
X156180546Y-93782264D01*
X155848620Y-93769624D01*
X155848620Y-93971125D01*
X155483354Y-93971125D01*
X155483354Y-93336948D01*
X155497984Y-93137917D01*
X155537994Y-92980900D01*
X155599378Y-92857588D01*
X155680825Y-92761573D01*
X155783368Y-92687788D01*
X155914408Y-92631438D01*
X156080503Y-92594480D01*
X156289722Y-92580956D01*
X156504951Y-92595294D01*
G37*
G36*
X151367435Y-93811573D02*
G01*
X151381983Y-94015765D01*
X151424307Y-94201693D01*
X151493464Y-94372294D01*
X151591477Y-94526316D01*
X151718489Y-94657279D01*
X151877780Y-94767051D01*
X152055751Y-94844381D01*
X152272122Y-94894072D01*
X152535038Y-94911948D01*
X152762288Y-94897953D01*
X152956375Y-94858474D01*
X153122313Y-94796275D01*
X153264307Y-94712679D01*
X153385553Y-94607500D01*
X153510631Y-94447214D01*
X153601161Y-94263021D01*
X153657557Y-94050350D01*
X153677362Y-93803147D01*
X153677362Y-91871125D01*
X153299457Y-91871125D01*
X153299457Y-93815786D01*
X153285719Y-93998128D01*
X153247211Y-94150033D01*
X153186528Y-94276904D01*
X153104185Y-94382918D01*
X153001018Y-94466726D01*
X152872275Y-94529371D01*
X152712342Y-94569784D01*
X152513972Y-94584419D01*
X152309476Y-94568498D01*
X152148472Y-94524915D01*
X152022160Y-94457789D01*
X151923942Y-94368080D01*
X151845923Y-94255549D01*
X151789144Y-94127322D01*
X151753725Y-93980539D01*
X151741310Y-93811573D01*
X151741310Y-91871125D01*
X151367435Y-91871125D01*
X151367435Y-93811573D01*
G37*
G36*
X149546238Y-92576742D02*
G01*
X149343165Y-92590953D01*
X149178403Y-92630245D01*
X149044975Y-92691102D01*
X148937341Y-92772198D01*
X148853133Y-92875408D01*
X148789042Y-93009762D01*
X148746928Y-93182815D01*
X148731444Y-93404176D01*
X148731444Y-94870000D01*
X149096709Y-94870000D01*
X149096709Y-93429455D01*
X149113213Y-93251114D01*
X149157649Y-93118170D01*
X149225742Y-93019875D01*
X149318096Y-92949254D01*
X149440057Y-92904144D01*
X149600826Y-92887602D01*
X149788001Y-92903325D01*
X149930328Y-92945839D01*
X150037777Y-93010791D01*
X150117400Y-93097712D01*
X150191892Y-93244904D01*
X150241564Y-93441863D01*
X150260099Y-93702397D01*
X150260099Y-94870000D01*
X150629760Y-94870000D01*
X150629760Y-92618874D01*
X150331540Y-92618874D01*
X150276952Y-92925338D01*
X150256069Y-92925338D01*
X150173844Y-92817751D01*
X150073740Y-92730756D01*
X149953635Y-92662838D01*
X149755456Y-92598329D01*
X149546238Y-92576742D01*
G37*
G36*
X147846857Y-91774588D02*
G01*
X147767948Y-91788681D01*
X147697930Y-91831374D01*
X147650557Y-91900207D01*
X147632718Y-92009794D01*
X147650310Y-92116094D01*
X147697930Y-92186198D01*
X147768096Y-92230464D01*
X147846857Y-92245000D01*
X147932696Y-92230031D01*
X148002379Y-92186198D01*
X148048315Y-92116306D01*
X148065394Y-92009794D01*
X148048072Y-91899985D01*
X148002379Y-91831374D01*
X147932853Y-91789101D01*
X147846857Y-91774588D01*
G37*
G36*
X147666240Y-92618874D02*
G01*
X147666240Y-94870000D01*
X148035901Y-94870000D01*
X148035901Y-92618874D01*
X147666240Y-92618874D01*
G37*
G36*
X146458886Y-94870000D02*
G01*
X147311416Y-92618874D01*
X146916659Y-92618874D01*
X146437821Y-93946029D01*
X146366563Y-94151742D01*
X146299335Y-94368080D01*
X146257203Y-94542470D01*
X146240350Y-94542470D01*
X146192173Y-94366065D01*
X146120732Y-94147529D01*
X146051489Y-93946029D01*
X145572651Y-92618874D01*
X145177894Y-92618874D01*
X146034637Y-94870000D01*
X146458886Y-94870000D01*
G37*
G36*
X144148852Y-92593316D02*
G01*
X144321849Y-92641256D01*
X144477222Y-92719624D01*
X144614155Y-92826768D01*
X144730018Y-92961350D01*
X144825818Y-93127021D01*
X144892497Y-93307458D01*
X144934715Y-93517133D01*
X144949649Y-93761198D01*
X144933116Y-94007457D01*
X144886569Y-94216143D01*
X144813178Y-94393360D01*
X144708746Y-94552967D01*
X144582003Y-94681404D01*
X144431060Y-94781889D01*
X144262736Y-94852948D01*
X144075618Y-94896767D01*
X143866127Y-94911948D01*
X143642918Y-94902301D01*
X143466973Y-94876228D01*
X143299857Y-94831286D01*
X143126803Y-94765036D01*
X143126803Y-94441536D01*
X143303154Y-94509122D01*
X143469171Y-94557124D01*
X143641412Y-94586468D01*
X143849274Y-94597058D01*
X144015523Y-94583289D01*
X144155033Y-94544457D01*
X144272736Y-94482630D01*
X144372259Y-94397573D01*
X144450438Y-94293358D01*
X144510106Y-94165127D01*
X144550130Y-94007982D01*
X144567531Y-93815786D01*
X143026053Y-93815786D01*
X143026053Y-93593220D01*
X143030725Y-93521779D01*
X143412384Y-93521779D01*
X144559105Y-93521779D01*
X144523165Y-93325859D01*
X144461373Y-93171033D01*
X144376289Y-93049352D01*
X144264054Y-92956210D01*
X144127233Y-92899302D01*
X143958450Y-92879176D01*
X143819607Y-92891783D01*
X143708204Y-92926781D01*
X143618568Y-92981925D01*
X143546840Y-93057779D01*
X143476407Y-93182901D01*
X143430693Y-93335408D01*
X143412384Y-93521779D01*
X143030725Y-93521779D01*
X143039262Y-93391245D01*
X143077012Y-93213996D01*
X143137428Y-93057779D01*
X143223315Y-92915194D01*
X143329209Y-92797738D01*
X143456531Y-92702772D01*
X143600067Y-92634257D01*
X143764515Y-92591662D01*
X143954237Y-92576742D01*
X144148852Y-92593316D01*
G37*
G36*
X141405441Y-92576742D02*
G01*
X141268970Y-92583154D01*
X141140926Y-92602021D01*
X141187088Y-92942191D01*
X141306889Y-92921308D01*
X141430720Y-92912882D01*
X141542861Y-92923321D01*
X141650112Y-92954528D01*
X141754220Y-93007404D01*
X141847306Y-93077895D01*
X141927554Y-93165409D01*
X141995654Y-93271919D01*
X142044704Y-93388394D01*
X142075161Y-93519779D01*
X142085779Y-93668874D01*
X142085779Y-94870000D01*
X142455441Y-94870000D01*
X142455441Y-92618874D01*
X142153007Y-92618874D01*
X142111058Y-93030484D01*
X142094206Y-93030484D01*
X141969574Y-92858586D01*
X141812838Y-92711198D01*
X141692118Y-92637001D01*
X141557588Y-92592177D01*
X141405441Y-92576742D01*
G37*
G36*
X139257447Y-94248463D02*
G01*
X139273772Y-94407339D01*
X139320033Y-94539486D01*
X139394963Y-94650546D01*
X139501079Y-94743970D01*
X139625142Y-94813770D01*
X139772735Y-94866275D01*
X139948123Y-94899927D01*
X140156322Y-94911948D01*
X140383288Y-94901751D01*
X140561704Y-94874213D01*
X140725052Y-94827948D01*
X140861939Y-94769249D01*
X140861939Y-94433110D01*
X140719383Y-94495412D01*
X140536425Y-94557124D01*
X140343552Y-94599608D01*
X140147896Y-94613728D01*
X139960941Y-94601363D01*
X139829829Y-94569378D01*
X139740498Y-94523419D01*
X139669747Y-94455483D01*
X139628586Y-94376332D01*
X139614469Y-94281985D01*
X139626134Y-94202000D01*
X139660814Y-94130860D01*
X139719691Y-94068285D01*
X139826594Y-93996404D01*
X139960318Y-93930197D01*
X140168961Y-93845279D01*
X140378420Y-93758173D01*
X140542836Y-93677301D01*
X140683372Y-93582288D01*
X140782255Y-93475617D01*
X140827420Y-93393317D01*
X140855959Y-93293867D01*
X140866153Y-93173183D01*
X140851014Y-93036062D01*
X140807592Y-92919579D01*
X140736106Y-92819174D01*
X140633145Y-92732264D01*
X140470572Y-92649227D01*
X140269826Y-92595969D01*
X140021866Y-92576742D01*
X139820144Y-92587023D01*
X139637733Y-92616676D01*
X139463538Y-92664942D01*
X139303609Y-92728051D01*
X139429638Y-93022058D01*
X139728042Y-92921308D01*
X139885156Y-92889753D01*
X140047145Y-92879176D01*
X140197492Y-92888851D01*
X140310317Y-92914619D01*
X140393726Y-92952815D01*
X140461759Y-93009426D01*
X140500310Y-93074742D01*
X140513344Y-93152117D01*
X140499404Y-93238643D01*
X140458756Y-93309837D01*
X140391948Y-93369556D01*
X140276123Y-93435867D01*
X139933756Y-93580580D01*
X139728533Y-93664517D01*
X139568307Y-93744528D01*
X139432356Y-93839743D01*
X139337315Y-93948227D01*
X139294210Y-94031460D01*
X139267081Y-94130360D01*
X139257447Y-94248463D01*
G37*
G36*
X138523620Y-91774588D02*
G01*
X138444710Y-91788681D01*
X138374692Y-91831374D01*
X138327319Y-91900207D01*
X138309480Y-92009794D01*
X138327072Y-92116094D01*
X138374692Y-92186198D01*
X138444858Y-92230464D01*
X138523620Y-92245000D01*
X138609458Y-92230031D01*
X138679141Y-92186198D01*
X138725077Y-92116306D01*
X138742156Y-92009794D01*
X138724834Y-91899985D01*
X138679141Y-91831374D01*
X138609615Y-91789101D01*
X138523620Y-91774588D01*
G37*
G36*
X138343002Y-92618874D02*
G01*
X138343002Y-94870000D01*
X138712663Y-94870000D01*
X138712663Y-92618874D01*
X138343002Y-92618874D01*
G37*
G36*
X136879377Y-94609515D02*
G01*
X136707185Y-94594860D01*
X136564303Y-94563353D01*
X136564303Y-94844720D01*
X136630016Y-94869879D01*
X136732465Y-94893080D01*
X136942391Y-94911948D01*
X137113787Y-94896403D01*
X137267906Y-94851132D01*
X137359959Y-94801193D01*
X137440104Y-94731323D01*
X137509523Y-94639007D01*
X137557762Y-94533970D01*
X137589902Y-94395459D01*
X137601847Y-94214757D01*
X137601847Y-92904455D01*
X137920950Y-92904455D01*
X137920950Y-92728051D01*
X137597634Y-92580956D01*
X137450539Y-92102117D01*
X137232185Y-92102117D01*
X137232185Y-92618874D01*
X136581156Y-92618874D01*
X136581156Y-92904455D01*
X137232185Y-92904455D01*
X137232185Y-94206331D01*
X137219515Y-94340097D01*
X137185511Y-94438801D01*
X137133450Y-94510963D01*
X137062335Y-94565154D01*
X136978849Y-94598027D01*
X136879377Y-94609515D01*
G37*
G36*
X136468682Y-92618874D02*
G01*
X136073925Y-92618874D01*
X135586660Y-93899867D01*
X135473271Y-94221168D01*
X135397616Y-94512978D01*
X135380947Y-94512978D01*
X135301079Y-94238021D01*
X135187690Y-93895654D01*
X134729918Y-92618874D01*
X134330947Y-92618874D01*
X135301079Y-95180860D01*
X135391304Y-95387138D01*
X135493129Y-95554710D01*
X135605711Y-95689007D01*
X135704537Y-95769533D01*
X135820740Y-95828177D01*
X135957737Y-95865009D01*
X136120087Y-95878051D01*
X136296491Y-95867426D01*
X136426734Y-95844345D01*
X136426734Y-95550338D01*
X136315542Y-95567191D01*
X136178888Y-95575617D01*
X136054254Y-95562611D01*
X135951527Y-95525865D01*
X135866013Y-95466441D01*
X135761429Y-95342531D01*
X135679167Y-95176646D01*
X135561564Y-94878426D01*
X136468682Y-92618874D01*
G37*
D12*
X150649774Y-31915748D02*
X150792632Y-31840510D01*
X150792632Y-31840510D02*
X151006917Y-31840510D01*
X151006917Y-31840510D02*
X151221203Y-31915748D01*
X151221203Y-31915748D02*
X151364060Y-32066224D01*
X151364060Y-32066224D02*
X151435489Y-32216700D01*
X151435489Y-32216700D02*
X151506917Y-32517652D01*
X151506917Y-32517652D02*
X151506917Y-32743367D01*
X151506917Y-32743367D02*
X151435489Y-33044319D01*
X151435489Y-33044319D02*
X151364060Y-33194795D01*
X151364060Y-33194795D02*
X151221203Y-33345272D01*
X151221203Y-33345272D02*
X151006917Y-33420510D01*
X151006917Y-33420510D02*
X150864060Y-33420510D01*
X150864060Y-33420510D02*
X150649774Y-33345272D01*
X150649774Y-33345272D02*
X150578346Y-33270033D01*
X150578346Y-33270033D02*
X150578346Y-32743367D01*
X150578346Y-32743367D02*
X150864060Y-32743367D01*
X149935489Y-33420510D02*
X149935489Y-31840510D01*
X149935489Y-31840510D02*
X149364060Y-31840510D01*
X149364060Y-31840510D02*
X149221203Y-31915748D01*
X149221203Y-31915748D02*
X149149774Y-31990986D01*
X149149774Y-31990986D02*
X149078346Y-32141462D01*
X149078346Y-32141462D02*
X149078346Y-32367176D01*
X149078346Y-32367176D02*
X149149774Y-32517652D01*
X149149774Y-32517652D02*
X149221203Y-32592891D01*
X149221203Y-32592891D02*
X149364060Y-32668129D01*
X149364060Y-32668129D02*
X149935489Y-32668129D01*
X148149774Y-31840510D02*
X148006917Y-31840510D01*
X148006917Y-31840510D02*
X147864060Y-31915748D01*
X147864060Y-31915748D02*
X147792632Y-31990986D01*
X147792632Y-31990986D02*
X147721203Y-32141462D01*
X147721203Y-32141462D02*
X147649774Y-32442414D01*
X147649774Y-32442414D02*
X147649774Y-32818605D01*
X147649774Y-32818605D02*
X147721203Y-33119557D01*
X147721203Y-33119557D02*
X147792632Y-33270033D01*
X147792632Y-33270033D02*
X147864060Y-33345272D01*
X147864060Y-33345272D02*
X148006917Y-33420510D01*
X148006917Y-33420510D02*
X148149774Y-33420510D01*
X148149774Y-33420510D02*
X148292632Y-33345272D01*
X148292632Y-33345272D02*
X148364060Y-33270033D01*
X148364060Y-33270033D02*
X148435489Y-33119557D01*
X148435489Y-33119557D02*
X148506917Y-32818605D01*
X148506917Y-32818605D02*
X148506917Y-32442414D01*
X148506917Y-32442414D02*
X148435489Y-32141462D01*
X148435489Y-32141462D02*
X148364060Y-31990986D01*
X148364060Y-31990986D02*
X148292632Y-31915748D01*
X148292632Y-31915748D02*
X148149774Y-31840510D01*
X150649774Y-34459460D02*
X150792632Y-34384222D01*
X150792632Y-34384222D02*
X151006917Y-34384222D01*
X151006917Y-34384222D02*
X151221203Y-34459460D01*
X151221203Y-34459460D02*
X151364060Y-34609936D01*
X151364060Y-34609936D02*
X151435489Y-34760412D01*
X151435489Y-34760412D02*
X151506917Y-35061364D01*
X151506917Y-35061364D02*
X151506917Y-35287079D01*
X151506917Y-35287079D02*
X151435489Y-35588031D01*
X151435489Y-35588031D02*
X151364060Y-35738507D01*
X151364060Y-35738507D02*
X151221203Y-35888984D01*
X151221203Y-35888984D02*
X151006917Y-35964222D01*
X151006917Y-35964222D02*
X150864060Y-35964222D01*
X150864060Y-35964222D02*
X150649774Y-35888984D01*
X150649774Y-35888984D02*
X150578346Y-35813745D01*
X150578346Y-35813745D02*
X150578346Y-35287079D01*
X150578346Y-35287079D02*
X150864060Y-35287079D01*
X149935489Y-35964222D02*
X149935489Y-34384222D01*
X149935489Y-34384222D02*
X149364060Y-34384222D01*
X149364060Y-34384222D02*
X149221203Y-34459460D01*
X149221203Y-34459460D02*
X149149774Y-34534698D01*
X149149774Y-34534698D02*
X149078346Y-34685174D01*
X149078346Y-34685174D02*
X149078346Y-34910888D01*
X149078346Y-34910888D02*
X149149774Y-35061364D01*
X149149774Y-35061364D02*
X149221203Y-35136603D01*
X149221203Y-35136603D02*
X149364060Y-35211841D01*
X149364060Y-35211841D02*
X149935489Y-35211841D01*
X147649774Y-35964222D02*
X148506917Y-35964222D01*
X148078346Y-35964222D02*
X148078346Y-34384222D01*
X148078346Y-34384222D02*
X148221203Y-34609936D01*
X148221203Y-34609936D02*
X148364060Y-34760412D01*
X148364060Y-34760412D02*
X148506917Y-34835650D01*
X150649774Y-37003172D02*
X150792632Y-36927934D01*
X150792632Y-36927934D02*
X151006917Y-36927934D01*
X151006917Y-36927934D02*
X151221203Y-37003172D01*
X151221203Y-37003172D02*
X151364060Y-37153648D01*
X151364060Y-37153648D02*
X151435489Y-37304124D01*
X151435489Y-37304124D02*
X151506917Y-37605076D01*
X151506917Y-37605076D02*
X151506917Y-37830791D01*
X151506917Y-37830791D02*
X151435489Y-38131743D01*
X151435489Y-38131743D02*
X151364060Y-38282219D01*
X151364060Y-38282219D02*
X151221203Y-38432696D01*
X151221203Y-38432696D02*
X151006917Y-38507934D01*
X151006917Y-38507934D02*
X150864060Y-38507934D01*
X150864060Y-38507934D02*
X150649774Y-38432696D01*
X150649774Y-38432696D02*
X150578346Y-38357457D01*
X150578346Y-38357457D02*
X150578346Y-37830791D01*
X150578346Y-37830791D02*
X150864060Y-37830791D01*
X149935489Y-38507934D02*
X149935489Y-36927934D01*
X149935489Y-36927934D02*
X149078346Y-38507934D01*
X149078346Y-38507934D02*
X149078346Y-36927934D01*
X148364060Y-38507934D02*
X148364060Y-36927934D01*
X148364060Y-36927934D02*
X148006917Y-36927934D01*
X148006917Y-36927934D02*
X147792631Y-37003172D01*
X147792631Y-37003172D02*
X147649774Y-37153648D01*
X147649774Y-37153648D02*
X147578345Y-37304124D01*
X147578345Y-37304124D02*
X147506917Y-37605076D01*
X147506917Y-37605076D02*
X147506917Y-37830791D01*
X147506917Y-37830791D02*
X147578345Y-38131743D01*
X147578345Y-38131743D02*
X147649774Y-38282219D01*
X147649774Y-38282219D02*
X147792631Y-38432696D01*
X147792631Y-38432696D02*
X148006917Y-38507934D01*
X148006917Y-38507934D02*
X148364060Y-38507934D01*
X150649774Y-39546884D02*
X150792632Y-39471646D01*
X150792632Y-39471646D02*
X151006917Y-39471646D01*
X151006917Y-39471646D02*
X151221203Y-39546884D01*
X151221203Y-39546884D02*
X151364060Y-39697360D01*
X151364060Y-39697360D02*
X151435489Y-39847836D01*
X151435489Y-39847836D02*
X151506917Y-40148788D01*
X151506917Y-40148788D02*
X151506917Y-40374503D01*
X151506917Y-40374503D02*
X151435489Y-40675455D01*
X151435489Y-40675455D02*
X151364060Y-40825931D01*
X151364060Y-40825931D02*
X151221203Y-40976408D01*
X151221203Y-40976408D02*
X151006917Y-41051646D01*
X151006917Y-41051646D02*
X150864060Y-41051646D01*
X150864060Y-41051646D02*
X150649774Y-40976408D01*
X150649774Y-40976408D02*
X150578346Y-40901169D01*
X150578346Y-40901169D02*
X150578346Y-40374503D01*
X150578346Y-40374503D02*
X150864060Y-40374503D01*
X149935489Y-41051646D02*
X149935489Y-39471646D01*
X149935489Y-39471646D02*
X149364060Y-39471646D01*
X149364060Y-39471646D02*
X149221203Y-39546884D01*
X149221203Y-39546884D02*
X149149774Y-39622122D01*
X149149774Y-39622122D02*
X149078346Y-39772598D01*
X149078346Y-39772598D02*
X149078346Y-39998312D01*
X149078346Y-39998312D02*
X149149774Y-40148788D01*
X149149774Y-40148788D02*
X149221203Y-40224027D01*
X149221203Y-40224027D02*
X149364060Y-40299265D01*
X149364060Y-40299265D02*
X149935489Y-40299265D01*
X148506917Y-39622122D02*
X148435489Y-39546884D01*
X148435489Y-39546884D02*
X148292632Y-39471646D01*
X148292632Y-39471646D02*
X147935489Y-39471646D01*
X147935489Y-39471646D02*
X147792632Y-39546884D01*
X147792632Y-39546884D02*
X147721203Y-39622122D01*
X147721203Y-39622122D02*
X147649774Y-39772598D01*
X147649774Y-39772598D02*
X147649774Y-39923074D01*
X147649774Y-39923074D02*
X147721203Y-40148788D01*
X147721203Y-40148788D02*
X148578346Y-41051646D01*
X148578346Y-41051646D02*
X147649774Y-41051646D01*
X150649774Y-42090596D02*
X150792632Y-42015358D01*
X150792632Y-42015358D02*
X151006917Y-42015358D01*
X151006917Y-42015358D02*
X151221203Y-42090596D01*
X151221203Y-42090596D02*
X151364060Y-42241072D01*
X151364060Y-42241072D02*
X151435489Y-42391548D01*
X151435489Y-42391548D02*
X151506917Y-42692500D01*
X151506917Y-42692500D02*
X151506917Y-42918215D01*
X151506917Y-42918215D02*
X151435489Y-43219167D01*
X151435489Y-43219167D02*
X151364060Y-43369643D01*
X151364060Y-43369643D02*
X151221203Y-43520120D01*
X151221203Y-43520120D02*
X151006917Y-43595358D01*
X151006917Y-43595358D02*
X150864060Y-43595358D01*
X150864060Y-43595358D02*
X150649774Y-43520120D01*
X150649774Y-43520120D02*
X150578346Y-43444881D01*
X150578346Y-43444881D02*
X150578346Y-42918215D01*
X150578346Y-42918215D02*
X150864060Y-42918215D01*
X149935489Y-43595358D02*
X149935489Y-42015358D01*
X149935489Y-42015358D02*
X149364060Y-42015358D01*
X149364060Y-42015358D02*
X149221203Y-42090596D01*
X149221203Y-42090596D02*
X149149774Y-42165834D01*
X149149774Y-42165834D02*
X149078346Y-42316310D01*
X149078346Y-42316310D02*
X149078346Y-42542024D01*
X149078346Y-42542024D02*
X149149774Y-42692500D01*
X149149774Y-42692500D02*
X149221203Y-42767739D01*
X149221203Y-42767739D02*
X149364060Y-42842977D01*
X149364060Y-42842977D02*
X149935489Y-42842977D01*
X148578346Y-42015358D02*
X147649774Y-42015358D01*
X147649774Y-42015358D02*
X148149774Y-42617262D01*
X148149774Y-42617262D02*
X147935489Y-42617262D01*
X147935489Y-42617262D02*
X147792632Y-42692500D01*
X147792632Y-42692500D02*
X147721203Y-42767739D01*
X147721203Y-42767739D02*
X147649774Y-42918215D01*
X147649774Y-42918215D02*
X147649774Y-43294405D01*
X147649774Y-43294405D02*
X147721203Y-43444881D01*
X147721203Y-43444881D02*
X147792632Y-43520120D01*
X147792632Y-43520120D02*
X147935489Y-43595358D01*
X147935489Y-43595358D02*
X148364060Y-43595358D01*
X148364060Y-43595358D02*
X148506917Y-43520120D01*
X148506917Y-43520120D02*
X148578346Y-43444881D01*
X150649774Y-44634308D02*
X150792632Y-44559070D01*
X150792632Y-44559070D02*
X151006917Y-44559070D01*
X151006917Y-44559070D02*
X151221203Y-44634308D01*
X151221203Y-44634308D02*
X151364060Y-44784784D01*
X151364060Y-44784784D02*
X151435489Y-44935260D01*
X151435489Y-44935260D02*
X151506917Y-45236212D01*
X151506917Y-45236212D02*
X151506917Y-45461927D01*
X151506917Y-45461927D02*
X151435489Y-45762879D01*
X151435489Y-45762879D02*
X151364060Y-45913355D01*
X151364060Y-45913355D02*
X151221203Y-46063832D01*
X151221203Y-46063832D02*
X151006917Y-46139070D01*
X151006917Y-46139070D02*
X150864060Y-46139070D01*
X150864060Y-46139070D02*
X150649774Y-46063832D01*
X150649774Y-46063832D02*
X150578346Y-45988593D01*
X150578346Y-45988593D02*
X150578346Y-45461927D01*
X150578346Y-45461927D02*
X150864060Y-45461927D01*
X149935489Y-46139070D02*
X149935489Y-44559070D01*
X149935489Y-44559070D02*
X149364060Y-44559070D01*
X149364060Y-44559070D02*
X149221203Y-44634308D01*
X149221203Y-44634308D02*
X149149774Y-44709546D01*
X149149774Y-44709546D02*
X149078346Y-44860022D01*
X149078346Y-44860022D02*
X149078346Y-45085736D01*
X149078346Y-45085736D02*
X149149774Y-45236212D01*
X149149774Y-45236212D02*
X149221203Y-45311451D01*
X149221203Y-45311451D02*
X149364060Y-45386689D01*
X149364060Y-45386689D02*
X149935489Y-45386689D01*
X147792632Y-45085736D02*
X147792632Y-46139070D01*
X148149774Y-44483832D02*
X148506917Y-45612403D01*
X148506917Y-45612403D02*
X147578346Y-45612403D01*
X150649774Y-47178020D02*
X150792632Y-47102782D01*
X150792632Y-47102782D02*
X151006917Y-47102782D01*
X151006917Y-47102782D02*
X151221203Y-47178020D01*
X151221203Y-47178020D02*
X151364060Y-47328496D01*
X151364060Y-47328496D02*
X151435489Y-47478972D01*
X151435489Y-47478972D02*
X151506917Y-47779924D01*
X151506917Y-47779924D02*
X151506917Y-48005639D01*
X151506917Y-48005639D02*
X151435489Y-48306591D01*
X151435489Y-48306591D02*
X151364060Y-48457067D01*
X151364060Y-48457067D02*
X151221203Y-48607544D01*
X151221203Y-48607544D02*
X151006917Y-48682782D01*
X151006917Y-48682782D02*
X150864060Y-48682782D01*
X150864060Y-48682782D02*
X150649774Y-48607544D01*
X150649774Y-48607544D02*
X150578346Y-48532305D01*
X150578346Y-48532305D02*
X150578346Y-48005639D01*
X150578346Y-48005639D02*
X150864060Y-48005639D01*
X149935489Y-48682782D02*
X149935489Y-47102782D01*
X149935489Y-47102782D02*
X149364060Y-47102782D01*
X149364060Y-47102782D02*
X149221203Y-47178020D01*
X149221203Y-47178020D02*
X149149774Y-47253258D01*
X149149774Y-47253258D02*
X149078346Y-47403734D01*
X149078346Y-47403734D02*
X149078346Y-47629448D01*
X149078346Y-47629448D02*
X149149774Y-47779924D01*
X149149774Y-47779924D02*
X149221203Y-47855163D01*
X149221203Y-47855163D02*
X149364060Y-47930401D01*
X149364060Y-47930401D02*
X149935489Y-47930401D01*
X147721203Y-47102782D02*
X148435489Y-47102782D01*
X148435489Y-47102782D02*
X148506917Y-47855163D01*
X148506917Y-47855163D02*
X148435489Y-47779924D01*
X148435489Y-47779924D02*
X148292632Y-47704686D01*
X148292632Y-47704686D02*
X147935489Y-47704686D01*
X147935489Y-47704686D02*
X147792632Y-47779924D01*
X147792632Y-47779924D02*
X147721203Y-47855163D01*
X147721203Y-47855163D02*
X147649774Y-48005639D01*
X147649774Y-48005639D02*
X147649774Y-48381829D01*
X147649774Y-48381829D02*
X147721203Y-48532305D01*
X147721203Y-48532305D02*
X147792632Y-48607544D01*
X147792632Y-48607544D02*
X147935489Y-48682782D01*
X147935489Y-48682782D02*
X148292632Y-48682782D01*
X148292632Y-48682782D02*
X148435489Y-48607544D01*
X148435489Y-48607544D02*
X148506917Y-48532305D01*
X150649774Y-49721732D02*
X150792632Y-49646494D01*
X150792632Y-49646494D02*
X151006917Y-49646494D01*
X151006917Y-49646494D02*
X151221203Y-49721732D01*
X151221203Y-49721732D02*
X151364060Y-49872208D01*
X151364060Y-49872208D02*
X151435489Y-50022684D01*
X151435489Y-50022684D02*
X151506917Y-50323636D01*
X151506917Y-50323636D02*
X151506917Y-50549351D01*
X151506917Y-50549351D02*
X151435489Y-50850303D01*
X151435489Y-50850303D02*
X151364060Y-51000779D01*
X151364060Y-51000779D02*
X151221203Y-51151256D01*
X151221203Y-51151256D02*
X151006917Y-51226494D01*
X151006917Y-51226494D02*
X150864060Y-51226494D01*
X150864060Y-51226494D02*
X150649774Y-51151256D01*
X150649774Y-51151256D02*
X150578346Y-51076017D01*
X150578346Y-51076017D02*
X150578346Y-50549351D01*
X150578346Y-50549351D02*
X150864060Y-50549351D01*
X149935489Y-51226494D02*
X149935489Y-49646494D01*
X149935489Y-49646494D02*
X149078346Y-51226494D01*
X149078346Y-51226494D02*
X149078346Y-49646494D01*
X148364060Y-51226494D02*
X148364060Y-49646494D01*
X148364060Y-49646494D02*
X148006917Y-49646494D01*
X148006917Y-49646494D02*
X147792631Y-49721732D01*
X147792631Y-49721732D02*
X147649774Y-49872208D01*
X147649774Y-49872208D02*
X147578345Y-50022684D01*
X147578345Y-50022684D02*
X147506917Y-50323636D01*
X147506917Y-50323636D02*
X147506917Y-50549351D01*
X147506917Y-50549351D02*
X147578345Y-50850303D01*
X147578345Y-50850303D02*
X147649774Y-51000779D01*
X147649774Y-51000779D02*
X147792631Y-51151256D01*
X147792631Y-51151256D02*
X148006917Y-51226494D01*
X148006917Y-51226494D02*
X148364060Y-51226494D01*
X150649774Y-52265444D02*
X150792632Y-52190206D01*
X150792632Y-52190206D02*
X151006917Y-52190206D01*
X151006917Y-52190206D02*
X151221203Y-52265444D01*
X151221203Y-52265444D02*
X151364060Y-52415920D01*
X151364060Y-52415920D02*
X151435489Y-52566396D01*
X151435489Y-52566396D02*
X151506917Y-52867348D01*
X151506917Y-52867348D02*
X151506917Y-53093063D01*
X151506917Y-53093063D02*
X151435489Y-53394015D01*
X151435489Y-53394015D02*
X151364060Y-53544491D01*
X151364060Y-53544491D02*
X151221203Y-53694968D01*
X151221203Y-53694968D02*
X151006917Y-53770206D01*
X151006917Y-53770206D02*
X150864060Y-53770206D01*
X150864060Y-53770206D02*
X150649774Y-53694968D01*
X150649774Y-53694968D02*
X150578346Y-53619729D01*
X150578346Y-53619729D02*
X150578346Y-53093063D01*
X150578346Y-53093063D02*
X150864060Y-53093063D01*
X149935489Y-53770206D02*
X149935489Y-52190206D01*
X149935489Y-52190206D02*
X149364060Y-52190206D01*
X149364060Y-52190206D02*
X149221203Y-52265444D01*
X149221203Y-52265444D02*
X149149774Y-52340682D01*
X149149774Y-52340682D02*
X149078346Y-52491158D01*
X149078346Y-52491158D02*
X149078346Y-52716872D01*
X149078346Y-52716872D02*
X149149774Y-52867348D01*
X149149774Y-52867348D02*
X149221203Y-52942587D01*
X149221203Y-52942587D02*
X149364060Y-53017825D01*
X149364060Y-53017825D02*
X149935489Y-53017825D01*
X147792632Y-52190206D02*
X148078346Y-52190206D01*
X148078346Y-52190206D02*
X148221203Y-52265444D01*
X148221203Y-52265444D02*
X148292632Y-52340682D01*
X148292632Y-52340682D02*
X148435489Y-52566396D01*
X148435489Y-52566396D02*
X148506917Y-52867348D01*
X148506917Y-52867348D02*
X148506917Y-53469253D01*
X148506917Y-53469253D02*
X148435489Y-53619729D01*
X148435489Y-53619729D02*
X148364060Y-53694968D01*
X148364060Y-53694968D02*
X148221203Y-53770206D01*
X148221203Y-53770206D02*
X147935489Y-53770206D01*
X147935489Y-53770206D02*
X147792632Y-53694968D01*
X147792632Y-53694968D02*
X147721203Y-53619729D01*
X147721203Y-53619729D02*
X147649774Y-53469253D01*
X147649774Y-53469253D02*
X147649774Y-53093063D01*
X147649774Y-53093063D02*
X147721203Y-52942587D01*
X147721203Y-52942587D02*
X147792632Y-52867348D01*
X147792632Y-52867348D02*
X147935489Y-52792110D01*
X147935489Y-52792110D02*
X148221203Y-52792110D01*
X148221203Y-52792110D02*
X148364060Y-52867348D01*
X148364060Y-52867348D02*
X148435489Y-52942587D01*
X148435489Y-52942587D02*
X148506917Y-53093063D01*
X150649774Y-54809156D02*
X150792632Y-54733918D01*
X150792632Y-54733918D02*
X151006917Y-54733918D01*
X151006917Y-54733918D02*
X151221203Y-54809156D01*
X151221203Y-54809156D02*
X151364060Y-54959632D01*
X151364060Y-54959632D02*
X151435489Y-55110108D01*
X151435489Y-55110108D02*
X151506917Y-55411060D01*
X151506917Y-55411060D02*
X151506917Y-55636775D01*
X151506917Y-55636775D02*
X151435489Y-55937727D01*
X151435489Y-55937727D02*
X151364060Y-56088203D01*
X151364060Y-56088203D02*
X151221203Y-56238680D01*
X151221203Y-56238680D02*
X151006917Y-56313918D01*
X151006917Y-56313918D02*
X150864060Y-56313918D01*
X150864060Y-56313918D02*
X150649774Y-56238680D01*
X150649774Y-56238680D02*
X150578346Y-56163441D01*
X150578346Y-56163441D02*
X150578346Y-55636775D01*
X150578346Y-55636775D02*
X150864060Y-55636775D01*
X149935489Y-56313918D02*
X149935489Y-54733918D01*
X149935489Y-54733918D02*
X149364060Y-54733918D01*
X149364060Y-54733918D02*
X149221203Y-54809156D01*
X149221203Y-54809156D02*
X149149774Y-54884394D01*
X149149774Y-54884394D02*
X149078346Y-55034870D01*
X149078346Y-55034870D02*
X149078346Y-55260584D01*
X149078346Y-55260584D02*
X149149774Y-55411060D01*
X149149774Y-55411060D02*
X149221203Y-55486299D01*
X149221203Y-55486299D02*
X149364060Y-55561537D01*
X149364060Y-55561537D02*
X149935489Y-55561537D01*
X148578346Y-54733918D02*
X147578346Y-54733918D01*
X147578346Y-54733918D02*
X148221203Y-56313918D01*
X150649774Y-57352868D02*
X150792632Y-57277630D01*
X150792632Y-57277630D02*
X151006917Y-57277630D01*
X151006917Y-57277630D02*
X151221203Y-57352868D01*
X151221203Y-57352868D02*
X151364060Y-57503344D01*
X151364060Y-57503344D02*
X151435489Y-57653820D01*
X151435489Y-57653820D02*
X151506917Y-57954772D01*
X151506917Y-57954772D02*
X151506917Y-58180487D01*
X151506917Y-58180487D02*
X151435489Y-58481439D01*
X151435489Y-58481439D02*
X151364060Y-58631915D01*
X151364060Y-58631915D02*
X151221203Y-58782392D01*
X151221203Y-58782392D02*
X151006917Y-58857630D01*
X151006917Y-58857630D02*
X150864060Y-58857630D01*
X150864060Y-58857630D02*
X150649774Y-58782392D01*
X150649774Y-58782392D02*
X150578346Y-58707153D01*
X150578346Y-58707153D02*
X150578346Y-58180487D01*
X150578346Y-58180487D02*
X150864060Y-58180487D01*
X149935489Y-58857630D02*
X149935489Y-57277630D01*
X149935489Y-57277630D02*
X149364060Y-57277630D01*
X149364060Y-57277630D02*
X149221203Y-57352868D01*
X149221203Y-57352868D02*
X149149774Y-57428106D01*
X149149774Y-57428106D02*
X149078346Y-57578582D01*
X149078346Y-57578582D02*
X149078346Y-57804296D01*
X149078346Y-57804296D02*
X149149774Y-57954772D01*
X149149774Y-57954772D02*
X149221203Y-58030011D01*
X149221203Y-58030011D02*
X149364060Y-58105249D01*
X149364060Y-58105249D02*
X149935489Y-58105249D01*
X148221203Y-57954772D02*
X148364060Y-57879534D01*
X148364060Y-57879534D02*
X148435489Y-57804296D01*
X148435489Y-57804296D02*
X148506917Y-57653820D01*
X148506917Y-57653820D02*
X148506917Y-57578582D01*
X148506917Y-57578582D02*
X148435489Y-57428106D01*
X148435489Y-57428106D02*
X148364060Y-57352868D01*
X148364060Y-57352868D02*
X148221203Y-57277630D01*
X148221203Y-57277630D02*
X147935489Y-57277630D01*
X147935489Y-57277630D02*
X147792632Y-57352868D01*
X147792632Y-57352868D02*
X147721203Y-57428106D01*
X147721203Y-57428106D02*
X147649774Y-57578582D01*
X147649774Y-57578582D02*
X147649774Y-57653820D01*
X147649774Y-57653820D02*
X147721203Y-57804296D01*
X147721203Y-57804296D02*
X147792632Y-57879534D01*
X147792632Y-57879534D02*
X147935489Y-57954772D01*
X147935489Y-57954772D02*
X148221203Y-57954772D01*
X148221203Y-57954772D02*
X148364060Y-58030011D01*
X148364060Y-58030011D02*
X148435489Y-58105249D01*
X148435489Y-58105249D02*
X148506917Y-58255725D01*
X148506917Y-58255725D02*
X148506917Y-58556677D01*
X148506917Y-58556677D02*
X148435489Y-58707153D01*
X148435489Y-58707153D02*
X148364060Y-58782392D01*
X148364060Y-58782392D02*
X148221203Y-58857630D01*
X148221203Y-58857630D02*
X147935489Y-58857630D01*
X147935489Y-58857630D02*
X147792632Y-58782392D01*
X147792632Y-58782392D02*
X147721203Y-58707153D01*
X147721203Y-58707153D02*
X147649774Y-58556677D01*
X147649774Y-58556677D02*
X147649774Y-58255725D01*
X147649774Y-58255725D02*
X147721203Y-58105249D01*
X147721203Y-58105249D02*
X147792632Y-58030011D01*
X147792632Y-58030011D02*
X147935489Y-57954772D01*
X150649774Y-59896580D02*
X150792632Y-59821342D01*
X150792632Y-59821342D02*
X151006917Y-59821342D01*
X151006917Y-59821342D02*
X151221203Y-59896580D01*
X151221203Y-59896580D02*
X151364060Y-60047056D01*
X151364060Y-60047056D02*
X151435489Y-60197532D01*
X151435489Y-60197532D02*
X151506917Y-60498484D01*
X151506917Y-60498484D02*
X151506917Y-60724199D01*
X151506917Y-60724199D02*
X151435489Y-61025151D01*
X151435489Y-61025151D02*
X151364060Y-61175627D01*
X151364060Y-61175627D02*
X151221203Y-61326104D01*
X151221203Y-61326104D02*
X151006917Y-61401342D01*
X151006917Y-61401342D02*
X150864060Y-61401342D01*
X150864060Y-61401342D02*
X150649774Y-61326104D01*
X150649774Y-61326104D02*
X150578346Y-61250865D01*
X150578346Y-61250865D02*
X150578346Y-60724199D01*
X150578346Y-60724199D02*
X150864060Y-60724199D01*
X149935489Y-61401342D02*
X149935489Y-59821342D01*
X149935489Y-59821342D02*
X149364060Y-59821342D01*
X149364060Y-59821342D02*
X149221203Y-59896580D01*
X149221203Y-59896580D02*
X149149774Y-59971818D01*
X149149774Y-59971818D02*
X149078346Y-60122294D01*
X149078346Y-60122294D02*
X149078346Y-60348008D01*
X149078346Y-60348008D02*
X149149774Y-60498484D01*
X149149774Y-60498484D02*
X149221203Y-60573723D01*
X149221203Y-60573723D02*
X149364060Y-60648961D01*
X149364060Y-60648961D02*
X149935489Y-60648961D01*
X148364060Y-61401342D02*
X148078346Y-61401342D01*
X148078346Y-61401342D02*
X147935489Y-61326104D01*
X147935489Y-61326104D02*
X147864060Y-61250865D01*
X147864060Y-61250865D02*
X147721203Y-61025151D01*
X147721203Y-61025151D02*
X147649774Y-60724199D01*
X147649774Y-60724199D02*
X147649774Y-60122294D01*
X147649774Y-60122294D02*
X147721203Y-59971818D01*
X147721203Y-59971818D02*
X147792632Y-59896580D01*
X147792632Y-59896580D02*
X147935489Y-59821342D01*
X147935489Y-59821342D02*
X148221203Y-59821342D01*
X148221203Y-59821342D02*
X148364060Y-59896580D01*
X148364060Y-59896580D02*
X148435489Y-59971818D01*
X148435489Y-59971818D02*
X148506917Y-60122294D01*
X148506917Y-60122294D02*
X148506917Y-60498484D01*
X148506917Y-60498484D02*
X148435489Y-60648961D01*
X148435489Y-60648961D02*
X148364060Y-60724199D01*
X148364060Y-60724199D02*
X148221203Y-60799437D01*
X148221203Y-60799437D02*
X147935489Y-60799437D01*
X147935489Y-60799437D02*
X147792632Y-60724199D01*
X147792632Y-60724199D02*
X147721203Y-60648961D01*
X147721203Y-60648961D02*
X147649774Y-60498484D01*
X150649774Y-62440292D02*
X150792632Y-62365054D01*
X150792632Y-62365054D02*
X151006917Y-62365054D01*
X151006917Y-62365054D02*
X151221203Y-62440292D01*
X151221203Y-62440292D02*
X151364060Y-62590768D01*
X151364060Y-62590768D02*
X151435489Y-62741244D01*
X151435489Y-62741244D02*
X151506917Y-63042196D01*
X151506917Y-63042196D02*
X151506917Y-63267911D01*
X151506917Y-63267911D02*
X151435489Y-63568863D01*
X151435489Y-63568863D02*
X151364060Y-63719339D01*
X151364060Y-63719339D02*
X151221203Y-63869816D01*
X151221203Y-63869816D02*
X151006917Y-63945054D01*
X151006917Y-63945054D02*
X150864060Y-63945054D01*
X150864060Y-63945054D02*
X150649774Y-63869816D01*
X150649774Y-63869816D02*
X150578346Y-63794577D01*
X150578346Y-63794577D02*
X150578346Y-63267911D01*
X150578346Y-63267911D02*
X150864060Y-63267911D01*
X149935489Y-63945054D02*
X149935489Y-62365054D01*
X149935489Y-62365054D02*
X149078346Y-63945054D01*
X149078346Y-63945054D02*
X149078346Y-62365054D01*
X148364060Y-63945054D02*
X148364060Y-62365054D01*
X148364060Y-62365054D02*
X148006917Y-62365054D01*
X148006917Y-62365054D02*
X147792631Y-62440292D01*
X147792631Y-62440292D02*
X147649774Y-62590768D01*
X147649774Y-62590768D02*
X147578345Y-62741244D01*
X147578345Y-62741244D02*
X147506917Y-63042196D01*
X147506917Y-63042196D02*
X147506917Y-63267911D01*
X147506917Y-63267911D02*
X147578345Y-63568863D01*
X147578345Y-63568863D02*
X147649774Y-63719339D01*
X147649774Y-63719339D02*
X147792631Y-63869816D01*
X147792631Y-63869816D02*
X148006917Y-63945054D01*
X148006917Y-63945054D02*
X148364060Y-63945054D01*
X150649774Y-64984004D02*
X150792632Y-64908766D01*
X150792632Y-64908766D02*
X151006917Y-64908766D01*
X151006917Y-64908766D02*
X151221203Y-64984004D01*
X151221203Y-64984004D02*
X151364060Y-65134480D01*
X151364060Y-65134480D02*
X151435489Y-65284956D01*
X151435489Y-65284956D02*
X151506917Y-65585908D01*
X151506917Y-65585908D02*
X151506917Y-65811623D01*
X151506917Y-65811623D02*
X151435489Y-66112575D01*
X151435489Y-66112575D02*
X151364060Y-66263051D01*
X151364060Y-66263051D02*
X151221203Y-66413528D01*
X151221203Y-66413528D02*
X151006917Y-66488766D01*
X151006917Y-66488766D02*
X150864060Y-66488766D01*
X150864060Y-66488766D02*
X150649774Y-66413528D01*
X150649774Y-66413528D02*
X150578346Y-66338289D01*
X150578346Y-66338289D02*
X150578346Y-65811623D01*
X150578346Y-65811623D02*
X150864060Y-65811623D01*
X149935489Y-66488766D02*
X149935489Y-64908766D01*
X149935489Y-64908766D02*
X149364060Y-64908766D01*
X149364060Y-64908766D02*
X149221203Y-64984004D01*
X149221203Y-64984004D02*
X149149774Y-65059242D01*
X149149774Y-65059242D02*
X149078346Y-65209718D01*
X149078346Y-65209718D02*
X149078346Y-65435432D01*
X149078346Y-65435432D02*
X149149774Y-65585908D01*
X149149774Y-65585908D02*
X149221203Y-65661147D01*
X149221203Y-65661147D02*
X149364060Y-65736385D01*
X149364060Y-65736385D02*
X149935489Y-65736385D01*
X147649774Y-66488766D02*
X148506917Y-66488766D01*
X148078346Y-66488766D02*
X148078346Y-64908766D01*
X148078346Y-64908766D02*
X148221203Y-65134480D01*
X148221203Y-65134480D02*
X148364060Y-65284956D01*
X148364060Y-65284956D02*
X148506917Y-65360194D01*
X146721203Y-64908766D02*
X146578346Y-64908766D01*
X146578346Y-64908766D02*
X146435489Y-64984004D01*
X146435489Y-64984004D02*
X146364061Y-65059242D01*
X146364061Y-65059242D02*
X146292632Y-65209718D01*
X146292632Y-65209718D02*
X146221203Y-65510670D01*
X146221203Y-65510670D02*
X146221203Y-65886861D01*
X146221203Y-65886861D02*
X146292632Y-66187813D01*
X146292632Y-66187813D02*
X146364061Y-66338289D01*
X146364061Y-66338289D02*
X146435489Y-66413528D01*
X146435489Y-66413528D02*
X146578346Y-66488766D01*
X146578346Y-66488766D02*
X146721203Y-66488766D01*
X146721203Y-66488766D02*
X146864061Y-66413528D01*
X146864061Y-66413528D02*
X146935489Y-66338289D01*
X146935489Y-66338289D02*
X147006918Y-66187813D01*
X147006918Y-66187813D02*
X147078346Y-65886861D01*
X147078346Y-65886861D02*
X147078346Y-65510670D01*
X147078346Y-65510670D02*
X147006918Y-65209718D01*
X147006918Y-65209718D02*
X146935489Y-65059242D01*
X146935489Y-65059242D02*
X146864061Y-64984004D01*
X146864061Y-64984004D02*
X146721203Y-64908766D01*
X150649774Y-67527716D02*
X150792632Y-67452478D01*
X150792632Y-67452478D02*
X151006917Y-67452478D01*
X151006917Y-67452478D02*
X151221203Y-67527716D01*
X151221203Y-67527716D02*
X151364060Y-67678192D01*
X151364060Y-67678192D02*
X151435489Y-67828668D01*
X151435489Y-67828668D02*
X151506917Y-68129620D01*
X151506917Y-68129620D02*
X151506917Y-68355335D01*
X151506917Y-68355335D02*
X151435489Y-68656287D01*
X151435489Y-68656287D02*
X151364060Y-68806763D01*
X151364060Y-68806763D02*
X151221203Y-68957240D01*
X151221203Y-68957240D02*
X151006917Y-69032478D01*
X151006917Y-69032478D02*
X150864060Y-69032478D01*
X150864060Y-69032478D02*
X150649774Y-68957240D01*
X150649774Y-68957240D02*
X150578346Y-68882001D01*
X150578346Y-68882001D02*
X150578346Y-68355335D01*
X150578346Y-68355335D02*
X150864060Y-68355335D01*
X149935489Y-69032478D02*
X149935489Y-67452478D01*
X149935489Y-67452478D02*
X149364060Y-67452478D01*
X149364060Y-67452478D02*
X149221203Y-67527716D01*
X149221203Y-67527716D02*
X149149774Y-67602954D01*
X149149774Y-67602954D02*
X149078346Y-67753430D01*
X149078346Y-67753430D02*
X149078346Y-67979144D01*
X149078346Y-67979144D02*
X149149774Y-68129620D01*
X149149774Y-68129620D02*
X149221203Y-68204859D01*
X149221203Y-68204859D02*
X149364060Y-68280097D01*
X149364060Y-68280097D02*
X149935489Y-68280097D01*
X147649774Y-69032478D02*
X148506917Y-69032478D01*
X148078346Y-69032478D02*
X148078346Y-67452478D01*
X148078346Y-67452478D02*
X148221203Y-67678192D01*
X148221203Y-67678192D02*
X148364060Y-67828668D01*
X148364060Y-67828668D02*
X148506917Y-67903906D01*
X146221203Y-69032478D02*
X147078346Y-69032478D01*
X146649775Y-69032478D02*
X146649775Y-67452478D01*
X146649775Y-67452478D02*
X146792632Y-67678192D01*
X146792632Y-67678192D02*
X146935489Y-67828668D01*
X146935489Y-67828668D02*
X147078346Y-67903906D01*
X150649774Y-70071428D02*
X150792632Y-69996190D01*
X150792632Y-69996190D02*
X151006917Y-69996190D01*
X151006917Y-69996190D02*
X151221203Y-70071428D01*
X151221203Y-70071428D02*
X151364060Y-70221904D01*
X151364060Y-70221904D02*
X151435489Y-70372380D01*
X151435489Y-70372380D02*
X151506917Y-70673332D01*
X151506917Y-70673332D02*
X151506917Y-70899047D01*
X151506917Y-70899047D02*
X151435489Y-71199999D01*
X151435489Y-71199999D02*
X151364060Y-71350475D01*
X151364060Y-71350475D02*
X151221203Y-71500952D01*
X151221203Y-71500952D02*
X151006917Y-71576190D01*
X151006917Y-71576190D02*
X150864060Y-71576190D01*
X150864060Y-71576190D02*
X150649774Y-71500952D01*
X150649774Y-71500952D02*
X150578346Y-71425713D01*
X150578346Y-71425713D02*
X150578346Y-70899047D01*
X150578346Y-70899047D02*
X150864060Y-70899047D01*
X149935489Y-71576190D02*
X149935489Y-69996190D01*
X149935489Y-69996190D02*
X149364060Y-69996190D01*
X149364060Y-69996190D02*
X149221203Y-70071428D01*
X149221203Y-70071428D02*
X149149774Y-70146666D01*
X149149774Y-70146666D02*
X149078346Y-70297142D01*
X149078346Y-70297142D02*
X149078346Y-70522856D01*
X149078346Y-70522856D02*
X149149774Y-70673332D01*
X149149774Y-70673332D02*
X149221203Y-70748571D01*
X149221203Y-70748571D02*
X149364060Y-70823809D01*
X149364060Y-70823809D02*
X149935489Y-70823809D01*
X147649774Y-71576190D02*
X148506917Y-71576190D01*
X148078346Y-71576190D02*
X148078346Y-69996190D01*
X148078346Y-69996190D02*
X148221203Y-70221904D01*
X148221203Y-70221904D02*
X148364060Y-70372380D01*
X148364060Y-70372380D02*
X148506917Y-70447618D01*
X147078346Y-70146666D02*
X147006918Y-70071428D01*
X147006918Y-70071428D02*
X146864061Y-69996190D01*
X146864061Y-69996190D02*
X146506918Y-69996190D01*
X146506918Y-69996190D02*
X146364061Y-70071428D01*
X146364061Y-70071428D02*
X146292632Y-70146666D01*
X146292632Y-70146666D02*
X146221203Y-70297142D01*
X146221203Y-70297142D02*
X146221203Y-70447618D01*
X146221203Y-70447618D02*
X146292632Y-70673332D01*
X146292632Y-70673332D02*
X147149775Y-71576190D01*
X147149775Y-71576190D02*
X146221203Y-71576190D01*
X150649774Y-72615140D02*
X150792632Y-72539902D01*
X150792632Y-72539902D02*
X151006917Y-72539902D01*
X151006917Y-72539902D02*
X151221203Y-72615140D01*
X151221203Y-72615140D02*
X151364060Y-72765616D01*
X151364060Y-72765616D02*
X151435489Y-72916092D01*
X151435489Y-72916092D02*
X151506917Y-73217044D01*
X151506917Y-73217044D02*
X151506917Y-73442759D01*
X151506917Y-73442759D02*
X151435489Y-73743711D01*
X151435489Y-73743711D02*
X151364060Y-73894187D01*
X151364060Y-73894187D02*
X151221203Y-74044664D01*
X151221203Y-74044664D02*
X151006917Y-74119902D01*
X151006917Y-74119902D02*
X150864060Y-74119902D01*
X150864060Y-74119902D02*
X150649774Y-74044664D01*
X150649774Y-74044664D02*
X150578346Y-73969425D01*
X150578346Y-73969425D02*
X150578346Y-73442759D01*
X150578346Y-73442759D02*
X150864060Y-73442759D01*
X149935489Y-74119902D02*
X149935489Y-72539902D01*
X149935489Y-72539902D02*
X149364060Y-72539902D01*
X149364060Y-72539902D02*
X149221203Y-72615140D01*
X149221203Y-72615140D02*
X149149774Y-72690378D01*
X149149774Y-72690378D02*
X149078346Y-72840854D01*
X149078346Y-72840854D02*
X149078346Y-73066568D01*
X149078346Y-73066568D02*
X149149774Y-73217044D01*
X149149774Y-73217044D02*
X149221203Y-73292283D01*
X149221203Y-73292283D02*
X149364060Y-73367521D01*
X149364060Y-73367521D02*
X149935489Y-73367521D01*
X147649774Y-74119902D02*
X148506917Y-74119902D01*
X148078346Y-74119902D02*
X148078346Y-72539902D01*
X148078346Y-72539902D02*
X148221203Y-72765616D01*
X148221203Y-72765616D02*
X148364060Y-72916092D01*
X148364060Y-72916092D02*
X148506917Y-72991330D01*
X147149775Y-72539902D02*
X146221203Y-72539902D01*
X146221203Y-72539902D02*
X146721203Y-73141806D01*
X146721203Y-73141806D02*
X146506918Y-73141806D01*
X146506918Y-73141806D02*
X146364061Y-73217044D01*
X146364061Y-73217044D02*
X146292632Y-73292283D01*
X146292632Y-73292283D02*
X146221203Y-73442759D01*
X146221203Y-73442759D02*
X146221203Y-73818949D01*
X146221203Y-73818949D02*
X146292632Y-73969425D01*
X146292632Y-73969425D02*
X146364061Y-74044664D01*
X146364061Y-74044664D02*
X146506918Y-74119902D01*
X146506918Y-74119902D02*
X146935489Y-74119902D01*
X146935489Y-74119902D02*
X147078346Y-74044664D01*
X147078346Y-74044664D02*
X147149775Y-73969425D01*
X150649774Y-75158852D02*
X150792632Y-75083614D01*
X150792632Y-75083614D02*
X151006917Y-75083614D01*
X151006917Y-75083614D02*
X151221203Y-75158852D01*
X151221203Y-75158852D02*
X151364060Y-75309328D01*
X151364060Y-75309328D02*
X151435489Y-75459804D01*
X151435489Y-75459804D02*
X151506917Y-75760756D01*
X151506917Y-75760756D02*
X151506917Y-75986471D01*
X151506917Y-75986471D02*
X151435489Y-76287423D01*
X151435489Y-76287423D02*
X151364060Y-76437899D01*
X151364060Y-76437899D02*
X151221203Y-76588376D01*
X151221203Y-76588376D02*
X151006917Y-76663614D01*
X151006917Y-76663614D02*
X150864060Y-76663614D01*
X150864060Y-76663614D02*
X150649774Y-76588376D01*
X150649774Y-76588376D02*
X150578346Y-76513137D01*
X150578346Y-76513137D02*
X150578346Y-75986471D01*
X150578346Y-75986471D02*
X150864060Y-75986471D01*
X149935489Y-76663614D02*
X149935489Y-75083614D01*
X149935489Y-75083614D02*
X149078346Y-76663614D01*
X149078346Y-76663614D02*
X149078346Y-75083614D01*
X148364060Y-76663614D02*
X148364060Y-75083614D01*
X148364060Y-75083614D02*
X148006917Y-75083614D01*
X148006917Y-75083614D02*
X147792631Y-75158852D01*
X147792631Y-75158852D02*
X147649774Y-75309328D01*
X147649774Y-75309328D02*
X147578345Y-75459804D01*
X147578345Y-75459804D02*
X147506917Y-75760756D01*
X147506917Y-75760756D02*
X147506917Y-75986471D01*
X147506917Y-75986471D02*
X147578345Y-76287423D01*
X147578345Y-76287423D02*
X147649774Y-76437899D01*
X147649774Y-76437899D02*
X147792631Y-76588376D01*
X147792631Y-76588376D02*
X148006917Y-76663614D01*
X148006917Y-76663614D02*
X148364060Y-76663614D01*
X150649774Y-77702564D02*
X150792632Y-77627326D01*
X150792632Y-77627326D02*
X151006917Y-77627326D01*
X151006917Y-77627326D02*
X151221203Y-77702564D01*
X151221203Y-77702564D02*
X151364060Y-77853040D01*
X151364060Y-77853040D02*
X151435489Y-78003516D01*
X151435489Y-78003516D02*
X151506917Y-78304468D01*
X151506917Y-78304468D02*
X151506917Y-78530183D01*
X151506917Y-78530183D02*
X151435489Y-78831135D01*
X151435489Y-78831135D02*
X151364060Y-78981611D01*
X151364060Y-78981611D02*
X151221203Y-79132088D01*
X151221203Y-79132088D02*
X151006917Y-79207326D01*
X151006917Y-79207326D02*
X150864060Y-79207326D01*
X150864060Y-79207326D02*
X150649774Y-79132088D01*
X150649774Y-79132088D02*
X150578346Y-79056849D01*
X150578346Y-79056849D02*
X150578346Y-78530183D01*
X150578346Y-78530183D02*
X150864060Y-78530183D01*
X149935489Y-79207326D02*
X149935489Y-77627326D01*
X149935489Y-77627326D02*
X149364060Y-77627326D01*
X149364060Y-77627326D02*
X149221203Y-77702564D01*
X149221203Y-77702564D02*
X149149774Y-77777802D01*
X149149774Y-77777802D02*
X149078346Y-77928278D01*
X149078346Y-77928278D02*
X149078346Y-78153992D01*
X149078346Y-78153992D02*
X149149774Y-78304468D01*
X149149774Y-78304468D02*
X149221203Y-78379707D01*
X149221203Y-78379707D02*
X149364060Y-78454945D01*
X149364060Y-78454945D02*
X149935489Y-78454945D01*
X147649774Y-79207326D02*
X148506917Y-79207326D01*
X148078346Y-79207326D02*
X148078346Y-77627326D01*
X148078346Y-77627326D02*
X148221203Y-77853040D01*
X148221203Y-77853040D02*
X148364060Y-78003516D01*
X148364060Y-78003516D02*
X148506917Y-78078754D01*
X146364061Y-78153992D02*
X146364061Y-79207326D01*
X146721203Y-77552088D02*
X147078346Y-78680659D01*
X147078346Y-78680659D02*
X146149775Y-78680659D01*
X150649774Y-80246276D02*
X150792632Y-80171038D01*
X150792632Y-80171038D02*
X151006917Y-80171038D01*
X151006917Y-80171038D02*
X151221203Y-80246276D01*
X151221203Y-80246276D02*
X151364060Y-80396752D01*
X151364060Y-80396752D02*
X151435489Y-80547228D01*
X151435489Y-80547228D02*
X151506917Y-80848180D01*
X151506917Y-80848180D02*
X151506917Y-81073895D01*
X151506917Y-81073895D02*
X151435489Y-81374847D01*
X151435489Y-81374847D02*
X151364060Y-81525323D01*
X151364060Y-81525323D02*
X151221203Y-81675800D01*
X151221203Y-81675800D02*
X151006917Y-81751038D01*
X151006917Y-81751038D02*
X150864060Y-81751038D01*
X150864060Y-81751038D02*
X150649774Y-81675800D01*
X150649774Y-81675800D02*
X150578346Y-81600561D01*
X150578346Y-81600561D02*
X150578346Y-81073895D01*
X150578346Y-81073895D02*
X150864060Y-81073895D01*
X149935489Y-81751038D02*
X149935489Y-80171038D01*
X149935489Y-80171038D02*
X149364060Y-80171038D01*
X149364060Y-80171038D02*
X149221203Y-80246276D01*
X149221203Y-80246276D02*
X149149774Y-80321514D01*
X149149774Y-80321514D02*
X149078346Y-80471990D01*
X149078346Y-80471990D02*
X149078346Y-80697704D01*
X149078346Y-80697704D02*
X149149774Y-80848180D01*
X149149774Y-80848180D02*
X149221203Y-80923419D01*
X149221203Y-80923419D02*
X149364060Y-80998657D01*
X149364060Y-80998657D02*
X149935489Y-80998657D01*
X147649774Y-81751038D02*
X148506917Y-81751038D01*
X148078346Y-81751038D02*
X148078346Y-80171038D01*
X148078346Y-80171038D02*
X148221203Y-80396752D01*
X148221203Y-80396752D02*
X148364060Y-80547228D01*
X148364060Y-80547228D02*
X148506917Y-80622466D01*
X146292632Y-80171038D02*
X147006918Y-80171038D01*
X147006918Y-80171038D02*
X147078346Y-80923419D01*
X147078346Y-80923419D02*
X147006918Y-80848180D01*
X147006918Y-80848180D02*
X146864061Y-80772942D01*
X146864061Y-80772942D02*
X146506918Y-80772942D01*
X146506918Y-80772942D02*
X146364061Y-80848180D01*
X146364061Y-80848180D02*
X146292632Y-80923419D01*
X146292632Y-80923419D02*
X146221203Y-81073895D01*
X146221203Y-81073895D02*
X146221203Y-81450085D01*
X146221203Y-81450085D02*
X146292632Y-81600561D01*
X146292632Y-81600561D02*
X146364061Y-81675800D01*
X146364061Y-81675800D02*
X146506918Y-81751038D01*
X146506918Y-81751038D02*
X146864061Y-81751038D01*
X146864061Y-81751038D02*
X147006918Y-81675800D01*
X147006918Y-81675800D02*
X147078346Y-81600561D01*
D13*
X190604819Y-35486666D02*
X191319104Y-35486666D01*
X191319104Y-35486666D02*
X191461961Y-35439047D01*
X191461961Y-35439047D02*
X191557200Y-35343809D01*
X191557200Y-35343809D02*
X191604819Y-35200952D01*
X191604819Y-35200952D02*
X191604819Y-35105714D01*
X191604819Y-35962857D02*
X190604819Y-35962857D01*
X190604819Y-35962857D02*
X190604819Y-36343809D01*
X190604819Y-36343809D02*
X190652438Y-36439047D01*
X190652438Y-36439047D02*
X190700057Y-36486666D01*
X190700057Y-36486666D02*
X190795295Y-36534285D01*
X190795295Y-36534285D02*
X190938152Y-36534285D01*
X190938152Y-36534285D02*
X191033390Y-36486666D01*
X191033390Y-36486666D02*
X191081009Y-36439047D01*
X191081009Y-36439047D02*
X191128628Y-36343809D01*
X191128628Y-36343809D02*
X191128628Y-35962857D01*
X190938152Y-37391428D02*
X191604819Y-37391428D01*
X190557200Y-37153333D02*
X191271485Y-36915238D01*
X191271485Y-36915238D02*
X191271485Y-37534285D01*
X119303333Y-124724819D02*
X119303333Y-125439104D01*
X119303333Y-125439104D02*
X119350952Y-125581961D01*
X119350952Y-125581961D02*
X119446190Y-125677200D01*
X119446190Y-125677200D02*
X119589047Y-125724819D01*
X119589047Y-125724819D02*
X119684285Y-125724819D01*
X118827142Y-125724819D02*
X118827142Y-124724819D01*
X118827142Y-124724819D02*
X118446190Y-124724819D01*
X118446190Y-124724819D02*
X118350952Y-124772438D01*
X118350952Y-124772438D02*
X118303333Y-124820057D01*
X118303333Y-124820057D02*
X118255714Y-124915295D01*
X118255714Y-124915295D02*
X118255714Y-125058152D01*
X118255714Y-125058152D02*
X118303333Y-125153390D01*
X118303333Y-125153390D02*
X118350952Y-125201009D01*
X118350952Y-125201009D02*
X118446190Y-125248628D01*
X118446190Y-125248628D02*
X118827142Y-125248628D01*
X117303333Y-125724819D02*
X117874761Y-125724819D01*
X117589047Y-125724819D02*
X117589047Y-124724819D01*
X117589047Y-124724819D02*
X117684285Y-124867676D01*
X117684285Y-124867676D02*
X117779523Y-124962914D01*
X117779523Y-124962914D02*
X117874761Y-125010533D01*
X195535714Y-128007200D02*
X195630952Y-128054819D01*
X195630952Y-128054819D02*
X195821428Y-128054819D01*
X195821428Y-128054819D02*
X195916666Y-128007200D01*
X195916666Y-128007200D02*
X195964285Y-127911961D01*
X195964285Y-127911961D02*
X195964285Y-127531009D01*
X195964285Y-127531009D02*
X195916666Y-127435771D01*
X195916666Y-127435771D02*
X195821428Y-127388152D01*
X195821428Y-127388152D02*
X195630952Y-127388152D01*
X195630952Y-127388152D02*
X195535714Y-127435771D01*
X195535714Y-127435771D02*
X195488095Y-127531009D01*
X195488095Y-127531009D02*
X195488095Y-127626247D01*
X195488095Y-127626247D02*
X195964285Y-127721485D01*
X195154761Y-127054819D02*
X194535714Y-127054819D01*
X194535714Y-127054819D02*
X194869047Y-127435771D01*
X194869047Y-127435771D02*
X194726190Y-127435771D01*
X194726190Y-127435771D02*
X194630952Y-127483390D01*
X194630952Y-127483390D02*
X194583333Y-127531009D01*
X194583333Y-127531009D02*
X194535714Y-127626247D01*
X194535714Y-127626247D02*
X194535714Y-127864342D01*
X194535714Y-127864342D02*
X194583333Y-127959580D01*
X194583333Y-127959580D02*
X194630952Y-128007200D01*
X194630952Y-128007200D02*
X194726190Y-128054819D01*
X194726190Y-128054819D02*
X195011904Y-128054819D01*
X195011904Y-128054819D02*
X195107142Y-128007200D01*
X195107142Y-128007200D02*
X195154761Y-127959580D01*
X121799523Y-119864819D02*
X121799523Y-120579104D01*
X121799523Y-120579104D02*
X121847142Y-120721961D01*
X121847142Y-120721961D02*
X121942380Y-120817200D01*
X121942380Y-120817200D02*
X122085237Y-120864819D01*
X122085237Y-120864819D02*
X122180475Y-120864819D01*
X121323332Y-120864819D02*
X121323332Y-119864819D01*
X121323332Y-119864819D02*
X120942380Y-119864819D01*
X120942380Y-119864819D02*
X120847142Y-119912438D01*
X120847142Y-119912438D02*
X120799523Y-119960057D01*
X120799523Y-119960057D02*
X120751904Y-120055295D01*
X120751904Y-120055295D02*
X120751904Y-120198152D01*
X120751904Y-120198152D02*
X120799523Y-120293390D01*
X120799523Y-120293390D02*
X120847142Y-120341009D01*
X120847142Y-120341009D02*
X120942380Y-120388628D01*
X120942380Y-120388628D02*
X121323332Y-120388628D01*
X120180475Y-120293390D02*
X120275713Y-120245771D01*
X120275713Y-120245771D02*
X120323332Y-120198152D01*
X120323332Y-120198152D02*
X120370951Y-120102914D01*
X120370951Y-120102914D02*
X120370951Y-120055295D01*
X120370951Y-120055295D02*
X120323332Y-119960057D01*
X120323332Y-119960057D02*
X120275713Y-119912438D01*
X120275713Y-119912438D02*
X120180475Y-119864819D01*
X120180475Y-119864819D02*
X119989999Y-119864819D01*
X119989999Y-119864819D02*
X119894761Y-119912438D01*
X119894761Y-119912438D02*
X119847142Y-119960057D01*
X119847142Y-119960057D02*
X119799523Y-120055295D01*
X119799523Y-120055295D02*
X119799523Y-120102914D01*
X119799523Y-120102914D02*
X119847142Y-120198152D01*
X119847142Y-120198152D02*
X119894761Y-120245771D01*
X119894761Y-120245771D02*
X119989999Y-120293390D01*
X119989999Y-120293390D02*
X120180475Y-120293390D01*
X120180475Y-120293390D02*
X120275713Y-120341009D01*
X120275713Y-120341009D02*
X120323332Y-120388628D01*
X120323332Y-120388628D02*
X120370951Y-120483866D01*
X120370951Y-120483866D02*
X120370951Y-120674342D01*
X120370951Y-120674342D02*
X120323332Y-120769580D01*
X120323332Y-120769580D02*
X120275713Y-120817200D01*
X120275713Y-120817200D02*
X120180475Y-120864819D01*
X120180475Y-120864819D02*
X119989999Y-120864819D01*
X119989999Y-120864819D02*
X119894761Y-120817200D01*
X119894761Y-120817200D02*
X119847142Y-120769580D01*
X119847142Y-120769580D02*
X119799523Y-120674342D01*
X119799523Y-120674342D02*
X119799523Y-120483866D01*
X119799523Y-120483866D02*
X119847142Y-120388628D01*
X119847142Y-120388628D02*
X119894761Y-120341009D01*
X119894761Y-120341009D02*
X119989999Y-120293390D01*
X118942380Y-119864819D02*
X119132856Y-119864819D01*
X119132856Y-119864819D02*
X119228094Y-119912438D01*
X119228094Y-119912438D02*
X119275713Y-119960057D01*
X119275713Y-119960057D02*
X119370951Y-120102914D01*
X119370951Y-120102914D02*
X119418570Y-120293390D01*
X119418570Y-120293390D02*
X119418570Y-120674342D01*
X119418570Y-120674342D02*
X119370951Y-120769580D01*
X119370951Y-120769580D02*
X119323332Y-120817200D01*
X119323332Y-120817200D02*
X119228094Y-120864819D01*
X119228094Y-120864819D02*
X119037618Y-120864819D01*
X119037618Y-120864819D02*
X118942380Y-120817200D01*
X118942380Y-120817200D02*
X118894761Y-120769580D01*
X118894761Y-120769580D02*
X118847142Y-120674342D01*
X118847142Y-120674342D02*
X118847142Y-120436247D01*
X118847142Y-120436247D02*
X118894761Y-120341009D01*
X118894761Y-120341009D02*
X118942380Y-120293390D01*
X118942380Y-120293390D02*
X119037618Y-120245771D01*
X119037618Y-120245771D02*
X119228094Y-120245771D01*
X119228094Y-120245771D02*
X119323332Y-120293390D01*
X119323332Y-120293390D02*
X119370951Y-120341009D01*
X119370951Y-120341009D02*
X119418570Y-120436247D01*
X108477200Y-83784285D02*
X108524819Y-83689047D01*
X108524819Y-83689047D02*
X108524819Y-83498571D01*
X108524819Y-83498571D02*
X108477200Y-83403333D01*
X108477200Y-83403333D02*
X108381961Y-83355714D01*
X108381961Y-83355714D02*
X108001009Y-83355714D01*
X108001009Y-83355714D02*
X107905771Y-83403333D01*
X107905771Y-83403333D02*
X107858152Y-83498571D01*
X107858152Y-83498571D02*
X107858152Y-83689047D01*
X107858152Y-83689047D02*
X107905771Y-83784285D01*
X107905771Y-83784285D02*
X108001009Y-83831904D01*
X108001009Y-83831904D02*
X108096247Y-83831904D01*
X108096247Y-83831904D02*
X108191485Y-83355714D01*
X107524819Y-84736666D02*
X107524819Y-84260476D01*
X107524819Y-84260476D02*
X108001009Y-84212857D01*
X108001009Y-84212857D02*
X107953390Y-84260476D01*
X107953390Y-84260476D02*
X107905771Y-84355714D01*
X107905771Y-84355714D02*
X107905771Y-84593809D01*
X107905771Y-84593809D02*
X107953390Y-84689047D01*
X107953390Y-84689047D02*
X108001009Y-84736666D01*
X108001009Y-84736666D02*
X108096247Y-84784285D01*
X108096247Y-84784285D02*
X108334342Y-84784285D01*
X108334342Y-84784285D02*
X108429580Y-84736666D01*
X108429580Y-84736666D02*
X108477200Y-84689047D01*
X108477200Y-84689047D02*
X108524819Y-84593809D01*
X108524819Y-84593809D02*
X108524819Y-84355714D01*
X108524819Y-84355714D02*
X108477200Y-84260476D01*
X108477200Y-84260476D02*
X108429580Y-84212857D01*
X115294819Y-69650476D02*
X116009104Y-69650476D01*
X116009104Y-69650476D02*
X116151961Y-69602857D01*
X116151961Y-69602857D02*
X116247200Y-69507619D01*
X116247200Y-69507619D02*
X116294819Y-69364762D01*
X116294819Y-69364762D02*
X116294819Y-69269524D01*
X116294819Y-70126667D02*
X115294819Y-70126667D01*
X115294819Y-70126667D02*
X115294819Y-70507619D01*
X115294819Y-70507619D02*
X115342438Y-70602857D01*
X115342438Y-70602857D02*
X115390057Y-70650476D01*
X115390057Y-70650476D02*
X115485295Y-70698095D01*
X115485295Y-70698095D02*
X115628152Y-70698095D01*
X115628152Y-70698095D02*
X115723390Y-70650476D01*
X115723390Y-70650476D02*
X115771009Y-70602857D01*
X115771009Y-70602857D02*
X115818628Y-70507619D01*
X115818628Y-70507619D02*
X115818628Y-70126667D01*
X116294819Y-71650476D02*
X116294819Y-71079048D01*
X116294819Y-71364762D02*
X115294819Y-71364762D01*
X115294819Y-71364762D02*
X115437676Y-71269524D01*
X115437676Y-71269524D02*
X115532914Y-71174286D01*
X115532914Y-71174286D02*
X115580533Y-71079048D01*
X115723390Y-72221905D02*
X115675771Y-72126667D01*
X115675771Y-72126667D02*
X115628152Y-72079048D01*
X115628152Y-72079048D02*
X115532914Y-72031429D01*
X115532914Y-72031429D02*
X115485295Y-72031429D01*
X115485295Y-72031429D02*
X115390057Y-72079048D01*
X115390057Y-72079048D02*
X115342438Y-72126667D01*
X115342438Y-72126667D02*
X115294819Y-72221905D01*
X115294819Y-72221905D02*
X115294819Y-72412381D01*
X115294819Y-72412381D02*
X115342438Y-72507619D01*
X115342438Y-72507619D02*
X115390057Y-72555238D01*
X115390057Y-72555238D02*
X115485295Y-72602857D01*
X115485295Y-72602857D02*
X115532914Y-72602857D01*
X115532914Y-72602857D02*
X115628152Y-72555238D01*
X115628152Y-72555238D02*
X115675771Y-72507619D01*
X115675771Y-72507619D02*
X115723390Y-72412381D01*
X115723390Y-72412381D02*
X115723390Y-72221905D01*
X115723390Y-72221905D02*
X115771009Y-72126667D01*
X115771009Y-72126667D02*
X115818628Y-72079048D01*
X115818628Y-72079048D02*
X115913866Y-72031429D01*
X115913866Y-72031429D02*
X116104342Y-72031429D01*
X116104342Y-72031429D02*
X116199580Y-72079048D01*
X116199580Y-72079048D02*
X116247200Y-72126667D01*
X116247200Y-72126667D02*
X116294819Y-72221905D01*
X116294819Y-72221905D02*
X116294819Y-72412381D01*
X116294819Y-72412381D02*
X116247200Y-72507619D01*
X116247200Y-72507619D02*
X116199580Y-72555238D01*
X116199580Y-72555238D02*
X116104342Y-72602857D01*
X116104342Y-72602857D02*
X115913866Y-72602857D01*
X115913866Y-72602857D02*
X115818628Y-72555238D01*
X115818628Y-72555238D02*
X115771009Y-72507619D01*
X115771009Y-72507619D02*
X115723390Y-72412381D01*
X110175714Y-61597200D02*
X110270952Y-61644819D01*
X110270952Y-61644819D02*
X110461428Y-61644819D01*
X110461428Y-61644819D02*
X110556666Y-61597200D01*
X110556666Y-61597200D02*
X110604285Y-61501961D01*
X110604285Y-61501961D02*
X110604285Y-61121009D01*
X110604285Y-61121009D02*
X110556666Y-61025771D01*
X110556666Y-61025771D02*
X110461428Y-60978152D01*
X110461428Y-60978152D02*
X110270952Y-60978152D01*
X110270952Y-60978152D02*
X110175714Y-61025771D01*
X110175714Y-61025771D02*
X110128095Y-61121009D01*
X110128095Y-61121009D02*
X110128095Y-61216247D01*
X110128095Y-61216247D02*
X110604285Y-61311485D01*
X109556666Y-61073390D02*
X109651904Y-61025771D01*
X109651904Y-61025771D02*
X109699523Y-60978152D01*
X109699523Y-60978152D02*
X109747142Y-60882914D01*
X109747142Y-60882914D02*
X109747142Y-60835295D01*
X109747142Y-60835295D02*
X109699523Y-60740057D01*
X109699523Y-60740057D02*
X109651904Y-60692438D01*
X109651904Y-60692438D02*
X109556666Y-60644819D01*
X109556666Y-60644819D02*
X109366190Y-60644819D01*
X109366190Y-60644819D02*
X109270952Y-60692438D01*
X109270952Y-60692438D02*
X109223333Y-60740057D01*
X109223333Y-60740057D02*
X109175714Y-60835295D01*
X109175714Y-60835295D02*
X109175714Y-60882914D01*
X109175714Y-60882914D02*
X109223333Y-60978152D01*
X109223333Y-60978152D02*
X109270952Y-61025771D01*
X109270952Y-61025771D02*
X109366190Y-61073390D01*
X109366190Y-61073390D02*
X109556666Y-61073390D01*
X109556666Y-61073390D02*
X109651904Y-61121009D01*
X109651904Y-61121009D02*
X109699523Y-61168628D01*
X109699523Y-61168628D02*
X109747142Y-61263866D01*
X109747142Y-61263866D02*
X109747142Y-61454342D01*
X109747142Y-61454342D02*
X109699523Y-61549580D01*
X109699523Y-61549580D02*
X109651904Y-61597200D01*
X109651904Y-61597200D02*
X109556666Y-61644819D01*
X109556666Y-61644819D02*
X109366190Y-61644819D01*
X109366190Y-61644819D02*
X109270952Y-61597200D01*
X109270952Y-61597200D02*
X109223333Y-61549580D01*
X109223333Y-61549580D02*
X109175714Y-61454342D01*
X109175714Y-61454342D02*
X109175714Y-61263866D01*
X109175714Y-61263866D02*
X109223333Y-61168628D01*
X109223333Y-61168628D02*
X109270952Y-61121009D01*
X109270952Y-61121009D02*
X109366190Y-61073390D01*
X104495714Y-74997200D02*
X104590952Y-75044819D01*
X104590952Y-75044819D02*
X104781428Y-75044819D01*
X104781428Y-75044819D02*
X104876666Y-74997200D01*
X104876666Y-74997200D02*
X104924285Y-74901961D01*
X104924285Y-74901961D02*
X104924285Y-74521009D01*
X104924285Y-74521009D02*
X104876666Y-74425771D01*
X104876666Y-74425771D02*
X104781428Y-74378152D01*
X104781428Y-74378152D02*
X104590952Y-74378152D01*
X104590952Y-74378152D02*
X104495714Y-74425771D01*
X104495714Y-74425771D02*
X104448095Y-74521009D01*
X104448095Y-74521009D02*
X104448095Y-74616247D01*
X104448095Y-74616247D02*
X104924285Y-74711485D01*
X103590952Y-74378152D02*
X103590952Y-75044819D01*
X103829047Y-73997200D02*
X104067142Y-74711485D01*
X104067142Y-74711485D02*
X103448095Y-74711485D01*
X120499523Y-121754819D02*
X120499523Y-122469104D01*
X120499523Y-122469104D02*
X120547142Y-122611961D01*
X120547142Y-122611961D02*
X120642380Y-122707200D01*
X120642380Y-122707200D02*
X120785237Y-122754819D01*
X120785237Y-122754819D02*
X120880475Y-122754819D01*
X120023332Y-122754819D02*
X120023332Y-121754819D01*
X120023332Y-121754819D02*
X119642380Y-121754819D01*
X119642380Y-121754819D02*
X119547142Y-121802438D01*
X119547142Y-121802438D02*
X119499523Y-121850057D01*
X119499523Y-121850057D02*
X119451904Y-121945295D01*
X119451904Y-121945295D02*
X119451904Y-122088152D01*
X119451904Y-122088152D02*
X119499523Y-122183390D01*
X119499523Y-122183390D02*
X119547142Y-122231009D01*
X119547142Y-122231009D02*
X119642380Y-122278628D01*
X119642380Y-122278628D02*
X120023332Y-122278628D01*
X118880475Y-122183390D02*
X118975713Y-122135771D01*
X118975713Y-122135771D02*
X119023332Y-122088152D01*
X119023332Y-122088152D02*
X119070951Y-121992914D01*
X119070951Y-121992914D02*
X119070951Y-121945295D01*
X119070951Y-121945295D02*
X119023332Y-121850057D01*
X119023332Y-121850057D02*
X118975713Y-121802438D01*
X118975713Y-121802438D02*
X118880475Y-121754819D01*
X118880475Y-121754819D02*
X118689999Y-121754819D01*
X118689999Y-121754819D02*
X118594761Y-121802438D01*
X118594761Y-121802438D02*
X118547142Y-121850057D01*
X118547142Y-121850057D02*
X118499523Y-121945295D01*
X118499523Y-121945295D02*
X118499523Y-121992914D01*
X118499523Y-121992914D02*
X118547142Y-122088152D01*
X118547142Y-122088152D02*
X118594761Y-122135771D01*
X118594761Y-122135771D02*
X118689999Y-122183390D01*
X118689999Y-122183390D02*
X118880475Y-122183390D01*
X118880475Y-122183390D02*
X118975713Y-122231009D01*
X118975713Y-122231009D02*
X119023332Y-122278628D01*
X119023332Y-122278628D02*
X119070951Y-122373866D01*
X119070951Y-122373866D02*
X119070951Y-122564342D01*
X119070951Y-122564342D02*
X119023332Y-122659580D01*
X119023332Y-122659580D02*
X118975713Y-122707200D01*
X118975713Y-122707200D02*
X118880475Y-122754819D01*
X118880475Y-122754819D02*
X118689999Y-122754819D01*
X118689999Y-122754819D02*
X118594761Y-122707200D01*
X118594761Y-122707200D02*
X118547142Y-122659580D01*
X118547142Y-122659580D02*
X118499523Y-122564342D01*
X118499523Y-122564342D02*
X118499523Y-122373866D01*
X118499523Y-122373866D02*
X118547142Y-122278628D01*
X118547142Y-122278628D02*
X118594761Y-122231009D01*
X118594761Y-122231009D02*
X118689999Y-122183390D01*
X117928094Y-122183390D02*
X118023332Y-122135771D01*
X118023332Y-122135771D02*
X118070951Y-122088152D01*
X118070951Y-122088152D02*
X118118570Y-121992914D01*
X118118570Y-121992914D02*
X118118570Y-121945295D01*
X118118570Y-121945295D02*
X118070951Y-121850057D01*
X118070951Y-121850057D02*
X118023332Y-121802438D01*
X118023332Y-121802438D02*
X117928094Y-121754819D01*
X117928094Y-121754819D02*
X117737618Y-121754819D01*
X117737618Y-121754819D02*
X117642380Y-121802438D01*
X117642380Y-121802438D02*
X117594761Y-121850057D01*
X117594761Y-121850057D02*
X117547142Y-121945295D01*
X117547142Y-121945295D02*
X117547142Y-121992914D01*
X117547142Y-121992914D02*
X117594761Y-122088152D01*
X117594761Y-122088152D02*
X117642380Y-122135771D01*
X117642380Y-122135771D02*
X117737618Y-122183390D01*
X117737618Y-122183390D02*
X117928094Y-122183390D01*
X117928094Y-122183390D02*
X118023332Y-122231009D01*
X118023332Y-122231009D02*
X118070951Y-122278628D01*
X118070951Y-122278628D02*
X118118570Y-122373866D01*
X118118570Y-122373866D02*
X118118570Y-122564342D01*
X118118570Y-122564342D02*
X118070951Y-122659580D01*
X118070951Y-122659580D02*
X118023332Y-122707200D01*
X118023332Y-122707200D02*
X117928094Y-122754819D01*
X117928094Y-122754819D02*
X117737618Y-122754819D01*
X117737618Y-122754819D02*
X117642380Y-122707200D01*
X117642380Y-122707200D02*
X117594761Y-122659580D01*
X117594761Y-122659580D02*
X117547142Y-122564342D01*
X117547142Y-122564342D02*
X117547142Y-122373866D01*
X117547142Y-122373866D02*
X117594761Y-122278628D01*
X117594761Y-122278628D02*
X117642380Y-122231009D01*
X117642380Y-122231009D02*
X117737618Y-122183390D01*
X105924819Y-86020476D02*
X106639104Y-86020476D01*
X106639104Y-86020476D02*
X106781961Y-85972857D01*
X106781961Y-85972857D02*
X106877200Y-85877619D01*
X106877200Y-85877619D02*
X106924819Y-85734762D01*
X106924819Y-85734762D02*
X106924819Y-85639524D01*
X106924819Y-86496667D02*
X105924819Y-86496667D01*
X105924819Y-86496667D02*
X105924819Y-86877619D01*
X105924819Y-86877619D02*
X105972438Y-86972857D01*
X105972438Y-86972857D02*
X106020057Y-87020476D01*
X106020057Y-87020476D02*
X106115295Y-87068095D01*
X106115295Y-87068095D02*
X106258152Y-87068095D01*
X106258152Y-87068095D02*
X106353390Y-87020476D01*
X106353390Y-87020476D02*
X106401009Y-86972857D01*
X106401009Y-86972857D02*
X106448628Y-86877619D01*
X106448628Y-86877619D02*
X106448628Y-86496667D01*
X106924819Y-88020476D02*
X106924819Y-87449048D01*
X106924819Y-87734762D02*
X105924819Y-87734762D01*
X105924819Y-87734762D02*
X106067676Y-87639524D01*
X106067676Y-87639524D02*
X106162914Y-87544286D01*
X106162914Y-87544286D02*
X106210533Y-87449048D01*
X106924819Y-88496667D02*
X106924819Y-88687143D01*
X106924819Y-88687143D02*
X106877200Y-88782381D01*
X106877200Y-88782381D02*
X106829580Y-88830000D01*
X106829580Y-88830000D02*
X106686723Y-88925238D01*
X106686723Y-88925238D02*
X106496247Y-88972857D01*
X106496247Y-88972857D02*
X106115295Y-88972857D01*
X106115295Y-88972857D02*
X106020057Y-88925238D01*
X106020057Y-88925238D02*
X105972438Y-88877619D01*
X105972438Y-88877619D02*
X105924819Y-88782381D01*
X105924819Y-88782381D02*
X105924819Y-88591905D01*
X105924819Y-88591905D02*
X105972438Y-88496667D01*
X105972438Y-88496667D02*
X106020057Y-88449048D01*
X106020057Y-88449048D02*
X106115295Y-88401429D01*
X106115295Y-88401429D02*
X106353390Y-88401429D01*
X106353390Y-88401429D02*
X106448628Y-88449048D01*
X106448628Y-88449048D02*
X106496247Y-88496667D01*
X106496247Y-88496667D02*
X106543866Y-88591905D01*
X106543866Y-88591905D02*
X106543866Y-88782381D01*
X106543866Y-88782381D02*
X106496247Y-88877619D01*
X106496247Y-88877619D02*
X106448628Y-88925238D01*
X106448628Y-88925238D02*
X106353390Y-88972857D01*
D14*
%TO.C,JP4*%
X193250000Y-34920000D02*
X192650000Y-34920000D01*
X191950000Y-35620000D02*
X191950000Y-37020000D01*
X193950000Y-37020000D02*
X193950000Y-35620000D01*
X192650000Y-37720000D02*
X193250000Y-37720000D01*
X191950000Y-35620000D02*
G75*
G02*
X192650000Y-34920000I699999J1D01*
G01*
X193250000Y-34920000D02*
G75*
G02*
X193950000Y-35620000I1J-699999D01*
G01*
X192650000Y-37720000D02*
G75*
G02*
X191950000Y-37020000I0J700000D01*
G01*
X193950000Y-37020000D02*
G75*
G02*
X193250000Y-37720000I-700000J0D01*
G01*
%TO.C,JP45*%
X163070000Y-68460000D02*
X163070000Y-67860000D01*
X163770000Y-67160000D02*
X165170000Y-67160000D01*
X165170000Y-69160000D02*
X163770000Y-69160000D01*
X165870000Y-67860000D02*
X165870000Y-68460000D01*
X163070000Y-67860000D02*
G75*
G02*
X163770000Y-67160000I700000J0D01*
G01*
X163770000Y-69160000D02*
G75*
G02*
X163070000Y-68460000I0J700000D01*
G01*
X165170000Y-67160000D02*
G75*
G02*
X165870000Y-67860000I1J-699999D01*
G01*
X165870000Y-68460000D02*
G75*
G02*
X165170000Y-69160000I-699999J-1D01*
G01*
%TO.C,JP33*%
X170010000Y-78660000D02*
X170010000Y-78060000D01*
X170710000Y-77360000D02*
X172110000Y-77360000D01*
X172110000Y-79360000D02*
X170710000Y-79360000D01*
X172810000Y-78060000D02*
X172810000Y-78660000D01*
X170010000Y-78060000D02*
G75*
G02*
X170710000Y-77360000I700000J0D01*
G01*
X170710000Y-79360000D02*
G75*
G02*
X170010000Y-78660000I0J700000D01*
G01*
X172110000Y-77360000D02*
G75*
G02*
X172810000Y-78060000I1J-699999D01*
G01*
X172810000Y-78660000D02*
G75*
G02*
X172110000Y-79360000I-699999J-1D01*
G01*
%TO.C,JP56*%
X140740000Y-48090000D02*
X140740000Y-47490000D01*
X141440000Y-46790000D02*
X142840000Y-46790000D01*
X142840000Y-48790000D02*
X141440000Y-48790000D01*
X143540000Y-47490000D02*
X143540000Y-48090000D01*
X140740000Y-47490000D02*
G75*
G02*
X141440000Y-46790000I700000J0D01*
G01*
X141440000Y-48790000D02*
G75*
G02*
X140740000Y-48090000I0J700000D01*
G01*
X142840000Y-46790000D02*
G75*
G02*
X143540000Y-47490000I1J-699999D01*
G01*
X143540000Y-48090000D02*
G75*
G02*
X142840000Y-48790000I-699999J-1D01*
G01*
%TO.C,JP78*%
X133770000Y-65920000D02*
X133770000Y-65320000D01*
X134470000Y-64620000D02*
X135870000Y-64620000D01*
X135870000Y-66620000D02*
X134470000Y-66620000D01*
X136570000Y-65320000D02*
X136570000Y-65920000D01*
X133770000Y-65320000D02*
G75*
G02*
X134470000Y-64620000I700000J0D01*
G01*
X134470000Y-66620000D02*
G75*
G02*
X133770000Y-65920000I0J700000D01*
G01*
X135870000Y-64620000D02*
G75*
G02*
X136570000Y-65320000I1J-699999D01*
G01*
X136570000Y-65920000D02*
G75*
G02*
X135870000Y-66620000I-699999J-1D01*
G01*
%TO.C,JP1*%
X117070000Y-126770000D02*
X117070000Y-127370000D01*
X117770000Y-128070000D02*
X119170000Y-128070000D01*
X119170000Y-126070000D02*
X117770000Y-126070000D01*
X119870000Y-127370000D02*
X119870000Y-126770000D01*
X117070000Y-126770000D02*
G75*
G02*
X117770000Y-126070000I700000J0D01*
G01*
X117770000Y-128070000D02*
G75*
G02*
X117070000Y-127370000I0J700000D01*
G01*
X119170000Y-126070000D02*
G75*
G02*
X119870000Y-126770000I1J-699999D01*
G01*
X119870000Y-127370000D02*
G75*
G02*
X119170000Y-128070000I-699999J-1D01*
G01*
%TO.C,e3*%
X193850000Y-125500000D02*
X193850000Y-126100000D01*
X194550000Y-126800000D02*
X195950000Y-126800000D01*
X195950000Y-124800000D02*
X194550000Y-124800000D01*
X196650000Y-126100000D02*
X196650000Y-125500000D01*
X193850000Y-125500000D02*
G75*
G02*
X194550000Y-124800000I699999J1D01*
G01*
X194550000Y-126800000D02*
G75*
G02*
X193850000Y-126100000I-1J699999D01*
G01*
X195950000Y-124800000D02*
G75*
G02*
X196650000Y-125500000I0J-700000D01*
G01*
X196650000Y-126100000D02*
G75*
G02*
X195950000Y-126800000I-700000J0D01*
G01*
%TO.C,JP58*%
X140760000Y-55760000D02*
X140760000Y-55160000D01*
X141460000Y-54460000D02*
X142860000Y-54460000D01*
X142860000Y-56460000D02*
X141460000Y-56460000D01*
X143560000Y-55160000D02*
X143560000Y-55760000D01*
X140760000Y-55160000D02*
G75*
G02*
X141460000Y-54460000I700000J0D01*
G01*
X141460000Y-56460000D02*
G75*
G02*
X140760000Y-55760000I0J700000D01*
G01*
X142860000Y-54460000D02*
G75*
G02*
X143560000Y-55160000I1J-699999D01*
G01*
X143560000Y-55760000D02*
G75*
G02*
X142860000Y-56460000I-699999J-1D01*
G01*
%TO.C,JP77*%
X133770000Y-60780000D02*
X133770000Y-60180000D01*
X134470000Y-59480000D02*
X135870000Y-59480000D01*
X135870000Y-61480000D02*
X134470000Y-61480000D01*
X136570000Y-60180000D02*
X136570000Y-60780000D01*
X133770000Y-60180000D02*
G75*
G02*
X134470000Y-59480000I700000J0D01*
G01*
X134470000Y-61480000D02*
G75*
G02*
X133770000Y-60780000I0J700000D01*
G01*
X135870000Y-59480000D02*
G75*
G02*
X136570000Y-60180000I1J-699999D01*
G01*
X136570000Y-60780000D02*
G75*
G02*
X135870000Y-61480000I-699999J-1D01*
G01*
%TO.C,JP74*%
X133810000Y-53160000D02*
X133810000Y-52560000D01*
X134510000Y-51860000D02*
X135910000Y-51860000D01*
X135910000Y-53860000D02*
X134510000Y-53860000D01*
X136610000Y-52560000D02*
X136610000Y-53160000D01*
X133810000Y-52560000D02*
G75*
G02*
X134510000Y-51860000I700000J0D01*
G01*
X134510000Y-53860000D02*
G75*
G02*
X133810000Y-53160000I0J700000D01*
G01*
X135910000Y-51860000D02*
G75*
G02*
X136610000Y-52560000I1J-699999D01*
G01*
X136610000Y-53160000D02*
G75*
G02*
X135910000Y-53860000I-699999J-1D01*
G01*
%TO.C,JP25*%
X170060000Y-48085000D02*
X170060000Y-47485000D01*
X170760000Y-46785000D02*
X172160000Y-46785000D01*
X172160000Y-48785000D02*
X170760000Y-48785000D01*
X172860000Y-47485000D02*
X172860000Y-48085000D01*
X170060000Y-47485000D02*
G75*
G02*
X170760000Y-46785000I700000J0D01*
G01*
X170760000Y-48785000D02*
G75*
G02*
X170060000Y-48085000I0J700000D01*
G01*
X172160000Y-46785000D02*
G75*
G02*
X172860000Y-47485000I1J-699999D01*
G01*
X172860000Y-48085000D02*
G75*
G02*
X172160000Y-48785000I-699999J-1D01*
G01*
%TO.C,JP50*%
X158150000Y-33810000D02*
X158150000Y-32410000D01*
X158850000Y-31710000D02*
X159450000Y-31710000D01*
X159450000Y-34510000D02*
X158850000Y-34510000D01*
X160150000Y-32410000D02*
X160150000Y-33810000D01*
X158150000Y-32410000D02*
G75*
G02*
X158850000Y-31710000I699999J1D01*
G01*
X158850000Y-34510000D02*
G75*
G02*
X158150000Y-33810000I0J700000D01*
G01*
X159450000Y-31710000D02*
G75*
G02*
X160150000Y-32410000I1J-699999D01*
G01*
X160150000Y-33810000D02*
G75*
G02*
X159450000Y-34510000I-700000J0D01*
G01*
%TO.C,JP66*%
X140760000Y-81160000D02*
X140760000Y-80560000D01*
X141460000Y-79860000D02*
X142860000Y-79860000D01*
X142860000Y-81860000D02*
X141460000Y-81860000D01*
X143560000Y-80560000D02*
X143560000Y-81160000D01*
X140760000Y-80560000D02*
G75*
G02*
X141460000Y-79860000I700000J0D01*
G01*
X141460000Y-81860000D02*
G75*
G02*
X140760000Y-81160000I0J700000D01*
G01*
X142860000Y-79860000D02*
G75*
G02*
X143560000Y-80560000I1J-699999D01*
G01*
X143560000Y-81160000D02*
G75*
G02*
X142860000Y-81860000I-699999J-1D01*
G01*
%TO.C,JP79*%
X133770000Y-68460000D02*
X133770000Y-67860000D01*
X134470000Y-67160000D02*
X135870000Y-67160000D01*
X135870000Y-69160000D02*
X134470000Y-69160000D01*
X136570000Y-67860000D02*
X136570000Y-68460000D01*
X133770000Y-67860000D02*
G75*
G02*
X134470000Y-67160000I700000J0D01*
G01*
X134470000Y-69160000D02*
G75*
G02*
X133770000Y-68460000I0J700000D01*
G01*
X135870000Y-67160000D02*
G75*
G02*
X136570000Y-67860000I1J-699999D01*
G01*
X136570000Y-68460000D02*
G75*
G02*
X135870000Y-69160000I-699999J-1D01*
G01*
%TO.C,JP86*%
X119090000Y-118310000D02*
X119090000Y-118910000D01*
X119790000Y-119610000D02*
X121190000Y-119610000D01*
X121190000Y-117610000D02*
X119790000Y-117610000D01*
X121890000Y-118910000D02*
X121890000Y-118310000D01*
X119090000Y-118310000D02*
G75*
G02*
X119790000Y-117610000I699999J1D01*
G01*
X119790000Y-119610000D02*
G75*
G02*
X119090000Y-118910000I-1J699999D01*
G01*
X121190000Y-117610000D02*
G75*
G02*
X121890000Y-118310000I0J-700000D01*
G01*
X121890000Y-118910000D02*
G75*
G02*
X121190000Y-119610000I-700000J0D01*
G01*
%TO.C,JP71*%
X133835000Y-42910000D02*
X133835000Y-42310000D01*
X134535000Y-41610000D02*
X135935000Y-41610000D01*
X135935000Y-43610000D02*
X134535000Y-43610000D01*
X136635000Y-42310000D02*
X136635000Y-42910000D01*
X133835000Y-42310000D02*
G75*
G02*
X134535000Y-41610000I700000J0D01*
G01*
X134535000Y-43610000D02*
G75*
G02*
X133835000Y-42910000I0J700000D01*
G01*
X135935000Y-41610000D02*
G75*
G02*
X136635000Y-42310000I1J-699999D01*
G01*
X136635000Y-42910000D02*
G75*
G02*
X135935000Y-43610000I-699999J-1D01*
G01*
%TO.C,JP76*%
X133780000Y-58240000D02*
X133780000Y-57640000D01*
X134480000Y-56940000D02*
X135880000Y-56940000D01*
X135880000Y-58940000D02*
X134480000Y-58940000D01*
X136580000Y-57640000D02*
X136580000Y-58240000D01*
X133780000Y-57640000D02*
G75*
G02*
X134480000Y-56940000I700000J0D01*
G01*
X134480000Y-58940000D02*
G75*
G02*
X133780000Y-58240000I0J700000D01*
G01*
X135880000Y-56940000D02*
G75*
G02*
X136580000Y-57640000I1J-699999D01*
G01*
X136580000Y-58240000D02*
G75*
G02*
X135880000Y-58940000I-699999J-1D01*
G01*
%TO.C,e5*%
X108870000Y-83370000D02*
X108870000Y-84770000D01*
X109570000Y-85470000D02*
X110170000Y-85470000D01*
X110170000Y-82670000D02*
X109570000Y-82670000D01*
X110870000Y-84770000D02*
X110870000Y-83370000D01*
X108870000Y-83370000D02*
G75*
G02*
X109570000Y-82670000I699999J1D01*
G01*
X109570000Y-85470000D02*
G75*
G02*
X108870000Y-84770000I0J700000D01*
G01*
X110170000Y-82670000D02*
G75*
G02*
X110870000Y-83370000I1J-699999D01*
G01*
X110870000Y-84770000D02*
G75*
G02*
X110170000Y-85470000I-700000J0D01*
G01*
%TO.C,JP31*%
X170085000Y-70985000D02*
X170085000Y-70385000D01*
X170785000Y-69685000D02*
X172185000Y-69685000D01*
X172185000Y-71685000D02*
X170785000Y-71685000D01*
X172885000Y-70385000D02*
X172885000Y-70985000D01*
X170085000Y-70385000D02*
G75*
G02*
X170785000Y-69685000I700000J0D01*
G01*
X170785000Y-71685000D02*
G75*
G02*
X170085000Y-70985000I0J700000D01*
G01*
X172185000Y-69685000D02*
G75*
G02*
X172885000Y-70385000I1J-699999D01*
G01*
X172885000Y-70985000D02*
G75*
G02*
X172185000Y-71685000I-699999J-1D01*
G01*
%TO.C,JP83*%
X133610000Y-81160000D02*
X133610000Y-80560000D01*
X134310000Y-79860000D02*
X135710000Y-79860000D01*
X135710000Y-81860000D02*
X134310000Y-81860000D01*
X136410000Y-80560000D02*
X136410000Y-81160000D01*
X133610000Y-80560000D02*
G75*
G02*
X134310000Y-79860000I700000J0D01*
G01*
X134310000Y-81860000D02*
G75*
G02*
X133610000Y-81160000I0J700000D01*
G01*
X135710000Y-79860000D02*
G75*
G02*
X136410000Y-80560000I1J-699999D01*
G01*
X136410000Y-81160000D02*
G75*
G02*
X135710000Y-81860000I-699999J-1D01*
G01*
%TO.C,JP44*%
X163070000Y-65910000D02*
X163070000Y-65310000D01*
X163770000Y-64610000D02*
X165170000Y-64610000D01*
X165170000Y-66610000D02*
X163770000Y-66610000D01*
X165870000Y-65310000D02*
X165870000Y-65910000D01*
X163070000Y-65310000D02*
G75*
G02*
X163770000Y-64610000I700000J0D01*
G01*
X163770000Y-66610000D02*
G75*
G02*
X163070000Y-65910000I0J700000D01*
G01*
X165170000Y-64610000D02*
G75*
G02*
X165870000Y-65310000I1J-699999D01*
G01*
X165870000Y-65910000D02*
G75*
G02*
X165170000Y-66610000I-699999J-1D01*
G01*
%TO.C,JP27*%
X170035000Y-55760000D02*
X170035000Y-55160000D01*
X170735000Y-54460000D02*
X172135000Y-54460000D01*
X172135000Y-56460000D02*
X170735000Y-56460000D01*
X172835000Y-55160000D02*
X172835000Y-55760000D01*
X170035000Y-55160000D02*
G75*
G02*
X170735000Y-54460000I700000J0D01*
G01*
X170735000Y-56460000D02*
G75*
G02*
X170035000Y-55760000I0J700000D01*
G01*
X172135000Y-54460000D02*
G75*
G02*
X172835000Y-55160000I1J-699999D01*
G01*
X172835000Y-55760000D02*
G75*
G02*
X172135000Y-56460000I-699999J-1D01*
G01*
%TO.C,JP70*%
X133960000Y-40360000D02*
X133960000Y-39760000D01*
X134660000Y-39060000D02*
X136060000Y-39060000D01*
X136060000Y-41060000D02*
X134660000Y-41060000D01*
X136760000Y-39760000D02*
X136760000Y-40360000D01*
X133960000Y-39760000D02*
G75*
G02*
X134660000Y-39060000I700000J0D01*
G01*
X134660000Y-41060000D02*
G75*
G02*
X133960000Y-40360000I0J700000D01*
G01*
X136060000Y-39060000D02*
G75*
G02*
X136760000Y-39760000I1J-699999D01*
G01*
X136760000Y-40360000D02*
G75*
G02*
X136060000Y-41060000I-699999J-1D01*
G01*
%TO.C,JP57*%
X140760000Y-53220000D02*
X140760000Y-52620000D01*
X141460000Y-51920000D02*
X142860000Y-51920000D01*
X142860000Y-53920000D02*
X141460000Y-53920000D01*
X143560000Y-52620000D02*
X143560000Y-53220000D01*
X140760000Y-52620000D02*
G75*
G02*
X141460000Y-51920000I700000J0D01*
G01*
X141460000Y-53920000D02*
G75*
G02*
X140760000Y-53220000I0J700000D01*
G01*
X142860000Y-51920000D02*
G75*
G02*
X143560000Y-52620000I1J-699999D01*
G01*
X143560000Y-53220000D02*
G75*
G02*
X142860000Y-53920000I-699999J-1D01*
G01*
%TO.C,JP18*%
X116640000Y-70260000D02*
X116640000Y-71660000D01*
X117340000Y-72360000D02*
X117940000Y-72360000D01*
X117940000Y-69560000D02*
X117340000Y-69560000D01*
X118640000Y-71660000D02*
X118640000Y-70260000D01*
X116640000Y-70260000D02*
G75*
G02*
X117340000Y-69560000I699999J1D01*
G01*
X117340000Y-72360000D02*
G75*
G02*
X116640000Y-71660000I0J700000D01*
G01*
X117940000Y-69560000D02*
G75*
G02*
X118640000Y-70260000I1J-699999D01*
G01*
X118640000Y-71660000D02*
G75*
G02*
X117940000Y-72360000I-700000J0D01*
G01*
%TO.C,JP63*%
X140760000Y-71000000D02*
X140760000Y-70400000D01*
X141460000Y-69700000D02*
X142860000Y-69700000D01*
X142860000Y-71700000D02*
X141460000Y-71700000D01*
X143560000Y-70400000D02*
X143560000Y-71000000D01*
X140760000Y-70400000D02*
G75*
G02*
X141460000Y-69700000I700000J0D01*
G01*
X141460000Y-71700000D02*
G75*
G02*
X140760000Y-71000000I0J700000D01*
G01*
X142860000Y-69700000D02*
G75*
G02*
X143560000Y-70400000I1J-699999D01*
G01*
X143560000Y-71000000D02*
G75*
G02*
X142860000Y-71700000I-699999J-1D01*
G01*
%TO.C,JP73*%
X133835000Y-47985000D02*
X133835000Y-47385000D01*
X134535000Y-46685000D02*
X135935000Y-46685000D01*
X135935000Y-48685000D02*
X134535000Y-48685000D01*
X136635000Y-47385000D02*
X136635000Y-47985000D01*
X133835000Y-47385000D02*
G75*
G02*
X134535000Y-46685000I700000J0D01*
G01*
X134535000Y-48685000D02*
G75*
G02*
X133835000Y-47985000I0J700000D01*
G01*
X135935000Y-46685000D02*
G75*
G02*
X136635000Y-47385000I1J-699999D01*
G01*
X136635000Y-47985000D02*
G75*
G02*
X135935000Y-48685000I-699999J-1D01*
G01*
%TO.C,JP55*%
X140750000Y-45550000D02*
X140750000Y-44950000D01*
X141450000Y-44250000D02*
X142850000Y-44250000D01*
X142850000Y-46250000D02*
X141450000Y-46250000D01*
X143550000Y-44950000D02*
X143550000Y-45550000D01*
X140750000Y-44950000D02*
G75*
G02*
X141450000Y-44250000I700000J0D01*
G01*
X141450000Y-46250000D02*
G75*
G02*
X140750000Y-45550000I0J700000D01*
G01*
X142850000Y-44250000D02*
G75*
G02*
X143550000Y-44950000I1J-699999D01*
G01*
X143550000Y-45550000D02*
G75*
G02*
X142850000Y-46250000I-699999J-1D01*
G01*
%TO.C,JP41*%
X163070000Y-53230000D02*
X163070000Y-52630000D01*
X163770000Y-51930000D02*
X165170000Y-51930000D01*
X165170000Y-53930000D02*
X163770000Y-53930000D01*
X165870000Y-52630000D02*
X165870000Y-53230000D01*
X163070000Y-52630000D02*
G75*
G02*
X163770000Y-51930000I700000J0D01*
G01*
X163770000Y-53930000D02*
G75*
G02*
X163070000Y-53230000I0J700000D01*
G01*
X165170000Y-51930000D02*
G75*
G02*
X165870000Y-52630000I1J-699999D01*
G01*
X165870000Y-53230000D02*
G75*
G02*
X165170000Y-53930000I-699999J-1D01*
G01*
%TO.C,JP80*%
X133770000Y-71000000D02*
X133770000Y-70400000D01*
X134470000Y-69700000D02*
X135870000Y-69700000D01*
X135870000Y-71700000D02*
X134470000Y-71700000D01*
X136570000Y-70400000D02*
X136570000Y-71000000D01*
X133770000Y-70400000D02*
G75*
G02*
X134470000Y-69700000I700000J0D01*
G01*
X134470000Y-71700000D02*
G75*
G02*
X133770000Y-71000000I0J700000D01*
G01*
X135870000Y-69700000D02*
G75*
G02*
X136570000Y-70400000I1J-699999D01*
G01*
X136570000Y-71000000D02*
G75*
G02*
X135870000Y-71700000I-699999J-1D01*
G01*
%TO.C,JP43*%
X163070000Y-60810000D02*
X163070000Y-60210000D01*
X163770000Y-59510000D02*
X165170000Y-59510000D01*
X165170000Y-61510000D02*
X163770000Y-61510000D01*
X165870000Y-60210000D02*
X165870000Y-60810000D01*
X163070000Y-60210000D02*
G75*
G02*
X163770000Y-59510000I700000J0D01*
G01*
X163770000Y-61510000D02*
G75*
G02*
X163070000Y-60810000I0J700000D01*
G01*
X165170000Y-59510000D02*
G75*
G02*
X165870000Y-60210000I1J-699999D01*
G01*
X165870000Y-60810000D02*
G75*
G02*
X165170000Y-61510000I-699999J-1D01*
G01*
%TO.C,JP39*%
X162990000Y-45520000D02*
X162990000Y-44920000D01*
X163690000Y-44220000D02*
X165090000Y-44220000D01*
X165090000Y-46220000D02*
X163690000Y-46220000D01*
X165790000Y-44920000D02*
X165790000Y-45520000D01*
X162990000Y-44920000D02*
G75*
G02*
X163690000Y-44220000I700000J0D01*
G01*
X163690000Y-46220000D02*
G75*
G02*
X162990000Y-45520000I0J700000D01*
G01*
X165090000Y-44220000D02*
G75*
G02*
X165790000Y-44920000I1J-699999D01*
G01*
X165790000Y-45520000D02*
G75*
G02*
X165090000Y-46220000I-699999J-1D01*
G01*
%TO.C,JP26*%
X170035000Y-53210000D02*
X170035000Y-52610000D01*
X170735000Y-51910000D02*
X172135000Y-51910000D01*
X172135000Y-53910000D02*
X170735000Y-53910000D01*
X172835000Y-52610000D02*
X172835000Y-53210000D01*
X170035000Y-52610000D02*
G75*
G02*
X170735000Y-51910000I700000J0D01*
G01*
X170735000Y-53910000D02*
G75*
G02*
X170035000Y-53210000I0J700000D01*
G01*
X172135000Y-51910000D02*
G75*
G02*
X172835000Y-52610000I1J-699999D01*
G01*
X172835000Y-53210000D02*
G75*
G02*
X172135000Y-53910000I-699999J-1D01*
G01*
%TO.C,JP67*%
X133860000Y-32860000D02*
X133860000Y-32260000D01*
X134560000Y-31560000D02*
X135960000Y-31560000D01*
X135960000Y-33560000D02*
X134560000Y-33560000D01*
X136660000Y-32260000D02*
X136660000Y-32860000D01*
X133860000Y-32260000D02*
G75*
G02*
X134560000Y-31560000I700000J0D01*
G01*
X134560000Y-33560000D02*
G75*
G02*
X133860000Y-32860000I0J700000D01*
G01*
X135960000Y-31560000D02*
G75*
G02*
X136660000Y-32260000I1J-699999D01*
G01*
X136660000Y-32860000D02*
G75*
G02*
X135960000Y-33560000I-699999J-1D01*
G01*
%TO.C,JP29*%
X170060000Y-65910000D02*
X170060000Y-65310000D01*
X170760000Y-64610000D02*
X172160000Y-64610000D01*
X172160000Y-66610000D02*
X170760000Y-66610000D01*
X172860000Y-65310000D02*
X172860000Y-65910000D01*
X170060000Y-65310000D02*
G75*
G02*
X170760000Y-64610000I700000J0D01*
G01*
X170760000Y-66610000D02*
G75*
G02*
X170060000Y-65910000I0J700000D01*
G01*
X172160000Y-64610000D02*
G75*
G02*
X172860000Y-65310000I1J-699999D01*
G01*
X172860000Y-65910000D02*
G75*
G02*
X172160000Y-66610000I-699999J-1D01*
G01*
%TO.C,JP34*%
X170010000Y-81210000D02*
X170010000Y-80610000D01*
X170710000Y-79910000D02*
X172110000Y-79910000D01*
X172110000Y-81910000D02*
X170710000Y-81910000D01*
X172810000Y-80610000D02*
X172810000Y-81210000D01*
X170010000Y-80610000D02*
G75*
G02*
X170710000Y-79910000I700000J0D01*
G01*
X170710000Y-81910000D02*
G75*
G02*
X170010000Y-81210000I0J700000D01*
G01*
X172110000Y-79910000D02*
G75*
G02*
X172810000Y-80610000I1J-699999D01*
G01*
X172810000Y-81210000D02*
G75*
G02*
X172110000Y-81910000I-699999J-1D01*
G01*
%TO.C,JP49*%
X163040000Y-81120000D02*
X163040000Y-80520000D01*
X163740000Y-79820000D02*
X165140000Y-79820000D01*
X165140000Y-81820000D02*
X163740000Y-81820000D01*
X165840000Y-80520000D02*
X165840000Y-81120000D01*
X163040000Y-80520000D02*
G75*
G02*
X163740000Y-79820000I700000J0D01*
G01*
X163740000Y-81820000D02*
G75*
G02*
X163040000Y-81120000I0J700000D01*
G01*
X165140000Y-79820000D02*
G75*
G02*
X165840000Y-80520000I1J-699999D01*
G01*
X165840000Y-81120000D02*
G75*
G02*
X165140000Y-81820000I-699999J-1D01*
G01*
%TO.C,JP36*%
X162970000Y-35440000D02*
X162970000Y-34840000D01*
X163670000Y-34140000D02*
X165070000Y-34140000D01*
X165070000Y-36140000D02*
X163670000Y-36140000D01*
X165770000Y-34840000D02*
X165770000Y-35440000D01*
X162970000Y-34840000D02*
G75*
G02*
X163670000Y-34140000I700000J0D01*
G01*
X163670000Y-36140000D02*
G75*
G02*
X162970000Y-35440000I0J700000D01*
G01*
X165070000Y-34140000D02*
G75*
G02*
X165770000Y-34840000I1J-699999D01*
G01*
X165770000Y-35440000D02*
G75*
G02*
X165070000Y-36140000I-699999J-1D01*
G01*
%TO.C,JP40*%
X162950000Y-48060000D02*
X162950000Y-47460000D01*
X163650000Y-46760000D02*
X165050000Y-46760000D01*
X165050000Y-48760000D02*
X163650000Y-48760000D01*
X165750000Y-47460000D02*
X165750000Y-48060000D01*
X162950000Y-47460000D02*
G75*
G02*
X163650000Y-46760000I700000J0D01*
G01*
X163650000Y-48760000D02*
G75*
G02*
X162950000Y-48060000I0J700000D01*
G01*
X165050000Y-46760000D02*
G75*
G02*
X165750000Y-47460000I1J-699999D01*
G01*
X165750000Y-48060000D02*
G75*
G02*
X165050000Y-48760000I-699999J-1D01*
G01*
%TO.C,JP65*%
X140760000Y-78620000D02*
X140760000Y-78020000D01*
X141460000Y-77320000D02*
X142860000Y-77320000D01*
X142860000Y-79320000D02*
X141460000Y-79320000D01*
X143560000Y-78020000D02*
X143560000Y-78620000D01*
X140760000Y-78020000D02*
G75*
G02*
X141460000Y-77320000I700000J0D01*
G01*
X141460000Y-79320000D02*
G75*
G02*
X140760000Y-78620000I0J700000D01*
G01*
X142860000Y-77320000D02*
G75*
G02*
X143560000Y-78020000I1J-699999D01*
G01*
X143560000Y-78620000D02*
G75*
G02*
X142860000Y-79320000I-699999J-1D01*
G01*
%TO.C,JP28*%
X170035000Y-60810000D02*
X170035000Y-60210000D01*
X170735000Y-59510000D02*
X172135000Y-59510000D01*
X172135000Y-61510000D02*
X170735000Y-61510000D01*
X172835000Y-60210000D02*
X172835000Y-60810000D01*
X170035000Y-60210000D02*
G75*
G02*
X170735000Y-59510000I700000J0D01*
G01*
X170735000Y-61510000D02*
G75*
G02*
X170035000Y-60810000I0J700000D01*
G01*
X172135000Y-59510000D02*
G75*
G02*
X172835000Y-60210000I1J-699999D01*
G01*
X172835000Y-60810000D02*
G75*
G02*
X172135000Y-61510000I-699999J-1D01*
G01*
%TO.C,JP68*%
X133835000Y-35360000D02*
X133835000Y-34760000D01*
X134535000Y-34060000D02*
X135935000Y-34060000D01*
X135935000Y-36060000D02*
X134535000Y-36060000D01*
X136635000Y-34760000D02*
X136635000Y-35360000D01*
X133835000Y-34760000D02*
G75*
G02*
X134535000Y-34060000I700000J0D01*
G01*
X134535000Y-36060000D02*
G75*
G02*
X133835000Y-35360000I0J700000D01*
G01*
X135935000Y-34060000D02*
G75*
G02*
X136635000Y-34760000I1J-699999D01*
G01*
X136635000Y-35360000D02*
G75*
G02*
X135935000Y-36060000I-699999J-1D01*
G01*
%TO.C,JP32*%
X170085000Y-73510000D02*
X170085000Y-72910000D01*
X170785000Y-72210000D02*
X172185000Y-72210000D01*
X172185000Y-74210000D02*
X170785000Y-74210000D01*
X172885000Y-72910000D02*
X172885000Y-73510000D01*
X170085000Y-72910000D02*
G75*
G02*
X170785000Y-72210000I700000J0D01*
G01*
X170785000Y-74210000D02*
G75*
G02*
X170085000Y-73510000I0J700000D01*
G01*
X172185000Y-72210000D02*
G75*
G02*
X172885000Y-72910000I1J-699999D01*
G01*
X172885000Y-73510000D02*
G75*
G02*
X172185000Y-74210000I-699999J-1D01*
G01*
%TO.C,JP30*%
X170085000Y-68460000D02*
X170085000Y-67860000D01*
X170785000Y-67160000D02*
X172185000Y-67160000D01*
X172185000Y-69160000D02*
X170785000Y-69160000D01*
X172885000Y-67860000D02*
X172885000Y-68460000D01*
X170085000Y-67860000D02*
G75*
G02*
X170785000Y-67160000I700000J0D01*
G01*
X170785000Y-69160000D02*
G75*
G02*
X170085000Y-68460000I0J700000D01*
G01*
X172185000Y-67160000D02*
G75*
G02*
X172885000Y-67860000I1J-699999D01*
G01*
X172885000Y-68460000D02*
G75*
G02*
X172185000Y-69160000I-699999J-1D01*
G01*
%TO.C,JP42*%
X162940000Y-55760000D02*
X162940000Y-55160000D01*
X163640000Y-54460000D02*
X165040000Y-54460000D01*
X165040000Y-56460000D02*
X163640000Y-56460000D01*
X165740000Y-55160000D02*
X165740000Y-55760000D01*
X162940000Y-55160000D02*
G75*
G02*
X163640000Y-54460000I700000J0D01*
G01*
X163640000Y-56460000D02*
G75*
G02*
X162940000Y-55760000I0J700000D01*
G01*
X165040000Y-54460000D02*
G75*
G02*
X165740000Y-55160000I1J-699999D01*
G01*
X165740000Y-55760000D02*
G75*
G02*
X165040000Y-56460000I-699999J-1D01*
G01*
%TO.C,JP54*%
X140730000Y-43050000D02*
X140730000Y-42450000D01*
X141430000Y-41750000D02*
X142830000Y-41750000D01*
X142830000Y-43750000D02*
X141430000Y-43750000D01*
X143530000Y-42450000D02*
X143530000Y-43050000D01*
X140730000Y-42450000D02*
G75*
G02*
X141430000Y-41750000I700000J0D01*
G01*
X141430000Y-43750000D02*
G75*
G02*
X140730000Y-43050000I0J700000D01*
G01*
X142830000Y-41750000D02*
G75*
G02*
X143530000Y-42450000I1J-699999D01*
G01*
X143530000Y-43050000D02*
G75*
G02*
X142830000Y-43750000I-699999J-1D01*
G01*
%TO.C,JP51*%
X140790000Y-32890000D02*
X140790000Y-32290000D01*
X141490000Y-31590000D02*
X142890000Y-31590000D01*
X142890000Y-33590000D02*
X141490000Y-33590000D01*
X143590000Y-32290000D02*
X143590000Y-32890000D01*
X140790000Y-32290000D02*
G75*
G02*
X141490000Y-31590000I700000J0D01*
G01*
X141490000Y-33590000D02*
G75*
G02*
X140790000Y-32890000I0J700000D01*
G01*
X142890000Y-31590000D02*
G75*
G02*
X143590000Y-32290000I1J-699999D01*
G01*
X143590000Y-32890000D02*
G75*
G02*
X142890000Y-33590000I-699999J-1D01*
G01*
%TO.C,JP62*%
X140760000Y-68460000D02*
X140760000Y-67860000D01*
X141460000Y-67160000D02*
X142860000Y-67160000D01*
X142860000Y-69160000D02*
X141460000Y-69160000D01*
X143560000Y-67860000D02*
X143560000Y-68460000D01*
X140760000Y-67860000D02*
G75*
G02*
X141460000Y-67160000I700000J0D01*
G01*
X141460000Y-69160000D02*
G75*
G02*
X140760000Y-68460000I0J700000D01*
G01*
X142860000Y-67160000D02*
G75*
G02*
X143560000Y-67860000I1J-699999D01*
G01*
X143560000Y-68460000D02*
G75*
G02*
X142860000Y-69160000I-699999J-1D01*
G01*
%TO.C,JP53*%
X140730000Y-40550000D02*
X140730000Y-39950000D01*
X141430000Y-39250000D02*
X142830000Y-39250000D01*
X142830000Y-41250000D02*
X141430000Y-41250000D01*
X143530000Y-39950000D02*
X143530000Y-40550000D01*
X140730000Y-39950000D02*
G75*
G02*
X141430000Y-39250000I700000J0D01*
G01*
X141430000Y-41250000D02*
G75*
G02*
X140730000Y-40550000I0J700000D01*
G01*
X142830000Y-39250000D02*
G75*
G02*
X143530000Y-39950000I1J-699999D01*
G01*
X143530000Y-40550000D02*
G75*
G02*
X142830000Y-41250000I-699999J-1D01*
G01*
%TO.C,JP60*%
X140760000Y-60840000D02*
X140760000Y-60240000D01*
X141460000Y-59540000D02*
X142860000Y-59540000D01*
X142860000Y-61540000D02*
X141460000Y-61540000D01*
X143560000Y-60240000D02*
X143560000Y-60840000D01*
X140760000Y-60240000D02*
G75*
G02*
X141460000Y-59540000I700000J0D01*
G01*
X141460000Y-61540000D02*
G75*
G02*
X140760000Y-60840000I0J700000D01*
G01*
X142860000Y-59540000D02*
G75*
G02*
X143560000Y-60240000I1J-699999D01*
G01*
X143560000Y-60840000D02*
G75*
G02*
X142860000Y-61540000I-699999J-1D01*
G01*
%TO.C,JP47*%
X163130000Y-73550000D02*
X163130000Y-72950000D01*
X163830000Y-72250000D02*
X165230000Y-72250000D01*
X165230000Y-74250000D02*
X163830000Y-74250000D01*
X165930000Y-72950000D02*
X165930000Y-73550000D01*
X163130000Y-72950000D02*
G75*
G02*
X163830000Y-72250000I700000J0D01*
G01*
X163830000Y-74250000D02*
G75*
G02*
X163130000Y-73550000I0J700000D01*
G01*
X165230000Y-72250000D02*
G75*
G02*
X165930000Y-72950000I1J-699999D01*
G01*
X165930000Y-73550000D02*
G75*
G02*
X165230000Y-74250000I-699999J-1D01*
G01*
%TO.C,JP72*%
X133835000Y-45460000D02*
X133835000Y-44860000D01*
X134535000Y-44160000D02*
X135935000Y-44160000D01*
X135935000Y-46160000D02*
X134535000Y-46160000D01*
X136635000Y-44860000D02*
X136635000Y-45460000D01*
X133835000Y-44860000D02*
G75*
G02*
X134535000Y-44160000I700000J0D01*
G01*
X134535000Y-46160000D02*
G75*
G02*
X133835000Y-45460000I0J700000D01*
G01*
X135935000Y-44160000D02*
G75*
G02*
X136635000Y-44860000I1J-699999D01*
G01*
X136635000Y-45460000D02*
G75*
G02*
X135935000Y-46160000I-699999J-1D01*
G01*
%TO.C,JP38*%
X162960000Y-43010000D02*
X162960000Y-42410000D01*
X163660000Y-41710000D02*
X165060000Y-41710000D01*
X165060000Y-43710000D02*
X163660000Y-43710000D01*
X165760000Y-42410000D02*
X165760000Y-43010000D01*
X162960000Y-42410000D02*
G75*
G02*
X163660000Y-41710000I700000J0D01*
G01*
X163660000Y-43710000D02*
G75*
G02*
X162960000Y-43010000I0J700000D01*
G01*
X165060000Y-41710000D02*
G75*
G02*
X165760000Y-42410000I1J-699999D01*
G01*
X165760000Y-43010000D02*
G75*
G02*
X165060000Y-43710000I-699999J-1D01*
G01*
%TO.C,JP46*%
X163130000Y-71020000D02*
X163130000Y-70420000D01*
X163830000Y-69720000D02*
X165230000Y-69720000D01*
X165230000Y-71720000D02*
X163830000Y-71720000D01*
X165930000Y-70420000D02*
X165930000Y-71020000D01*
X163130000Y-70420000D02*
G75*
G02*
X163830000Y-69720000I700000J0D01*
G01*
X163830000Y-71720000D02*
G75*
G02*
X163130000Y-71020000I0J700000D01*
G01*
X165230000Y-69720000D02*
G75*
G02*
X165930000Y-70420000I1J-699999D01*
G01*
X165930000Y-71020000D02*
G75*
G02*
X165230000Y-71720000I-699999J-1D01*
G01*
%TO.C,e8*%
X108490000Y-62690000D02*
X108490000Y-63290000D01*
X109190000Y-63990000D02*
X110590000Y-63990000D01*
X110590000Y-61990000D02*
X109190000Y-61990000D01*
X111290000Y-63290000D02*
X111290000Y-62690000D01*
X108490000Y-62690000D02*
G75*
G02*
X109190000Y-61990000I700000J0D01*
G01*
X109190000Y-63990000D02*
G75*
G02*
X108490000Y-63290000I0J700000D01*
G01*
X110590000Y-61990000D02*
G75*
G02*
X111290000Y-62690000I1J-699999D01*
G01*
X111290000Y-63290000D02*
G75*
G02*
X110590000Y-63990000I-699999J-1D01*
G01*
%TO.C,JP61*%
X140760000Y-65920000D02*
X140760000Y-65320000D01*
X141460000Y-64620000D02*
X142860000Y-64620000D01*
X142860000Y-66620000D02*
X141460000Y-66620000D01*
X143560000Y-65320000D02*
X143560000Y-65920000D01*
X140760000Y-65320000D02*
G75*
G02*
X141460000Y-64620000I700000J0D01*
G01*
X141460000Y-66620000D02*
G75*
G02*
X140760000Y-65920000I0J700000D01*
G01*
X142860000Y-64620000D02*
G75*
G02*
X143560000Y-65320000I1J-699999D01*
G01*
X143560000Y-65920000D02*
G75*
G02*
X142860000Y-66620000I-699999J-1D01*
G01*
%TO.C,JP81*%
X133770000Y-73540000D02*
X133770000Y-72940000D01*
X134470000Y-72240000D02*
X135870000Y-72240000D01*
X135870000Y-74240000D02*
X134470000Y-74240000D01*
X136570000Y-72940000D02*
X136570000Y-73540000D01*
X133770000Y-72940000D02*
G75*
G02*
X134470000Y-72240000I700000J0D01*
G01*
X134470000Y-74240000D02*
G75*
G02*
X133770000Y-73540000I0J700000D01*
G01*
X135870000Y-72240000D02*
G75*
G02*
X136570000Y-72940000I1J-699999D01*
G01*
X136570000Y-73540000D02*
G75*
G02*
X135870000Y-74240000I-699999J-1D01*
G01*
%TO.C,JP64*%
X140760000Y-73540000D02*
X140760000Y-72940000D01*
X141460000Y-72240000D02*
X142860000Y-72240000D01*
X142860000Y-74240000D02*
X141460000Y-74240000D01*
X143560000Y-72940000D02*
X143560000Y-73540000D01*
X140760000Y-72940000D02*
G75*
G02*
X141460000Y-72240000I700000J0D01*
G01*
X141460000Y-74240000D02*
G75*
G02*
X140760000Y-73540000I0J700000D01*
G01*
X142860000Y-72240000D02*
G75*
G02*
X143560000Y-72940000I1J-699999D01*
G01*
X143560000Y-73540000D02*
G75*
G02*
X142860000Y-74240000I-699999J-1D01*
G01*
%TO.C,JP2*%
X152420000Y-60630000D02*
X152420000Y-62030000D01*
X153120000Y-62730000D02*
X153720000Y-62730000D01*
X153720000Y-59930000D02*
X153120000Y-59930000D01*
X154420000Y-62030000D02*
X154420000Y-60630000D01*
X152420000Y-60630000D02*
G75*
G02*
X153120000Y-59930000I700000J0D01*
G01*
X153120000Y-62730000D02*
G75*
G02*
X152420000Y-62030000I-1J699999D01*
G01*
X153720000Y-59930000D02*
G75*
G02*
X154420000Y-60630000I0J-700000D01*
G01*
X154420000Y-62030000D02*
G75*
G02*
X153720000Y-62730000I-699999J-1D01*
G01*
%TO.C,JP48*%
X163080000Y-78580000D02*
X163080000Y-77980000D01*
X163780000Y-77280000D02*
X165180000Y-77280000D01*
X165180000Y-79280000D02*
X163780000Y-79280000D01*
X165880000Y-77980000D02*
X165880000Y-78580000D01*
X163080000Y-77980000D02*
G75*
G02*
X163780000Y-77280000I700000J0D01*
G01*
X163780000Y-79280000D02*
G75*
G02*
X163080000Y-78580000I0J700000D01*
G01*
X165180000Y-77280000D02*
G75*
G02*
X165880000Y-77980000I1J-699999D01*
G01*
X165880000Y-78580000D02*
G75*
G02*
X165180000Y-79280000I-699999J-1D01*
G01*
%TO.C,JP75*%
X133660000Y-55710000D02*
X133660000Y-55110000D01*
X134360000Y-54410000D02*
X135760000Y-54410000D01*
X135760000Y-56410000D02*
X134360000Y-56410000D01*
X136460000Y-55110000D02*
X136460000Y-55710000D01*
X133660000Y-55110000D02*
G75*
G02*
X134360000Y-54410000I700000J0D01*
G01*
X134360000Y-56410000D02*
G75*
G02*
X133660000Y-55710000I0J700000D01*
G01*
X135760000Y-54410000D02*
G75*
G02*
X136460000Y-55110000I1J-699999D01*
G01*
X136460000Y-55710000D02*
G75*
G02*
X135760000Y-56410000I-699999J-1D01*
G01*
%TO.C,JP24*%
X170085000Y-45585000D02*
X170085000Y-44985000D01*
X170785000Y-44285000D02*
X172185000Y-44285000D01*
X172185000Y-46285000D02*
X170785000Y-46285000D01*
X172885000Y-44985000D02*
X172885000Y-45585000D01*
X170085000Y-44985000D02*
G75*
G02*
X170785000Y-44285000I700000J0D01*
G01*
X170785000Y-46285000D02*
G75*
G02*
X170085000Y-45585000I0J700000D01*
G01*
X172185000Y-44285000D02*
G75*
G02*
X172885000Y-44985000I1J-699999D01*
G01*
X172885000Y-45585000D02*
G75*
G02*
X172185000Y-46285000I-699999J-1D01*
G01*
%TO.C,JP52*%
X140730000Y-35400000D02*
X140730000Y-34800000D01*
X141430000Y-34100000D02*
X142830000Y-34100000D01*
X142830000Y-36100000D02*
X141430000Y-36100000D01*
X143530000Y-34800000D02*
X143530000Y-35400000D01*
X140730000Y-34800000D02*
G75*
G02*
X141430000Y-34100000I700000J0D01*
G01*
X141430000Y-36100000D02*
G75*
G02*
X140730000Y-35400000I0J700000D01*
G01*
X142830000Y-34100000D02*
G75*
G02*
X143530000Y-34800000I1J-699999D01*
G01*
X143530000Y-35400000D02*
G75*
G02*
X142830000Y-36100000I-699999J-1D01*
G01*
%TO.C,JP23*%
X170085000Y-43035000D02*
X170085000Y-42435000D01*
X170785000Y-41735000D02*
X172185000Y-41735000D01*
X172185000Y-43735000D02*
X170785000Y-43735000D01*
X172885000Y-42435000D02*
X172885000Y-43035000D01*
X170085000Y-42435000D02*
G75*
G02*
X170785000Y-41735000I700000J0D01*
G01*
X170785000Y-43735000D02*
G75*
G02*
X170085000Y-43035000I0J700000D01*
G01*
X172185000Y-41735000D02*
G75*
G02*
X172885000Y-42435000I1J-699999D01*
G01*
X172885000Y-43035000D02*
G75*
G02*
X172185000Y-43735000I-699999J-1D01*
G01*
%TO.C,JP22*%
X170085000Y-40510000D02*
X170085000Y-39910000D01*
X170785000Y-39210000D02*
X172185000Y-39210000D01*
X172185000Y-41210000D02*
X170785000Y-41210000D01*
X172885000Y-39910000D02*
X172885000Y-40510000D01*
X170085000Y-39910000D02*
G75*
G02*
X170785000Y-39210000I700000J0D01*
G01*
X170785000Y-41210000D02*
G75*
G02*
X170085000Y-40510000I0J700000D01*
G01*
X172185000Y-39210000D02*
G75*
G02*
X172885000Y-39910000I1J-699999D01*
G01*
X172885000Y-40510000D02*
G75*
G02*
X172185000Y-41210000I-699999J-1D01*
G01*
%TO.C,JP59*%
X140760000Y-58300000D02*
X140760000Y-57700000D01*
X141460000Y-57000000D02*
X142860000Y-57000000D01*
X142860000Y-59000000D02*
X141460000Y-59000000D01*
X143560000Y-57700000D02*
X143560000Y-58300000D01*
X140760000Y-57700000D02*
G75*
G02*
X141460000Y-57000000I700000J0D01*
G01*
X141460000Y-59000000D02*
G75*
G02*
X140760000Y-58300000I0J700000D01*
G01*
X142860000Y-57000000D02*
G75*
G02*
X143560000Y-57700000I1J-699999D01*
G01*
X143560000Y-58300000D02*
G75*
G02*
X142860000Y-59000000I-699999J-1D01*
G01*
%TO.C,JP37*%
X162990000Y-40410000D02*
X162990000Y-39810000D01*
X163690000Y-39110000D02*
X165090000Y-39110000D01*
X165090000Y-41110000D02*
X163690000Y-41110000D01*
X165790000Y-39810000D02*
X165790000Y-40410000D01*
X162990000Y-39810000D02*
G75*
G02*
X163690000Y-39110000I700000J0D01*
G01*
X163690000Y-41110000D02*
G75*
G02*
X162990000Y-40410000I0J700000D01*
G01*
X165090000Y-39110000D02*
G75*
G02*
X165790000Y-39810000I1J-699999D01*
G01*
X165790000Y-40410000D02*
G75*
G02*
X165090000Y-41110000I-699999J-1D01*
G01*
%TO.C,JP82*%
X133685000Y-78610000D02*
X133685000Y-78010000D01*
X134385000Y-77310000D02*
X135785000Y-77310000D01*
X135785000Y-79310000D02*
X134385000Y-79310000D01*
X136485000Y-78010000D02*
X136485000Y-78610000D01*
X133685000Y-78010000D02*
G75*
G02*
X134385000Y-77310000I700000J0D01*
G01*
X134385000Y-79310000D02*
G75*
G02*
X133685000Y-78610000I0J700000D01*
G01*
X135785000Y-77310000D02*
G75*
G02*
X136485000Y-78010000I1J-699999D01*
G01*
X136485000Y-78610000D02*
G75*
G02*
X135785000Y-79310000I-699999J-1D01*
G01*
%TO.C,JP21*%
X169985000Y-35360000D02*
X169985000Y-34760000D01*
X170685000Y-34060000D02*
X172085000Y-34060000D01*
X172085000Y-36060000D02*
X170685000Y-36060000D01*
X172785000Y-34760000D02*
X172785000Y-35360000D01*
X169985000Y-34760000D02*
G75*
G02*
X170685000Y-34060000I700000J0D01*
G01*
X170685000Y-36060000D02*
G75*
G02*
X169985000Y-35360000I0J700000D01*
G01*
X172085000Y-34060000D02*
G75*
G02*
X172785000Y-34760000I1J-699999D01*
G01*
X172785000Y-35360000D02*
G75*
G02*
X172085000Y-36060000I-699999J-1D01*
G01*
%TO.C,e4*%
X102810000Y-76090000D02*
X102810000Y-76690000D01*
X103510000Y-77390000D02*
X104910000Y-77390000D01*
X104910000Y-75390000D02*
X103510000Y-75390000D01*
X105610000Y-76690000D02*
X105610000Y-76090000D01*
X102810000Y-76090000D02*
G75*
G02*
X103510000Y-75390000I700000J0D01*
G01*
X103510000Y-77390000D02*
G75*
G02*
X102810000Y-76690000I0J700000D01*
G01*
X104910000Y-75390000D02*
G75*
G02*
X105610000Y-76090000I1J-699999D01*
G01*
X105610000Y-76690000D02*
G75*
G02*
X104910000Y-77390000I-699999J-1D01*
G01*
%TO.C,JP20*%
X169985000Y-32835000D02*
X169985000Y-32235000D01*
X170685000Y-31535000D02*
X172085000Y-31535000D01*
X172085000Y-33535000D02*
X170685000Y-33535000D01*
X172785000Y-32235000D02*
X172785000Y-32835000D01*
X169985000Y-32235000D02*
G75*
G02*
X170685000Y-31535000I700000J0D01*
G01*
X170685000Y-33535000D02*
G75*
G02*
X169985000Y-32835000I0J700000D01*
G01*
X172085000Y-31535000D02*
G75*
G02*
X172785000Y-32235000I1J-699999D01*
G01*
X172785000Y-32835000D02*
G75*
G02*
X172085000Y-33535000I-699999J-1D01*
G01*
%TO.C,JP35*%
X163050000Y-32890000D02*
X163050000Y-32290000D01*
X163750000Y-31590000D02*
X165150000Y-31590000D01*
X165150000Y-33590000D02*
X163750000Y-33590000D01*
X165850000Y-32290000D02*
X165850000Y-32890000D01*
X163050000Y-32290000D02*
G75*
G02*
X163750000Y-31590000I700000J0D01*
G01*
X163750000Y-33590000D02*
G75*
G02*
X163050000Y-32890000I0J700000D01*
G01*
X165150000Y-31590000D02*
G75*
G02*
X165850000Y-32290000I1J-699999D01*
G01*
X165850000Y-32890000D02*
G75*
G02*
X165150000Y-33590000I-699999J-1D01*
G01*
%TO.C,JP88*%
X117790000Y-123800000D02*
X117790000Y-124400000D01*
X118490000Y-125100000D02*
X119890000Y-125100000D01*
X119890000Y-123100000D02*
X118490000Y-123100000D01*
X120590000Y-124400000D02*
X120590000Y-123800000D01*
X117790000Y-123800000D02*
G75*
G02*
X118490000Y-123100000I700000J0D01*
G01*
X118490000Y-125100000D02*
G75*
G02*
X117790000Y-124400000I0J700000D01*
G01*
X119890000Y-123100000D02*
G75*
G02*
X120590000Y-123800000I1J-699999D01*
G01*
X120590000Y-124400000D02*
G75*
G02*
X119890000Y-125100000I-699999J-1D01*
G01*
%TO.C,JP19*%
X103670000Y-86630000D02*
X103670000Y-88030000D01*
X104370000Y-88730000D02*
X104970000Y-88730000D01*
X104970000Y-85930000D02*
X104370000Y-85930000D01*
X105670000Y-88030000D02*
X105670000Y-86630000D01*
X103670000Y-86630000D02*
G75*
G02*
X104370000Y-85930000I700000J0D01*
G01*
X104370000Y-88730000D02*
G75*
G02*
X103670000Y-88030000I-1J699999D01*
G01*
X104970000Y-85930000D02*
G75*
G02*
X105670000Y-86630000I0J-700000D01*
G01*
X105670000Y-88030000D02*
G75*
G02*
X104970000Y-88730000I-699999J-1D01*
G01*
%TD*%
M02*
