%TF.GenerationSoftware,KiCad,Pcbnew,9.0.7-9.0.7~ubuntu24.04.1*%
%TF.CreationDate,2026-02-20T11:59:03-08:00*%
%TF.ProjectId,Intro-to-CAD-2026,496e7472-6f2d-4746-9f2d-4341442d3230,rev?*%
%TF.SameCoordinates,Original*%
%TF.FileFunction,Paste,Top*%
%TF.FilePolarity,Positive*%
%FSLAX46Y46*%
G04 Gerber Fmt 4.6, Leading zero omitted, Abs format (unit mm)*
G04 Created by KiCad (PCBNEW 9.0.7-9.0.7~ubuntu24.04.1) date 2026-02-20 11:59:03*
%MOMM*%
%LPD*%
G01*
G04 APERTURE LIST*
G04 Aperture macros list*
%AMRoundRect*
0 Rectangle with rounded corners*
0 $1 Rounding radius*
0 $2 $3 $4 $5 $6 $7 $8 $9 X,Y pos of 4 corners*
0 Add a 4 corners polygon primitive as box body*
4,1,4,$2,$3,$4,$5,$6,$7,$8,$9,$2,$3,0*
0 Add four circle primitives for the rounded corners*
1,1,$1+$1,$2,$3*
1,1,$1+$1,$4,$5*
1,1,$1+$1,$6,$7*
1,1,$1+$1,$8,$9*
0 Add four rect primitives between the rounded corners*
20,1,$1+$1,$2,$3,$4,$5,0*
20,1,$1+$1,$4,$5,$6,$7,0*
20,1,$1+$1,$6,$7,$8,$9,0*
20,1,$1+$1,$8,$9,$2,$3,0*%
G04 Aperture macros list end*
%ADD10R,0.700000X0.600000*%
%ADD11RoundRect,0.225000X0.250000X-0.225000X0.250000X0.225000X-0.250000X0.225000X-0.250000X-0.225000X0*%
%ADD12RoundRect,0.248780X0.451220X-0.261220X0.451220X0.261220X-0.451220X0.261220X-0.451220X-0.261220X0*%
%ADD13RoundRect,0.200000X-0.200000X-0.275000X0.200000X-0.275000X0.200000X0.275000X-0.200000X0.275000X0*%
%ADD14RoundRect,0.248780X0.261220X0.451220X-0.261220X0.451220X-0.261220X-0.451220X0.261220X-0.451220X0*%
%ADD15RoundRect,0.250000X0.250000X0.475000X-0.250000X0.475000X-0.250000X-0.475000X0.250000X-0.475000X0*%
%ADD16RoundRect,0.250000X0.650000X-0.425000X0.650000X0.425000X-0.650000X0.425000X-0.650000X-0.425000X0*%
%ADD17RoundRect,0.150000X0.590000X0.150000X-0.590000X0.150000X-0.590000X-0.150000X0.590000X-0.150000X0*%
%ADD18RoundRect,0.250000X0.425000X-1.150000X0.425000X1.150000X-0.425000X1.150000X-0.425000X-1.150000X0*%
%ADD19RoundRect,0.250000X0.500000X-1.150000X0.500000X1.150000X-0.500000X1.150000X-0.500000X-1.150000X0*%
%ADD20RoundRect,0.250000X2.750000X-3.000000X2.750000X3.000000X-2.750000X3.000000X-2.750000X-3.000000X0*%
%ADD21RoundRect,0.248780X-0.261220X-0.451220X0.261220X-0.451220X0.261220X0.451220X-0.261220X0.451220X0*%
%ADD22RoundRect,0.250000X-0.250000X-0.475000X0.250000X-0.475000X0.250000X0.475000X-0.250000X0.475000X0*%
%ADD23RoundRect,0.248780X-0.451220X0.261220X-0.451220X-0.261220X0.451220X-0.261220X0.451220X0.261220X0*%
%ADD24RoundRect,0.250000X0.300000X0.550000X-0.300000X0.550000X-0.300000X-0.550000X0.300000X-0.550000X0*%
%ADD25RoundRect,0.250000X0.325000X0.650000X-0.325000X0.650000X-0.325000X-0.650000X0.325000X-0.650000X0*%
%ADD26RoundRect,0.250000X-0.300000X-0.550000X0.300000X-0.550000X0.300000X0.550000X-0.300000X0.550000X0*%
%ADD27RoundRect,0.250000X0.475000X-0.250000X0.475000X0.250000X-0.475000X0.250000X-0.475000X-0.250000X0*%
%ADD28RoundRect,0.140000X0.140000X0.170000X-0.140000X0.170000X-0.140000X-0.170000X0.140000X-0.170000X0*%
%ADD29RoundRect,0.200000X0.275000X-0.200000X0.275000X0.200000X-0.275000X0.200000X-0.275000X-0.200000X0*%
%ADD30RoundRect,0.250000X-0.425000X-0.650000X0.425000X-0.650000X0.425000X0.650000X-0.425000X0.650000X0*%
%ADD31RoundRect,0.140000X0.170000X-0.140000X0.170000X0.140000X-0.170000X0.140000X-0.170000X-0.140000X0*%
%ADD32RoundRect,0.250000X0.650000X-0.325000X0.650000X0.325000X-0.650000X0.325000X-0.650000X-0.325000X0*%
%ADD33RoundRect,0.250000X-1.000000X-0.650000X1.000000X-0.650000X1.000000X0.650000X-1.000000X0.650000X0*%
%ADD34R,1.200000X0.400000*%
%ADD35RoundRect,0.225000X-0.225000X-0.250000X0.225000X-0.250000X0.225000X0.250000X-0.225000X0.250000X0*%
%ADD36RoundRect,0.150000X-0.150000X0.825000X-0.150000X-0.825000X0.150000X-0.825000X0.150000X0.825000X0*%
%ADD37R,1.600000X0.700000*%
%ADD38R,1.500000X1.200000*%
%ADD39R,2.200000X1.200000*%
%ADD40R,1.500000X1.600000*%
%ADD41RoundRect,0.140000X-0.140000X-0.170000X0.140000X-0.170000X0.140000X0.170000X-0.140000X0.170000X0*%
%ADD42R,2.200000X3.200000*%
%ADD43RoundRect,0.250000X-0.475000X0.250000X-0.475000X-0.250000X0.475000X-0.250000X0.475000X0.250000X0*%
%ADD44RoundRect,0.250000X-0.650000X1.000000X-0.650000X-1.000000X0.650000X-1.000000X0.650000X1.000000X0*%
%ADD45RoundRect,0.249056X-0.410944X-0.925944X0.410944X-0.925944X0.410944X0.925944X-0.410944X0.925944X0*%
%ADD46RoundRect,0.250000X0.450000X0.425000X-0.450000X0.425000X-0.450000X-0.425000X0.450000X-0.425000X0*%
%ADD47RoundRect,0.250000X-0.325000X-0.650000X0.325000X-0.650000X0.325000X0.650000X-0.325000X0.650000X0*%
%ADD48RoundRect,0.200000X0.200000X0.275000X-0.200000X0.275000X-0.200000X-0.275000X0.200000X-0.275000X0*%
%ADD49RoundRect,0.249056X0.410944X0.925944X-0.410944X0.925944X-0.410944X-0.925944X0.410944X-0.925944X0*%
%ADD50RoundRect,0.162500X-0.162500X0.825000X-0.162500X-0.825000X0.162500X-0.825000X0.162500X0.825000X0*%
%ADD51R,0.300000X1.400000*%
%ADD52RoundRect,0.150000X0.825000X0.150000X-0.825000X0.150000X-0.825000X-0.150000X0.825000X-0.150000X0*%
%ADD53RoundRect,0.150000X-0.590000X-0.150000X0.590000X-0.150000X0.590000X0.150000X-0.590000X0.150000X0*%
%ADD54RoundRect,0.220000X0.220000X0.380000X-0.220000X0.380000X-0.220000X-0.380000X0.220000X-0.380000X0*%
%ADD55RoundRect,0.250000X-0.650000X0.325000X-0.650000X-0.325000X0.650000X-0.325000X0.650000X0.325000X0*%
%ADD56RoundRect,0.200000X-0.275000X0.200000X-0.275000X-0.200000X0.275000X-0.200000X0.275000X0.200000X0*%
%ADD57RoundRect,0.250000X-0.425000X0.450000X-0.425000X-0.450000X0.425000X-0.450000X0.425000X0.450000X0*%
%ADD58RoundRect,0.100000X0.100000X-0.637500X0.100000X0.637500X-0.100000X0.637500X-0.100000X-0.637500X0*%
%ADD59RoundRect,0.220000X-0.380000X0.220000X-0.380000X-0.220000X0.380000X-0.220000X0.380000X0.220000X0*%
%ADD60RoundRect,0.220000X0.380000X-0.220000X0.380000X0.220000X-0.380000X0.220000X-0.380000X-0.220000X0*%
%ADD61RoundRect,0.250000X0.425000X-0.450000X0.425000X0.450000X-0.425000X0.450000X-0.425000X-0.450000X0*%
%ADD62R,0.600000X1.000000*%
%ADD63R,0.650000X0.350000*%
%ADD64R,1.670000X0.759999*%
%ADD65R,1.670000X0.760000*%
%ADD66RoundRect,0.250000X-0.550000X0.300000X-0.550000X-0.300000X0.550000X-0.300000X0.550000X0.300000X0*%
%ADD67RoundRect,0.250000X0.650000X-1.000000X0.650000X1.000000X-0.650000X1.000000X-0.650000X-1.000000X0*%
%ADD68RoundRect,0.150000X-0.150000X0.590000X-0.150000X-0.590000X0.150000X-0.590000X0.150000X0.590000X0*%
%ADD69RoundRect,0.250000X-0.400000X-0.300000X0.400000X-0.300000X0.400000X0.300000X-0.400000X0.300000X0*%
%ADD70RoundRect,0.250000X-0.450000X-0.425000X0.450000X-0.425000X0.450000X0.425000X-0.450000X0.425000X0*%
%ADD71R,3.200000X2.200000*%
%ADD72RoundRect,0.150000X-0.825000X-0.150000X0.825000X-0.150000X0.825000X0.150000X-0.825000X0.150000X0*%
%ADD73RoundRect,0.220000X-0.220000X-0.380000X0.220000X-0.380000X0.220000X0.380000X-0.220000X0.380000X0*%
G04 APERTURE END LIST*
D10*
%TO.C,D11*%
X190500000Y-101700000D03*
X191400000Y-101700000D03*
X191400000Y-100200000D03*
X190500000Y-100200000D03*
%TD*%
%TO.C,D10*%
X185500000Y-100200000D03*
X186400000Y-100200000D03*
X186400000Y-101700000D03*
X185500000Y-101700000D03*
%TD*%
%TO.C,D9*%
X180500000Y-101700000D03*
X181400000Y-101700000D03*
X181400000Y-100200000D03*
X180500000Y-100200000D03*
%TD*%
%TO.C,D8*%
X175550000Y-101640000D03*
X176450000Y-101640000D03*
X176450000Y-100140000D03*
X175550000Y-100140000D03*
%TD*%
D11*
%TO.C,C71*%
X189230000Y-104740000D03*
X189230000Y-103180000D03*
%TD*%
%TO.C,C70*%
X184030000Y-104500000D03*
X184030000Y-102940000D03*
%TD*%
%TO.C,C69*%
X179210000Y-104420000D03*
X179210000Y-102860000D03*
%TD*%
%TO.C,C68*%
X174200000Y-104500000D03*
X174200000Y-102940000D03*
%TD*%
D12*
%TO.C,R1*%
X128370000Y-125790000D03*
X128370000Y-123970000D03*
%TD*%
D11*
%TO.C,C14*%
X106750000Y-107820000D03*
X106750000Y-106260000D03*
%TD*%
D13*
%TO.C,R69*%
X119700000Y-36830000D03*
X121340000Y-36830000D03*
%TD*%
D14*
%TO.C,R33*%
X118820000Y-65330000D03*
X117000000Y-65330000D03*
%TD*%
D12*
%TO.C,R9*%
X102800000Y-99260000D03*
X102800000Y-97440000D03*
%TD*%
%TO.C,R28*%
X151490000Y-41050000D03*
X151490000Y-39230000D03*
%TD*%
D15*
%TO.C,C29*%
X113710000Y-79130000D03*
X111810000Y-79130000D03*
%TD*%
D16*
%TO.C,S1*%
X179270000Y-58200000D03*
X179270000Y-54050000D03*
%TD*%
D17*
%TO.C,Q4*%
X186500000Y-127625000D03*
X186500000Y-125725000D03*
X184620000Y-126675000D03*
%TD*%
D18*
%TO.C,U6*%
X150020000Y-62530000D03*
D19*
X154600000Y-62530000D03*
D20*
X152330000Y-55570000D03*
%TD*%
D21*
%TO.C,R7*%
X132860000Y-123070000D03*
X134680000Y-123070000D03*
%TD*%
D11*
%TO.C,C22*%
X115410000Y-107990000D03*
X115410000Y-106430000D03*
%TD*%
D22*
%TO.C,C52*%
X102370000Y-87860000D03*
X104270000Y-87860000D03*
%TD*%
D12*
%TO.C,R37*%
X132710000Y-102620000D03*
X132710000Y-100800000D03*
%TD*%
D22*
%TO.C,C61*%
X167575000Y-124375000D03*
X169475000Y-124375000D03*
%TD*%
D23*
%TO.C,R16*%
X127560000Y-81350000D03*
X127560000Y-83170000D03*
%TD*%
D15*
%TO.C,C25*%
X119400000Y-63270000D03*
X117500000Y-63270000D03*
%TD*%
D24*
%TO.C,D6*%
X164500000Y-129350000D03*
X161700000Y-129350000D03*
%TD*%
D22*
%TO.C,C74*%
X188170000Y-50790000D03*
X190070000Y-50790000D03*
%TD*%
D25*
%TO.C,C42*%
X143830000Y-129420000D03*
X140870000Y-129420000D03*
%TD*%
D15*
%TO.C,C63*%
X156950000Y-122575000D03*
X155050000Y-122575000D03*
%TD*%
D12*
%TO.C,R49*%
X179575000Y-117900000D03*
X179575000Y-116080000D03*
%TD*%
D26*
%TO.C,D5*%
X157650000Y-109000000D03*
X160450000Y-109000000D03*
%TD*%
D27*
%TO.C,C15*%
X132860000Y-99100000D03*
X132860000Y-97200000D03*
%TD*%
D15*
%TO.C,C38*%
X130800000Y-103940000D03*
X128900000Y-103940000D03*
%TD*%
D11*
%TO.C,C16*%
X102990000Y-107890000D03*
X102990000Y-106330000D03*
%TD*%
D22*
%TO.C,C60*%
X181825000Y-116155000D03*
X183725000Y-116155000D03*
%TD*%
%TO.C,C78*%
X188210000Y-55390000D03*
X190110000Y-55390000D03*
%TD*%
D28*
%TO.C,C64*%
X182160000Y-82050000D03*
X181160000Y-82050000D03*
%TD*%
%TO.C,C62*%
X182160000Y-90150000D03*
X181160000Y-90150000D03*
%TD*%
D29*
%TO.C,R19*%
X197940000Y-121570000D03*
X197940000Y-119930000D03*
%TD*%
D12*
%TO.C,R12*%
X116340000Y-97360000D03*
X116340000Y-95540000D03*
%TD*%
D30*
%TO.C,S2*%
X183115000Y-71640000D03*
X187265000Y-71640000D03*
%TD*%
D27*
%TO.C,C20*%
X126320000Y-129200000D03*
X126320000Y-127300000D03*
%TD*%
D31*
%TO.C,R60*%
X101830000Y-106700000D03*
X101830000Y-105700000D03*
%TD*%
D22*
%TO.C,C66*%
X119650000Y-44150000D03*
X121550000Y-44150000D03*
%TD*%
D32*
%TO.C,C34*%
X126480000Y-122240000D03*
X126480000Y-119280000D03*
%TD*%
D31*
%TO.C,R61*%
X113140000Y-107060000D03*
X113140000Y-106060000D03*
%TD*%
D12*
%TO.C,R42*%
X181050000Y-126995000D03*
X181050000Y-125175000D03*
%TD*%
D33*
%TO.C,D1*%
X136960000Y-125890000D03*
X140960000Y-125890000D03*
%TD*%
D34*
%TO.C,U7*%
X105870000Y-112510000D03*
X105870000Y-113145000D03*
X105870000Y-113780000D03*
X105870000Y-114415000D03*
X105870000Y-115050000D03*
X105870000Y-115685000D03*
X105870000Y-116320000D03*
X105870000Y-116955000D03*
X111070000Y-116955000D03*
X111070000Y-116320000D03*
X111070000Y-115685000D03*
X111070000Y-115050000D03*
X111070000Y-114415000D03*
X111070000Y-113780000D03*
X111070000Y-113145000D03*
X111070000Y-112510000D03*
%TD*%
D23*
%TO.C,R34*%
X130750000Y-86620000D03*
X130750000Y-88440000D03*
%TD*%
D14*
%TO.C,R40*%
X165360000Y-126700000D03*
X163540000Y-126700000D03*
%TD*%
D35*
%TO.C,C67*%
X119740000Y-46030000D03*
X121300000Y-46030000D03*
%TD*%
D13*
%TO.C,R30*%
X109550000Y-88260000D03*
X111190000Y-88260000D03*
%TD*%
D21*
%TO.C,R44*%
X169490000Y-126650000D03*
X171310000Y-126650000D03*
%TD*%
D25*
%TO.C,C5*%
X136830000Y-113470000D03*
X133870000Y-113470000D03*
%TD*%
D36*
%TO.C,U9*%
X169287500Y-115225000D03*
X168017500Y-115225000D03*
X166747500Y-115225000D03*
X165477500Y-115225000D03*
X165477500Y-120175000D03*
X166747500Y-120175000D03*
X168017500Y-120175000D03*
X169287500Y-120175000D03*
%TD*%
D37*
%TO.C,J13*%
X115720000Y-46930000D03*
X115720000Y-45830000D03*
X115720000Y-44730000D03*
X115720000Y-43630000D03*
X115720000Y-42530000D03*
X115720000Y-41430000D03*
X115720000Y-40330000D03*
X115720000Y-39230000D03*
D38*
X114720000Y-36930000D03*
D39*
X105120000Y-36930000D03*
X105120000Y-52430000D03*
D40*
X114720000Y-51530000D03*
D37*
X115720000Y-38130000D03*
%TD*%
D15*
%TO.C,C43*%
X156300000Y-65560000D03*
X154400000Y-65560000D03*
%TD*%
D13*
%TO.C,R14*%
X108780000Y-76740000D03*
X110420000Y-76740000D03*
%TD*%
D22*
%TO.C,C79*%
X188230000Y-62430000D03*
X190130000Y-62430000D03*
%TD*%
D12*
%TO.C,R10*%
X126320000Y-125700000D03*
X126320000Y-123880000D03*
%TD*%
D31*
%TO.C,R58*%
X117040000Y-107270000D03*
X117040000Y-106270000D03*
%TD*%
D41*
%TO.C,R64*%
X181160000Y-79750000D03*
X182160000Y-79750000D03*
%TD*%
D42*
%TO.C,J16*%
X108860000Y-57120000D03*
X106860000Y-64920000D03*
X113860000Y-64920000D03*
%TD*%
D22*
%TO.C,C1*%
X113400000Y-117610000D03*
X115300000Y-117610000D03*
%TD*%
D43*
%TO.C,C11*%
X119840000Y-79360000D03*
X119840000Y-81260000D03*
%TD*%
D44*
%TO.C,D3*%
X157590000Y-58910000D03*
X157590000Y-62910000D03*
%TD*%
D11*
%TO.C,C19*%
X110810000Y-107800000D03*
X110810000Y-106240000D03*
%TD*%
D27*
%TO.C,C58*%
X176890000Y-113630000D03*
X176890000Y-111730000D03*
%TD*%
D23*
%TO.C,R45*%
X167625000Y-126690000D03*
X167625000Y-128510000D03*
%TD*%
D14*
%TO.C,R22*%
X117860000Y-56550000D03*
X116040000Y-56550000D03*
%TD*%
D12*
%TO.C,R21*%
X143670000Y-127290000D03*
X143670000Y-125470000D03*
%TD*%
D35*
%TO.C,C40*%
X130350000Y-115260000D03*
X131910000Y-115260000D03*
%TD*%
D14*
%TO.C,R39*%
X159670000Y-120150000D03*
X157850000Y-120150000D03*
%TD*%
D27*
%TO.C,C18*%
X114360000Y-97400000D03*
X114360000Y-95500000D03*
%TD*%
D22*
%TO.C,C77*%
X188250000Y-60070000D03*
X190150000Y-60070000D03*
%TD*%
%TO.C,C51*%
X102270000Y-76570000D03*
X104170000Y-76570000D03*
%TD*%
D14*
%TO.C,R53*%
X161535000Y-122575000D03*
X159715000Y-122575000D03*
%TD*%
D43*
%TO.C,C4*%
X119880000Y-75240000D03*
X119880000Y-77140000D03*
%TD*%
D13*
%TO.C,R66*%
X119700000Y-48430000D03*
X121340000Y-48430000D03*
%TD*%
D45*
%TO.C,C37*%
X121860000Y-109050000D03*
X124940000Y-109050000D03*
%TD*%
D21*
%TO.C,R52*%
X163730000Y-111975000D03*
X165550000Y-111975000D03*
%TD*%
D22*
%TO.C,C72*%
X188180000Y-46040000D03*
X190080000Y-46040000D03*
%TD*%
D46*
%TO.C,C45*%
X122580000Y-55980000D03*
X119880000Y-55980000D03*
%TD*%
D47*
%TO.C,C35*%
X132050000Y-120400000D03*
X135010000Y-120400000D03*
%TD*%
D23*
%TO.C,R31*%
X122170000Y-65070000D03*
X122170000Y-66890000D03*
%TD*%
D21*
%TO.C,R24*%
X129420000Y-66820000D03*
X131240000Y-66820000D03*
%TD*%
D15*
%TO.C,C23*%
X115560000Y-115280000D03*
X113660000Y-115280000D03*
%TD*%
D17*
%TO.C,Q1*%
X149440000Y-41090000D03*
X149440000Y-39190000D03*
X147560000Y-40140000D03*
%TD*%
D21*
%TO.C,R17*%
X127210000Y-74880000D03*
X129030000Y-74880000D03*
%TD*%
D48*
%TO.C,R68*%
X121340000Y-50230000D03*
X119700000Y-50230000D03*
%TD*%
D49*
%TO.C,C46*%
X123940000Y-53040000D03*
X120860000Y-53040000D03*
%TD*%
D50*
%TO.C,U10*%
X181137500Y-46702500D03*
X179867500Y-46702500D03*
X178597500Y-46702500D03*
X177327500Y-46702500D03*
X177327500Y-51777500D03*
X178597500Y-51777500D03*
X179867500Y-51777500D03*
X181137500Y-51777500D03*
%TD*%
D21*
%TO.C,R20*%
X132850000Y-125090000D03*
X134670000Y-125090000D03*
%TD*%
%TO.C,R25*%
X129340000Y-72860000D03*
X131160000Y-72860000D03*
%TD*%
D45*
%TO.C,C36*%
X121860000Y-104700000D03*
X124940000Y-104700000D03*
%TD*%
D43*
%TO.C,C21*%
X107010000Y-90220000D03*
X107010000Y-92120000D03*
%TD*%
D21*
%TO.C,R41*%
X153030000Y-110000000D03*
X154850000Y-110000000D03*
%TD*%
D51*
%TO.C,U4*%
X130850000Y-97330000D03*
X130350000Y-97330000D03*
X129850000Y-97330000D03*
X129350000Y-97330000D03*
X128850000Y-97330000D03*
X128850000Y-101730000D03*
X129350000Y-101730000D03*
X129850000Y-101730000D03*
X130350000Y-101730000D03*
X130850000Y-101730000D03*
%TD*%
D21*
%TO.C,R48*%
X185955000Y-113325000D03*
X187775000Y-113325000D03*
%TD*%
D22*
%TO.C,C7*%
X122000000Y-71620000D03*
X123900000Y-71620000D03*
%TD*%
D52*
%TO.C,U1*%
X129735000Y-60015000D03*
X129735000Y-58745000D03*
X129735000Y-57475000D03*
X129735000Y-56205000D03*
X124785000Y-56205000D03*
X124785000Y-57475000D03*
X124785000Y-58745000D03*
X124785000Y-60015000D03*
%TD*%
D21*
%TO.C,R26*%
X129390000Y-70880000D03*
X131210000Y-70880000D03*
%TD*%
D15*
%TO.C,C53*%
X111420000Y-65500000D03*
X109520000Y-65500000D03*
%TD*%
D53*
%TO.C,Q3*%
X163710000Y-122737500D03*
X163710000Y-124637500D03*
X165590000Y-123687500D03*
%TD*%
D54*
%TO.C,FB7*%
X121760000Y-57940000D03*
X119640000Y-57940000D03*
%TD*%
D12*
%TO.C,R23*%
X147040000Y-76830000D03*
X147040000Y-75010000D03*
%TD*%
%TO.C,R38*%
X127000000Y-102510000D03*
X127000000Y-100690000D03*
%TD*%
D47*
%TO.C,C41*%
X149760000Y-65560000D03*
X152720000Y-65560000D03*
%TD*%
D21*
%TO.C,R46*%
X159765000Y-127100000D03*
X161585000Y-127100000D03*
%TD*%
D55*
%TO.C,C33*%
X118740000Y-97820000D03*
X118740000Y-100780000D03*
%TD*%
D45*
%TO.C,C17*%
X121070000Y-100350000D03*
X124150000Y-100350000D03*
%TD*%
D12*
%TO.C,R8*%
X115130000Y-100790000D03*
X115130000Y-98970000D03*
%TD*%
D15*
%TO.C,C30*%
X116100000Y-93200000D03*
X114200000Y-93200000D03*
%TD*%
D56*
%TO.C,R2*%
X125380000Y-68070000D03*
X125380000Y-69710000D03*
%TD*%
D57*
%TO.C,C9*%
X121570000Y-85580000D03*
X121570000Y-88280000D03*
%TD*%
D58*
%TO.C,U2*%
X121700000Y-80985000D03*
X122350000Y-80985000D03*
X123000000Y-80985000D03*
X123650000Y-80985000D03*
X124300000Y-80985000D03*
X124950000Y-80985000D03*
X125600000Y-80985000D03*
X125600000Y-75260000D03*
X124950000Y-75260000D03*
X124300000Y-75260000D03*
X123650000Y-75260000D03*
X123000000Y-75260000D03*
X122350000Y-75260000D03*
X121700000Y-75260000D03*
%TD*%
D23*
%TO.C,R15*%
X147570000Y-70520000D03*
X147570000Y-72340000D03*
%TD*%
D12*
%TO.C,R35*%
X128680000Y-88390000D03*
X128680000Y-86570000D03*
%TD*%
D15*
%TO.C,C12*%
X122730000Y-59870000D03*
X120830000Y-59870000D03*
%TD*%
D23*
%TO.C,R43*%
X157650000Y-111740000D03*
X157650000Y-113560000D03*
%TD*%
D21*
%TO.C,R27*%
X129400000Y-68850000D03*
X131220000Y-68850000D03*
%TD*%
D14*
%TO.C,R56*%
X177925000Y-126525000D03*
X176105000Y-126525000D03*
%TD*%
D55*
%TO.C,C2*%
X159220000Y-36860000D03*
X159220000Y-39820000D03*
%TD*%
D28*
%TO.C,C27*%
X179840000Y-33030000D03*
X178840000Y-33030000D03*
%TD*%
D22*
%TO.C,C31*%
X103340000Y-103370000D03*
X105240000Y-103370000D03*
%TD*%
D54*
%TO.C,FB5*%
X134620000Y-127180000D03*
X132500000Y-127180000D03*
%TD*%
D23*
%TO.C,R50*%
X183650000Y-111510000D03*
X183650000Y-113330000D03*
%TD*%
D15*
%TO.C,C24*%
X119280000Y-60240000D03*
X117380000Y-60240000D03*
%TD*%
D41*
%TO.C,R63*%
X181160000Y-78550000D03*
X182160000Y-78550000D03*
%TD*%
D59*
%TO.C,FB1*%
X126280000Y-62000000D03*
X126280000Y-64120000D03*
%TD*%
D21*
%TO.C,R6*%
X132240000Y-117580000D03*
X134060000Y-117580000D03*
%TD*%
D60*
%TO.C,FB4*%
X132800000Y-95610000D03*
X132800000Y-93490000D03*
%TD*%
D22*
%TO.C,C80*%
X188250000Y-64730000D03*
X190150000Y-64730000D03*
%TD*%
D61*
%TO.C,C44*%
X117500000Y-79200000D03*
X117500000Y-76500000D03*
%TD*%
D12*
%TO.C,R54*%
X173300000Y-128260000D03*
X173300000Y-126440000D03*
%TD*%
D47*
%TO.C,C54*%
X157670000Y-116800000D03*
X160630000Y-116800000D03*
%TD*%
D56*
%TO.C,R71*%
X104510000Y-64920000D03*
X104510000Y-66560000D03*
%TD*%
D14*
%TO.C,R5*%
X131980000Y-113560000D03*
X130160000Y-113560000D03*
%TD*%
D62*
%TO.C,e1*%
X130400000Y-108570000D03*
X130400000Y-109770000D03*
X131175000Y-108570000D03*
X131175000Y-109770000D03*
D63*
X129237500Y-108195000D03*
X129237500Y-108845000D03*
X129237500Y-109495000D03*
X129237500Y-110145000D03*
X132337500Y-110145000D03*
X132337500Y-109495000D03*
X132337500Y-108845000D03*
X132337500Y-108195000D03*
%TD*%
D23*
%TO.C,R47*%
X184230000Y-120670000D03*
X184230000Y-122490000D03*
%TD*%
D12*
%TO.C,R29*%
X175210000Y-57825000D03*
X175210000Y-56005000D03*
%TD*%
D15*
%TO.C,C49*%
X114270000Y-56560000D03*
X112370000Y-56560000D03*
%TD*%
D21*
%TO.C,R18*%
X127200000Y-76860000D03*
X129020000Y-76860000D03*
%TD*%
D43*
%TO.C,C32*%
X130380000Y-123950000D03*
X130380000Y-125850000D03*
%TD*%
D12*
%TO.C,R36*%
X132020000Y-91950000D03*
X132020000Y-90130000D03*
%TD*%
D22*
%TO.C,C6*%
X125550000Y-71730000D03*
X127450000Y-71730000D03*
%TD*%
D12*
%TO.C,R4*%
X128350000Y-129190000D03*
X128350000Y-127370000D03*
%TD*%
D59*
%TO.C,FB2*%
X137470000Y-121190000D03*
X137470000Y-123310000D03*
%TD*%
D64*
%TO.C,TR1*%
X115368000Y-119145000D03*
D65*
X115368000Y-120415000D03*
X115368000Y-121685000D03*
X115383000Y-122940000D03*
X115333000Y-124240000D03*
X115368000Y-125495000D03*
X115368000Y-126765000D03*
X115368000Y-128035000D03*
X123898000Y-128035000D03*
X123898000Y-126765000D03*
X123898000Y-125495000D03*
X123883000Y-124240000D03*
X123933000Y-122940000D03*
X123898000Y-121685000D03*
X123898000Y-120415000D03*
X123898000Y-119145000D03*
%TD*%
D15*
%TO.C,C55*%
X136430000Y-111180000D03*
X134530000Y-111180000D03*
%TD*%
D12*
%TO.C,R32*%
X118900000Y-54080000D03*
X118900000Y-52260000D03*
%TD*%
D66*
%TO.C,D7*%
X176125000Y-120505000D03*
X176125000Y-123305000D03*
%TD*%
D49*
%TO.C,C47*%
X124320000Y-62640000D03*
X121240000Y-62640000D03*
%TD*%
D12*
%TO.C,R13*%
X102810000Y-95760000D03*
X102810000Y-93940000D03*
%TD*%
D41*
%TO.C,R70*%
X186765000Y-69140000D03*
X187765000Y-69140000D03*
%TD*%
D42*
%TO.C,J12*%
X108520000Y-79750000D03*
X106520000Y-87550000D03*
X113520000Y-87550000D03*
%TD*%
D53*
%TO.C,Q2*%
X153210000Y-111937500D03*
X153210000Y-113837500D03*
X155090000Y-112887500D03*
%TD*%
D22*
%TO.C,C13*%
X120320000Y-83260000D03*
X122220000Y-83260000D03*
%TD*%
D23*
%TO.C,R11*%
X118810000Y-94220000D03*
X118810000Y-96040000D03*
%TD*%
D22*
%TO.C,C59*%
X175425000Y-128900000D03*
X177325000Y-128900000D03*
%TD*%
%TO.C,C76*%
X188180000Y-57720000D03*
X190080000Y-57720000D03*
%TD*%
D21*
%TO.C,R55*%
X167600000Y-112025000D03*
X169420000Y-112025000D03*
%TD*%
D67*
%TO.C,D2*%
X146770000Y-129120000D03*
X146770000Y-125120000D03*
%TD*%
D68*
%TO.C,Q5*%
X181525000Y-120625000D03*
X179625000Y-120625000D03*
X180575000Y-122505000D03*
%TD*%
D69*
%TO.C,X1*%
X127820000Y-91780000D03*
X129920000Y-91780000D03*
X129920000Y-90130000D03*
X127820000Y-90130000D03*
%TD*%
D15*
%TO.C,C3*%
X118050000Y-67730000D03*
X116150000Y-67730000D03*
%TD*%
D26*
%TO.C,D4*%
X171530000Y-114640000D03*
X174330000Y-114640000D03*
%TD*%
D42*
%TO.C,J1*%
X108560000Y-68370000D03*
X106560000Y-76170000D03*
X113560000Y-76170000D03*
%TD*%
D22*
%TO.C,C48*%
X127940000Y-93860000D03*
X129840000Y-93860000D03*
%TD*%
D46*
%TO.C,C39*%
X159200000Y-42850000D03*
X156500000Y-42850000D03*
%TD*%
D48*
%TO.C,R67*%
X121340000Y-38830000D03*
X119700000Y-38830000D03*
%TD*%
D14*
%TO.C,R62*%
X164335000Y-108800000D03*
X162515000Y-108800000D03*
%TD*%
D27*
%TO.C,C26*%
X102730000Y-66710000D03*
X102730000Y-64810000D03*
%TD*%
D22*
%TO.C,C73*%
X188190000Y-48430000D03*
X190090000Y-48430000D03*
%TD*%
D27*
%TO.C,C50*%
X198140000Y-128470000D03*
X198140000Y-126570000D03*
%TD*%
D70*
%TO.C,C8*%
X124000000Y-85440000D03*
X126700000Y-85440000D03*
%TD*%
D60*
%TO.C,FB6*%
X136610000Y-118330000D03*
X136610000Y-116210000D03*
%TD*%
D15*
%TO.C,C56*%
X163425000Y-120100000D03*
X161525000Y-120100000D03*
%TD*%
D71*
%TO.C,J9*%
X190000000Y-122170000D03*
X197800000Y-124170000D03*
X197800000Y-117170000D03*
%TD*%
D21*
%TO.C,R51*%
X179110000Y-113540000D03*
X180930000Y-113540000D03*
%TD*%
D15*
%TO.C,C57*%
X172850000Y-122100000D03*
X170950000Y-122100000D03*
%TD*%
D52*
%TO.C,U5*%
X112230000Y-103540000D03*
X112230000Y-102270000D03*
X112230000Y-101000000D03*
X112230000Y-99730000D03*
X107280000Y-99730000D03*
X107280000Y-101000000D03*
X107280000Y-102270000D03*
X107280000Y-103540000D03*
%TD*%
D15*
%TO.C,C10*%
X125720000Y-83360000D03*
X123820000Y-83360000D03*
%TD*%
D72*
%TO.C,U8*%
X107170000Y-93920000D03*
X107170000Y-95190000D03*
X107170000Y-96460000D03*
X107170000Y-97730000D03*
X112120000Y-97730000D03*
X112120000Y-96460000D03*
X112120000Y-95190000D03*
X112120000Y-93920000D03*
%TD*%
D28*
%TO.C,C65*%
X182160000Y-83250000D03*
X181160000Y-83250000D03*
%TD*%
D31*
%TO.C,R59*%
X109440000Y-106420000D03*
X109440000Y-105420000D03*
%TD*%
D56*
%TO.C,R3*%
X122610000Y-68160000D03*
X122610000Y-69800000D03*
%TD*%
D13*
%TO.C,R65*%
X119700000Y-41430000D03*
X121340000Y-41430000D03*
%TD*%
D27*
%TO.C,C28*%
X104830000Y-95830000D03*
X104830000Y-93930000D03*
%TD*%
D22*
%TO.C,C75*%
X188200000Y-53110000D03*
X190100000Y-53110000D03*
%TD*%
D73*
%TO.C,FB3*%
X113490000Y-113290000D03*
X115610000Y-113290000D03*
%TD*%
D41*
%TO.C,R57*%
X181160000Y-88950000D03*
X182160000Y-88950000D03*
%TD*%
M02*
